M48
;DRILL file {KiCad (5.0.1-3-g963ef8bb5)} date 2019年04月11日 星期四 07:17:38
;FORMAT={-:-/ absolute / inch / decimal}
FMAT,2
INCH,TZ
T1C0.0670
T2C0.1200
T3C0.1570
%
G90
G05
M72
T1
X9.875Y-2.475
X10.275Y-2.475
X3.875Y-1.725
X4.275Y-1.725
X7.625Y-1.725
X8.025Y-1.725
X3.875Y-3.975
X4.275Y-3.975
X5.375Y-2.475
X5.775Y-2.475
X1.625Y-2.475
X2.025Y-2.475
X1.625Y-3.225
X2.025Y-3.225
X9.125Y-3.225
X9.525Y-3.225
X5.375Y-1.725
X5.775Y-1.725
X7.625Y-3.975
X8.025Y-3.975
X2.375Y-3.975
X2.775Y-3.975
X2.375Y-2.475
X2.775Y-2.475
X6.125Y-3.225
X6.525Y-3.225
X9.875Y-3.225
X10.275Y-3.225
X9.125Y-2.475
X9.525Y-2.475
X3.125Y-1.725
X3.525Y-1.725
X6.875Y-1.725
X7.275Y-1.725
X3.125Y-3.975
X3.525Y-3.975
X3.875Y-3.225
X4.275Y-3.225
X7.625Y-2.475
X8.025Y-2.475
X6.775Y-3.975
X7.175Y-3.975
X4.625Y-1.725
X5.025Y-1.725
X5.275Y-3.975
X5.675Y-3.975
X1.625Y-3.975
X2.025Y-3.975
X5.375Y-3.225
X5.775Y-3.225
X8.375Y-2.475
X8.775Y-2.475
X2.375Y-1.725
X2.775Y-1.725
X6.125Y-1.725
X6.525Y-1.725
X3.125Y-3.225
X3.525Y-3.225
X6.875Y-2.475
X7.275Y-2.475
X9.125Y-1.725
X9.525Y-1.725
X3.875Y-2.475
X4.275Y-2.475
X7.625Y-3.225
X8.025Y-3.225
X9.125Y-3.975
X9.525Y-3.975
X4.625Y-3.225
X5.025Y-3.225
X8.375Y-3.225
X8.775Y-3.225
X9.875Y-1.725
X10.275Y-1.725
X1.625Y-1.725
X2.025Y-1.725
X4.625Y-2.475
X5.025Y-2.475
X9.875Y-3.975
X10.275Y-3.975
X2.375Y-3.225
X2.775Y-3.225
X6.125Y-2.475
X6.525Y-2.475
X8.375Y-1.725
X8.775Y-1.725
X3.125Y-2.475
X3.525Y-2.475
X6.875Y-3.225
X7.275Y-3.225
X8.375Y-3.975
X8.775Y-3.975
T2
X5.005Y-3.7
X5.945Y-3.7
T3
X7.825Y-1.725
X4.075Y-3.975
X5.575Y-2.475
X1.825Y-2.475
X1.825Y-3.225
X9.325Y-3.225
X5.575Y-1.725
X7.825Y-3.975
X2.575Y-3.975
X2.575Y-2.475
X6.325Y-3.225
X10.075Y-3.225
X9.325Y-2.475
X3.325Y-1.725
X7.075Y-1.725
X3.325Y-3.975
X4.075Y-3.225
X7.825Y-2.475
X6.975Y-3.975
X4.825Y-1.725
X5.005Y-4.3
X5.475Y-3.975
X5.945Y-4.3
X1.825Y-3.975
X5.575Y-3.225
X8.575Y-2.475
X2.575Y-1.725
X6.325Y-1.725
X3.325Y-3.225
X7.075Y-2.475
X9.325Y-1.725
X4.075Y-2.475
X7.825Y-3.225
X9.325Y-3.975
X4.825Y-3.225
X8.575Y-3.225
X10.075Y-1.725
X1.825Y-1.725
X4.825Y-2.475
X10.075Y-3.975
X2.575Y-3.225
X6.325Y-2.475
X8.575Y-1.725
X3.325Y-2.475
X7.075Y-3.225
X8.575Y-3.975
X10.075Y-2.475
X4.075Y-1.725
T0
M30
