G04 #@! TF.GenerationSoftware,KiCad,Pcbnew,(5.0.1-3-g963ef8bb5)*
G04 #@! TF.CreationDate,2019-04-11T19:17:33+08:00*
G04 #@! TF.ProjectId,keyboard_arduino,6B6579626F6172645F61726475696E6F,a*
G04 #@! TF.SameCoordinates,Original*
G04 #@! TF.FileFunction,Paste,Bot*
G04 #@! TF.FilePolarity,Positive*
%FSLAX46Y46*%
G04 Gerber Fmt 4.6, Leading zero omitted, Abs format (unit mm)*
G04 Created by KiCad (PCBNEW (5.0.1-3-g963ef8bb5)) date 2019年04月11日 星期四 07:17:33*
%MOMM*%
%LPD*%
G01*
G04 APERTURE LIST*
%ADD10C,0.100000*%
%ADD11C,1.250000*%
%ADD12R,1.500000X1.500000*%
G04 APERTURE END LIST*
D10*
G04 #@! TO.C,D11*
G36*
X45354504Y-48021204D02*
X45378773Y-48024804D01*
X45402571Y-48030765D01*
X45425671Y-48039030D01*
X45447849Y-48049520D01*
X45468893Y-48062133D01*
X45488598Y-48076747D01*
X45506777Y-48093223D01*
X45523253Y-48111402D01*
X45537867Y-48131107D01*
X45550480Y-48152151D01*
X45560970Y-48174329D01*
X45569235Y-48197429D01*
X45575196Y-48221227D01*
X45578796Y-48245496D01*
X45580000Y-48270000D01*
X45580000Y-49520000D01*
X45578796Y-49544504D01*
X45575196Y-49568773D01*
X45569235Y-49592571D01*
X45560970Y-49615671D01*
X45550480Y-49637849D01*
X45537867Y-49658893D01*
X45523253Y-49678598D01*
X45506777Y-49696777D01*
X45488598Y-49713253D01*
X45468893Y-49727867D01*
X45447849Y-49740480D01*
X45425671Y-49750970D01*
X45402571Y-49759235D01*
X45378773Y-49765196D01*
X45354504Y-49768796D01*
X45330000Y-49770000D01*
X44580000Y-49770000D01*
X44555496Y-49768796D01*
X44531227Y-49765196D01*
X44507429Y-49759235D01*
X44484329Y-49750970D01*
X44462151Y-49740480D01*
X44441107Y-49727867D01*
X44421402Y-49713253D01*
X44403223Y-49696777D01*
X44386747Y-49678598D01*
X44372133Y-49658893D01*
X44359520Y-49637849D01*
X44349030Y-49615671D01*
X44340765Y-49592571D01*
X44334804Y-49568773D01*
X44331204Y-49544504D01*
X44330000Y-49520000D01*
X44330000Y-48270000D01*
X44331204Y-48245496D01*
X44334804Y-48221227D01*
X44340765Y-48197429D01*
X44349030Y-48174329D01*
X44359520Y-48152151D01*
X44372133Y-48131107D01*
X44386747Y-48111402D01*
X44403223Y-48093223D01*
X44421402Y-48076747D01*
X44441107Y-48062133D01*
X44462151Y-48049520D01*
X44484329Y-48039030D01*
X44507429Y-48030765D01*
X44531227Y-48024804D01*
X44555496Y-48021204D01*
X44580000Y-48020000D01*
X45330000Y-48020000D01*
X45354504Y-48021204D01*
X45354504Y-48021204D01*
G37*
D11*
X44955000Y-48895000D03*
D10*
G36*
X48154504Y-48021204D02*
X48178773Y-48024804D01*
X48202571Y-48030765D01*
X48225671Y-48039030D01*
X48247849Y-48049520D01*
X48268893Y-48062133D01*
X48288598Y-48076747D01*
X48306777Y-48093223D01*
X48323253Y-48111402D01*
X48337867Y-48131107D01*
X48350480Y-48152151D01*
X48360970Y-48174329D01*
X48369235Y-48197429D01*
X48375196Y-48221227D01*
X48378796Y-48245496D01*
X48380000Y-48270000D01*
X48380000Y-49520000D01*
X48378796Y-49544504D01*
X48375196Y-49568773D01*
X48369235Y-49592571D01*
X48360970Y-49615671D01*
X48350480Y-49637849D01*
X48337867Y-49658893D01*
X48323253Y-49678598D01*
X48306777Y-49696777D01*
X48288598Y-49713253D01*
X48268893Y-49727867D01*
X48247849Y-49740480D01*
X48225671Y-49750970D01*
X48202571Y-49759235D01*
X48178773Y-49765196D01*
X48154504Y-49768796D01*
X48130000Y-49770000D01*
X47380000Y-49770000D01*
X47355496Y-49768796D01*
X47331227Y-49765196D01*
X47307429Y-49759235D01*
X47284329Y-49750970D01*
X47262151Y-49740480D01*
X47241107Y-49727867D01*
X47221402Y-49713253D01*
X47203223Y-49696777D01*
X47186747Y-49678598D01*
X47172133Y-49658893D01*
X47159520Y-49637849D01*
X47149030Y-49615671D01*
X47140765Y-49592571D01*
X47134804Y-49568773D01*
X47131204Y-49544504D01*
X47130000Y-49520000D01*
X47130000Y-48270000D01*
X47131204Y-48245496D01*
X47134804Y-48221227D01*
X47140765Y-48197429D01*
X47149030Y-48174329D01*
X47159520Y-48152151D01*
X47172133Y-48131107D01*
X47186747Y-48111402D01*
X47203223Y-48093223D01*
X47221402Y-48076747D01*
X47241107Y-48062133D01*
X47262151Y-48049520D01*
X47284329Y-48039030D01*
X47307429Y-48030765D01*
X47331227Y-48024804D01*
X47355496Y-48021204D01*
X47380000Y-48020000D01*
X48130000Y-48020000D01*
X48154504Y-48021204D01*
X48154504Y-48021204D01*
G37*
D11*
X47755000Y-48895000D03*
G04 #@! TD*
D10*
G04 #@! TO.C,D12*
G36*
X64404504Y-48021204D02*
X64428773Y-48024804D01*
X64452571Y-48030765D01*
X64475671Y-48039030D01*
X64497849Y-48049520D01*
X64518893Y-48062133D01*
X64538598Y-48076747D01*
X64556777Y-48093223D01*
X64573253Y-48111402D01*
X64587867Y-48131107D01*
X64600480Y-48152151D01*
X64610970Y-48174329D01*
X64619235Y-48197429D01*
X64625196Y-48221227D01*
X64628796Y-48245496D01*
X64630000Y-48270000D01*
X64630000Y-49520000D01*
X64628796Y-49544504D01*
X64625196Y-49568773D01*
X64619235Y-49592571D01*
X64610970Y-49615671D01*
X64600480Y-49637849D01*
X64587867Y-49658893D01*
X64573253Y-49678598D01*
X64556777Y-49696777D01*
X64538598Y-49713253D01*
X64518893Y-49727867D01*
X64497849Y-49740480D01*
X64475671Y-49750970D01*
X64452571Y-49759235D01*
X64428773Y-49765196D01*
X64404504Y-49768796D01*
X64380000Y-49770000D01*
X63630000Y-49770000D01*
X63605496Y-49768796D01*
X63581227Y-49765196D01*
X63557429Y-49759235D01*
X63534329Y-49750970D01*
X63512151Y-49740480D01*
X63491107Y-49727867D01*
X63471402Y-49713253D01*
X63453223Y-49696777D01*
X63436747Y-49678598D01*
X63422133Y-49658893D01*
X63409520Y-49637849D01*
X63399030Y-49615671D01*
X63390765Y-49592571D01*
X63384804Y-49568773D01*
X63381204Y-49544504D01*
X63380000Y-49520000D01*
X63380000Y-48270000D01*
X63381204Y-48245496D01*
X63384804Y-48221227D01*
X63390765Y-48197429D01*
X63399030Y-48174329D01*
X63409520Y-48152151D01*
X63422133Y-48131107D01*
X63436747Y-48111402D01*
X63453223Y-48093223D01*
X63471402Y-48076747D01*
X63491107Y-48062133D01*
X63512151Y-48049520D01*
X63534329Y-48039030D01*
X63557429Y-48030765D01*
X63581227Y-48024804D01*
X63605496Y-48021204D01*
X63630000Y-48020000D01*
X64380000Y-48020000D01*
X64404504Y-48021204D01*
X64404504Y-48021204D01*
G37*
D11*
X64005000Y-48895000D03*
D10*
G36*
X67204504Y-48021204D02*
X67228773Y-48024804D01*
X67252571Y-48030765D01*
X67275671Y-48039030D01*
X67297849Y-48049520D01*
X67318893Y-48062133D01*
X67338598Y-48076747D01*
X67356777Y-48093223D01*
X67373253Y-48111402D01*
X67387867Y-48131107D01*
X67400480Y-48152151D01*
X67410970Y-48174329D01*
X67419235Y-48197429D01*
X67425196Y-48221227D01*
X67428796Y-48245496D01*
X67430000Y-48270000D01*
X67430000Y-49520000D01*
X67428796Y-49544504D01*
X67425196Y-49568773D01*
X67419235Y-49592571D01*
X67410970Y-49615671D01*
X67400480Y-49637849D01*
X67387867Y-49658893D01*
X67373253Y-49678598D01*
X67356777Y-49696777D01*
X67338598Y-49713253D01*
X67318893Y-49727867D01*
X67297849Y-49740480D01*
X67275671Y-49750970D01*
X67252571Y-49759235D01*
X67228773Y-49765196D01*
X67204504Y-49768796D01*
X67180000Y-49770000D01*
X66430000Y-49770000D01*
X66405496Y-49768796D01*
X66381227Y-49765196D01*
X66357429Y-49759235D01*
X66334329Y-49750970D01*
X66312151Y-49740480D01*
X66291107Y-49727867D01*
X66271402Y-49713253D01*
X66253223Y-49696777D01*
X66236747Y-49678598D01*
X66222133Y-49658893D01*
X66209520Y-49637849D01*
X66199030Y-49615671D01*
X66190765Y-49592571D01*
X66184804Y-49568773D01*
X66181204Y-49544504D01*
X66180000Y-49520000D01*
X66180000Y-48270000D01*
X66181204Y-48245496D01*
X66184804Y-48221227D01*
X66190765Y-48197429D01*
X66199030Y-48174329D01*
X66209520Y-48152151D01*
X66222133Y-48131107D01*
X66236747Y-48111402D01*
X66253223Y-48093223D01*
X66271402Y-48076747D01*
X66291107Y-48062133D01*
X66312151Y-48049520D01*
X66334329Y-48039030D01*
X66357429Y-48030765D01*
X66381227Y-48024804D01*
X66405496Y-48021204D01*
X66430000Y-48020000D01*
X67180000Y-48020000D01*
X67204504Y-48021204D01*
X67204504Y-48021204D01*
G37*
D11*
X66805000Y-48895000D03*
G04 #@! TD*
D10*
G04 #@! TO.C,D13*
G36*
X83454504Y-48021204D02*
X83478773Y-48024804D01*
X83502571Y-48030765D01*
X83525671Y-48039030D01*
X83547849Y-48049520D01*
X83568893Y-48062133D01*
X83588598Y-48076747D01*
X83606777Y-48093223D01*
X83623253Y-48111402D01*
X83637867Y-48131107D01*
X83650480Y-48152151D01*
X83660970Y-48174329D01*
X83669235Y-48197429D01*
X83675196Y-48221227D01*
X83678796Y-48245496D01*
X83680000Y-48270000D01*
X83680000Y-49520000D01*
X83678796Y-49544504D01*
X83675196Y-49568773D01*
X83669235Y-49592571D01*
X83660970Y-49615671D01*
X83650480Y-49637849D01*
X83637867Y-49658893D01*
X83623253Y-49678598D01*
X83606777Y-49696777D01*
X83588598Y-49713253D01*
X83568893Y-49727867D01*
X83547849Y-49740480D01*
X83525671Y-49750970D01*
X83502571Y-49759235D01*
X83478773Y-49765196D01*
X83454504Y-49768796D01*
X83430000Y-49770000D01*
X82680000Y-49770000D01*
X82655496Y-49768796D01*
X82631227Y-49765196D01*
X82607429Y-49759235D01*
X82584329Y-49750970D01*
X82562151Y-49740480D01*
X82541107Y-49727867D01*
X82521402Y-49713253D01*
X82503223Y-49696777D01*
X82486747Y-49678598D01*
X82472133Y-49658893D01*
X82459520Y-49637849D01*
X82449030Y-49615671D01*
X82440765Y-49592571D01*
X82434804Y-49568773D01*
X82431204Y-49544504D01*
X82430000Y-49520000D01*
X82430000Y-48270000D01*
X82431204Y-48245496D01*
X82434804Y-48221227D01*
X82440765Y-48197429D01*
X82449030Y-48174329D01*
X82459520Y-48152151D01*
X82472133Y-48131107D01*
X82486747Y-48111402D01*
X82503223Y-48093223D01*
X82521402Y-48076747D01*
X82541107Y-48062133D01*
X82562151Y-48049520D01*
X82584329Y-48039030D01*
X82607429Y-48030765D01*
X82631227Y-48024804D01*
X82655496Y-48021204D01*
X82680000Y-48020000D01*
X83430000Y-48020000D01*
X83454504Y-48021204D01*
X83454504Y-48021204D01*
G37*
D11*
X83055000Y-48895000D03*
D10*
G36*
X86254504Y-48021204D02*
X86278773Y-48024804D01*
X86302571Y-48030765D01*
X86325671Y-48039030D01*
X86347849Y-48049520D01*
X86368893Y-48062133D01*
X86388598Y-48076747D01*
X86406777Y-48093223D01*
X86423253Y-48111402D01*
X86437867Y-48131107D01*
X86450480Y-48152151D01*
X86460970Y-48174329D01*
X86469235Y-48197429D01*
X86475196Y-48221227D01*
X86478796Y-48245496D01*
X86480000Y-48270000D01*
X86480000Y-49520000D01*
X86478796Y-49544504D01*
X86475196Y-49568773D01*
X86469235Y-49592571D01*
X86460970Y-49615671D01*
X86450480Y-49637849D01*
X86437867Y-49658893D01*
X86423253Y-49678598D01*
X86406777Y-49696777D01*
X86388598Y-49713253D01*
X86368893Y-49727867D01*
X86347849Y-49740480D01*
X86325671Y-49750970D01*
X86302571Y-49759235D01*
X86278773Y-49765196D01*
X86254504Y-49768796D01*
X86230000Y-49770000D01*
X85480000Y-49770000D01*
X85455496Y-49768796D01*
X85431227Y-49765196D01*
X85407429Y-49759235D01*
X85384329Y-49750970D01*
X85362151Y-49740480D01*
X85341107Y-49727867D01*
X85321402Y-49713253D01*
X85303223Y-49696777D01*
X85286747Y-49678598D01*
X85272133Y-49658893D01*
X85259520Y-49637849D01*
X85249030Y-49615671D01*
X85240765Y-49592571D01*
X85234804Y-49568773D01*
X85231204Y-49544504D01*
X85230000Y-49520000D01*
X85230000Y-48270000D01*
X85231204Y-48245496D01*
X85234804Y-48221227D01*
X85240765Y-48197429D01*
X85249030Y-48174329D01*
X85259520Y-48152151D01*
X85272133Y-48131107D01*
X85286747Y-48111402D01*
X85303223Y-48093223D01*
X85321402Y-48076747D01*
X85341107Y-48062133D01*
X85362151Y-48049520D01*
X85384329Y-48039030D01*
X85407429Y-48030765D01*
X85431227Y-48024804D01*
X85455496Y-48021204D01*
X85480000Y-48020000D01*
X86230000Y-48020000D01*
X86254504Y-48021204D01*
X86254504Y-48021204D01*
G37*
D11*
X85855000Y-48895000D03*
G04 #@! TD*
D10*
G04 #@! TO.C,D14*
G36*
X102504504Y-48021204D02*
X102528773Y-48024804D01*
X102552571Y-48030765D01*
X102575671Y-48039030D01*
X102597849Y-48049520D01*
X102618893Y-48062133D01*
X102638598Y-48076747D01*
X102656777Y-48093223D01*
X102673253Y-48111402D01*
X102687867Y-48131107D01*
X102700480Y-48152151D01*
X102710970Y-48174329D01*
X102719235Y-48197429D01*
X102725196Y-48221227D01*
X102728796Y-48245496D01*
X102730000Y-48270000D01*
X102730000Y-49520000D01*
X102728796Y-49544504D01*
X102725196Y-49568773D01*
X102719235Y-49592571D01*
X102710970Y-49615671D01*
X102700480Y-49637849D01*
X102687867Y-49658893D01*
X102673253Y-49678598D01*
X102656777Y-49696777D01*
X102638598Y-49713253D01*
X102618893Y-49727867D01*
X102597849Y-49740480D01*
X102575671Y-49750970D01*
X102552571Y-49759235D01*
X102528773Y-49765196D01*
X102504504Y-49768796D01*
X102480000Y-49770000D01*
X101730000Y-49770000D01*
X101705496Y-49768796D01*
X101681227Y-49765196D01*
X101657429Y-49759235D01*
X101634329Y-49750970D01*
X101612151Y-49740480D01*
X101591107Y-49727867D01*
X101571402Y-49713253D01*
X101553223Y-49696777D01*
X101536747Y-49678598D01*
X101522133Y-49658893D01*
X101509520Y-49637849D01*
X101499030Y-49615671D01*
X101490765Y-49592571D01*
X101484804Y-49568773D01*
X101481204Y-49544504D01*
X101480000Y-49520000D01*
X101480000Y-48270000D01*
X101481204Y-48245496D01*
X101484804Y-48221227D01*
X101490765Y-48197429D01*
X101499030Y-48174329D01*
X101509520Y-48152151D01*
X101522133Y-48131107D01*
X101536747Y-48111402D01*
X101553223Y-48093223D01*
X101571402Y-48076747D01*
X101591107Y-48062133D01*
X101612151Y-48049520D01*
X101634329Y-48039030D01*
X101657429Y-48030765D01*
X101681227Y-48024804D01*
X101705496Y-48021204D01*
X101730000Y-48020000D01*
X102480000Y-48020000D01*
X102504504Y-48021204D01*
X102504504Y-48021204D01*
G37*
D11*
X102105000Y-48895000D03*
D10*
G36*
X105304504Y-48021204D02*
X105328773Y-48024804D01*
X105352571Y-48030765D01*
X105375671Y-48039030D01*
X105397849Y-48049520D01*
X105418893Y-48062133D01*
X105438598Y-48076747D01*
X105456777Y-48093223D01*
X105473253Y-48111402D01*
X105487867Y-48131107D01*
X105500480Y-48152151D01*
X105510970Y-48174329D01*
X105519235Y-48197429D01*
X105525196Y-48221227D01*
X105528796Y-48245496D01*
X105530000Y-48270000D01*
X105530000Y-49520000D01*
X105528796Y-49544504D01*
X105525196Y-49568773D01*
X105519235Y-49592571D01*
X105510970Y-49615671D01*
X105500480Y-49637849D01*
X105487867Y-49658893D01*
X105473253Y-49678598D01*
X105456777Y-49696777D01*
X105438598Y-49713253D01*
X105418893Y-49727867D01*
X105397849Y-49740480D01*
X105375671Y-49750970D01*
X105352571Y-49759235D01*
X105328773Y-49765196D01*
X105304504Y-49768796D01*
X105280000Y-49770000D01*
X104530000Y-49770000D01*
X104505496Y-49768796D01*
X104481227Y-49765196D01*
X104457429Y-49759235D01*
X104434329Y-49750970D01*
X104412151Y-49740480D01*
X104391107Y-49727867D01*
X104371402Y-49713253D01*
X104353223Y-49696777D01*
X104336747Y-49678598D01*
X104322133Y-49658893D01*
X104309520Y-49637849D01*
X104299030Y-49615671D01*
X104290765Y-49592571D01*
X104284804Y-49568773D01*
X104281204Y-49544504D01*
X104280000Y-49520000D01*
X104280000Y-48270000D01*
X104281204Y-48245496D01*
X104284804Y-48221227D01*
X104290765Y-48197429D01*
X104299030Y-48174329D01*
X104309520Y-48152151D01*
X104322133Y-48131107D01*
X104336747Y-48111402D01*
X104353223Y-48093223D01*
X104371402Y-48076747D01*
X104391107Y-48062133D01*
X104412151Y-48049520D01*
X104434329Y-48039030D01*
X104457429Y-48030765D01*
X104481227Y-48024804D01*
X104505496Y-48021204D01*
X104530000Y-48020000D01*
X105280000Y-48020000D01*
X105304504Y-48021204D01*
X105304504Y-48021204D01*
G37*
D11*
X104905000Y-48895000D03*
G04 #@! TD*
D10*
G04 #@! TO.C,D15*
G36*
X121554504Y-48021204D02*
X121578773Y-48024804D01*
X121602571Y-48030765D01*
X121625671Y-48039030D01*
X121647849Y-48049520D01*
X121668893Y-48062133D01*
X121688598Y-48076747D01*
X121706777Y-48093223D01*
X121723253Y-48111402D01*
X121737867Y-48131107D01*
X121750480Y-48152151D01*
X121760970Y-48174329D01*
X121769235Y-48197429D01*
X121775196Y-48221227D01*
X121778796Y-48245496D01*
X121780000Y-48270000D01*
X121780000Y-49520000D01*
X121778796Y-49544504D01*
X121775196Y-49568773D01*
X121769235Y-49592571D01*
X121760970Y-49615671D01*
X121750480Y-49637849D01*
X121737867Y-49658893D01*
X121723253Y-49678598D01*
X121706777Y-49696777D01*
X121688598Y-49713253D01*
X121668893Y-49727867D01*
X121647849Y-49740480D01*
X121625671Y-49750970D01*
X121602571Y-49759235D01*
X121578773Y-49765196D01*
X121554504Y-49768796D01*
X121530000Y-49770000D01*
X120780000Y-49770000D01*
X120755496Y-49768796D01*
X120731227Y-49765196D01*
X120707429Y-49759235D01*
X120684329Y-49750970D01*
X120662151Y-49740480D01*
X120641107Y-49727867D01*
X120621402Y-49713253D01*
X120603223Y-49696777D01*
X120586747Y-49678598D01*
X120572133Y-49658893D01*
X120559520Y-49637849D01*
X120549030Y-49615671D01*
X120540765Y-49592571D01*
X120534804Y-49568773D01*
X120531204Y-49544504D01*
X120530000Y-49520000D01*
X120530000Y-48270000D01*
X120531204Y-48245496D01*
X120534804Y-48221227D01*
X120540765Y-48197429D01*
X120549030Y-48174329D01*
X120559520Y-48152151D01*
X120572133Y-48131107D01*
X120586747Y-48111402D01*
X120603223Y-48093223D01*
X120621402Y-48076747D01*
X120641107Y-48062133D01*
X120662151Y-48049520D01*
X120684329Y-48039030D01*
X120707429Y-48030765D01*
X120731227Y-48024804D01*
X120755496Y-48021204D01*
X120780000Y-48020000D01*
X121530000Y-48020000D01*
X121554504Y-48021204D01*
X121554504Y-48021204D01*
G37*
D11*
X121155000Y-48895000D03*
D10*
G36*
X124354504Y-48021204D02*
X124378773Y-48024804D01*
X124402571Y-48030765D01*
X124425671Y-48039030D01*
X124447849Y-48049520D01*
X124468893Y-48062133D01*
X124488598Y-48076747D01*
X124506777Y-48093223D01*
X124523253Y-48111402D01*
X124537867Y-48131107D01*
X124550480Y-48152151D01*
X124560970Y-48174329D01*
X124569235Y-48197429D01*
X124575196Y-48221227D01*
X124578796Y-48245496D01*
X124580000Y-48270000D01*
X124580000Y-49520000D01*
X124578796Y-49544504D01*
X124575196Y-49568773D01*
X124569235Y-49592571D01*
X124560970Y-49615671D01*
X124550480Y-49637849D01*
X124537867Y-49658893D01*
X124523253Y-49678598D01*
X124506777Y-49696777D01*
X124488598Y-49713253D01*
X124468893Y-49727867D01*
X124447849Y-49740480D01*
X124425671Y-49750970D01*
X124402571Y-49759235D01*
X124378773Y-49765196D01*
X124354504Y-49768796D01*
X124330000Y-49770000D01*
X123580000Y-49770000D01*
X123555496Y-49768796D01*
X123531227Y-49765196D01*
X123507429Y-49759235D01*
X123484329Y-49750970D01*
X123462151Y-49740480D01*
X123441107Y-49727867D01*
X123421402Y-49713253D01*
X123403223Y-49696777D01*
X123386747Y-49678598D01*
X123372133Y-49658893D01*
X123359520Y-49637849D01*
X123349030Y-49615671D01*
X123340765Y-49592571D01*
X123334804Y-49568773D01*
X123331204Y-49544504D01*
X123330000Y-49520000D01*
X123330000Y-48270000D01*
X123331204Y-48245496D01*
X123334804Y-48221227D01*
X123340765Y-48197429D01*
X123349030Y-48174329D01*
X123359520Y-48152151D01*
X123372133Y-48131107D01*
X123386747Y-48111402D01*
X123403223Y-48093223D01*
X123421402Y-48076747D01*
X123441107Y-48062133D01*
X123462151Y-48049520D01*
X123484329Y-48039030D01*
X123507429Y-48030765D01*
X123531227Y-48024804D01*
X123555496Y-48021204D01*
X123580000Y-48020000D01*
X124330000Y-48020000D01*
X124354504Y-48021204D01*
X124354504Y-48021204D01*
G37*
D11*
X123955000Y-48895000D03*
G04 #@! TD*
D10*
G04 #@! TO.C,D16*
G36*
X140604504Y-48021204D02*
X140628773Y-48024804D01*
X140652571Y-48030765D01*
X140675671Y-48039030D01*
X140697849Y-48049520D01*
X140718893Y-48062133D01*
X140738598Y-48076747D01*
X140756777Y-48093223D01*
X140773253Y-48111402D01*
X140787867Y-48131107D01*
X140800480Y-48152151D01*
X140810970Y-48174329D01*
X140819235Y-48197429D01*
X140825196Y-48221227D01*
X140828796Y-48245496D01*
X140830000Y-48270000D01*
X140830000Y-49520000D01*
X140828796Y-49544504D01*
X140825196Y-49568773D01*
X140819235Y-49592571D01*
X140810970Y-49615671D01*
X140800480Y-49637849D01*
X140787867Y-49658893D01*
X140773253Y-49678598D01*
X140756777Y-49696777D01*
X140738598Y-49713253D01*
X140718893Y-49727867D01*
X140697849Y-49740480D01*
X140675671Y-49750970D01*
X140652571Y-49759235D01*
X140628773Y-49765196D01*
X140604504Y-49768796D01*
X140580000Y-49770000D01*
X139830000Y-49770000D01*
X139805496Y-49768796D01*
X139781227Y-49765196D01*
X139757429Y-49759235D01*
X139734329Y-49750970D01*
X139712151Y-49740480D01*
X139691107Y-49727867D01*
X139671402Y-49713253D01*
X139653223Y-49696777D01*
X139636747Y-49678598D01*
X139622133Y-49658893D01*
X139609520Y-49637849D01*
X139599030Y-49615671D01*
X139590765Y-49592571D01*
X139584804Y-49568773D01*
X139581204Y-49544504D01*
X139580000Y-49520000D01*
X139580000Y-48270000D01*
X139581204Y-48245496D01*
X139584804Y-48221227D01*
X139590765Y-48197429D01*
X139599030Y-48174329D01*
X139609520Y-48152151D01*
X139622133Y-48131107D01*
X139636747Y-48111402D01*
X139653223Y-48093223D01*
X139671402Y-48076747D01*
X139691107Y-48062133D01*
X139712151Y-48049520D01*
X139734329Y-48039030D01*
X139757429Y-48030765D01*
X139781227Y-48024804D01*
X139805496Y-48021204D01*
X139830000Y-48020000D01*
X140580000Y-48020000D01*
X140604504Y-48021204D01*
X140604504Y-48021204D01*
G37*
D11*
X140205000Y-48895000D03*
D10*
G36*
X143404504Y-48021204D02*
X143428773Y-48024804D01*
X143452571Y-48030765D01*
X143475671Y-48039030D01*
X143497849Y-48049520D01*
X143518893Y-48062133D01*
X143538598Y-48076747D01*
X143556777Y-48093223D01*
X143573253Y-48111402D01*
X143587867Y-48131107D01*
X143600480Y-48152151D01*
X143610970Y-48174329D01*
X143619235Y-48197429D01*
X143625196Y-48221227D01*
X143628796Y-48245496D01*
X143630000Y-48270000D01*
X143630000Y-49520000D01*
X143628796Y-49544504D01*
X143625196Y-49568773D01*
X143619235Y-49592571D01*
X143610970Y-49615671D01*
X143600480Y-49637849D01*
X143587867Y-49658893D01*
X143573253Y-49678598D01*
X143556777Y-49696777D01*
X143538598Y-49713253D01*
X143518893Y-49727867D01*
X143497849Y-49740480D01*
X143475671Y-49750970D01*
X143452571Y-49759235D01*
X143428773Y-49765196D01*
X143404504Y-49768796D01*
X143380000Y-49770000D01*
X142630000Y-49770000D01*
X142605496Y-49768796D01*
X142581227Y-49765196D01*
X142557429Y-49759235D01*
X142534329Y-49750970D01*
X142512151Y-49740480D01*
X142491107Y-49727867D01*
X142471402Y-49713253D01*
X142453223Y-49696777D01*
X142436747Y-49678598D01*
X142422133Y-49658893D01*
X142409520Y-49637849D01*
X142399030Y-49615671D01*
X142390765Y-49592571D01*
X142384804Y-49568773D01*
X142381204Y-49544504D01*
X142380000Y-49520000D01*
X142380000Y-48270000D01*
X142381204Y-48245496D01*
X142384804Y-48221227D01*
X142390765Y-48197429D01*
X142399030Y-48174329D01*
X142409520Y-48152151D01*
X142422133Y-48131107D01*
X142436747Y-48111402D01*
X142453223Y-48093223D01*
X142471402Y-48076747D01*
X142491107Y-48062133D01*
X142512151Y-48049520D01*
X142534329Y-48039030D01*
X142557429Y-48030765D01*
X142581227Y-48024804D01*
X142605496Y-48021204D01*
X142630000Y-48020000D01*
X143380000Y-48020000D01*
X143404504Y-48021204D01*
X143404504Y-48021204D01*
G37*
D11*
X143005000Y-48895000D03*
G04 #@! TD*
D10*
G04 #@! TO.C,D17*
G36*
X159524504Y-48021204D02*
X159548773Y-48024804D01*
X159572571Y-48030765D01*
X159595671Y-48039030D01*
X159617849Y-48049520D01*
X159638893Y-48062133D01*
X159658598Y-48076747D01*
X159676777Y-48093223D01*
X159693253Y-48111402D01*
X159707867Y-48131107D01*
X159720480Y-48152151D01*
X159730970Y-48174329D01*
X159739235Y-48197429D01*
X159745196Y-48221227D01*
X159748796Y-48245496D01*
X159750000Y-48270000D01*
X159750000Y-49520000D01*
X159748796Y-49544504D01*
X159745196Y-49568773D01*
X159739235Y-49592571D01*
X159730970Y-49615671D01*
X159720480Y-49637849D01*
X159707867Y-49658893D01*
X159693253Y-49678598D01*
X159676777Y-49696777D01*
X159658598Y-49713253D01*
X159638893Y-49727867D01*
X159617849Y-49740480D01*
X159595671Y-49750970D01*
X159572571Y-49759235D01*
X159548773Y-49765196D01*
X159524504Y-49768796D01*
X159500000Y-49770000D01*
X158750000Y-49770000D01*
X158725496Y-49768796D01*
X158701227Y-49765196D01*
X158677429Y-49759235D01*
X158654329Y-49750970D01*
X158632151Y-49740480D01*
X158611107Y-49727867D01*
X158591402Y-49713253D01*
X158573223Y-49696777D01*
X158556747Y-49678598D01*
X158542133Y-49658893D01*
X158529520Y-49637849D01*
X158519030Y-49615671D01*
X158510765Y-49592571D01*
X158504804Y-49568773D01*
X158501204Y-49544504D01*
X158500000Y-49520000D01*
X158500000Y-48270000D01*
X158501204Y-48245496D01*
X158504804Y-48221227D01*
X158510765Y-48197429D01*
X158519030Y-48174329D01*
X158529520Y-48152151D01*
X158542133Y-48131107D01*
X158556747Y-48111402D01*
X158573223Y-48093223D01*
X158591402Y-48076747D01*
X158611107Y-48062133D01*
X158632151Y-48049520D01*
X158654329Y-48039030D01*
X158677429Y-48030765D01*
X158701227Y-48024804D01*
X158725496Y-48021204D01*
X158750000Y-48020000D01*
X159500000Y-48020000D01*
X159524504Y-48021204D01*
X159524504Y-48021204D01*
G37*
D11*
X159125000Y-48895000D03*
D10*
G36*
X162324504Y-48021204D02*
X162348773Y-48024804D01*
X162372571Y-48030765D01*
X162395671Y-48039030D01*
X162417849Y-48049520D01*
X162438893Y-48062133D01*
X162458598Y-48076747D01*
X162476777Y-48093223D01*
X162493253Y-48111402D01*
X162507867Y-48131107D01*
X162520480Y-48152151D01*
X162530970Y-48174329D01*
X162539235Y-48197429D01*
X162545196Y-48221227D01*
X162548796Y-48245496D01*
X162550000Y-48270000D01*
X162550000Y-49520000D01*
X162548796Y-49544504D01*
X162545196Y-49568773D01*
X162539235Y-49592571D01*
X162530970Y-49615671D01*
X162520480Y-49637849D01*
X162507867Y-49658893D01*
X162493253Y-49678598D01*
X162476777Y-49696777D01*
X162458598Y-49713253D01*
X162438893Y-49727867D01*
X162417849Y-49740480D01*
X162395671Y-49750970D01*
X162372571Y-49759235D01*
X162348773Y-49765196D01*
X162324504Y-49768796D01*
X162300000Y-49770000D01*
X161550000Y-49770000D01*
X161525496Y-49768796D01*
X161501227Y-49765196D01*
X161477429Y-49759235D01*
X161454329Y-49750970D01*
X161432151Y-49740480D01*
X161411107Y-49727867D01*
X161391402Y-49713253D01*
X161373223Y-49696777D01*
X161356747Y-49678598D01*
X161342133Y-49658893D01*
X161329520Y-49637849D01*
X161319030Y-49615671D01*
X161310765Y-49592571D01*
X161304804Y-49568773D01*
X161301204Y-49544504D01*
X161300000Y-49520000D01*
X161300000Y-48270000D01*
X161301204Y-48245496D01*
X161304804Y-48221227D01*
X161310765Y-48197429D01*
X161319030Y-48174329D01*
X161329520Y-48152151D01*
X161342133Y-48131107D01*
X161356747Y-48111402D01*
X161373223Y-48093223D01*
X161391402Y-48076747D01*
X161411107Y-48062133D01*
X161432151Y-48049520D01*
X161454329Y-48039030D01*
X161477429Y-48030765D01*
X161501227Y-48024804D01*
X161525496Y-48021204D01*
X161550000Y-48020000D01*
X162300000Y-48020000D01*
X162324504Y-48021204D01*
X162324504Y-48021204D01*
G37*
D11*
X161925000Y-48895000D03*
G04 #@! TD*
D10*
G04 #@! TO.C,D18*
G36*
X178704504Y-48021204D02*
X178728773Y-48024804D01*
X178752571Y-48030765D01*
X178775671Y-48039030D01*
X178797849Y-48049520D01*
X178818893Y-48062133D01*
X178838598Y-48076747D01*
X178856777Y-48093223D01*
X178873253Y-48111402D01*
X178887867Y-48131107D01*
X178900480Y-48152151D01*
X178910970Y-48174329D01*
X178919235Y-48197429D01*
X178925196Y-48221227D01*
X178928796Y-48245496D01*
X178930000Y-48270000D01*
X178930000Y-49520000D01*
X178928796Y-49544504D01*
X178925196Y-49568773D01*
X178919235Y-49592571D01*
X178910970Y-49615671D01*
X178900480Y-49637849D01*
X178887867Y-49658893D01*
X178873253Y-49678598D01*
X178856777Y-49696777D01*
X178838598Y-49713253D01*
X178818893Y-49727867D01*
X178797849Y-49740480D01*
X178775671Y-49750970D01*
X178752571Y-49759235D01*
X178728773Y-49765196D01*
X178704504Y-49768796D01*
X178680000Y-49770000D01*
X177930000Y-49770000D01*
X177905496Y-49768796D01*
X177881227Y-49765196D01*
X177857429Y-49759235D01*
X177834329Y-49750970D01*
X177812151Y-49740480D01*
X177791107Y-49727867D01*
X177771402Y-49713253D01*
X177753223Y-49696777D01*
X177736747Y-49678598D01*
X177722133Y-49658893D01*
X177709520Y-49637849D01*
X177699030Y-49615671D01*
X177690765Y-49592571D01*
X177684804Y-49568773D01*
X177681204Y-49544504D01*
X177680000Y-49520000D01*
X177680000Y-48270000D01*
X177681204Y-48245496D01*
X177684804Y-48221227D01*
X177690765Y-48197429D01*
X177699030Y-48174329D01*
X177709520Y-48152151D01*
X177722133Y-48131107D01*
X177736747Y-48111402D01*
X177753223Y-48093223D01*
X177771402Y-48076747D01*
X177791107Y-48062133D01*
X177812151Y-48049520D01*
X177834329Y-48039030D01*
X177857429Y-48030765D01*
X177881227Y-48024804D01*
X177905496Y-48021204D01*
X177930000Y-48020000D01*
X178680000Y-48020000D01*
X178704504Y-48021204D01*
X178704504Y-48021204D01*
G37*
D11*
X178305000Y-48895000D03*
D10*
G36*
X181504504Y-48021204D02*
X181528773Y-48024804D01*
X181552571Y-48030765D01*
X181575671Y-48039030D01*
X181597849Y-48049520D01*
X181618893Y-48062133D01*
X181638598Y-48076747D01*
X181656777Y-48093223D01*
X181673253Y-48111402D01*
X181687867Y-48131107D01*
X181700480Y-48152151D01*
X181710970Y-48174329D01*
X181719235Y-48197429D01*
X181725196Y-48221227D01*
X181728796Y-48245496D01*
X181730000Y-48270000D01*
X181730000Y-49520000D01*
X181728796Y-49544504D01*
X181725196Y-49568773D01*
X181719235Y-49592571D01*
X181710970Y-49615671D01*
X181700480Y-49637849D01*
X181687867Y-49658893D01*
X181673253Y-49678598D01*
X181656777Y-49696777D01*
X181638598Y-49713253D01*
X181618893Y-49727867D01*
X181597849Y-49740480D01*
X181575671Y-49750970D01*
X181552571Y-49759235D01*
X181528773Y-49765196D01*
X181504504Y-49768796D01*
X181480000Y-49770000D01*
X180730000Y-49770000D01*
X180705496Y-49768796D01*
X180681227Y-49765196D01*
X180657429Y-49759235D01*
X180634329Y-49750970D01*
X180612151Y-49740480D01*
X180591107Y-49727867D01*
X180571402Y-49713253D01*
X180553223Y-49696777D01*
X180536747Y-49678598D01*
X180522133Y-49658893D01*
X180509520Y-49637849D01*
X180499030Y-49615671D01*
X180490765Y-49592571D01*
X180484804Y-49568773D01*
X180481204Y-49544504D01*
X180480000Y-49520000D01*
X180480000Y-48270000D01*
X180481204Y-48245496D01*
X180484804Y-48221227D01*
X180490765Y-48197429D01*
X180499030Y-48174329D01*
X180509520Y-48152151D01*
X180522133Y-48131107D01*
X180536747Y-48111402D01*
X180553223Y-48093223D01*
X180571402Y-48076747D01*
X180591107Y-48062133D01*
X180612151Y-48049520D01*
X180634329Y-48039030D01*
X180657429Y-48030765D01*
X180681227Y-48024804D01*
X180705496Y-48021204D01*
X180730000Y-48020000D01*
X181480000Y-48020000D01*
X181504504Y-48021204D01*
X181504504Y-48021204D01*
G37*
D11*
X181105000Y-48895000D03*
G04 #@! TD*
D10*
G04 #@! TO.C,D19*
G36*
X197754504Y-48021204D02*
X197778773Y-48024804D01*
X197802571Y-48030765D01*
X197825671Y-48039030D01*
X197847849Y-48049520D01*
X197868893Y-48062133D01*
X197888598Y-48076747D01*
X197906777Y-48093223D01*
X197923253Y-48111402D01*
X197937867Y-48131107D01*
X197950480Y-48152151D01*
X197960970Y-48174329D01*
X197969235Y-48197429D01*
X197975196Y-48221227D01*
X197978796Y-48245496D01*
X197980000Y-48270000D01*
X197980000Y-49520000D01*
X197978796Y-49544504D01*
X197975196Y-49568773D01*
X197969235Y-49592571D01*
X197960970Y-49615671D01*
X197950480Y-49637849D01*
X197937867Y-49658893D01*
X197923253Y-49678598D01*
X197906777Y-49696777D01*
X197888598Y-49713253D01*
X197868893Y-49727867D01*
X197847849Y-49740480D01*
X197825671Y-49750970D01*
X197802571Y-49759235D01*
X197778773Y-49765196D01*
X197754504Y-49768796D01*
X197730000Y-49770000D01*
X196980000Y-49770000D01*
X196955496Y-49768796D01*
X196931227Y-49765196D01*
X196907429Y-49759235D01*
X196884329Y-49750970D01*
X196862151Y-49740480D01*
X196841107Y-49727867D01*
X196821402Y-49713253D01*
X196803223Y-49696777D01*
X196786747Y-49678598D01*
X196772133Y-49658893D01*
X196759520Y-49637849D01*
X196749030Y-49615671D01*
X196740765Y-49592571D01*
X196734804Y-49568773D01*
X196731204Y-49544504D01*
X196730000Y-49520000D01*
X196730000Y-48270000D01*
X196731204Y-48245496D01*
X196734804Y-48221227D01*
X196740765Y-48197429D01*
X196749030Y-48174329D01*
X196759520Y-48152151D01*
X196772133Y-48131107D01*
X196786747Y-48111402D01*
X196803223Y-48093223D01*
X196821402Y-48076747D01*
X196841107Y-48062133D01*
X196862151Y-48049520D01*
X196884329Y-48039030D01*
X196907429Y-48030765D01*
X196931227Y-48024804D01*
X196955496Y-48021204D01*
X196980000Y-48020000D01*
X197730000Y-48020000D01*
X197754504Y-48021204D01*
X197754504Y-48021204D01*
G37*
D11*
X197355000Y-48895000D03*
D10*
G36*
X200554504Y-48021204D02*
X200578773Y-48024804D01*
X200602571Y-48030765D01*
X200625671Y-48039030D01*
X200647849Y-48049520D01*
X200668893Y-48062133D01*
X200688598Y-48076747D01*
X200706777Y-48093223D01*
X200723253Y-48111402D01*
X200737867Y-48131107D01*
X200750480Y-48152151D01*
X200760970Y-48174329D01*
X200769235Y-48197429D01*
X200775196Y-48221227D01*
X200778796Y-48245496D01*
X200780000Y-48270000D01*
X200780000Y-49520000D01*
X200778796Y-49544504D01*
X200775196Y-49568773D01*
X200769235Y-49592571D01*
X200760970Y-49615671D01*
X200750480Y-49637849D01*
X200737867Y-49658893D01*
X200723253Y-49678598D01*
X200706777Y-49696777D01*
X200688598Y-49713253D01*
X200668893Y-49727867D01*
X200647849Y-49740480D01*
X200625671Y-49750970D01*
X200602571Y-49759235D01*
X200578773Y-49765196D01*
X200554504Y-49768796D01*
X200530000Y-49770000D01*
X199780000Y-49770000D01*
X199755496Y-49768796D01*
X199731227Y-49765196D01*
X199707429Y-49759235D01*
X199684329Y-49750970D01*
X199662151Y-49740480D01*
X199641107Y-49727867D01*
X199621402Y-49713253D01*
X199603223Y-49696777D01*
X199586747Y-49678598D01*
X199572133Y-49658893D01*
X199559520Y-49637849D01*
X199549030Y-49615671D01*
X199540765Y-49592571D01*
X199534804Y-49568773D01*
X199531204Y-49544504D01*
X199530000Y-49520000D01*
X199530000Y-48270000D01*
X199531204Y-48245496D01*
X199534804Y-48221227D01*
X199540765Y-48197429D01*
X199549030Y-48174329D01*
X199559520Y-48152151D01*
X199572133Y-48131107D01*
X199586747Y-48111402D01*
X199603223Y-48093223D01*
X199621402Y-48076747D01*
X199641107Y-48062133D01*
X199662151Y-48049520D01*
X199684329Y-48039030D01*
X199707429Y-48030765D01*
X199731227Y-48024804D01*
X199755496Y-48021204D01*
X199780000Y-48020000D01*
X200530000Y-48020000D01*
X200554504Y-48021204D01*
X200554504Y-48021204D01*
G37*
D11*
X200155000Y-48895000D03*
G04 #@! TD*
D10*
G04 #@! TO.C,D21*
G36*
X45354504Y-67071204D02*
X45378773Y-67074804D01*
X45402571Y-67080765D01*
X45425671Y-67089030D01*
X45447849Y-67099520D01*
X45468893Y-67112133D01*
X45488598Y-67126747D01*
X45506777Y-67143223D01*
X45523253Y-67161402D01*
X45537867Y-67181107D01*
X45550480Y-67202151D01*
X45560970Y-67224329D01*
X45569235Y-67247429D01*
X45575196Y-67271227D01*
X45578796Y-67295496D01*
X45580000Y-67320000D01*
X45580000Y-68570000D01*
X45578796Y-68594504D01*
X45575196Y-68618773D01*
X45569235Y-68642571D01*
X45560970Y-68665671D01*
X45550480Y-68687849D01*
X45537867Y-68708893D01*
X45523253Y-68728598D01*
X45506777Y-68746777D01*
X45488598Y-68763253D01*
X45468893Y-68777867D01*
X45447849Y-68790480D01*
X45425671Y-68800970D01*
X45402571Y-68809235D01*
X45378773Y-68815196D01*
X45354504Y-68818796D01*
X45330000Y-68820000D01*
X44580000Y-68820000D01*
X44555496Y-68818796D01*
X44531227Y-68815196D01*
X44507429Y-68809235D01*
X44484329Y-68800970D01*
X44462151Y-68790480D01*
X44441107Y-68777867D01*
X44421402Y-68763253D01*
X44403223Y-68746777D01*
X44386747Y-68728598D01*
X44372133Y-68708893D01*
X44359520Y-68687849D01*
X44349030Y-68665671D01*
X44340765Y-68642571D01*
X44334804Y-68618773D01*
X44331204Y-68594504D01*
X44330000Y-68570000D01*
X44330000Y-67320000D01*
X44331204Y-67295496D01*
X44334804Y-67271227D01*
X44340765Y-67247429D01*
X44349030Y-67224329D01*
X44359520Y-67202151D01*
X44372133Y-67181107D01*
X44386747Y-67161402D01*
X44403223Y-67143223D01*
X44421402Y-67126747D01*
X44441107Y-67112133D01*
X44462151Y-67099520D01*
X44484329Y-67089030D01*
X44507429Y-67080765D01*
X44531227Y-67074804D01*
X44555496Y-67071204D01*
X44580000Y-67070000D01*
X45330000Y-67070000D01*
X45354504Y-67071204D01*
X45354504Y-67071204D01*
G37*
D11*
X44955000Y-67945000D03*
D10*
G36*
X48154504Y-67071204D02*
X48178773Y-67074804D01*
X48202571Y-67080765D01*
X48225671Y-67089030D01*
X48247849Y-67099520D01*
X48268893Y-67112133D01*
X48288598Y-67126747D01*
X48306777Y-67143223D01*
X48323253Y-67161402D01*
X48337867Y-67181107D01*
X48350480Y-67202151D01*
X48360970Y-67224329D01*
X48369235Y-67247429D01*
X48375196Y-67271227D01*
X48378796Y-67295496D01*
X48380000Y-67320000D01*
X48380000Y-68570000D01*
X48378796Y-68594504D01*
X48375196Y-68618773D01*
X48369235Y-68642571D01*
X48360970Y-68665671D01*
X48350480Y-68687849D01*
X48337867Y-68708893D01*
X48323253Y-68728598D01*
X48306777Y-68746777D01*
X48288598Y-68763253D01*
X48268893Y-68777867D01*
X48247849Y-68790480D01*
X48225671Y-68800970D01*
X48202571Y-68809235D01*
X48178773Y-68815196D01*
X48154504Y-68818796D01*
X48130000Y-68820000D01*
X47380000Y-68820000D01*
X47355496Y-68818796D01*
X47331227Y-68815196D01*
X47307429Y-68809235D01*
X47284329Y-68800970D01*
X47262151Y-68790480D01*
X47241107Y-68777867D01*
X47221402Y-68763253D01*
X47203223Y-68746777D01*
X47186747Y-68728598D01*
X47172133Y-68708893D01*
X47159520Y-68687849D01*
X47149030Y-68665671D01*
X47140765Y-68642571D01*
X47134804Y-68618773D01*
X47131204Y-68594504D01*
X47130000Y-68570000D01*
X47130000Y-67320000D01*
X47131204Y-67295496D01*
X47134804Y-67271227D01*
X47140765Y-67247429D01*
X47149030Y-67224329D01*
X47159520Y-67202151D01*
X47172133Y-67181107D01*
X47186747Y-67161402D01*
X47203223Y-67143223D01*
X47221402Y-67126747D01*
X47241107Y-67112133D01*
X47262151Y-67099520D01*
X47284329Y-67089030D01*
X47307429Y-67080765D01*
X47331227Y-67074804D01*
X47355496Y-67071204D01*
X47380000Y-67070000D01*
X48130000Y-67070000D01*
X48154504Y-67071204D01*
X48154504Y-67071204D01*
G37*
D11*
X47755000Y-67945000D03*
G04 #@! TD*
D10*
G04 #@! TO.C,D22*
G36*
X64404504Y-67071204D02*
X64428773Y-67074804D01*
X64452571Y-67080765D01*
X64475671Y-67089030D01*
X64497849Y-67099520D01*
X64518893Y-67112133D01*
X64538598Y-67126747D01*
X64556777Y-67143223D01*
X64573253Y-67161402D01*
X64587867Y-67181107D01*
X64600480Y-67202151D01*
X64610970Y-67224329D01*
X64619235Y-67247429D01*
X64625196Y-67271227D01*
X64628796Y-67295496D01*
X64630000Y-67320000D01*
X64630000Y-68570000D01*
X64628796Y-68594504D01*
X64625196Y-68618773D01*
X64619235Y-68642571D01*
X64610970Y-68665671D01*
X64600480Y-68687849D01*
X64587867Y-68708893D01*
X64573253Y-68728598D01*
X64556777Y-68746777D01*
X64538598Y-68763253D01*
X64518893Y-68777867D01*
X64497849Y-68790480D01*
X64475671Y-68800970D01*
X64452571Y-68809235D01*
X64428773Y-68815196D01*
X64404504Y-68818796D01*
X64380000Y-68820000D01*
X63630000Y-68820000D01*
X63605496Y-68818796D01*
X63581227Y-68815196D01*
X63557429Y-68809235D01*
X63534329Y-68800970D01*
X63512151Y-68790480D01*
X63491107Y-68777867D01*
X63471402Y-68763253D01*
X63453223Y-68746777D01*
X63436747Y-68728598D01*
X63422133Y-68708893D01*
X63409520Y-68687849D01*
X63399030Y-68665671D01*
X63390765Y-68642571D01*
X63384804Y-68618773D01*
X63381204Y-68594504D01*
X63380000Y-68570000D01*
X63380000Y-67320000D01*
X63381204Y-67295496D01*
X63384804Y-67271227D01*
X63390765Y-67247429D01*
X63399030Y-67224329D01*
X63409520Y-67202151D01*
X63422133Y-67181107D01*
X63436747Y-67161402D01*
X63453223Y-67143223D01*
X63471402Y-67126747D01*
X63491107Y-67112133D01*
X63512151Y-67099520D01*
X63534329Y-67089030D01*
X63557429Y-67080765D01*
X63581227Y-67074804D01*
X63605496Y-67071204D01*
X63630000Y-67070000D01*
X64380000Y-67070000D01*
X64404504Y-67071204D01*
X64404504Y-67071204D01*
G37*
D11*
X64005000Y-67945000D03*
D10*
G36*
X67204504Y-67071204D02*
X67228773Y-67074804D01*
X67252571Y-67080765D01*
X67275671Y-67089030D01*
X67297849Y-67099520D01*
X67318893Y-67112133D01*
X67338598Y-67126747D01*
X67356777Y-67143223D01*
X67373253Y-67161402D01*
X67387867Y-67181107D01*
X67400480Y-67202151D01*
X67410970Y-67224329D01*
X67419235Y-67247429D01*
X67425196Y-67271227D01*
X67428796Y-67295496D01*
X67430000Y-67320000D01*
X67430000Y-68570000D01*
X67428796Y-68594504D01*
X67425196Y-68618773D01*
X67419235Y-68642571D01*
X67410970Y-68665671D01*
X67400480Y-68687849D01*
X67387867Y-68708893D01*
X67373253Y-68728598D01*
X67356777Y-68746777D01*
X67338598Y-68763253D01*
X67318893Y-68777867D01*
X67297849Y-68790480D01*
X67275671Y-68800970D01*
X67252571Y-68809235D01*
X67228773Y-68815196D01*
X67204504Y-68818796D01*
X67180000Y-68820000D01*
X66430000Y-68820000D01*
X66405496Y-68818796D01*
X66381227Y-68815196D01*
X66357429Y-68809235D01*
X66334329Y-68800970D01*
X66312151Y-68790480D01*
X66291107Y-68777867D01*
X66271402Y-68763253D01*
X66253223Y-68746777D01*
X66236747Y-68728598D01*
X66222133Y-68708893D01*
X66209520Y-68687849D01*
X66199030Y-68665671D01*
X66190765Y-68642571D01*
X66184804Y-68618773D01*
X66181204Y-68594504D01*
X66180000Y-68570000D01*
X66180000Y-67320000D01*
X66181204Y-67295496D01*
X66184804Y-67271227D01*
X66190765Y-67247429D01*
X66199030Y-67224329D01*
X66209520Y-67202151D01*
X66222133Y-67181107D01*
X66236747Y-67161402D01*
X66253223Y-67143223D01*
X66271402Y-67126747D01*
X66291107Y-67112133D01*
X66312151Y-67099520D01*
X66334329Y-67089030D01*
X66357429Y-67080765D01*
X66381227Y-67074804D01*
X66405496Y-67071204D01*
X66430000Y-67070000D01*
X67180000Y-67070000D01*
X67204504Y-67071204D01*
X67204504Y-67071204D01*
G37*
D11*
X66805000Y-67945000D03*
G04 #@! TD*
D10*
G04 #@! TO.C,D23*
G36*
X83454504Y-67071204D02*
X83478773Y-67074804D01*
X83502571Y-67080765D01*
X83525671Y-67089030D01*
X83547849Y-67099520D01*
X83568893Y-67112133D01*
X83588598Y-67126747D01*
X83606777Y-67143223D01*
X83623253Y-67161402D01*
X83637867Y-67181107D01*
X83650480Y-67202151D01*
X83660970Y-67224329D01*
X83669235Y-67247429D01*
X83675196Y-67271227D01*
X83678796Y-67295496D01*
X83680000Y-67320000D01*
X83680000Y-68570000D01*
X83678796Y-68594504D01*
X83675196Y-68618773D01*
X83669235Y-68642571D01*
X83660970Y-68665671D01*
X83650480Y-68687849D01*
X83637867Y-68708893D01*
X83623253Y-68728598D01*
X83606777Y-68746777D01*
X83588598Y-68763253D01*
X83568893Y-68777867D01*
X83547849Y-68790480D01*
X83525671Y-68800970D01*
X83502571Y-68809235D01*
X83478773Y-68815196D01*
X83454504Y-68818796D01*
X83430000Y-68820000D01*
X82680000Y-68820000D01*
X82655496Y-68818796D01*
X82631227Y-68815196D01*
X82607429Y-68809235D01*
X82584329Y-68800970D01*
X82562151Y-68790480D01*
X82541107Y-68777867D01*
X82521402Y-68763253D01*
X82503223Y-68746777D01*
X82486747Y-68728598D01*
X82472133Y-68708893D01*
X82459520Y-68687849D01*
X82449030Y-68665671D01*
X82440765Y-68642571D01*
X82434804Y-68618773D01*
X82431204Y-68594504D01*
X82430000Y-68570000D01*
X82430000Y-67320000D01*
X82431204Y-67295496D01*
X82434804Y-67271227D01*
X82440765Y-67247429D01*
X82449030Y-67224329D01*
X82459520Y-67202151D01*
X82472133Y-67181107D01*
X82486747Y-67161402D01*
X82503223Y-67143223D01*
X82521402Y-67126747D01*
X82541107Y-67112133D01*
X82562151Y-67099520D01*
X82584329Y-67089030D01*
X82607429Y-67080765D01*
X82631227Y-67074804D01*
X82655496Y-67071204D01*
X82680000Y-67070000D01*
X83430000Y-67070000D01*
X83454504Y-67071204D01*
X83454504Y-67071204D01*
G37*
D11*
X83055000Y-67945000D03*
D10*
G36*
X86254504Y-67071204D02*
X86278773Y-67074804D01*
X86302571Y-67080765D01*
X86325671Y-67089030D01*
X86347849Y-67099520D01*
X86368893Y-67112133D01*
X86388598Y-67126747D01*
X86406777Y-67143223D01*
X86423253Y-67161402D01*
X86437867Y-67181107D01*
X86450480Y-67202151D01*
X86460970Y-67224329D01*
X86469235Y-67247429D01*
X86475196Y-67271227D01*
X86478796Y-67295496D01*
X86480000Y-67320000D01*
X86480000Y-68570000D01*
X86478796Y-68594504D01*
X86475196Y-68618773D01*
X86469235Y-68642571D01*
X86460970Y-68665671D01*
X86450480Y-68687849D01*
X86437867Y-68708893D01*
X86423253Y-68728598D01*
X86406777Y-68746777D01*
X86388598Y-68763253D01*
X86368893Y-68777867D01*
X86347849Y-68790480D01*
X86325671Y-68800970D01*
X86302571Y-68809235D01*
X86278773Y-68815196D01*
X86254504Y-68818796D01*
X86230000Y-68820000D01*
X85480000Y-68820000D01*
X85455496Y-68818796D01*
X85431227Y-68815196D01*
X85407429Y-68809235D01*
X85384329Y-68800970D01*
X85362151Y-68790480D01*
X85341107Y-68777867D01*
X85321402Y-68763253D01*
X85303223Y-68746777D01*
X85286747Y-68728598D01*
X85272133Y-68708893D01*
X85259520Y-68687849D01*
X85249030Y-68665671D01*
X85240765Y-68642571D01*
X85234804Y-68618773D01*
X85231204Y-68594504D01*
X85230000Y-68570000D01*
X85230000Y-67320000D01*
X85231204Y-67295496D01*
X85234804Y-67271227D01*
X85240765Y-67247429D01*
X85249030Y-67224329D01*
X85259520Y-67202151D01*
X85272133Y-67181107D01*
X85286747Y-67161402D01*
X85303223Y-67143223D01*
X85321402Y-67126747D01*
X85341107Y-67112133D01*
X85362151Y-67099520D01*
X85384329Y-67089030D01*
X85407429Y-67080765D01*
X85431227Y-67074804D01*
X85455496Y-67071204D01*
X85480000Y-67070000D01*
X86230000Y-67070000D01*
X86254504Y-67071204D01*
X86254504Y-67071204D01*
G37*
D11*
X85855000Y-67945000D03*
G04 #@! TD*
D10*
G04 #@! TO.C,D24*
G36*
X102504504Y-67071204D02*
X102528773Y-67074804D01*
X102552571Y-67080765D01*
X102575671Y-67089030D01*
X102597849Y-67099520D01*
X102618893Y-67112133D01*
X102638598Y-67126747D01*
X102656777Y-67143223D01*
X102673253Y-67161402D01*
X102687867Y-67181107D01*
X102700480Y-67202151D01*
X102710970Y-67224329D01*
X102719235Y-67247429D01*
X102725196Y-67271227D01*
X102728796Y-67295496D01*
X102730000Y-67320000D01*
X102730000Y-68570000D01*
X102728796Y-68594504D01*
X102725196Y-68618773D01*
X102719235Y-68642571D01*
X102710970Y-68665671D01*
X102700480Y-68687849D01*
X102687867Y-68708893D01*
X102673253Y-68728598D01*
X102656777Y-68746777D01*
X102638598Y-68763253D01*
X102618893Y-68777867D01*
X102597849Y-68790480D01*
X102575671Y-68800970D01*
X102552571Y-68809235D01*
X102528773Y-68815196D01*
X102504504Y-68818796D01*
X102480000Y-68820000D01*
X101730000Y-68820000D01*
X101705496Y-68818796D01*
X101681227Y-68815196D01*
X101657429Y-68809235D01*
X101634329Y-68800970D01*
X101612151Y-68790480D01*
X101591107Y-68777867D01*
X101571402Y-68763253D01*
X101553223Y-68746777D01*
X101536747Y-68728598D01*
X101522133Y-68708893D01*
X101509520Y-68687849D01*
X101499030Y-68665671D01*
X101490765Y-68642571D01*
X101484804Y-68618773D01*
X101481204Y-68594504D01*
X101480000Y-68570000D01*
X101480000Y-67320000D01*
X101481204Y-67295496D01*
X101484804Y-67271227D01*
X101490765Y-67247429D01*
X101499030Y-67224329D01*
X101509520Y-67202151D01*
X101522133Y-67181107D01*
X101536747Y-67161402D01*
X101553223Y-67143223D01*
X101571402Y-67126747D01*
X101591107Y-67112133D01*
X101612151Y-67099520D01*
X101634329Y-67089030D01*
X101657429Y-67080765D01*
X101681227Y-67074804D01*
X101705496Y-67071204D01*
X101730000Y-67070000D01*
X102480000Y-67070000D01*
X102504504Y-67071204D01*
X102504504Y-67071204D01*
G37*
D11*
X102105000Y-67945000D03*
D10*
G36*
X105304504Y-67071204D02*
X105328773Y-67074804D01*
X105352571Y-67080765D01*
X105375671Y-67089030D01*
X105397849Y-67099520D01*
X105418893Y-67112133D01*
X105438598Y-67126747D01*
X105456777Y-67143223D01*
X105473253Y-67161402D01*
X105487867Y-67181107D01*
X105500480Y-67202151D01*
X105510970Y-67224329D01*
X105519235Y-67247429D01*
X105525196Y-67271227D01*
X105528796Y-67295496D01*
X105530000Y-67320000D01*
X105530000Y-68570000D01*
X105528796Y-68594504D01*
X105525196Y-68618773D01*
X105519235Y-68642571D01*
X105510970Y-68665671D01*
X105500480Y-68687849D01*
X105487867Y-68708893D01*
X105473253Y-68728598D01*
X105456777Y-68746777D01*
X105438598Y-68763253D01*
X105418893Y-68777867D01*
X105397849Y-68790480D01*
X105375671Y-68800970D01*
X105352571Y-68809235D01*
X105328773Y-68815196D01*
X105304504Y-68818796D01*
X105280000Y-68820000D01*
X104530000Y-68820000D01*
X104505496Y-68818796D01*
X104481227Y-68815196D01*
X104457429Y-68809235D01*
X104434329Y-68800970D01*
X104412151Y-68790480D01*
X104391107Y-68777867D01*
X104371402Y-68763253D01*
X104353223Y-68746777D01*
X104336747Y-68728598D01*
X104322133Y-68708893D01*
X104309520Y-68687849D01*
X104299030Y-68665671D01*
X104290765Y-68642571D01*
X104284804Y-68618773D01*
X104281204Y-68594504D01*
X104280000Y-68570000D01*
X104280000Y-67320000D01*
X104281204Y-67295496D01*
X104284804Y-67271227D01*
X104290765Y-67247429D01*
X104299030Y-67224329D01*
X104309520Y-67202151D01*
X104322133Y-67181107D01*
X104336747Y-67161402D01*
X104353223Y-67143223D01*
X104371402Y-67126747D01*
X104391107Y-67112133D01*
X104412151Y-67099520D01*
X104434329Y-67089030D01*
X104457429Y-67080765D01*
X104481227Y-67074804D01*
X104505496Y-67071204D01*
X104530000Y-67070000D01*
X105280000Y-67070000D01*
X105304504Y-67071204D01*
X105304504Y-67071204D01*
G37*
D11*
X104905000Y-67945000D03*
G04 #@! TD*
D10*
G04 #@! TO.C,D25*
G36*
X121554504Y-67071204D02*
X121578773Y-67074804D01*
X121602571Y-67080765D01*
X121625671Y-67089030D01*
X121647849Y-67099520D01*
X121668893Y-67112133D01*
X121688598Y-67126747D01*
X121706777Y-67143223D01*
X121723253Y-67161402D01*
X121737867Y-67181107D01*
X121750480Y-67202151D01*
X121760970Y-67224329D01*
X121769235Y-67247429D01*
X121775196Y-67271227D01*
X121778796Y-67295496D01*
X121780000Y-67320000D01*
X121780000Y-68570000D01*
X121778796Y-68594504D01*
X121775196Y-68618773D01*
X121769235Y-68642571D01*
X121760970Y-68665671D01*
X121750480Y-68687849D01*
X121737867Y-68708893D01*
X121723253Y-68728598D01*
X121706777Y-68746777D01*
X121688598Y-68763253D01*
X121668893Y-68777867D01*
X121647849Y-68790480D01*
X121625671Y-68800970D01*
X121602571Y-68809235D01*
X121578773Y-68815196D01*
X121554504Y-68818796D01*
X121530000Y-68820000D01*
X120780000Y-68820000D01*
X120755496Y-68818796D01*
X120731227Y-68815196D01*
X120707429Y-68809235D01*
X120684329Y-68800970D01*
X120662151Y-68790480D01*
X120641107Y-68777867D01*
X120621402Y-68763253D01*
X120603223Y-68746777D01*
X120586747Y-68728598D01*
X120572133Y-68708893D01*
X120559520Y-68687849D01*
X120549030Y-68665671D01*
X120540765Y-68642571D01*
X120534804Y-68618773D01*
X120531204Y-68594504D01*
X120530000Y-68570000D01*
X120530000Y-67320000D01*
X120531204Y-67295496D01*
X120534804Y-67271227D01*
X120540765Y-67247429D01*
X120549030Y-67224329D01*
X120559520Y-67202151D01*
X120572133Y-67181107D01*
X120586747Y-67161402D01*
X120603223Y-67143223D01*
X120621402Y-67126747D01*
X120641107Y-67112133D01*
X120662151Y-67099520D01*
X120684329Y-67089030D01*
X120707429Y-67080765D01*
X120731227Y-67074804D01*
X120755496Y-67071204D01*
X120780000Y-67070000D01*
X121530000Y-67070000D01*
X121554504Y-67071204D01*
X121554504Y-67071204D01*
G37*
D11*
X121155000Y-67945000D03*
D10*
G36*
X124354504Y-67071204D02*
X124378773Y-67074804D01*
X124402571Y-67080765D01*
X124425671Y-67089030D01*
X124447849Y-67099520D01*
X124468893Y-67112133D01*
X124488598Y-67126747D01*
X124506777Y-67143223D01*
X124523253Y-67161402D01*
X124537867Y-67181107D01*
X124550480Y-67202151D01*
X124560970Y-67224329D01*
X124569235Y-67247429D01*
X124575196Y-67271227D01*
X124578796Y-67295496D01*
X124580000Y-67320000D01*
X124580000Y-68570000D01*
X124578796Y-68594504D01*
X124575196Y-68618773D01*
X124569235Y-68642571D01*
X124560970Y-68665671D01*
X124550480Y-68687849D01*
X124537867Y-68708893D01*
X124523253Y-68728598D01*
X124506777Y-68746777D01*
X124488598Y-68763253D01*
X124468893Y-68777867D01*
X124447849Y-68790480D01*
X124425671Y-68800970D01*
X124402571Y-68809235D01*
X124378773Y-68815196D01*
X124354504Y-68818796D01*
X124330000Y-68820000D01*
X123580000Y-68820000D01*
X123555496Y-68818796D01*
X123531227Y-68815196D01*
X123507429Y-68809235D01*
X123484329Y-68800970D01*
X123462151Y-68790480D01*
X123441107Y-68777867D01*
X123421402Y-68763253D01*
X123403223Y-68746777D01*
X123386747Y-68728598D01*
X123372133Y-68708893D01*
X123359520Y-68687849D01*
X123349030Y-68665671D01*
X123340765Y-68642571D01*
X123334804Y-68618773D01*
X123331204Y-68594504D01*
X123330000Y-68570000D01*
X123330000Y-67320000D01*
X123331204Y-67295496D01*
X123334804Y-67271227D01*
X123340765Y-67247429D01*
X123349030Y-67224329D01*
X123359520Y-67202151D01*
X123372133Y-67181107D01*
X123386747Y-67161402D01*
X123403223Y-67143223D01*
X123421402Y-67126747D01*
X123441107Y-67112133D01*
X123462151Y-67099520D01*
X123484329Y-67089030D01*
X123507429Y-67080765D01*
X123531227Y-67074804D01*
X123555496Y-67071204D01*
X123580000Y-67070000D01*
X124330000Y-67070000D01*
X124354504Y-67071204D01*
X124354504Y-67071204D01*
G37*
D11*
X123955000Y-67945000D03*
G04 #@! TD*
D10*
G04 #@! TO.C,D26*
G36*
X140604504Y-67071204D02*
X140628773Y-67074804D01*
X140652571Y-67080765D01*
X140675671Y-67089030D01*
X140697849Y-67099520D01*
X140718893Y-67112133D01*
X140738598Y-67126747D01*
X140756777Y-67143223D01*
X140773253Y-67161402D01*
X140787867Y-67181107D01*
X140800480Y-67202151D01*
X140810970Y-67224329D01*
X140819235Y-67247429D01*
X140825196Y-67271227D01*
X140828796Y-67295496D01*
X140830000Y-67320000D01*
X140830000Y-68570000D01*
X140828796Y-68594504D01*
X140825196Y-68618773D01*
X140819235Y-68642571D01*
X140810970Y-68665671D01*
X140800480Y-68687849D01*
X140787867Y-68708893D01*
X140773253Y-68728598D01*
X140756777Y-68746777D01*
X140738598Y-68763253D01*
X140718893Y-68777867D01*
X140697849Y-68790480D01*
X140675671Y-68800970D01*
X140652571Y-68809235D01*
X140628773Y-68815196D01*
X140604504Y-68818796D01*
X140580000Y-68820000D01*
X139830000Y-68820000D01*
X139805496Y-68818796D01*
X139781227Y-68815196D01*
X139757429Y-68809235D01*
X139734329Y-68800970D01*
X139712151Y-68790480D01*
X139691107Y-68777867D01*
X139671402Y-68763253D01*
X139653223Y-68746777D01*
X139636747Y-68728598D01*
X139622133Y-68708893D01*
X139609520Y-68687849D01*
X139599030Y-68665671D01*
X139590765Y-68642571D01*
X139584804Y-68618773D01*
X139581204Y-68594504D01*
X139580000Y-68570000D01*
X139580000Y-67320000D01*
X139581204Y-67295496D01*
X139584804Y-67271227D01*
X139590765Y-67247429D01*
X139599030Y-67224329D01*
X139609520Y-67202151D01*
X139622133Y-67181107D01*
X139636747Y-67161402D01*
X139653223Y-67143223D01*
X139671402Y-67126747D01*
X139691107Y-67112133D01*
X139712151Y-67099520D01*
X139734329Y-67089030D01*
X139757429Y-67080765D01*
X139781227Y-67074804D01*
X139805496Y-67071204D01*
X139830000Y-67070000D01*
X140580000Y-67070000D01*
X140604504Y-67071204D01*
X140604504Y-67071204D01*
G37*
D11*
X140205000Y-67945000D03*
D10*
G36*
X143404504Y-67071204D02*
X143428773Y-67074804D01*
X143452571Y-67080765D01*
X143475671Y-67089030D01*
X143497849Y-67099520D01*
X143518893Y-67112133D01*
X143538598Y-67126747D01*
X143556777Y-67143223D01*
X143573253Y-67161402D01*
X143587867Y-67181107D01*
X143600480Y-67202151D01*
X143610970Y-67224329D01*
X143619235Y-67247429D01*
X143625196Y-67271227D01*
X143628796Y-67295496D01*
X143630000Y-67320000D01*
X143630000Y-68570000D01*
X143628796Y-68594504D01*
X143625196Y-68618773D01*
X143619235Y-68642571D01*
X143610970Y-68665671D01*
X143600480Y-68687849D01*
X143587867Y-68708893D01*
X143573253Y-68728598D01*
X143556777Y-68746777D01*
X143538598Y-68763253D01*
X143518893Y-68777867D01*
X143497849Y-68790480D01*
X143475671Y-68800970D01*
X143452571Y-68809235D01*
X143428773Y-68815196D01*
X143404504Y-68818796D01*
X143380000Y-68820000D01*
X142630000Y-68820000D01*
X142605496Y-68818796D01*
X142581227Y-68815196D01*
X142557429Y-68809235D01*
X142534329Y-68800970D01*
X142512151Y-68790480D01*
X142491107Y-68777867D01*
X142471402Y-68763253D01*
X142453223Y-68746777D01*
X142436747Y-68728598D01*
X142422133Y-68708893D01*
X142409520Y-68687849D01*
X142399030Y-68665671D01*
X142390765Y-68642571D01*
X142384804Y-68618773D01*
X142381204Y-68594504D01*
X142380000Y-68570000D01*
X142380000Y-67320000D01*
X142381204Y-67295496D01*
X142384804Y-67271227D01*
X142390765Y-67247429D01*
X142399030Y-67224329D01*
X142409520Y-67202151D01*
X142422133Y-67181107D01*
X142436747Y-67161402D01*
X142453223Y-67143223D01*
X142471402Y-67126747D01*
X142491107Y-67112133D01*
X142512151Y-67099520D01*
X142534329Y-67089030D01*
X142557429Y-67080765D01*
X142581227Y-67074804D01*
X142605496Y-67071204D01*
X142630000Y-67070000D01*
X143380000Y-67070000D01*
X143404504Y-67071204D01*
X143404504Y-67071204D01*
G37*
D11*
X143005000Y-67945000D03*
G04 #@! TD*
D10*
G04 #@! TO.C,D27*
G36*
X159654504Y-67071204D02*
X159678773Y-67074804D01*
X159702571Y-67080765D01*
X159725671Y-67089030D01*
X159747849Y-67099520D01*
X159768893Y-67112133D01*
X159788598Y-67126747D01*
X159806777Y-67143223D01*
X159823253Y-67161402D01*
X159837867Y-67181107D01*
X159850480Y-67202151D01*
X159860970Y-67224329D01*
X159869235Y-67247429D01*
X159875196Y-67271227D01*
X159878796Y-67295496D01*
X159880000Y-67320000D01*
X159880000Y-68570000D01*
X159878796Y-68594504D01*
X159875196Y-68618773D01*
X159869235Y-68642571D01*
X159860970Y-68665671D01*
X159850480Y-68687849D01*
X159837867Y-68708893D01*
X159823253Y-68728598D01*
X159806777Y-68746777D01*
X159788598Y-68763253D01*
X159768893Y-68777867D01*
X159747849Y-68790480D01*
X159725671Y-68800970D01*
X159702571Y-68809235D01*
X159678773Y-68815196D01*
X159654504Y-68818796D01*
X159630000Y-68820000D01*
X158880000Y-68820000D01*
X158855496Y-68818796D01*
X158831227Y-68815196D01*
X158807429Y-68809235D01*
X158784329Y-68800970D01*
X158762151Y-68790480D01*
X158741107Y-68777867D01*
X158721402Y-68763253D01*
X158703223Y-68746777D01*
X158686747Y-68728598D01*
X158672133Y-68708893D01*
X158659520Y-68687849D01*
X158649030Y-68665671D01*
X158640765Y-68642571D01*
X158634804Y-68618773D01*
X158631204Y-68594504D01*
X158630000Y-68570000D01*
X158630000Y-67320000D01*
X158631204Y-67295496D01*
X158634804Y-67271227D01*
X158640765Y-67247429D01*
X158649030Y-67224329D01*
X158659520Y-67202151D01*
X158672133Y-67181107D01*
X158686747Y-67161402D01*
X158703223Y-67143223D01*
X158721402Y-67126747D01*
X158741107Y-67112133D01*
X158762151Y-67099520D01*
X158784329Y-67089030D01*
X158807429Y-67080765D01*
X158831227Y-67074804D01*
X158855496Y-67071204D01*
X158880000Y-67070000D01*
X159630000Y-67070000D01*
X159654504Y-67071204D01*
X159654504Y-67071204D01*
G37*
D11*
X159255000Y-67945000D03*
D10*
G36*
X162454504Y-67071204D02*
X162478773Y-67074804D01*
X162502571Y-67080765D01*
X162525671Y-67089030D01*
X162547849Y-67099520D01*
X162568893Y-67112133D01*
X162588598Y-67126747D01*
X162606777Y-67143223D01*
X162623253Y-67161402D01*
X162637867Y-67181107D01*
X162650480Y-67202151D01*
X162660970Y-67224329D01*
X162669235Y-67247429D01*
X162675196Y-67271227D01*
X162678796Y-67295496D01*
X162680000Y-67320000D01*
X162680000Y-68570000D01*
X162678796Y-68594504D01*
X162675196Y-68618773D01*
X162669235Y-68642571D01*
X162660970Y-68665671D01*
X162650480Y-68687849D01*
X162637867Y-68708893D01*
X162623253Y-68728598D01*
X162606777Y-68746777D01*
X162588598Y-68763253D01*
X162568893Y-68777867D01*
X162547849Y-68790480D01*
X162525671Y-68800970D01*
X162502571Y-68809235D01*
X162478773Y-68815196D01*
X162454504Y-68818796D01*
X162430000Y-68820000D01*
X161680000Y-68820000D01*
X161655496Y-68818796D01*
X161631227Y-68815196D01*
X161607429Y-68809235D01*
X161584329Y-68800970D01*
X161562151Y-68790480D01*
X161541107Y-68777867D01*
X161521402Y-68763253D01*
X161503223Y-68746777D01*
X161486747Y-68728598D01*
X161472133Y-68708893D01*
X161459520Y-68687849D01*
X161449030Y-68665671D01*
X161440765Y-68642571D01*
X161434804Y-68618773D01*
X161431204Y-68594504D01*
X161430000Y-68570000D01*
X161430000Y-67320000D01*
X161431204Y-67295496D01*
X161434804Y-67271227D01*
X161440765Y-67247429D01*
X161449030Y-67224329D01*
X161459520Y-67202151D01*
X161472133Y-67181107D01*
X161486747Y-67161402D01*
X161503223Y-67143223D01*
X161521402Y-67126747D01*
X161541107Y-67112133D01*
X161562151Y-67099520D01*
X161584329Y-67089030D01*
X161607429Y-67080765D01*
X161631227Y-67074804D01*
X161655496Y-67071204D01*
X161680000Y-67070000D01*
X162430000Y-67070000D01*
X162454504Y-67071204D01*
X162454504Y-67071204D01*
G37*
D11*
X162055000Y-67945000D03*
G04 #@! TD*
D10*
G04 #@! TO.C,D28*
G36*
X178704504Y-67071204D02*
X178728773Y-67074804D01*
X178752571Y-67080765D01*
X178775671Y-67089030D01*
X178797849Y-67099520D01*
X178818893Y-67112133D01*
X178838598Y-67126747D01*
X178856777Y-67143223D01*
X178873253Y-67161402D01*
X178887867Y-67181107D01*
X178900480Y-67202151D01*
X178910970Y-67224329D01*
X178919235Y-67247429D01*
X178925196Y-67271227D01*
X178928796Y-67295496D01*
X178930000Y-67320000D01*
X178930000Y-68570000D01*
X178928796Y-68594504D01*
X178925196Y-68618773D01*
X178919235Y-68642571D01*
X178910970Y-68665671D01*
X178900480Y-68687849D01*
X178887867Y-68708893D01*
X178873253Y-68728598D01*
X178856777Y-68746777D01*
X178838598Y-68763253D01*
X178818893Y-68777867D01*
X178797849Y-68790480D01*
X178775671Y-68800970D01*
X178752571Y-68809235D01*
X178728773Y-68815196D01*
X178704504Y-68818796D01*
X178680000Y-68820000D01*
X177930000Y-68820000D01*
X177905496Y-68818796D01*
X177881227Y-68815196D01*
X177857429Y-68809235D01*
X177834329Y-68800970D01*
X177812151Y-68790480D01*
X177791107Y-68777867D01*
X177771402Y-68763253D01*
X177753223Y-68746777D01*
X177736747Y-68728598D01*
X177722133Y-68708893D01*
X177709520Y-68687849D01*
X177699030Y-68665671D01*
X177690765Y-68642571D01*
X177684804Y-68618773D01*
X177681204Y-68594504D01*
X177680000Y-68570000D01*
X177680000Y-67320000D01*
X177681204Y-67295496D01*
X177684804Y-67271227D01*
X177690765Y-67247429D01*
X177699030Y-67224329D01*
X177709520Y-67202151D01*
X177722133Y-67181107D01*
X177736747Y-67161402D01*
X177753223Y-67143223D01*
X177771402Y-67126747D01*
X177791107Y-67112133D01*
X177812151Y-67099520D01*
X177834329Y-67089030D01*
X177857429Y-67080765D01*
X177881227Y-67074804D01*
X177905496Y-67071204D01*
X177930000Y-67070000D01*
X178680000Y-67070000D01*
X178704504Y-67071204D01*
X178704504Y-67071204D01*
G37*
D11*
X178305000Y-67945000D03*
D10*
G36*
X181504504Y-67071204D02*
X181528773Y-67074804D01*
X181552571Y-67080765D01*
X181575671Y-67089030D01*
X181597849Y-67099520D01*
X181618893Y-67112133D01*
X181638598Y-67126747D01*
X181656777Y-67143223D01*
X181673253Y-67161402D01*
X181687867Y-67181107D01*
X181700480Y-67202151D01*
X181710970Y-67224329D01*
X181719235Y-67247429D01*
X181725196Y-67271227D01*
X181728796Y-67295496D01*
X181730000Y-67320000D01*
X181730000Y-68570000D01*
X181728796Y-68594504D01*
X181725196Y-68618773D01*
X181719235Y-68642571D01*
X181710970Y-68665671D01*
X181700480Y-68687849D01*
X181687867Y-68708893D01*
X181673253Y-68728598D01*
X181656777Y-68746777D01*
X181638598Y-68763253D01*
X181618893Y-68777867D01*
X181597849Y-68790480D01*
X181575671Y-68800970D01*
X181552571Y-68809235D01*
X181528773Y-68815196D01*
X181504504Y-68818796D01*
X181480000Y-68820000D01*
X180730000Y-68820000D01*
X180705496Y-68818796D01*
X180681227Y-68815196D01*
X180657429Y-68809235D01*
X180634329Y-68800970D01*
X180612151Y-68790480D01*
X180591107Y-68777867D01*
X180571402Y-68763253D01*
X180553223Y-68746777D01*
X180536747Y-68728598D01*
X180522133Y-68708893D01*
X180509520Y-68687849D01*
X180499030Y-68665671D01*
X180490765Y-68642571D01*
X180484804Y-68618773D01*
X180481204Y-68594504D01*
X180480000Y-68570000D01*
X180480000Y-67320000D01*
X180481204Y-67295496D01*
X180484804Y-67271227D01*
X180490765Y-67247429D01*
X180499030Y-67224329D01*
X180509520Y-67202151D01*
X180522133Y-67181107D01*
X180536747Y-67161402D01*
X180553223Y-67143223D01*
X180571402Y-67126747D01*
X180591107Y-67112133D01*
X180612151Y-67099520D01*
X180634329Y-67089030D01*
X180657429Y-67080765D01*
X180681227Y-67074804D01*
X180705496Y-67071204D01*
X180730000Y-67070000D01*
X181480000Y-67070000D01*
X181504504Y-67071204D01*
X181504504Y-67071204D01*
G37*
D11*
X181105000Y-67945000D03*
G04 #@! TD*
D10*
G04 #@! TO.C,D29*
G36*
X197754504Y-67071204D02*
X197778773Y-67074804D01*
X197802571Y-67080765D01*
X197825671Y-67089030D01*
X197847849Y-67099520D01*
X197868893Y-67112133D01*
X197888598Y-67126747D01*
X197906777Y-67143223D01*
X197923253Y-67161402D01*
X197937867Y-67181107D01*
X197950480Y-67202151D01*
X197960970Y-67224329D01*
X197969235Y-67247429D01*
X197975196Y-67271227D01*
X197978796Y-67295496D01*
X197980000Y-67320000D01*
X197980000Y-68570000D01*
X197978796Y-68594504D01*
X197975196Y-68618773D01*
X197969235Y-68642571D01*
X197960970Y-68665671D01*
X197950480Y-68687849D01*
X197937867Y-68708893D01*
X197923253Y-68728598D01*
X197906777Y-68746777D01*
X197888598Y-68763253D01*
X197868893Y-68777867D01*
X197847849Y-68790480D01*
X197825671Y-68800970D01*
X197802571Y-68809235D01*
X197778773Y-68815196D01*
X197754504Y-68818796D01*
X197730000Y-68820000D01*
X196980000Y-68820000D01*
X196955496Y-68818796D01*
X196931227Y-68815196D01*
X196907429Y-68809235D01*
X196884329Y-68800970D01*
X196862151Y-68790480D01*
X196841107Y-68777867D01*
X196821402Y-68763253D01*
X196803223Y-68746777D01*
X196786747Y-68728598D01*
X196772133Y-68708893D01*
X196759520Y-68687849D01*
X196749030Y-68665671D01*
X196740765Y-68642571D01*
X196734804Y-68618773D01*
X196731204Y-68594504D01*
X196730000Y-68570000D01*
X196730000Y-67320000D01*
X196731204Y-67295496D01*
X196734804Y-67271227D01*
X196740765Y-67247429D01*
X196749030Y-67224329D01*
X196759520Y-67202151D01*
X196772133Y-67181107D01*
X196786747Y-67161402D01*
X196803223Y-67143223D01*
X196821402Y-67126747D01*
X196841107Y-67112133D01*
X196862151Y-67099520D01*
X196884329Y-67089030D01*
X196907429Y-67080765D01*
X196931227Y-67074804D01*
X196955496Y-67071204D01*
X196980000Y-67070000D01*
X197730000Y-67070000D01*
X197754504Y-67071204D01*
X197754504Y-67071204D01*
G37*
D11*
X197355000Y-67945000D03*
D10*
G36*
X200554504Y-67071204D02*
X200578773Y-67074804D01*
X200602571Y-67080765D01*
X200625671Y-67089030D01*
X200647849Y-67099520D01*
X200668893Y-67112133D01*
X200688598Y-67126747D01*
X200706777Y-67143223D01*
X200723253Y-67161402D01*
X200737867Y-67181107D01*
X200750480Y-67202151D01*
X200760970Y-67224329D01*
X200769235Y-67247429D01*
X200775196Y-67271227D01*
X200778796Y-67295496D01*
X200780000Y-67320000D01*
X200780000Y-68570000D01*
X200778796Y-68594504D01*
X200775196Y-68618773D01*
X200769235Y-68642571D01*
X200760970Y-68665671D01*
X200750480Y-68687849D01*
X200737867Y-68708893D01*
X200723253Y-68728598D01*
X200706777Y-68746777D01*
X200688598Y-68763253D01*
X200668893Y-68777867D01*
X200647849Y-68790480D01*
X200625671Y-68800970D01*
X200602571Y-68809235D01*
X200578773Y-68815196D01*
X200554504Y-68818796D01*
X200530000Y-68820000D01*
X199780000Y-68820000D01*
X199755496Y-68818796D01*
X199731227Y-68815196D01*
X199707429Y-68809235D01*
X199684329Y-68800970D01*
X199662151Y-68790480D01*
X199641107Y-68777867D01*
X199621402Y-68763253D01*
X199603223Y-68746777D01*
X199586747Y-68728598D01*
X199572133Y-68708893D01*
X199559520Y-68687849D01*
X199549030Y-68665671D01*
X199540765Y-68642571D01*
X199534804Y-68618773D01*
X199531204Y-68594504D01*
X199530000Y-68570000D01*
X199530000Y-67320000D01*
X199531204Y-67295496D01*
X199534804Y-67271227D01*
X199540765Y-67247429D01*
X199549030Y-67224329D01*
X199559520Y-67202151D01*
X199572133Y-67181107D01*
X199586747Y-67161402D01*
X199603223Y-67143223D01*
X199621402Y-67126747D01*
X199641107Y-67112133D01*
X199662151Y-67099520D01*
X199684329Y-67089030D01*
X199707429Y-67080765D01*
X199731227Y-67074804D01*
X199755496Y-67071204D01*
X199780000Y-67070000D01*
X200530000Y-67070000D01*
X200554504Y-67071204D01*
X200554504Y-67071204D01*
G37*
D11*
X200155000Y-67945000D03*
G04 #@! TD*
D10*
G04 #@! TO.C,D31*
G36*
X48154504Y-86121204D02*
X48178773Y-86124804D01*
X48202571Y-86130765D01*
X48225671Y-86139030D01*
X48247849Y-86149520D01*
X48268893Y-86162133D01*
X48288598Y-86176747D01*
X48306777Y-86193223D01*
X48323253Y-86211402D01*
X48337867Y-86231107D01*
X48350480Y-86252151D01*
X48360970Y-86274329D01*
X48369235Y-86297429D01*
X48375196Y-86321227D01*
X48378796Y-86345496D01*
X48380000Y-86370000D01*
X48380000Y-87620000D01*
X48378796Y-87644504D01*
X48375196Y-87668773D01*
X48369235Y-87692571D01*
X48360970Y-87715671D01*
X48350480Y-87737849D01*
X48337867Y-87758893D01*
X48323253Y-87778598D01*
X48306777Y-87796777D01*
X48288598Y-87813253D01*
X48268893Y-87827867D01*
X48247849Y-87840480D01*
X48225671Y-87850970D01*
X48202571Y-87859235D01*
X48178773Y-87865196D01*
X48154504Y-87868796D01*
X48130000Y-87870000D01*
X47380000Y-87870000D01*
X47355496Y-87868796D01*
X47331227Y-87865196D01*
X47307429Y-87859235D01*
X47284329Y-87850970D01*
X47262151Y-87840480D01*
X47241107Y-87827867D01*
X47221402Y-87813253D01*
X47203223Y-87796777D01*
X47186747Y-87778598D01*
X47172133Y-87758893D01*
X47159520Y-87737849D01*
X47149030Y-87715671D01*
X47140765Y-87692571D01*
X47134804Y-87668773D01*
X47131204Y-87644504D01*
X47130000Y-87620000D01*
X47130000Y-86370000D01*
X47131204Y-86345496D01*
X47134804Y-86321227D01*
X47140765Y-86297429D01*
X47149030Y-86274329D01*
X47159520Y-86252151D01*
X47172133Y-86231107D01*
X47186747Y-86211402D01*
X47203223Y-86193223D01*
X47221402Y-86176747D01*
X47241107Y-86162133D01*
X47262151Y-86149520D01*
X47284329Y-86139030D01*
X47307429Y-86130765D01*
X47331227Y-86124804D01*
X47355496Y-86121204D01*
X47380000Y-86120000D01*
X48130000Y-86120000D01*
X48154504Y-86121204D01*
X48154504Y-86121204D01*
G37*
D11*
X47755000Y-86995000D03*
D10*
G36*
X45354504Y-86121204D02*
X45378773Y-86124804D01*
X45402571Y-86130765D01*
X45425671Y-86139030D01*
X45447849Y-86149520D01*
X45468893Y-86162133D01*
X45488598Y-86176747D01*
X45506777Y-86193223D01*
X45523253Y-86211402D01*
X45537867Y-86231107D01*
X45550480Y-86252151D01*
X45560970Y-86274329D01*
X45569235Y-86297429D01*
X45575196Y-86321227D01*
X45578796Y-86345496D01*
X45580000Y-86370000D01*
X45580000Y-87620000D01*
X45578796Y-87644504D01*
X45575196Y-87668773D01*
X45569235Y-87692571D01*
X45560970Y-87715671D01*
X45550480Y-87737849D01*
X45537867Y-87758893D01*
X45523253Y-87778598D01*
X45506777Y-87796777D01*
X45488598Y-87813253D01*
X45468893Y-87827867D01*
X45447849Y-87840480D01*
X45425671Y-87850970D01*
X45402571Y-87859235D01*
X45378773Y-87865196D01*
X45354504Y-87868796D01*
X45330000Y-87870000D01*
X44580000Y-87870000D01*
X44555496Y-87868796D01*
X44531227Y-87865196D01*
X44507429Y-87859235D01*
X44484329Y-87850970D01*
X44462151Y-87840480D01*
X44441107Y-87827867D01*
X44421402Y-87813253D01*
X44403223Y-87796777D01*
X44386747Y-87778598D01*
X44372133Y-87758893D01*
X44359520Y-87737849D01*
X44349030Y-87715671D01*
X44340765Y-87692571D01*
X44334804Y-87668773D01*
X44331204Y-87644504D01*
X44330000Y-87620000D01*
X44330000Y-86370000D01*
X44331204Y-86345496D01*
X44334804Y-86321227D01*
X44340765Y-86297429D01*
X44349030Y-86274329D01*
X44359520Y-86252151D01*
X44372133Y-86231107D01*
X44386747Y-86211402D01*
X44403223Y-86193223D01*
X44421402Y-86176747D01*
X44441107Y-86162133D01*
X44462151Y-86149520D01*
X44484329Y-86139030D01*
X44507429Y-86130765D01*
X44531227Y-86124804D01*
X44555496Y-86121204D01*
X44580000Y-86120000D01*
X45330000Y-86120000D01*
X45354504Y-86121204D01*
X45354504Y-86121204D01*
G37*
D11*
X44955000Y-86995000D03*
G04 #@! TD*
D10*
G04 #@! TO.C,D32*
G36*
X67204504Y-86121204D02*
X67228773Y-86124804D01*
X67252571Y-86130765D01*
X67275671Y-86139030D01*
X67297849Y-86149520D01*
X67318893Y-86162133D01*
X67338598Y-86176747D01*
X67356777Y-86193223D01*
X67373253Y-86211402D01*
X67387867Y-86231107D01*
X67400480Y-86252151D01*
X67410970Y-86274329D01*
X67419235Y-86297429D01*
X67425196Y-86321227D01*
X67428796Y-86345496D01*
X67430000Y-86370000D01*
X67430000Y-87620000D01*
X67428796Y-87644504D01*
X67425196Y-87668773D01*
X67419235Y-87692571D01*
X67410970Y-87715671D01*
X67400480Y-87737849D01*
X67387867Y-87758893D01*
X67373253Y-87778598D01*
X67356777Y-87796777D01*
X67338598Y-87813253D01*
X67318893Y-87827867D01*
X67297849Y-87840480D01*
X67275671Y-87850970D01*
X67252571Y-87859235D01*
X67228773Y-87865196D01*
X67204504Y-87868796D01*
X67180000Y-87870000D01*
X66430000Y-87870000D01*
X66405496Y-87868796D01*
X66381227Y-87865196D01*
X66357429Y-87859235D01*
X66334329Y-87850970D01*
X66312151Y-87840480D01*
X66291107Y-87827867D01*
X66271402Y-87813253D01*
X66253223Y-87796777D01*
X66236747Y-87778598D01*
X66222133Y-87758893D01*
X66209520Y-87737849D01*
X66199030Y-87715671D01*
X66190765Y-87692571D01*
X66184804Y-87668773D01*
X66181204Y-87644504D01*
X66180000Y-87620000D01*
X66180000Y-86370000D01*
X66181204Y-86345496D01*
X66184804Y-86321227D01*
X66190765Y-86297429D01*
X66199030Y-86274329D01*
X66209520Y-86252151D01*
X66222133Y-86231107D01*
X66236747Y-86211402D01*
X66253223Y-86193223D01*
X66271402Y-86176747D01*
X66291107Y-86162133D01*
X66312151Y-86149520D01*
X66334329Y-86139030D01*
X66357429Y-86130765D01*
X66381227Y-86124804D01*
X66405496Y-86121204D01*
X66430000Y-86120000D01*
X67180000Y-86120000D01*
X67204504Y-86121204D01*
X67204504Y-86121204D01*
G37*
D11*
X66805000Y-86995000D03*
D10*
G36*
X64404504Y-86121204D02*
X64428773Y-86124804D01*
X64452571Y-86130765D01*
X64475671Y-86139030D01*
X64497849Y-86149520D01*
X64518893Y-86162133D01*
X64538598Y-86176747D01*
X64556777Y-86193223D01*
X64573253Y-86211402D01*
X64587867Y-86231107D01*
X64600480Y-86252151D01*
X64610970Y-86274329D01*
X64619235Y-86297429D01*
X64625196Y-86321227D01*
X64628796Y-86345496D01*
X64630000Y-86370000D01*
X64630000Y-87620000D01*
X64628796Y-87644504D01*
X64625196Y-87668773D01*
X64619235Y-87692571D01*
X64610970Y-87715671D01*
X64600480Y-87737849D01*
X64587867Y-87758893D01*
X64573253Y-87778598D01*
X64556777Y-87796777D01*
X64538598Y-87813253D01*
X64518893Y-87827867D01*
X64497849Y-87840480D01*
X64475671Y-87850970D01*
X64452571Y-87859235D01*
X64428773Y-87865196D01*
X64404504Y-87868796D01*
X64380000Y-87870000D01*
X63630000Y-87870000D01*
X63605496Y-87868796D01*
X63581227Y-87865196D01*
X63557429Y-87859235D01*
X63534329Y-87850970D01*
X63512151Y-87840480D01*
X63491107Y-87827867D01*
X63471402Y-87813253D01*
X63453223Y-87796777D01*
X63436747Y-87778598D01*
X63422133Y-87758893D01*
X63409520Y-87737849D01*
X63399030Y-87715671D01*
X63390765Y-87692571D01*
X63384804Y-87668773D01*
X63381204Y-87644504D01*
X63380000Y-87620000D01*
X63380000Y-86370000D01*
X63381204Y-86345496D01*
X63384804Y-86321227D01*
X63390765Y-86297429D01*
X63399030Y-86274329D01*
X63409520Y-86252151D01*
X63422133Y-86231107D01*
X63436747Y-86211402D01*
X63453223Y-86193223D01*
X63471402Y-86176747D01*
X63491107Y-86162133D01*
X63512151Y-86149520D01*
X63534329Y-86139030D01*
X63557429Y-86130765D01*
X63581227Y-86124804D01*
X63605496Y-86121204D01*
X63630000Y-86120000D01*
X64380000Y-86120000D01*
X64404504Y-86121204D01*
X64404504Y-86121204D01*
G37*
D11*
X64005000Y-86995000D03*
G04 #@! TD*
D10*
G04 #@! TO.C,D33*
G36*
X86254504Y-86121204D02*
X86278773Y-86124804D01*
X86302571Y-86130765D01*
X86325671Y-86139030D01*
X86347849Y-86149520D01*
X86368893Y-86162133D01*
X86388598Y-86176747D01*
X86406777Y-86193223D01*
X86423253Y-86211402D01*
X86437867Y-86231107D01*
X86450480Y-86252151D01*
X86460970Y-86274329D01*
X86469235Y-86297429D01*
X86475196Y-86321227D01*
X86478796Y-86345496D01*
X86480000Y-86370000D01*
X86480000Y-87620000D01*
X86478796Y-87644504D01*
X86475196Y-87668773D01*
X86469235Y-87692571D01*
X86460970Y-87715671D01*
X86450480Y-87737849D01*
X86437867Y-87758893D01*
X86423253Y-87778598D01*
X86406777Y-87796777D01*
X86388598Y-87813253D01*
X86368893Y-87827867D01*
X86347849Y-87840480D01*
X86325671Y-87850970D01*
X86302571Y-87859235D01*
X86278773Y-87865196D01*
X86254504Y-87868796D01*
X86230000Y-87870000D01*
X85480000Y-87870000D01*
X85455496Y-87868796D01*
X85431227Y-87865196D01*
X85407429Y-87859235D01*
X85384329Y-87850970D01*
X85362151Y-87840480D01*
X85341107Y-87827867D01*
X85321402Y-87813253D01*
X85303223Y-87796777D01*
X85286747Y-87778598D01*
X85272133Y-87758893D01*
X85259520Y-87737849D01*
X85249030Y-87715671D01*
X85240765Y-87692571D01*
X85234804Y-87668773D01*
X85231204Y-87644504D01*
X85230000Y-87620000D01*
X85230000Y-86370000D01*
X85231204Y-86345496D01*
X85234804Y-86321227D01*
X85240765Y-86297429D01*
X85249030Y-86274329D01*
X85259520Y-86252151D01*
X85272133Y-86231107D01*
X85286747Y-86211402D01*
X85303223Y-86193223D01*
X85321402Y-86176747D01*
X85341107Y-86162133D01*
X85362151Y-86149520D01*
X85384329Y-86139030D01*
X85407429Y-86130765D01*
X85431227Y-86124804D01*
X85455496Y-86121204D01*
X85480000Y-86120000D01*
X86230000Y-86120000D01*
X86254504Y-86121204D01*
X86254504Y-86121204D01*
G37*
D11*
X85855000Y-86995000D03*
D10*
G36*
X83454504Y-86121204D02*
X83478773Y-86124804D01*
X83502571Y-86130765D01*
X83525671Y-86139030D01*
X83547849Y-86149520D01*
X83568893Y-86162133D01*
X83588598Y-86176747D01*
X83606777Y-86193223D01*
X83623253Y-86211402D01*
X83637867Y-86231107D01*
X83650480Y-86252151D01*
X83660970Y-86274329D01*
X83669235Y-86297429D01*
X83675196Y-86321227D01*
X83678796Y-86345496D01*
X83680000Y-86370000D01*
X83680000Y-87620000D01*
X83678796Y-87644504D01*
X83675196Y-87668773D01*
X83669235Y-87692571D01*
X83660970Y-87715671D01*
X83650480Y-87737849D01*
X83637867Y-87758893D01*
X83623253Y-87778598D01*
X83606777Y-87796777D01*
X83588598Y-87813253D01*
X83568893Y-87827867D01*
X83547849Y-87840480D01*
X83525671Y-87850970D01*
X83502571Y-87859235D01*
X83478773Y-87865196D01*
X83454504Y-87868796D01*
X83430000Y-87870000D01*
X82680000Y-87870000D01*
X82655496Y-87868796D01*
X82631227Y-87865196D01*
X82607429Y-87859235D01*
X82584329Y-87850970D01*
X82562151Y-87840480D01*
X82541107Y-87827867D01*
X82521402Y-87813253D01*
X82503223Y-87796777D01*
X82486747Y-87778598D01*
X82472133Y-87758893D01*
X82459520Y-87737849D01*
X82449030Y-87715671D01*
X82440765Y-87692571D01*
X82434804Y-87668773D01*
X82431204Y-87644504D01*
X82430000Y-87620000D01*
X82430000Y-86370000D01*
X82431204Y-86345496D01*
X82434804Y-86321227D01*
X82440765Y-86297429D01*
X82449030Y-86274329D01*
X82459520Y-86252151D01*
X82472133Y-86231107D01*
X82486747Y-86211402D01*
X82503223Y-86193223D01*
X82521402Y-86176747D01*
X82541107Y-86162133D01*
X82562151Y-86149520D01*
X82584329Y-86139030D01*
X82607429Y-86130765D01*
X82631227Y-86124804D01*
X82655496Y-86121204D01*
X82680000Y-86120000D01*
X83430000Y-86120000D01*
X83454504Y-86121204D01*
X83454504Y-86121204D01*
G37*
D11*
X83055000Y-86995000D03*
G04 #@! TD*
D10*
G04 #@! TO.C,D34*
G36*
X105304504Y-86121204D02*
X105328773Y-86124804D01*
X105352571Y-86130765D01*
X105375671Y-86139030D01*
X105397849Y-86149520D01*
X105418893Y-86162133D01*
X105438598Y-86176747D01*
X105456777Y-86193223D01*
X105473253Y-86211402D01*
X105487867Y-86231107D01*
X105500480Y-86252151D01*
X105510970Y-86274329D01*
X105519235Y-86297429D01*
X105525196Y-86321227D01*
X105528796Y-86345496D01*
X105530000Y-86370000D01*
X105530000Y-87620000D01*
X105528796Y-87644504D01*
X105525196Y-87668773D01*
X105519235Y-87692571D01*
X105510970Y-87715671D01*
X105500480Y-87737849D01*
X105487867Y-87758893D01*
X105473253Y-87778598D01*
X105456777Y-87796777D01*
X105438598Y-87813253D01*
X105418893Y-87827867D01*
X105397849Y-87840480D01*
X105375671Y-87850970D01*
X105352571Y-87859235D01*
X105328773Y-87865196D01*
X105304504Y-87868796D01*
X105280000Y-87870000D01*
X104530000Y-87870000D01*
X104505496Y-87868796D01*
X104481227Y-87865196D01*
X104457429Y-87859235D01*
X104434329Y-87850970D01*
X104412151Y-87840480D01*
X104391107Y-87827867D01*
X104371402Y-87813253D01*
X104353223Y-87796777D01*
X104336747Y-87778598D01*
X104322133Y-87758893D01*
X104309520Y-87737849D01*
X104299030Y-87715671D01*
X104290765Y-87692571D01*
X104284804Y-87668773D01*
X104281204Y-87644504D01*
X104280000Y-87620000D01*
X104280000Y-86370000D01*
X104281204Y-86345496D01*
X104284804Y-86321227D01*
X104290765Y-86297429D01*
X104299030Y-86274329D01*
X104309520Y-86252151D01*
X104322133Y-86231107D01*
X104336747Y-86211402D01*
X104353223Y-86193223D01*
X104371402Y-86176747D01*
X104391107Y-86162133D01*
X104412151Y-86149520D01*
X104434329Y-86139030D01*
X104457429Y-86130765D01*
X104481227Y-86124804D01*
X104505496Y-86121204D01*
X104530000Y-86120000D01*
X105280000Y-86120000D01*
X105304504Y-86121204D01*
X105304504Y-86121204D01*
G37*
D11*
X104905000Y-86995000D03*
D10*
G36*
X102504504Y-86121204D02*
X102528773Y-86124804D01*
X102552571Y-86130765D01*
X102575671Y-86139030D01*
X102597849Y-86149520D01*
X102618893Y-86162133D01*
X102638598Y-86176747D01*
X102656777Y-86193223D01*
X102673253Y-86211402D01*
X102687867Y-86231107D01*
X102700480Y-86252151D01*
X102710970Y-86274329D01*
X102719235Y-86297429D01*
X102725196Y-86321227D01*
X102728796Y-86345496D01*
X102730000Y-86370000D01*
X102730000Y-87620000D01*
X102728796Y-87644504D01*
X102725196Y-87668773D01*
X102719235Y-87692571D01*
X102710970Y-87715671D01*
X102700480Y-87737849D01*
X102687867Y-87758893D01*
X102673253Y-87778598D01*
X102656777Y-87796777D01*
X102638598Y-87813253D01*
X102618893Y-87827867D01*
X102597849Y-87840480D01*
X102575671Y-87850970D01*
X102552571Y-87859235D01*
X102528773Y-87865196D01*
X102504504Y-87868796D01*
X102480000Y-87870000D01*
X101730000Y-87870000D01*
X101705496Y-87868796D01*
X101681227Y-87865196D01*
X101657429Y-87859235D01*
X101634329Y-87850970D01*
X101612151Y-87840480D01*
X101591107Y-87827867D01*
X101571402Y-87813253D01*
X101553223Y-87796777D01*
X101536747Y-87778598D01*
X101522133Y-87758893D01*
X101509520Y-87737849D01*
X101499030Y-87715671D01*
X101490765Y-87692571D01*
X101484804Y-87668773D01*
X101481204Y-87644504D01*
X101480000Y-87620000D01*
X101480000Y-86370000D01*
X101481204Y-86345496D01*
X101484804Y-86321227D01*
X101490765Y-86297429D01*
X101499030Y-86274329D01*
X101509520Y-86252151D01*
X101522133Y-86231107D01*
X101536747Y-86211402D01*
X101553223Y-86193223D01*
X101571402Y-86176747D01*
X101591107Y-86162133D01*
X101612151Y-86149520D01*
X101634329Y-86139030D01*
X101657429Y-86130765D01*
X101681227Y-86124804D01*
X101705496Y-86121204D01*
X101730000Y-86120000D01*
X102480000Y-86120000D01*
X102504504Y-86121204D01*
X102504504Y-86121204D01*
G37*
D11*
X102105000Y-86995000D03*
G04 #@! TD*
D10*
G04 #@! TO.C,D35*
G36*
X124354504Y-86121204D02*
X124378773Y-86124804D01*
X124402571Y-86130765D01*
X124425671Y-86139030D01*
X124447849Y-86149520D01*
X124468893Y-86162133D01*
X124488598Y-86176747D01*
X124506777Y-86193223D01*
X124523253Y-86211402D01*
X124537867Y-86231107D01*
X124550480Y-86252151D01*
X124560970Y-86274329D01*
X124569235Y-86297429D01*
X124575196Y-86321227D01*
X124578796Y-86345496D01*
X124580000Y-86370000D01*
X124580000Y-87620000D01*
X124578796Y-87644504D01*
X124575196Y-87668773D01*
X124569235Y-87692571D01*
X124560970Y-87715671D01*
X124550480Y-87737849D01*
X124537867Y-87758893D01*
X124523253Y-87778598D01*
X124506777Y-87796777D01*
X124488598Y-87813253D01*
X124468893Y-87827867D01*
X124447849Y-87840480D01*
X124425671Y-87850970D01*
X124402571Y-87859235D01*
X124378773Y-87865196D01*
X124354504Y-87868796D01*
X124330000Y-87870000D01*
X123580000Y-87870000D01*
X123555496Y-87868796D01*
X123531227Y-87865196D01*
X123507429Y-87859235D01*
X123484329Y-87850970D01*
X123462151Y-87840480D01*
X123441107Y-87827867D01*
X123421402Y-87813253D01*
X123403223Y-87796777D01*
X123386747Y-87778598D01*
X123372133Y-87758893D01*
X123359520Y-87737849D01*
X123349030Y-87715671D01*
X123340765Y-87692571D01*
X123334804Y-87668773D01*
X123331204Y-87644504D01*
X123330000Y-87620000D01*
X123330000Y-86370000D01*
X123331204Y-86345496D01*
X123334804Y-86321227D01*
X123340765Y-86297429D01*
X123349030Y-86274329D01*
X123359520Y-86252151D01*
X123372133Y-86231107D01*
X123386747Y-86211402D01*
X123403223Y-86193223D01*
X123421402Y-86176747D01*
X123441107Y-86162133D01*
X123462151Y-86149520D01*
X123484329Y-86139030D01*
X123507429Y-86130765D01*
X123531227Y-86124804D01*
X123555496Y-86121204D01*
X123580000Y-86120000D01*
X124330000Y-86120000D01*
X124354504Y-86121204D01*
X124354504Y-86121204D01*
G37*
D11*
X123955000Y-86995000D03*
D10*
G36*
X121554504Y-86121204D02*
X121578773Y-86124804D01*
X121602571Y-86130765D01*
X121625671Y-86139030D01*
X121647849Y-86149520D01*
X121668893Y-86162133D01*
X121688598Y-86176747D01*
X121706777Y-86193223D01*
X121723253Y-86211402D01*
X121737867Y-86231107D01*
X121750480Y-86252151D01*
X121760970Y-86274329D01*
X121769235Y-86297429D01*
X121775196Y-86321227D01*
X121778796Y-86345496D01*
X121780000Y-86370000D01*
X121780000Y-87620000D01*
X121778796Y-87644504D01*
X121775196Y-87668773D01*
X121769235Y-87692571D01*
X121760970Y-87715671D01*
X121750480Y-87737849D01*
X121737867Y-87758893D01*
X121723253Y-87778598D01*
X121706777Y-87796777D01*
X121688598Y-87813253D01*
X121668893Y-87827867D01*
X121647849Y-87840480D01*
X121625671Y-87850970D01*
X121602571Y-87859235D01*
X121578773Y-87865196D01*
X121554504Y-87868796D01*
X121530000Y-87870000D01*
X120780000Y-87870000D01*
X120755496Y-87868796D01*
X120731227Y-87865196D01*
X120707429Y-87859235D01*
X120684329Y-87850970D01*
X120662151Y-87840480D01*
X120641107Y-87827867D01*
X120621402Y-87813253D01*
X120603223Y-87796777D01*
X120586747Y-87778598D01*
X120572133Y-87758893D01*
X120559520Y-87737849D01*
X120549030Y-87715671D01*
X120540765Y-87692571D01*
X120534804Y-87668773D01*
X120531204Y-87644504D01*
X120530000Y-87620000D01*
X120530000Y-86370000D01*
X120531204Y-86345496D01*
X120534804Y-86321227D01*
X120540765Y-86297429D01*
X120549030Y-86274329D01*
X120559520Y-86252151D01*
X120572133Y-86231107D01*
X120586747Y-86211402D01*
X120603223Y-86193223D01*
X120621402Y-86176747D01*
X120641107Y-86162133D01*
X120662151Y-86149520D01*
X120684329Y-86139030D01*
X120707429Y-86130765D01*
X120731227Y-86124804D01*
X120755496Y-86121204D01*
X120780000Y-86120000D01*
X121530000Y-86120000D01*
X121554504Y-86121204D01*
X121554504Y-86121204D01*
G37*
D11*
X121155000Y-86995000D03*
G04 #@! TD*
D10*
G04 #@! TO.C,D36*
G36*
X143404504Y-86121204D02*
X143428773Y-86124804D01*
X143452571Y-86130765D01*
X143475671Y-86139030D01*
X143497849Y-86149520D01*
X143518893Y-86162133D01*
X143538598Y-86176747D01*
X143556777Y-86193223D01*
X143573253Y-86211402D01*
X143587867Y-86231107D01*
X143600480Y-86252151D01*
X143610970Y-86274329D01*
X143619235Y-86297429D01*
X143625196Y-86321227D01*
X143628796Y-86345496D01*
X143630000Y-86370000D01*
X143630000Y-87620000D01*
X143628796Y-87644504D01*
X143625196Y-87668773D01*
X143619235Y-87692571D01*
X143610970Y-87715671D01*
X143600480Y-87737849D01*
X143587867Y-87758893D01*
X143573253Y-87778598D01*
X143556777Y-87796777D01*
X143538598Y-87813253D01*
X143518893Y-87827867D01*
X143497849Y-87840480D01*
X143475671Y-87850970D01*
X143452571Y-87859235D01*
X143428773Y-87865196D01*
X143404504Y-87868796D01*
X143380000Y-87870000D01*
X142630000Y-87870000D01*
X142605496Y-87868796D01*
X142581227Y-87865196D01*
X142557429Y-87859235D01*
X142534329Y-87850970D01*
X142512151Y-87840480D01*
X142491107Y-87827867D01*
X142471402Y-87813253D01*
X142453223Y-87796777D01*
X142436747Y-87778598D01*
X142422133Y-87758893D01*
X142409520Y-87737849D01*
X142399030Y-87715671D01*
X142390765Y-87692571D01*
X142384804Y-87668773D01*
X142381204Y-87644504D01*
X142380000Y-87620000D01*
X142380000Y-86370000D01*
X142381204Y-86345496D01*
X142384804Y-86321227D01*
X142390765Y-86297429D01*
X142399030Y-86274329D01*
X142409520Y-86252151D01*
X142422133Y-86231107D01*
X142436747Y-86211402D01*
X142453223Y-86193223D01*
X142471402Y-86176747D01*
X142491107Y-86162133D01*
X142512151Y-86149520D01*
X142534329Y-86139030D01*
X142557429Y-86130765D01*
X142581227Y-86124804D01*
X142605496Y-86121204D01*
X142630000Y-86120000D01*
X143380000Y-86120000D01*
X143404504Y-86121204D01*
X143404504Y-86121204D01*
G37*
D11*
X143005000Y-86995000D03*
D10*
G36*
X140604504Y-86121204D02*
X140628773Y-86124804D01*
X140652571Y-86130765D01*
X140675671Y-86139030D01*
X140697849Y-86149520D01*
X140718893Y-86162133D01*
X140738598Y-86176747D01*
X140756777Y-86193223D01*
X140773253Y-86211402D01*
X140787867Y-86231107D01*
X140800480Y-86252151D01*
X140810970Y-86274329D01*
X140819235Y-86297429D01*
X140825196Y-86321227D01*
X140828796Y-86345496D01*
X140830000Y-86370000D01*
X140830000Y-87620000D01*
X140828796Y-87644504D01*
X140825196Y-87668773D01*
X140819235Y-87692571D01*
X140810970Y-87715671D01*
X140800480Y-87737849D01*
X140787867Y-87758893D01*
X140773253Y-87778598D01*
X140756777Y-87796777D01*
X140738598Y-87813253D01*
X140718893Y-87827867D01*
X140697849Y-87840480D01*
X140675671Y-87850970D01*
X140652571Y-87859235D01*
X140628773Y-87865196D01*
X140604504Y-87868796D01*
X140580000Y-87870000D01*
X139830000Y-87870000D01*
X139805496Y-87868796D01*
X139781227Y-87865196D01*
X139757429Y-87859235D01*
X139734329Y-87850970D01*
X139712151Y-87840480D01*
X139691107Y-87827867D01*
X139671402Y-87813253D01*
X139653223Y-87796777D01*
X139636747Y-87778598D01*
X139622133Y-87758893D01*
X139609520Y-87737849D01*
X139599030Y-87715671D01*
X139590765Y-87692571D01*
X139584804Y-87668773D01*
X139581204Y-87644504D01*
X139580000Y-87620000D01*
X139580000Y-86370000D01*
X139581204Y-86345496D01*
X139584804Y-86321227D01*
X139590765Y-86297429D01*
X139599030Y-86274329D01*
X139609520Y-86252151D01*
X139622133Y-86231107D01*
X139636747Y-86211402D01*
X139653223Y-86193223D01*
X139671402Y-86176747D01*
X139691107Y-86162133D01*
X139712151Y-86149520D01*
X139734329Y-86139030D01*
X139757429Y-86130765D01*
X139781227Y-86124804D01*
X139805496Y-86121204D01*
X139830000Y-86120000D01*
X140580000Y-86120000D01*
X140604504Y-86121204D01*
X140604504Y-86121204D01*
G37*
D11*
X140205000Y-86995000D03*
G04 #@! TD*
D10*
G04 #@! TO.C,D37*
G36*
X162454504Y-86121204D02*
X162478773Y-86124804D01*
X162502571Y-86130765D01*
X162525671Y-86139030D01*
X162547849Y-86149520D01*
X162568893Y-86162133D01*
X162588598Y-86176747D01*
X162606777Y-86193223D01*
X162623253Y-86211402D01*
X162637867Y-86231107D01*
X162650480Y-86252151D01*
X162660970Y-86274329D01*
X162669235Y-86297429D01*
X162675196Y-86321227D01*
X162678796Y-86345496D01*
X162680000Y-86370000D01*
X162680000Y-87620000D01*
X162678796Y-87644504D01*
X162675196Y-87668773D01*
X162669235Y-87692571D01*
X162660970Y-87715671D01*
X162650480Y-87737849D01*
X162637867Y-87758893D01*
X162623253Y-87778598D01*
X162606777Y-87796777D01*
X162588598Y-87813253D01*
X162568893Y-87827867D01*
X162547849Y-87840480D01*
X162525671Y-87850970D01*
X162502571Y-87859235D01*
X162478773Y-87865196D01*
X162454504Y-87868796D01*
X162430000Y-87870000D01*
X161680000Y-87870000D01*
X161655496Y-87868796D01*
X161631227Y-87865196D01*
X161607429Y-87859235D01*
X161584329Y-87850970D01*
X161562151Y-87840480D01*
X161541107Y-87827867D01*
X161521402Y-87813253D01*
X161503223Y-87796777D01*
X161486747Y-87778598D01*
X161472133Y-87758893D01*
X161459520Y-87737849D01*
X161449030Y-87715671D01*
X161440765Y-87692571D01*
X161434804Y-87668773D01*
X161431204Y-87644504D01*
X161430000Y-87620000D01*
X161430000Y-86370000D01*
X161431204Y-86345496D01*
X161434804Y-86321227D01*
X161440765Y-86297429D01*
X161449030Y-86274329D01*
X161459520Y-86252151D01*
X161472133Y-86231107D01*
X161486747Y-86211402D01*
X161503223Y-86193223D01*
X161521402Y-86176747D01*
X161541107Y-86162133D01*
X161562151Y-86149520D01*
X161584329Y-86139030D01*
X161607429Y-86130765D01*
X161631227Y-86124804D01*
X161655496Y-86121204D01*
X161680000Y-86120000D01*
X162430000Y-86120000D01*
X162454504Y-86121204D01*
X162454504Y-86121204D01*
G37*
D11*
X162055000Y-86995000D03*
D10*
G36*
X159654504Y-86121204D02*
X159678773Y-86124804D01*
X159702571Y-86130765D01*
X159725671Y-86139030D01*
X159747849Y-86149520D01*
X159768893Y-86162133D01*
X159788598Y-86176747D01*
X159806777Y-86193223D01*
X159823253Y-86211402D01*
X159837867Y-86231107D01*
X159850480Y-86252151D01*
X159860970Y-86274329D01*
X159869235Y-86297429D01*
X159875196Y-86321227D01*
X159878796Y-86345496D01*
X159880000Y-86370000D01*
X159880000Y-87620000D01*
X159878796Y-87644504D01*
X159875196Y-87668773D01*
X159869235Y-87692571D01*
X159860970Y-87715671D01*
X159850480Y-87737849D01*
X159837867Y-87758893D01*
X159823253Y-87778598D01*
X159806777Y-87796777D01*
X159788598Y-87813253D01*
X159768893Y-87827867D01*
X159747849Y-87840480D01*
X159725671Y-87850970D01*
X159702571Y-87859235D01*
X159678773Y-87865196D01*
X159654504Y-87868796D01*
X159630000Y-87870000D01*
X158880000Y-87870000D01*
X158855496Y-87868796D01*
X158831227Y-87865196D01*
X158807429Y-87859235D01*
X158784329Y-87850970D01*
X158762151Y-87840480D01*
X158741107Y-87827867D01*
X158721402Y-87813253D01*
X158703223Y-87796777D01*
X158686747Y-87778598D01*
X158672133Y-87758893D01*
X158659520Y-87737849D01*
X158649030Y-87715671D01*
X158640765Y-87692571D01*
X158634804Y-87668773D01*
X158631204Y-87644504D01*
X158630000Y-87620000D01*
X158630000Y-86370000D01*
X158631204Y-86345496D01*
X158634804Y-86321227D01*
X158640765Y-86297429D01*
X158649030Y-86274329D01*
X158659520Y-86252151D01*
X158672133Y-86231107D01*
X158686747Y-86211402D01*
X158703223Y-86193223D01*
X158721402Y-86176747D01*
X158741107Y-86162133D01*
X158762151Y-86149520D01*
X158784329Y-86139030D01*
X158807429Y-86130765D01*
X158831227Y-86124804D01*
X158855496Y-86121204D01*
X158880000Y-86120000D01*
X159630000Y-86120000D01*
X159654504Y-86121204D01*
X159654504Y-86121204D01*
G37*
D11*
X159255000Y-86995000D03*
G04 #@! TD*
D10*
G04 #@! TO.C,D38*
G36*
X181504504Y-86121204D02*
X181528773Y-86124804D01*
X181552571Y-86130765D01*
X181575671Y-86139030D01*
X181597849Y-86149520D01*
X181618893Y-86162133D01*
X181638598Y-86176747D01*
X181656777Y-86193223D01*
X181673253Y-86211402D01*
X181687867Y-86231107D01*
X181700480Y-86252151D01*
X181710970Y-86274329D01*
X181719235Y-86297429D01*
X181725196Y-86321227D01*
X181728796Y-86345496D01*
X181730000Y-86370000D01*
X181730000Y-87620000D01*
X181728796Y-87644504D01*
X181725196Y-87668773D01*
X181719235Y-87692571D01*
X181710970Y-87715671D01*
X181700480Y-87737849D01*
X181687867Y-87758893D01*
X181673253Y-87778598D01*
X181656777Y-87796777D01*
X181638598Y-87813253D01*
X181618893Y-87827867D01*
X181597849Y-87840480D01*
X181575671Y-87850970D01*
X181552571Y-87859235D01*
X181528773Y-87865196D01*
X181504504Y-87868796D01*
X181480000Y-87870000D01*
X180730000Y-87870000D01*
X180705496Y-87868796D01*
X180681227Y-87865196D01*
X180657429Y-87859235D01*
X180634329Y-87850970D01*
X180612151Y-87840480D01*
X180591107Y-87827867D01*
X180571402Y-87813253D01*
X180553223Y-87796777D01*
X180536747Y-87778598D01*
X180522133Y-87758893D01*
X180509520Y-87737849D01*
X180499030Y-87715671D01*
X180490765Y-87692571D01*
X180484804Y-87668773D01*
X180481204Y-87644504D01*
X180480000Y-87620000D01*
X180480000Y-86370000D01*
X180481204Y-86345496D01*
X180484804Y-86321227D01*
X180490765Y-86297429D01*
X180499030Y-86274329D01*
X180509520Y-86252151D01*
X180522133Y-86231107D01*
X180536747Y-86211402D01*
X180553223Y-86193223D01*
X180571402Y-86176747D01*
X180591107Y-86162133D01*
X180612151Y-86149520D01*
X180634329Y-86139030D01*
X180657429Y-86130765D01*
X180681227Y-86124804D01*
X180705496Y-86121204D01*
X180730000Y-86120000D01*
X181480000Y-86120000D01*
X181504504Y-86121204D01*
X181504504Y-86121204D01*
G37*
D11*
X181105000Y-86995000D03*
D10*
G36*
X178704504Y-86121204D02*
X178728773Y-86124804D01*
X178752571Y-86130765D01*
X178775671Y-86139030D01*
X178797849Y-86149520D01*
X178818893Y-86162133D01*
X178838598Y-86176747D01*
X178856777Y-86193223D01*
X178873253Y-86211402D01*
X178887867Y-86231107D01*
X178900480Y-86252151D01*
X178910970Y-86274329D01*
X178919235Y-86297429D01*
X178925196Y-86321227D01*
X178928796Y-86345496D01*
X178930000Y-86370000D01*
X178930000Y-87620000D01*
X178928796Y-87644504D01*
X178925196Y-87668773D01*
X178919235Y-87692571D01*
X178910970Y-87715671D01*
X178900480Y-87737849D01*
X178887867Y-87758893D01*
X178873253Y-87778598D01*
X178856777Y-87796777D01*
X178838598Y-87813253D01*
X178818893Y-87827867D01*
X178797849Y-87840480D01*
X178775671Y-87850970D01*
X178752571Y-87859235D01*
X178728773Y-87865196D01*
X178704504Y-87868796D01*
X178680000Y-87870000D01*
X177930000Y-87870000D01*
X177905496Y-87868796D01*
X177881227Y-87865196D01*
X177857429Y-87859235D01*
X177834329Y-87850970D01*
X177812151Y-87840480D01*
X177791107Y-87827867D01*
X177771402Y-87813253D01*
X177753223Y-87796777D01*
X177736747Y-87778598D01*
X177722133Y-87758893D01*
X177709520Y-87737849D01*
X177699030Y-87715671D01*
X177690765Y-87692571D01*
X177684804Y-87668773D01*
X177681204Y-87644504D01*
X177680000Y-87620000D01*
X177680000Y-86370000D01*
X177681204Y-86345496D01*
X177684804Y-86321227D01*
X177690765Y-86297429D01*
X177699030Y-86274329D01*
X177709520Y-86252151D01*
X177722133Y-86231107D01*
X177736747Y-86211402D01*
X177753223Y-86193223D01*
X177771402Y-86176747D01*
X177791107Y-86162133D01*
X177812151Y-86149520D01*
X177834329Y-86139030D01*
X177857429Y-86130765D01*
X177881227Y-86124804D01*
X177905496Y-86121204D01*
X177930000Y-86120000D01*
X178680000Y-86120000D01*
X178704504Y-86121204D01*
X178704504Y-86121204D01*
G37*
D11*
X178305000Y-86995000D03*
G04 #@! TD*
D10*
G04 #@! TO.C,D39*
G36*
X200554504Y-86121204D02*
X200578773Y-86124804D01*
X200602571Y-86130765D01*
X200625671Y-86139030D01*
X200647849Y-86149520D01*
X200668893Y-86162133D01*
X200688598Y-86176747D01*
X200706777Y-86193223D01*
X200723253Y-86211402D01*
X200737867Y-86231107D01*
X200750480Y-86252151D01*
X200760970Y-86274329D01*
X200769235Y-86297429D01*
X200775196Y-86321227D01*
X200778796Y-86345496D01*
X200780000Y-86370000D01*
X200780000Y-87620000D01*
X200778796Y-87644504D01*
X200775196Y-87668773D01*
X200769235Y-87692571D01*
X200760970Y-87715671D01*
X200750480Y-87737849D01*
X200737867Y-87758893D01*
X200723253Y-87778598D01*
X200706777Y-87796777D01*
X200688598Y-87813253D01*
X200668893Y-87827867D01*
X200647849Y-87840480D01*
X200625671Y-87850970D01*
X200602571Y-87859235D01*
X200578773Y-87865196D01*
X200554504Y-87868796D01*
X200530000Y-87870000D01*
X199780000Y-87870000D01*
X199755496Y-87868796D01*
X199731227Y-87865196D01*
X199707429Y-87859235D01*
X199684329Y-87850970D01*
X199662151Y-87840480D01*
X199641107Y-87827867D01*
X199621402Y-87813253D01*
X199603223Y-87796777D01*
X199586747Y-87778598D01*
X199572133Y-87758893D01*
X199559520Y-87737849D01*
X199549030Y-87715671D01*
X199540765Y-87692571D01*
X199534804Y-87668773D01*
X199531204Y-87644504D01*
X199530000Y-87620000D01*
X199530000Y-86370000D01*
X199531204Y-86345496D01*
X199534804Y-86321227D01*
X199540765Y-86297429D01*
X199549030Y-86274329D01*
X199559520Y-86252151D01*
X199572133Y-86231107D01*
X199586747Y-86211402D01*
X199603223Y-86193223D01*
X199621402Y-86176747D01*
X199641107Y-86162133D01*
X199662151Y-86149520D01*
X199684329Y-86139030D01*
X199707429Y-86130765D01*
X199731227Y-86124804D01*
X199755496Y-86121204D01*
X199780000Y-86120000D01*
X200530000Y-86120000D01*
X200554504Y-86121204D01*
X200554504Y-86121204D01*
G37*
D11*
X200155000Y-86995000D03*
D10*
G36*
X197754504Y-86121204D02*
X197778773Y-86124804D01*
X197802571Y-86130765D01*
X197825671Y-86139030D01*
X197847849Y-86149520D01*
X197868893Y-86162133D01*
X197888598Y-86176747D01*
X197906777Y-86193223D01*
X197923253Y-86211402D01*
X197937867Y-86231107D01*
X197950480Y-86252151D01*
X197960970Y-86274329D01*
X197969235Y-86297429D01*
X197975196Y-86321227D01*
X197978796Y-86345496D01*
X197980000Y-86370000D01*
X197980000Y-87620000D01*
X197978796Y-87644504D01*
X197975196Y-87668773D01*
X197969235Y-87692571D01*
X197960970Y-87715671D01*
X197950480Y-87737849D01*
X197937867Y-87758893D01*
X197923253Y-87778598D01*
X197906777Y-87796777D01*
X197888598Y-87813253D01*
X197868893Y-87827867D01*
X197847849Y-87840480D01*
X197825671Y-87850970D01*
X197802571Y-87859235D01*
X197778773Y-87865196D01*
X197754504Y-87868796D01*
X197730000Y-87870000D01*
X196980000Y-87870000D01*
X196955496Y-87868796D01*
X196931227Y-87865196D01*
X196907429Y-87859235D01*
X196884329Y-87850970D01*
X196862151Y-87840480D01*
X196841107Y-87827867D01*
X196821402Y-87813253D01*
X196803223Y-87796777D01*
X196786747Y-87778598D01*
X196772133Y-87758893D01*
X196759520Y-87737849D01*
X196749030Y-87715671D01*
X196740765Y-87692571D01*
X196734804Y-87668773D01*
X196731204Y-87644504D01*
X196730000Y-87620000D01*
X196730000Y-86370000D01*
X196731204Y-86345496D01*
X196734804Y-86321227D01*
X196740765Y-86297429D01*
X196749030Y-86274329D01*
X196759520Y-86252151D01*
X196772133Y-86231107D01*
X196786747Y-86211402D01*
X196803223Y-86193223D01*
X196821402Y-86176747D01*
X196841107Y-86162133D01*
X196862151Y-86149520D01*
X196884329Y-86139030D01*
X196907429Y-86130765D01*
X196931227Y-86124804D01*
X196955496Y-86121204D01*
X196980000Y-86120000D01*
X197730000Y-86120000D01*
X197754504Y-86121204D01*
X197754504Y-86121204D01*
G37*
D11*
X197355000Y-86995000D03*
G04 #@! TD*
D10*
G04 #@! TO.C,D41*
G36*
X48154504Y-105171204D02*
X48178773Y-105174804D01*
X48202571Y-105180765D01*
X48225671Y-105189030D01*
X48247849Y-105199520D01*
X48268893Y-105212133D01*
X48288598Y-105226747D01*
X48306777Y-105243223D01*
X48323253Y-105261402D01*
X48337867Y-105281107D01*
X48350480Y-105302151D01*
X48360970Y-105324329D01*
X48369235Y-105347429D01*
X48375196Y-105371227D01*
X48378796Y-105395496D01*
X48380000Y-105420000D01*
X48380000Y-106670000D01*
X48378796Y-106694504D01*
X48375196Y-106718773D01*
X48369235Y-106742571D01*
X48360970Y-106765671D01*
X48350480Y-106787849D01*
X48337867Y-106808893D01*
X48323253Y-106828598D01*
X48306777Y-106846777D01*
X48288598Y-106863253D01*
X48268893Y-106877867D01*
X48247849Y-106890480D01*
X48225671Y-106900970D01*
X48202571Y-106909235D01*
X48178773Y-106915196D01*
X48154504Y-106918796D01*
X48130000Y-106920000D01*
X47380000Y-106920000D01*
X47355496Y-106918796D01*
X47331227Y-106915196D01*
X47307429Y-106909235D01*
X47284329Y-106900970D01*
X47262151Y-106890480D01*
X47241107Y-106877867D01*
X47221402Y-106863253D01*
X47203223Y-106846777D01*
X47186747Y-106828598D01*
X47172133Y-106808893D01*
X47159520Y-106787849D01*
X47149030Y-106765671D01*
X47140765Y-106742571D01*
X47134804Y-106718773D01*
X47131204Y-106694504D01*
X47130000Y-106670000D01*
X47130000Y-105420000D01*
X47131204Y-105395496D01*
X47134804Y-105371227D01*
X47140765Y-105347429D01*
X47149030Y-105324329D01*
X47159520Y-105302151D01*
X47172133Y-105281107D01*
X47186747Y-105261402D01*
X47203223Y-105243223D01*
X47221402Y-105226747D01*
X47241107Y-105212133D01*
X47262151Y-105199520D01*
X47284329Y-105189030D01*
X47307429Y-105180765D01*
X47331227Y-105174804D01*
X47355496Y-105171204D01*
X47380000Y-105170000D01*
X48130000Y-105170000D01*
X48154504Y-105171204D01*
X48154504Y-105171204D01*
G37*
D11*
X47755000Y-106045000D03*
D10*
G36*
X45354504Y-105171204D02*
X45378773Y-105174804D01*
X45402571Y-105180765D01*
X45425671Y-105189030D01*
X45447849Y-105199520D01*
X45468893Y-105212133D01*
X45488598Y-105226747D01*
X45506777Y-105243223D01*
X45523253Y-105261402D01*
X45537867Y-105281107D01*
X45550480Y-105302151D01*
X45560970Y-105324329D01*
X45569235Y-105347429D01*
X45575196Y-105371227D01*
X45578796Y-105395496D01*
X45580000Y-105420000D01*
X45580000Y-106670000D01*
X45578796Y-106694504D01*
X45575196Y-106718773D01*
X45569235Y-106742571D01*
X45560970Y-106765671D01*
X45550480Y-106787849D01*
X45537867Y-106808893D01*
X45523253Y-106828598D01*
X45506777Y-106846777D01*
X45488598Y-106863253D01*
X45468893Y-106877867D01*
X45447849Y-106890480D01*
X45425671Y-106900970D01*
X45402571Y-106909235D01*
X45378773Y-106915196D01*
X45354504Y-106918796D01*
X45330000Y-106920000D01*
X44580000Y-106920000D01*
X44555496Y-106918796D01*
X44531227Y-106915196D01*
X44507429Y-106909235D01*
X44484329Y-106900970D01*
X44462151Y-106890480D01*
X44441107Y-106877867D01*
X44421402Y-106863253D01*
X44403223Y-106846777D01*
X44386747Y-106828598D01*
X44372133Y-106808893D01*
X44359520Y-106787849D01*
X44349030Y-106765671D01*
X44340765Y-106742571D01*
X44334804Y-106718773D01*
X44331204Y-106694504D01*
X44330000Y-106670000D01*
X44330000Y-105420000D01*
X44331204Y-105395496D01*
X44334804Y-105371227D01*
X44340765Y-105347429D01*
X44349030Y-105324329D01*
X44359520Y-105302151D01*
X44372133Y-105281107D01*
X44386747Y-105261402D01*
X44403223Y-105243223D01*
X44421402Y-105226747D01*
X44441107Y-105212133D01*
X44462151Y-105199520D01*
X44484329Y-105189030D01*
X44507429Y-105180765D01*
X44531227Y-105174804D01*
X44555496Y-105171204D01*
X44580000Y-105170000D01*
X45330000Y-105170000D01*
X45354504Y-105171204D01*
X45354504Y-105171204D01*
G37*
D11*
X44955000Y-106045000D03*
G04 #@! TD*
D10*
G04 #@! TO.C,D42*
G36*
X67204504Y-105171204D02*
X67228773Y-105174804D01*
X67252571Y-105180765D01*
X67275671Y-105189030D01*
X67297849Y-105199520D01*
X67318893Y-105212133D01*
X67338598Y-105226747D01*
X67356777Y-105243223D01*
X67373253Y-105261402D01*
X67387867Y-105281107D01*
X67400480Y-105302151D01*
X67410970Y-105324329D01*
X67419235Y-105347429D01*
X67425196Y-105371227D01*
X67428796Y-105395496D01*
X67430000Y-105420000D01*
X67430000Y-106670000D01*
X67428796Y-106694504D01*
X67425196Y-106718773D01*
X67419235Y-106742571D01*
X67410970Y-106765671D01*
X67400480Y-106787849D01*
X67387867Y-106808893D01*
X67373253Y-106828598D01*
X67356777Y-106846777D01*
X67338598Y-106863253D01*
X67318893Y-106877867D01*
X67297849Y-106890480D01*
X67275671Y-106900970D01*
X67252571Y-106909235D01*
X67228773Y-106915196D01*
X67204504Y-106918796D01*
X67180000Y-106920000D01*
X66430000Y-106920000D01*
X66405496Y-106918796D01*
X66381227Y-106915196D01*
X66357429Y-106909235D01*
X66334329Y-106900970D01*
X66312151Y-106890480D01*
X66291107Y-106877867D01*
X66271402Y-106863253D01*
X66253223Y-106846777D01*
X66236747Y-106828598D01*
X66222133Y-106808893D01*
X66209520Y-106787849D01*
X66199030Y-106765671D01*
X66190765Y-106742571D01*
X66184804Y-106718773D01*
X66181204Y-106694504D01*
X66180000Y-106670000D01*
X66180000Y-105420000D01*
X66181204Y-105395496D01*
X66184804Y-105371227D01*
X66190765Y-105347429D01*
X66199030Y-105324329D01*
X66209520Y-105302151D01*
X66222133Y-105281107D01*
X66236747Y-105261402D01*
X66253223Y-105243223D01*
X66271402Y-105226747D01*
X66291107Y-105212133D01*
X66312151Y-105199520D01*
X66334329Y-105189030D01*
X66357429Y-105180765D01*
X66381227Y-105174804D01*
X66405496Y-105171204D01*
X66430000Y-105170000D01*
X67180000Y-105170000D01*
X67204504Y-105171204D01*
X67204504Y-105171204D01*
G37*
D11*
X66805000Y-106045000D03*
D10*
G36*
X64404504Y-105171204D02*
X64428773Y-105174804D01*
X64452571Y-105180765D01*
X64475671Y-105189030D01*
X64497849Y-105199520D01*
X64518893Y-105212133D01*
X64538598Y-105226747D01*
X64556777Y-105243223D01*
X64573253Y-105261402D01*
X64587867Y-105281107D01*
X64600480Y-105302151D01*
X64610970Y-105324329D01*
X64619235Y-105347429D01*
X64625196Y-105371227D01*
X64628796Y-105395496D01*
X64630000Y-105420000D01*
X64630000Y-106670000D01*
X64628796Y-106694504D01*
X64625196Y-106718773D01*
X64619235Y-106742571D01*
X64610970Y-106765671D01*
X64600480Y-106787849D01*
X64587867Y-106808893D01*
X64573253Y-106828598D01*
X64556777Y-106846777D01*
X64538598Y-106863253D01*
X64518893Y-106877867D01*
X64497849Y-106890480D01*
X64475671Y-106900970D01*
X64452571Y-106909235D01*
X64428773Y-106915196D01*
X64404504Y-106918796D01*
X64380000Y-106920000D01*
X63630000Y-106920000D01*
X63605496Y-106918796D01*
X63581227Y-106915196D01*
X63557429Y-106909235D01*
X63534329Y-106900970D01*
X63512151Y-106890480D01*
X63491107Y-106877867D01*
X63471402Y-106863253D01*
X63453223Y-106846777D01*
X63436747Y-106828598D01*
X63422133Y-106808893D01*
X63409520Y-106787849D01*
X63399030Y-106765671D01*
X63390765Y-106742571D01*
X63384804Y-106718773D01*
X63381204Y-106694504D01*
X63380000Y-106670000D01*
X63380000Y-105420000D01*
X63381204Y-105395496D01*
X63384804Y-105371227D01*
X63390765Y-105347429D01*
X63399030Y-105324329D01*
X63409520Y-105302151D01*
X63422133Y-105281107D01*
X63436747Y-105261402D01*
X63453223Y-105243223D01*
X63471402Y-105226747D01*
X63491107Y-105212133D01*
X63512151Y-105199520D01*
X63534329Y-105189030D01*
X63557429Y-105180765D01*
X63581227Y-105174804D01*
X63605496Y-105171204D01*
X63630000Y-105170000D01*
X64380000Y-105170000D01*
X64404504Y-105171204D01*
X64404504Y-105171204D01*
G37*
D11*
X64005000Y-106045000D03*
G04 #@! TD*
D10*
G04 #@! TO.C,D43*
G36*
X86254504Y-105171204D02*
X86278773Y-105174804D01*
X86302571Y-105180765D01*
X86325671Y-105189030D01*
X86347849Y-105199520D01*
X86368893Y-105212133D01*
X86388598Y-105226747D01*
X86406777Y-105243223D01*
X86423253Y-105261402D01*
X86437867Y-105281107D01*
X86450480Y-105302151D01*
X86460970Y-105324329D01*
X86469235Y-105347429D01*
X86475196Y-105371227D01*
X86478796Y-105395496D01*
X86480000Y-105420000D01*
X86480000Y-106670000D01*
X86478796Y-106694504D01*
X86475196Y-106718773D01*
X86469235Y-106742571D01*
X86460970Y-106765671D01*
X86450480Y-106787849D01*
X86437867Y-106808893D01*
X86423253Y-106828598D01*
X86406777Y-106846777D01*
X86388598Y-106863253D01*
X86368893Y-106877867D01*
X86347849Y-106890480D01*
X86325671Y-106900970D01*
X86302571Y-106909235D01*
X86278773Y-106915196D01*
X86254504Y-106918796D01*
X86230000Y-106920000D01*
X85480000Y-106920000D01*
X85455496Y-106918796D01*
X85431227Y-106915196D01*
X85407429Y-106909235D01*
X85384329Y-106900970D01*
X85362151Y-106890480D01*
X85341107Y-106877867D01*
X85321402Y-106863253D01*
X85303223Y-106846777D01*
X85286747Y-106828598D01*
X85272133Y-106808893D01*
X85259520Y-106787849D01*
X85249030Y-106765671D01*
X85240765Y-106742571D01*
X85234804Y-106718773D01*
X85231204Y-106694504D01*
X85230000Y-106670000D01*
X85230000Y-105420000D01*
X85231204Y-105395496D01*
X85234804Y-105371227D01*
X85240765Y-105347429D01*
X85249030Y-105324329D01*
X85259520Y-105302151D01*
X85272133Y-105281107D01*
X85286747Y-105261402D01*
X85303223Y-105243223D01*
X85321402Y-105226747D01*
X85341107Y-105212133D01*
X85362151Y-105199520D01*
X85384329Y-105189030D01*
X85407429Y-105180765D01*
X85431227Y-105174804D01*
X85455496Y-105171204D01*
X85480000Y-105170000D01*
X86230000Y-105170000D01*
X86254504Y-105171204D01*
X86254504Y-105171204D01*
G37*
D11*
X85855000Y-106045000D03*
D10*
G36*
X83454504Y-105171204D02*
X83478773Y-105174804D01*
X83502571Y-105180765D01*
X83525671Y-105189030D01*
X83547849Y-105199520D01*
X83568893Y-105212133D01*
X83588598Y-105226747D01*
X83606777Y-105243223D01*
X83623253Y-105261402D01*
X83637867Y-105281107D01*
X83650480Y-105302151D01*
X83660970Y-105324329D01*
X83669235Y-105347429D01*
X83675196Y-105371227D01*
X83678796Y-105395496D01*
X83680000Y-105420000D01*
X83680000Y-106670000D01*
X83678796Y-106694504D01*
X83675196Y-106718773D01*
X83669235Y-106742571D01*
X83660970Y-106765671D01*
X83650480Y-106787849D01*
X83637867Y-106808893D01*
X83623253Y-106828598D01*
X83606777Y-106846777D01*
X83588598Y-106863253D01*
X83568893Y-106877867D01*
X83547849Y-106890480D01*
X83525671Y-106900970D01*
X83502571Y-106909235D01*
X83478773Y-106915196D01*
X83454504Y-106918796D01*
X83430000Y-106920000D01*
X82680000Y-106920000D01*
X82655496Y-106918796D01*
X82631227Y-106915196D01*
X82607429Y-106909235D01*
X82584329Y-106900970D01*
X82562151Y-106890480D01*
X82541107Y-106877867D01*
X82521402Y-106863253D01*
X82503223Y-106846777D01*
X82486747Y-106828598D01*
X82472133Y-106808893D01*
X82459520Y-106787849D01*
X82449030Y-106765671D01*
X82440765Y-106742571D01*
X82434804Y-106718773D01*
X82431204Y-106694504D01*
X82430000Y-106670000D01*
X82430000Y-105420000D01*
X82431204Y-105395496D01*
X82434804Y-105371227D01*
X82440765Y-105347429D01*
X82449030Y-105324329D01*
X82459520Y-105302151D01*
X82472133Y-105281107D01*
X82486747Y-105261402D01*
X82503223Y-105243223D01*
X82521402Y-105226747D01*
X82541107Y-105212133D01*
X82562151Y-105199520D01*
X82584329Y-105189030D01*
X82607429Y-105180765D01*
X82631227Y-105174804D01*
X82655496Y-105171204D01*
X82680000Y-105170000D01*
X83430000Y-105170000D01*
X83454504Y-105171204D01*
X83454504Y-105171204D01*
G37*
D11*
X83055000Y-106045000D03*
G04 #@! TD*
D10*
G04 #@! TO.C,D44*
G36*
X105304504Y-105171204D02*
X105328773Y-105174804D01*
X105352571Y-105180765D01*
X105375671Y-105189030D01*
X105397849Y-105199520D01*
X105418893Y-105212133D01*
X105438598Y-105226747D01*
X105456777Y-105243223D01*
X105473253Y-105261402D01*
X105487867Y-105281107D01*
X105500480Y-105302151D01*
X105510970Y-105324329D01*
X105519235Y-105347429D01*
X105525196Y-105371227D01*
X105528796Y-105395496D01*
X105530000Y-105420000D01*
X105530000Y-106670000D01*
X105528796Y-106694504D01*
X105525196Y-106718773D01*
X105519235Y-106742571D01*
X105510970Y-106765671D01*
X105500480Y-106787849D01*
X105487867Y-106808893D01*
X105473253Y-106828598D01*
X105456777Y-106846777D01*
X105438598Y-106863253D01*
X105418893Y-106877867D01*
X105397849Y-106890480D01*
X105375671Y-106900970D01*
X105352571Y-106909235D01*
X105328773Y-106915196D01*
X105304504Y-106918796D01*
X105280000Y-106920000D01*
X104530000Y-106920000D01*
X104505496Y-106918796D01*
X104481227Y-106915196D01*
X104457429Y-106909235D01*
X104434329Y-106900970D01*
X104412151Y-106890480D01*
X104391107Y-106877867D01*
X104371402Y-106863253D01*
X104353223Y-106846777D01*
X104336747Y-106828598D01*
X104322133Y-106808893D01*
X104309520Y-106787849D01*
X104299030Y-106765671D01*
X104290765Y-106742571D01*
X104284804Y-106718773D01*
X104281204Y-106694504D01*
X104280000Y-106670000D01*
X104280000Y-105420000D01*
X104281204Y-105395496D01*
X104284804Y-105371227D01*
X104290765Y-105347429D01*
X104299030Y-105324329D01*
X104309520Y-105302151D01*
X104322133Y-105281107D01*
X104336747Y-105261402D01*
X104353223Y-105243223D01*
X104371402Y-105226747D01*
X104391107Y-105212133D01*
X104412151Y-105199520D01*
X104434329Y-105189030D01*
X104457429Y-105180765D01*
X104481227Y-105174804D01*
X104505496Y-105171204D01*
X104530000Y-105170000D01*
X105280000Y-105170000D01*
X105304504Y-105171204D01*
X105304504Y-105171204D01*
G37*
D11*
X104905000Y-106045000D03*
D10*
G36*
X102504504Y-105171204D02*
X102528773Y-105174804D01*
X102552571Y-105180765D01*
X102575671Y-105189030D01*
X102597849Y-105199520D01*
X102618893Y-105212133D01*
X102638598Y-105226747D01*
X102656777Y-105243223D01*
X102673253Y-105261402D01*
X102687867Y-105281107D01*
X102700480Y-105302151D01*
X102710970Y-105324329D01*
X102719235Y-105347429D01*
X102725196Y-105371227D01*
X102728796Y-105395496D01*
X102730000Y-105420000D01*
X102730000Y-106670000D01*
X102728796Y-106694504D01*
X102725196Y-106718773D01*
X102719235Y-106742571D01*
X102710970Y-106765671D01*
X102700480Y-106787849D01*
X102687867Y-106808893D01*
X102673253Y-106828598D01*
X102656777Y-106846777D01*
X102638598Y-106863253D01*
X102618893Y-106877867D01*
X102597849Y-106890480D01*
X102575671Y-106900970D01*
X102552571Y-106909235D01*
X102528773Y-106915196D01*
X102504504Y-106918796D01*
X102480000Y-106920000D01*
X101730000Y-106920000D01*
X101705496Y-106918796D01*
X101681227Y-106915196D01*
X101657429Y-106909235D01*
X101634329Y-106900970D01*
X101612151Y-106890480D01*
X101591107Y-106877867D01*
X101571402Y-106863253D01*
X101553223Y-106846777D01*
X101536747Y-106828598D01*
X101522133Y-106808893D01*
X101509520Y-106787849D01*
X101499030Y-106765671D01*
X101490765Y-106742571D01*
X101484804Y-106718773D01*
X101481204Y-106694504D01*
X101480000Y-106670000D01*
X101480000Y-105420000D01*
X101481204Y-105395496D01*
X101484804Y-105371227D01*
X101490765Y-105347429D01*
X101499030Y-105324329D01*
X101509520Y-105302151D01*
X101522133Y-105281107D01*
X101536747Y-105261402D01*
X101553223Y-105243223D01*
X101571402Y-105226747D01*
X101591107Y-105212133D01*
X101612151Y-105199520D01*
X101634329Y-105189030D01*
X101657429Y-105180765D01*
X101681227Y-105174804D01*
X101705496Y-105171204D01*
X101730000Y-105170000D01*
X102480000Y-105170000D01*
X102504504Y-105171204D01*
X102504504Y-105171204D01*
G37*
D11*
X102105000Y-106045000D03*
G04 #@! TD*
D10*
G04 #@! TO.C,D46*
G36*
X140864504Y-105171204D02*
X140888773Y-105174804D01*
X140912571Y-105180765D01*
X140935671Y-105189030D01*
X140957849Y-105199520D01*
X140978893Y-105212133D01*
X140998598Y-105226747D01*
X141016777Y-105243223D01*
X141033253Y-105261402D01*
X141047867Y-105281107D01*
X141060480Y-105302151D01*
X141070970Y-105324329D01*
X141079235Y-105347429D01*
X141085196Y-105371227D01*
X141088796Y-105395496D01*
X141090000Y-105420000D01*
X141090000Y-106670000D01*
X141088796Y-106694504D01*
X141085196Y-106718773D01*
X141079235Y-106742571D01*
X141070970Y-106765671D01*
X141060480Y-106787849D01*
X141047867Y-106808893D01*
X141033253Y-106828598D01*
X141016777Y-106846777D01*
X140998598Y-106863253D01*
X140978893Y-106877867D01*
X140957849Y-106890480D01*
X140935671Y-106900970D01*
X140912571Y-106909235D01*
X140888773Y-106915196D01*
X140864504Y-106918796D01*
X140840000Y-106920000D01*
X140090000Y-106920000D01*
X140065496Y-106918796D01*
X140041227Y-106915196D01*
X140017429Y-106909235D01*
X139994329Y-106900970D01*
X139972151Y-106890480D01*
X139951107Y-106877867D01*
X139931402Y-106863253D01*
X139913223Y-106846777D01*
X139896747Y-106828598D01*
X139882133Y-106808893D01*
X139869520Y-106787849D01*
X139859030Y-106765671D01*
X139850765Y-106742571D01*
X139844804Y-106718773D01*
X139841204Y-106694504D01*
X139840000Y-106670000D01*
X139840000Y-105420000D01*
X139841204Y-105395496D01*
X139844804Y-105371227D01*
X139850765Y-105347429D01*
X139859030Y-105324329D01*
X139869520Y-105302151D01*
X139882133Y-105281107D01*
X139896747Y-105261402D01*
X139913223Y-105243223D01*
X139931402Y-105226747D01*
X139951107Y-105212133D01*
X139972151Y-105199520D01*
X139994329Y-105189030D01*
X140017429Y-105180765D01*
X140041227Y-105174804D01*
X140065496Y-105171204D01*
X140090000Y-105170000D01*
X140840000Y-105170000D01*
X140864504Y-105171204D01*
X140864504Y-105171204D01*
G37*
D11*
X140465000Y-106045000D03*
D10*
G36*
X138064504Y-105171204D02*
X138088773Y-105174804D01*
X138112571Y-105180765D01*
X138135671Y-105189030D01*
X138157849Y-105199520D01*
X138178893Y-105212133D01*
X138198598Y-105226747D01*
X138216777Y-105243223D01*
X138233253Y-105261402D01*
X138247867Y-105281107D01*
X138260480Y-105302151D01*
X138270970Y-105324329D01*
X138279235Y-105347429D01*
X138285196Y-105371227D01*
X138288796Y-105395496D01*
X138290000Y-105420000D01*
X138290000Y-106670000D01*
X138288796Y-106694504D01*
X138285196Y-106718773D01*
X138279235Y-106742571D01*
X138270970Y-106765671D01*
X138260480Y-106787849D01*
X138247867Y-106808893D01*
X138233253Y-106828598D01*
X138216777Y-106846777D01*
X138198598Y-106863253D01*
X138178893Y-106877867D01*
X138157849Y-106890480D01*
X138135671Y-106900970D01*
X138112571Y-106909235D01*
X138088773Y-106915196D01*
X138064504Y-106918796D01*
X138040000Y-106920000D01*
X137290000Y-106920000D01*
X137265496Y-106918796D01*
X137241227Y-106915196D01*
X137217429Y-106909235D01*
X137194329Y-106900970D01*
X137172151Y-106890480D01*
X137151107Y-106877867D01*
X137131402Y-106863253D01*
X137113223Y-106846777D01*
X137096747Y-106828598D01*
X137082133Y-106808893D01*
X137069520Y-106787849D01*
X137059030Y-106765671D01*
X137050765Y-106742571D01*
X137044804Y-106718773D01*
X137041204Y-106694504D01*
X137040000Y-106670000D01*
X137040000Y-105420000D01*
X137041204Y-105395496D01*
X137044804Y-105371227D01*
X137050765Y-105347429D01*
X137059030Y-105324329D01*
X137069520Y-105302151D01*
X137082133Y-105281107D01*
X137096747Y-105261402D01*
X137113223Y-105243223D01*
X137131402Y-105226747D01*
X137151107Y-105212133D01*
X137172151Y-105199520D01*
X137194329Y-105189030D01*
X137217429Y-105180765D01*
X137241227Y-105174804D01*
X137265496Y-105171204D01*
X137290000Y-105170000D01*
X138040000Y-105170000D01*
X138064504Y-105171204D01*
X138064504Y-105171204D01*
G37*
D11*
X137665000Y-106045000D03*
G04 #@! TD*
D10*
G04 #@! TO.C,D48*
G36*
X178964504Y-105171204D02*
X178988773Y-105174804D01*
X179012571Y-105180765D01*
X179035671Y-105189030D01*
X179057849Y-105199520D01*
X179078893Y-105212133D01*
X179098598Y-105226747D01*
X179116777Y-105243223D01*
X179133253Y-105261402D01*
X179147867Y-105281107D01*
X179160480Y-105302151D01*
X179170970Y-105324329D01*
X179179235Y-105347429D01*
X179185196Y-105371227D01*
X179188796Y-105395496D01*
X179190000Y-105420000D01*
X179190000Y-106670000D01*
X179188796Y-106694504D01*
X179185196Y-106718773D01*
X179179235Y-106742571D01*
X179170970Y-106765671D01*
X179160480Y-106787849D01*
X179147867Y-106808893D01*
X179133253Y-106828598D01*
X179116777Y-106846777D01*
X179098598Y-106863253D01*
X179078893Y-106877867D01*
X179057849Y-106890480D01*
X179035671Y-106900970D01*
X179012571Y-106909235D01*
X178988773Y-106915196D01*
X178964504Y-106918796D01*
X178940000Y-106920000D01*
X178190000Y-106920000D01*
X178165496Y-106918796D01*
X178141227Y-106915196D01*
X178117429Y-106909235D01*
X178094329Y-106900970D01*
X178072151Y-106890480D01*
X178051107Y-106877867D01*
X178031402Y-106863253D01*
X178013223Y-106846777D01*
X177996747Y-106828598D01*
X177982133Y-106808893D01*
X177969520Y-106787849D01*
X177959030Y-106765671D01*
X177950765Y-106742571D01*
X177944804Y-106718773D01*
X177941204Y-106694504D01*
X177940000Y-106670000D01*
X177940000Y-105420000D01*
X177941204Y-105395496D01*
X177944804Y-105371227D01*
X177950765Y-105347429D01*
X177959030Y-105324329D01*
X177969520Y-105302151D01*
X177982133Y-105281107D01*
X177996747Y-105261402D01*
X178013223Y-105243223D01*
X178031402Y-105226747D01*
X178051107Y-105212133D01*
X178072151Y-105199520D01*
X178094329Y-105189030D01*
X178117429Y-105180765D01*
X178141227Y-105174804D01*
X178165496Y-105171204D01*
X178190000Y-105170000D01*
X178940000Y-105170000D01*
X178964504Y-105171204D01*
X178964504Y-105171204D01*
G37*
D11*
X178565000Y-106045000D03*
D10*
G36*
X176164504Y-105171204D02*
X176188773Y-105174804D01*
X176212571Y-105180765D01*
X176235671Y-105189030D01*
X176257849Y-105199520D01*
X176278893Y-105212133D01*
X176298598Y-105226747D01*
X176316777Y-105243223D01*
X176333253Y-105261402D01*
X176347867Y-105281107D01*
X176360480Y-105302151D01*
X176370970Y-105324329D01*
X176379235Y-105347429D01*
X176385196Y-105371227D01*
X176388796Y-105395496D01*
X176390000Y-105420000D01*
X176390000Y-106670000D01*
X176388796Y-106694504D01*
X176385196Y-106718773D01*
X176379235Y-106742571D01*
X176370970Y-106765671D01*
X176360480Y-106787849D01*
X176347867Y-106808893D01*
X176333253Y-106828598D01*
X176316777Y-106846777D01*
X176298598Y-106863253D01*
X176278893Y-106877867D01*
X176257849Y-106890480D01*
X176235671Y-106900970D01*
X176212571Y-106909235D01*
X176188773Y-106915196D01*
X176164504Y-106918796D01*
X176140000Y-106920000D01*
X175390000Y-106920000D01*
X175365496Y-106918796D01*
X175341227Y-106915196D01*
X175317429Y-106909235D01*
X175294329Y-106900970D01*
X175272151Y-106890480D01*
X175251107Y-106877867D01*
X175231402Y-106863253D01*
X175213223Y-106846777D01*
X175196747Y-106828598D01*
X175182133Y-106808893D01*
X175169520Y-106787849D01*
X175159030Y-106765671D01*
X175150765Y-106742571D01*
X175144804Y-106718773D01*
X175141204Y-106694504D01*
X175140000Y-106670000D01*
X175140000Y-105420000D01*
X175141204Y-105395496D01*
X175144804Y-105371227D01*
X175150765Y-105347429D01*
X175159030Y-105324329D01*
X175169520Y-105302151D01*
X175182133Y-105281107D01*
X175196747Y-105261402D01*
X175213223Y-105243223D01*
X175231402Y-105226747D01*
X175251107Y-105212133D01*
X175272151Y-105199520D01*
X175294329Y-105189030D01*
X175317429Y-105180765D01*
X175341227Y-105174804D01*
X175365496Y-105171204D01*
X175390000Y-105170000D01*
X176140000Y-105170000D01*
X176164504Y-105171204D01*
X176164504Y-105171204D01*
G37*
D11*
X175765000Y-106045000D03*
G04 #@! TD*
D10*
G04 #@! TO.C,D49*
G36*
X200554504Y-105171204D02*
X200578773Y-105174804D01*
X200602571Y-105180765D01*
X200625671Y-105189030D01*
X200647849Y-105199520D01*
X200668893Y-105212133D01*
X200688598Y-105226747D01*
X200706777Y-105243223D01*
X200723253Y-105261402D01*
X200737867Y-105281107D01*
X200750480Y-105302151D01*
X200760970Y-105324329D01*
X200769235Y-105347429D01*
X200775196Y-105371227D01*
X200778796Y-105395496D01*
X200780000Y-105420000D01*
X200780000Y-106670000D01*
X200778796Y-106694504D01*
X200775196Y-106718773D01*
X200769235Y-106742571D01*
X200760970Y-106765671D01*
X200750480Y-106787849D01*
X200737867Y-106808893D01*
X200723253Y-106828598D01*
X200706777Y-106846777D01*
X200688598Y-106863253D01*
X200668893Y-106877867D01*
X200647849Y-106890480D01*
X200625671Y-106900970D01*
X200602571Y-106909235D01*
X200578773Y-106915196D01*
X200554504Y-106918796D01*
X200530000Y-106920000D01*
X199780000Y-106920000D01*
X199755496Y-106918796D01*
X199731227Y-106915196D01*
X199707429Y-106909235D01*
X199684329Y-106900970D01*
X199662151Y-106890480D01*
X199641107Y-106877867D01*
X199621402Y-106863253D01*
X199603223Y-106846777D01*
X199586747Y-106828598D01*
X199572133Y-106808893D01*
X199559520Y-106787849D01*
X199549030Y-106765671D01*
X199540765Y-106742571D01*
X199534804Y-106718773D01*
X199531204Y-106694504D01*
X199530000Y-106670000D01*
X199530000Y-105420000D01*
X199531204Y-105395496D01*
X199534804Y-105371227D01*
X199540765Y-105347429D01*
X199549030Y-105324329D01*
X199559520Y-105302151D01*
X199572133Y-105281107D01*
X199586747Y-105261402D01*
X199603223Y-105243223D01*
X199621402Y-105226747D01*
X199641107Y-105212133D01*
X199662151Y-105199520D01*
X199684329Y-105189030D01*
X199707429Y-105180765D01*
X199731227Y-105174804D01*
X199755496Y-105171204D01*
X199780000Y-105170000D01*
X200530000Y-105170000D01*
X200554504Y-105171204D01*
X200554504Y-105171204D01*
G37*
D11*
X200155000Y-106045000D03*
D10*
G36*
X197754504Y-105171204D02*
X197778773Y-105174804D01*
X197802571Y-105180765D01*
X197825671Y-105189030D01*
X197847849Y-105199520D01*
X197868893Y-105212133D01*
X197888598Y-105226747D01*
X197906777Y-105243223D01*
X197923253Y-105261402D01*
X197937867Y-105281107D01*
X197950480Y-105302151D01*
X197960970Y-105324329D01*
X197969235Y-105347429D01*
X197975196Y-105371227D01*
X197978796Y-105395496D01*
X197980000Y-105420000D01*
X197980000Y-106670000D01*
X197978796Y-106694504D01*
X197975196Y-106718773D01*
X197969235Y-106742571D01*
X197960970Y-106765671D01*
X197950480Y-106787849D01*
X197937867Y-106808893D01*
X197923253Y-106828598D01*
X197906777Y-106846777D01*
X197888598Y-106863253D01*
X197868893Y-106877867D01*
X197847849Y-106890480D01*
X197825671Y-106900970D01*
X197802571Y-106909235D01*
X197778773Y-106915196D01*
X197754504Y-106918796D01*
X197730000Y-106920000D01*
X196980000Y-106920000D01*
X196955496Y-106918796D01*
X196931227Y-106915196D01*
X196907429Y-106909235D01*
X196884329Y-106900970D01*
X196862151Y-106890480D01*
X196841107Y-106877867D01*
X196821402Y-106863253D01*
X196803223Y-106846777D01*
X196786747Y-106828598D01*
X196772133Y-106808893D01*
X196759520Y-106787849D01*
X196749030Y-106765671D01*
X196740765Y-106742571D01*
X196734804Y-106718773D01*
X196731204Y-106694504D01*
X196730000Y-106670000D01*
X196730000Y-105420000D01*
X196731204Y-105395496D01*
X196734804Y-105371227D01*
X196740765Y-105347429D01*
X196749030Y-105324329D01*
X196759520Y-105302151D01*
X196772133Y-105281107D01*
X196786747Y-105261402D01*
X196803223Y-105243223D01*
X196821402Y-105226747D01*
X196841107Y-105212133D01*
X196862151Y-105199520D01*
X196884329Y-105189030D01*
X196907429Y-105180765D01*
X196931227Y-105174804D01*
X196955496Y-105171204D01*
X196980000Y-105170000D01*
X197730000Y-105170000D01*
X197754504Y-105171204D01*
X197754504Y-105171204D01*
G37*
D11*
X197355000Y-106045000D03*
G04 #@! TD*
D10*
G04 #@! TO.C,D110*
G36*
X216804504Y-48021204D02*
X216828773Y-48024804D01*
X216852571Y-48030765D01*
X216875671Y-48039030D01*
X216897849Y-48049520D01*
X216918893Y-48062133D01*
X216938598Y-48076747D01*
X216956777Y-48093223D01*
X216973253Y-48111402D01*
X216987867Y-48131107D01*
X217000480Y-48152151D01*
X217010970Y-48174329D01*
X217019235Y-48197429D01*
X217025196Y-48221227D01*
X217028796Y-48245496D01*
X217030000Y-48270000D01*
X217030000Y-49520000D01*
X217028796Y-49544504D01*
X217025196Y-49568773D01*
X217019235Y-49592571D01*
X217010970Y-49615671D01*
X217000480Y-49637849D01*
X216987867Y-49658893D01*
X216973253Y-49678598D01*
X216956777Y-49696777D01*
X216938598Y-49713253D01*
X216918893Y-49727867D01*
X216897849Y-49740480D01*
X216875671Y-49750970D01*
X216852571Y-49759235D01*
X216828773Y-49765196D01*
X216804504Y-49768796D01*
X216780000Y-49770000D01*
X216030000Y-49770000D01*
X216005496Y-49768796D01*
X215981227Y-49765196D01*
X215957429Y-49759235D01*
X215934329Y-49750970D01*
X215912151Y-49740480D01*
X215891107Y-49727867D01*
X215871402Y-49713253D01*
X215853223Y-49696777D01*
X215836747Y-49678598D01*
X215822133Y-49658893D01*
X215809520Y-49637849D01*
X215799030Y-49615671D01*
X215790765Y-49592571D01*
X215784804Y-49568773D01*
X215781204Y-49544504D01*
X215780000Y-49520000D01*
X215780000Y-48270000D01*
X215781204Y-48245496D01*
X215784804Y-48221227D01*
X215790765Y-48197429D01*
X215799030Y-48174329D01*
X215809520Y-48152151D01*
X215822133Y-48131107D01*
X215836747Y-48111402D01*
X215853223Y-48093223D01*
X215871402Y-48076747D01*
X215891107Y-48062133D01*
X215912151Y-48049520D01*
X215934329Y-48039030D01*
X215957429Y-48030765D01*
X215981227Y-48024804D01*
X216005496Y-48021204D01*
X216030000Y-48020000D01*
X216780000Y-48020000D01*
X216804504Y-48021204D01*
X216804504Y-48021204D01*
G37*
D11*
X216405000Y-48895000D03*
D10*
G36*
X219604504Y-48021204D02*
X219628773Y-48024804D01*
X219652571Y-48030765D01*
X219675671Y-48039030D01*
X219697849Y-48049520D01*
X219718893Y-48062133D01*
X219738598Y-48076747D01*
X219756777Y-48093223D01*
X219773253Y-48111402D01*
X219787867Y-48131107D01*
X219800480Y-48152151D01*
X219810970Y-48174329D01*
X219819235Y-48197429D01*
X219825196Y-48221227D01*
X219828796Y-48245496D01*
X219830000Y-48270000D01*
X219830000Y-49520000D01*
X219828796Y-49544504D01*
X219825196Y-49568773D01*
X219819235Y-49592571D01*
X219810970Y-49615671D01*
X219800480Y-49637849D01*
X219787867Y-49658893D01*
X219773253Y-49678598D01*
X219756777Y-49696777D01*
X219738598Y-49713253D01*
X219718893Y-49727867D01*
X219697849Y-49740480D01*
X219675671Y-49750970D01*
X219652571Y-49759235D01*
X219628773Y-49765196D01*
X219604504Y-49768796D01*
X219580000Y-49770000D01*
X218830000Y-49770000D01*
X218805496Y-49768796D01*
X218781227Y-49765196D01*
X218757429Y-49759235D01*
X218734329Y-49750970D01*
X218712151Y-49740480D01*
X218691107Y-49727867D01*
X218671402Y-49713253D01*
X218653223Y-49696777D01*
X218636747Y-49678598D01*
X218622133Y-49658893D01*
X218609520Y-49637849D01*
X218599030Y-49615671D01*
X218590765Y-49592571D01*
X218584804Y-49568773D01*
X218581204Y-49544504D01*
X218580000Y-49520000D01*
X218580000Y-48270000D01*
X218581204Y-48245496D01*
X218584804Y-48221227D01*
X218590765Y-48197429D01*
X218599030Y-48174329D01*
X218609520Y-48152151D01*
X218622133Y-48131107D01*
X218636747Y-48111402D01*
X218653223Y-48093223D01*
X218671402Y-48076747D01*
X218691107Y-48062133D01*
X218712151Y-48049520D01*
X218734329Y-48039030D01*
X218757429Y-48030765D01*
X218781227Y-48024804D01*
X218805496Y-48021204D01*
X218830000Y-48020000D01*
X219580000Y-48020000D01*
X219604504Y-48021204D01*
X219604504Y-48021204D01*
G37*
D11*
X219205000Y-48895000D03*
G04 #@! TD*
D10*
G04 #@! TO.C,D111*
G36*
X235854504Y-48021204D02*
X235878773Y-48024804D01*
X235902571Y-48030765D01*
X235925671Y-48039030D01*
X235947849Y-48049520D01*
X235968893Y-48062133D01*
X235988598Y-48076747D01*
X236006777Y-48093223D01*
X236023253Y-48111402D01*
X236037867Y-48131107D01*
X236050480Y-48152151D01*
X236060970Y-48174329D01*
X236069235Y-48197429D01*
X236075196Y-48221227D01*
X236078796Y-48245496D01*
X236080000Y-48270000D01*
X236080000Y-49520000D01*
X236078796Y-49544504D01*
X236075196Y-49568773D01*
X236069235Y-49592571D01*
X236060970Y-49615671D01*
X236050480Y-49637849D01*
X236037867Y-49658893D01*
X236023253Y-49678598D01*
X236006777Y-49696777D01*
X235988598Y-49713253D01*
X235968893Y-49727867D01*
X235947849Y-49740480D01*
X235925671Y-49750970D01*
X235902571Y-49759235D01*
X235878773Y-49765196D01*
X235854504Y-49768796D01*
X235830000Y-49770000D01*
X235080000Y-49770000D01*
X235055496Y-49768796D01*
X235031227Y-49765196D01*
X235007429Y-49759235D01*
X234984329Y-49750970D01*
X234962151Y-49740480D01*
X234941107Y-49727867D01*
X234921402Y-49713253D01*
X234903223Y-49696777D01*
X234886747Y-49678598D01*
X234872133Y-49658893D01*
X234859520Y-49637849D01*
X234849030Y-49615671D01*
X234840765Y-49592571D01*
X234834804Y-49568773D01*
X234831204Y-49544504D01*
X234830000Y-49520000D01*
X234830000Y-48270000D01*
X234831204Y-48245496D01*
X234834804Y-48221227D01*
X234840765Y-48197429D01*
X234849030Y-48174329D01*
X234859520Y-48152151D01*
X234872133Y-48131107D01*
X234886747Y-48111402D01*
X234903223Y-48093223D01*
X234921402Y-48076747D01*
X234941107Y-48062133D01*
X234962151Y-48049520D01*
X234984329Y-48039030D01*
X235007429Y-48030765D01*
X235031227Y-48024804D01*
X235055496Y-48021204D01*
X235080000Y-48020000D01*
X235830000Y-48020000D01*
X235854504Y-48021204D01*
X235854504Y-48021204D01*
G37*
D11*
X235455000Y-48895000D03*
D10*
G36*
X238654504Y-48021204D02*
X238678773Y-48024804D01*
X238702571Y-48030765D01*
X238725671Y-48039030D01*
X238747849Y-48049520D01*
X238768893Y-48062133D01*
X238788598Y-48076747D01*
X238806777Y-48093223D01*
X238823253Y-48111402D01*
X238837867Y-48131107D01*
X238850480Y-48152151D01*
X238860970Y-48174329D01*
X238869235Y-48197429D01*
X238875196Y-48221227D01*
X238878796Y-48245496D01*
X238880000Y-48270000D01*
X238880000Y-49520000D01*
X238878796Y-49544504D01*
X238875196Y-49568773D01*
X238869235Y-49592571D01*
X238860970Y-49615671D01*
X238850480Y-49637849D01*
X238837867Y-49658893D01*
X238823253Y-49678598D01*
X238806777Y-49696777D01*
X238788598Y-49713253D01*
X238768893Y-49727867D01*
X238747849Y-49740480D01*
X238725671Y-49750970D01*
X238702571Y-49759235D01*
X238678773Y-49765196D01*
X238654504Y-49768796D01*
X238630000Y-49770000D01*
X237880000Y-49770000D01*
X237855496Y-49768796D01*
X237831227Y-49765196D01*
X237807429Y-49759235D01*
X237784329Y-49750970D01*
X237762151Y-49740480D01*
X237741107Y-49727867D01*
X237721402Y-49713253D01*
X237703223Y-49696777D01*
X237686747Y-49678598D01*
X237672133Y-49658893D01*
X237659520Y-49637849D01*
X237649030Y-49615671D01*
X237640765Y-49592571D01*
X237634804Y-49568773D01*
X237631204Y-49544504D01*
X237630000Y-49520000D01*
X237630000Y-48270000D01*
X237631204Y-48245496D01*
X237634804Y-48221227D01*
X237640765Y-48197429D01*
X237649030Y-48174329D01*
X237659520Y-48152151D01*
X237672133Y-48131107D01*
X237686747Y-48111402D01*
X237703223Y-48093223D01*
X237721402Y-48076747D01*
X237741107Y-48062133D01*
X237762151Y-48049520D01*
X237784329Y-48039030D01*
X237807429Y-48030765D01*
X237831227Y-48024804D01*
X237855496Y-48021204D01*
X237880000Y-48020000D01*
X238630000Y-48020000D01*
X238654504Y-48021204D01*
X238654504Y-48021204D01*
G37*
D11*
X238255000Y-48895000D03*
G04 #@! TD*
D10*
G04 #@! TO.C,D112*
G36*
X254904504Y-48021204D02*
X254928773Y-48024804D01*
X254952571Y-48030765D01*
X254975671Y-48039030D01*
X254997849Y-48049520D01*
X255018893Y-48062133D01*
X255038598Y-48076747D01*
X255056777Y-48093223D01*
X255073253Y-48111402D01*
X255087867Y-48131107D01*
X255100480Y-48152151D01*
X255110970Y-48174329D01*
X255119235Y-48197429D01*
X255125196Y-48221227D01*
X255128796Y-48245496D01*
X255130000Y-48270000D01*
X255130000Y-49520000D01*
X255128796Y-49544504D01*
X255125196Y-49568773D01*
X255119235Y-49592571D01*
X255110970Y-49615671D01*
X255100480Y-49637849D01*
X255087867Y-49658893D01*
X255073253Y-49678598D01*
X255056777Y-49696777D01*
X255038598Y-49713253D01*
X255018893Y-49727867D01*
X254997849Y-49740480D01*
X254975671Y-49750970D01*
X254952571Y-49759235D01*
X254928773Y-49765196D01*
X254904504Y-49768796D01*
X254880000Y-49770000D01*
X254130000Y-49770000D01*
X254105496Y-49768796D01*
X254081227Y-49765196D01*
X254057429Y-49759235D01*
X254034329Y-49750970D01*
X254012151Y-49740480D01*
X253991107Y-49727867D01*
X253971402Y-49713253D01*
X253953223Y-49696777D01*
X253936747Y-49678598D01*
X253922133Y-49658893D01*
X253909520Y-49637849D01*
X253899030Y-49615671D01*
X253890765Y-49592571D01*
X253884804Y-49568773D01*
X253881204Y-49544504D01*
X253880000Y-49520000D01*
X253880000Y-48270000D01*
X253881204Y-48245496D01*
X253884804Y-48221227D01*
X253890765Y-48197429D01*
X253899030Y-48174329D01*
X253909520Y-48152151D01*
X253922133Y-48131107D01*
X253936747Y-48111402D01*
X253953223Y-48093223D01*
X253971402Y-48076747D01*
X253991107Y-48062133D01*
X254012151Y-48049520D01*
X254034329Y-48039030D01*
X254057429Y-48030765D01*
X254081227Y-48024804D01*
X254105496Y-48021204D01*
X254130000Y-48020000D01*
X254880000Y-48020000D01*
X254904504Y-48021204D01*
X254904504Y-48021204D01*
G37*
D11*
X254505000Y-48895000D03*
D10*
G36*
X257704504Y-48021204D02*
X257728773Y-48024804D01*
X257752571Y-48030765D01*
X257775671Y-48039030D01*
X257797849Y-48049520D01*
X257818893Y-48062133D01*
X257838598Y-48076747D01*
X257856777Y-48093223D01*
X257873253Y-48111402D01*
X257887867Y-48131107D01*
X257900480Y-48152151D01*
X257910970Y-48174329D01*
X257919235Y-48197429D01*
X257925196Y-48221227D01*
X257928796Y-48245496D01*
X257930000Y-48270000D01*
X257930000Y-49520000D01*
X257928796Y-49544504D01*
X257925196Y-49568773D01*
X257919235Y-49592571D01*
X257910970Y-49615671D01*
X257900480Y-49637849D01*
X257887867Y-49658893D01*
X257873253Y-49678598D01*
X257856777Y-49696777D01*
X257838598Y-49713253D01*
X257818893Y-49727867D01*
X257797849Y-49740480D01*
X257775671Y-49750970D01*
X257752571Y-49759235D01*
X257728773Y-49765196D01*
X257704504Y-49768796D01*
X257680000Y-49770000D01*
X256930000Y-49770000D01*
X256905496Y-49768796D01*
X256881227Y-49765196D01*
X256857429Y-49759235D01*
X256834329Y-49750970D01*
X256812151Y-49740480D01*
X256791107Y-49727867D01*
X256771402Y-49713253D01*
X256753223Y-49696777D01*
X256736747Y-49678598D01*
X256722133Y-49658893D01*
X256709520Y-49637849D01*
X256699030Y-49615671D01*
X256690765Y-49592571D01*
X256684804Y-49568773D01*
X256681204Y-49544504D01*
X256680000Y-49520000D01*
X256680000Y-48270000D01*
X256681204Y-48245496D01*
X256684804Y-48221227D01*
X256690765Y-48197429D01*
X256699030Y-48174329D01*
X256709520Y-48152151D01*
X256722133Y-48131107D01*
X256736747Y-48111402D01*
X256753223Y-48093223D01*
X256771402Y-48076747D01*
X256791107Y-48062133D01*
X256812151Y-48049520D01*
X256834329Y-48039030D01*
X256857429Y-48030765D01*
X256881227Y-48024804D01*
X256905496Y-48021204D01*
X256930000Y-48020000D01*
X257680000Y-48020000D01*
X257704504Y-48021204D01*
X257704504Y-48021204D01*
G37*
D11*
X257305000Y-48895000D03*
G04 #@! TD*
D10*
G04 #@! TO.C,D210*
G36*
X216804504Y-67071204D02*
X216828773Y-67074804D01*
X216852571Y-67080765D01*
X216875671Y-67089030D01*
X216897849Y-67099520D01*
X216918893Y-67112133D01*
X216938598Y-67126747D01*
X216956777Y-67143223D01*
X216973253Y-67161402D01*
X216987867Y-67181107D01*
X217000480Y-67202151D01*
X217010970Y-67224329D01*
X217019235Y-67247429D01*
X217025196Y-67271227D01*
X217028796Y-67295496D01*
X217030000Y-67320000D01*
X217030000Y-68570000D01*
X217028796Y-68594504D01*
X217025196Y-68618773D01*
X217019235Y-68642571D01*
X217010970Y-68665671D01*
X217000480Y-68687849D01*
X216987867Y-68708893D01*
X216973253Y-68728598D01*
X216956777Y-68746777D01*
X216938598Y-68763253D01*
X216918893Y-68777867D01*
X216897849Y-68790480D01*
X216875671Y-68800970D01*
X216852571Y-68809235D01*
X216828773Y-68815196D01*
X216804504Y-68818796D01*
X216780000Y-68820000D01*
X216030000Y-68820000D01*
X216005496Y-68818796D01*
X215981227Y-68815196D01*
X215957429Y-68809235D01*
X215934329Y-68800970D01*
X215912151Y-68790480D01*
X215891107Y-68777867D01*
X215871402Y-68763253D01*
X215853223Y-68746777D01*
X215836747Y-68728598D01*
X215822133Y-68708893D01*
X215809520Y-68687849D01*
X215799030Y-68665671D01*
X215790765Y-68642571D01*
X215784804Y-68618773D01*
X215781204Y-68594504D01*
X215780000Y-68570000D01*
X215780000Y-67320000D01*
X215781204Y-67295496D01*
X215784804Y-67271227D01*
X215790765Y-67247429D01*
X215799030Y-67224329D01*
X215809520Y-67202151D01*
X215822133Y-67181107D01*
X215836747Y-67161402D01*
X215853223Y-67143223D01*
X215871402Y-67126747D01*
X215891107Y-67112133D01*
X215912151Y-67099520D01*
X215934329Y-67089030D01*
X215957429Y-67080765D01*
X215981227Y-67074804D01*
X216005496Y-67071204D01*
X216030000Y-67070000D01*
X216780000Y-67070000D01*
X216804504Y-67071204D01*
X216804504Y-67071204D01*
G37*
D11*
X216405000Y-67945000D03*
D10*
G36*
X219604504Y-67071204D02*
X219628773Y-67074804D01*
X219652571Y-67080765D01*
X219675671Y-67089030D01*
X219697849Y-67099520D01*
X219718893Y-67112133D01*
X219738598Y-67126747D01*
X219756777Y-67143223D01*
X219773253Y-67161402D01*
X219787867Y-67181107D01*
X219800480Y-67202151D01*
X219810970Y-67224329D01*
X219819235Y-67247429D01*
X219825196Y-67271227D01*
X219828796Y-67295496D01*
X219830000Y-67320000D01*
X219830000Y-68570000D01*
X219828796Y-68594504D01*
X219825196Y-68618773D01*
X219819235Y-68642571D01*
X219810970Y-68665671D01*
X219800480Y-68687849D01*
X219787867Y-68708893D01*
X219773253Y-68728598D01*
X219756777Y-68746777D01*
X219738598Y-68763253D01*
X219718893Y-68777867D01*
X219697849Y-68790480D01*
X219675671Y-68800970D01*
X219652571Y-68809235D01*
X219628773Y-68815196D01*
X219604504Y-68818796D01*
X219580000Y-68820000D01*
X218830000Y-68820000D01*
X218805496Y-68818796D01*
X218781227Y-68815196D01*
X218757429Y-68809235D01*
X218734329Y-68800970D01*
X218712151Y-68790480D01*
X218691107Y-68777867D01*
X218671402Y-68763253D01*
X218653223Y-68746777D01*
X218636747Y-68728598D01*
X218622133Y-68708893D01*
X218609520Y-68687849D01*
X218599030Y-68665671D01*
X218590765Y-68642571D01*
X218584804Y-68618773D01*
X218581204Y-68594504D01*
X218580000Y-68570000D01*
X218580000Y-67320000D01*
X218581204Y-67295496D01*
X218584804Y-67271227D01*
X218590765Y-67247429D01*
X218599030Y-67224329D01*
X218609520Y-67202151D01*
X218622133Y-67181107D01*
X218636747Y-67161402D01*
X218653223Y-67143223D01*
X218671402Y-67126747D01*
X218691107Y-67112133D01*
X218712151Y-67099520D01*
X218734329Y-67089030D01*
X218757429Y-67080765D01*
X218781227Y-67074804D01*
X218805496Y-67071204D01*
X218830000Y-67070000D01*
X219580000Y-67070000D01*
X219604504Y-67071204D01*
X219604504Y-67071204D01*
G37*
D11*
X219205000Y-67945000D03*
G04 #@! TD*
D10*
G04 #@! TO.C,D211*
G36*
X235854504Y-67071204D02*
X235878773Y-67074804D01*
X235902571Y-67080765D01*
X235925671Y-67089030D01*
X235947849Y-67099520D01*
X235968893Y-67112133D01*
X235988598Y-67126747D01*
X236006777Y-67143223D01*
X236023253Y-67161402D01*
X236037867Y-67181107D01*
X236050480Y-67202151D01*
X236060970Y-67224329D01*
X236069235Y-67247429D01*
X236075196Y-67271227D01*
X236078796Y-67295496D01*
X236080000Y-67320000D01*
X236080000Y-68570000D01*
X236078796Y-68594504D01*
X236075196Y-68618773D01*
X236069235Y-68642571D01*
X236060970Y-68665671D01*
X236050480Y-68687849D01*
X236037867Y-68708893D01*
X236023253Y-68728598D01*
X236006777Y-68746777D01*
X235988598Y-68763253D01*
X235968893Y-68777867D01*
X235947849Y-68790480D01*
X235925671Y-68800970D01*
X235902571Y-68809235D01*
X235878773Y-68815196D01*
X235854504Y-68818796D01*
X235830000Y-68820000D01*
X235080000Y-68820000D01*
X235055496Y-68818796D01*
X235031227Y-68815196D01*
X235007429Y-68809235D01*
X234984329Y-68800970D01*
X234962151Y-68790480D01*
X234941107Y-68777867D01*
X234921402Y-68763253D01*
X234903223Y-68746777D01*
X234886747Y-68728598D01*
X234872133Y-68708893D01*
X234859520Y-68687849D01*
X234849030Y-68665671D01*
X234840765Y-68642571D01*
X234834804Y-68618773D01*
X234831204Y-68594504D01*
X234830000Y-68570000D01*
X234830000Y-67320000D01*
X234831204Y-67295496D01*
X234834804Y-67271227D01*
X234840765Y-67247429D01*
X234849030Y-67224329D01*
X234859520Y-67202151D01*
X234872133Y-67181107D01*
X234886747Y-67161402D01*
X234903223Y-67143223D01*
X234921402Y-67126747D01*
X234941107Y-67112133D01*
X234962151Y-67099520D01*
X234984329Y-67089030D01*
X235007429Y-67080765D01*
X235031227Y-67074804D01*
X235055496Y-67071204D01*
X235080000Y-67070000D01*
X235830000Y-67070000D01*
X235854504Y-67071204D01*
X235854504Y-67071204D01*
G37*
D11*
X235455000Y-67945000D03*
D10*
G36*
X238654504Y-67071204D02*
X238678773Y-67074804D01*
X238702571Y-67080765D01*
X238725671Y-67089030D01*
X238747849Y-67099520D01*
X238768893Y-67112133D01*
X238788598Y-67126747D01*
X238806777Y-67143223D01*
X238823253Y-67161402D01*
X238837867Y-67181107D01*
X238850480Y-67202151D01*
X238860970Y-67224329D01*
X238869235Y-67247429D01*
X238875196Y-67271227D01*
X238878796Y-67295496D01*
X238880000Y-67320000D01*
X238880000Y-68570000D01*
X238878796Y-68594504D01*
X238875196Y-68618773D01*
X238869235Y-68642571D01*
X238860970Y-68665671D01*
X238850480Y-68687849D01*
X238837867Y-68708893D01*
X238823253Y-68728598D01*
X238806777Y-68746777D01*
X238788598Y-68763253D01*
X238768893Y-68777867D01*
X238747849Y-68790480D01*
X238725671Y-68800970D01*
X238702571Y-68809235D01*
X238678773Y-68815196D01*
X238654504Y-68818796D01*
X238630000Y-68820000D01*
X237880000Y-68820000D01*
X237855496Y-68818796D01*
X237831227Y-68815196D01*
X237807429Y-68809235D01*
X237784329Y-68800970D01*
X237762151Y-68790480D01*
X237741107Y-68777867D01*
X237721402Y-68763253D01*
X237703223Y-68746777D01*
X237686747Y-68728598D01*
X237672133Y-68708893D01*
X237659520Y-68687849D01*
X237649030Y-68665671D01*
X237640765Y-68642571D01*
X237634804Y-68618773D01*
X237631204Y-68594504D01*
X237630000Y-68570000D01*
X237630000Y-67320000D01*
X237631204Y-67295496D01*
X237634804Y-67271227D01*
X237640765Y-67247429D01*
X237649030Y-67224329D01*
X237659520Y-67202151D01*
X237672133Y-67181107D01*
X237686747Y-67161402D01*
X237703223Y-67143223D01*
X237721402Y-67126747D01*
X237741107Y-67112133D01*
X237762151Y-67099520D01*
X237784329Y-67089030D01*
X237807429Y-67080765D01*
X237831227Y-67074804D01*
X237855496Y-67071204D01*
X237880000Y-67070000D01*
X238630000Y-67070000D01*
X238654504Y-67071204D01*
X238654504Y-67071204D01*
G37*
D11*
X238255000Y-67945000D03*
G04 #@! TD*
D10*
G04 #@! TO.C,D212*
G36*
X257704504Y-67071204D02*
X257728773Y-67074804D01*
X257752571Y-67080765D01*
X257775671Y-67089030D01*
X257797849Y-67099520D01*
X257818893Y-67112133D01*
X257838598Y-67126747D01*
X257856777Y-67143223D01*
X257873253Y-67161402D01*
X257887867Y-67181107D01*
X257900480Y-67202151D01*
X257910970Y-67224329D01*
X257919235Y-67247429D01*
X257925196Y-67271227D01*
X257928796Y-67295496D01*
X257930000Y-67320000D01*
X257930000Y-68570000D01*
X257928796Y-68594504D01*
X257925196Y-68618773D01*
X257919235Y-68642571D01*
X257910970Y-68665671D01*
X257900480Y-68687849D01*
X257887867Y-68708893D01*
X257873253Y-68728598D01*
X257856777Y-68746777D01*
X257838598Y-68763253D01*
X257818893Y-68777867D01*
X257797849Y-68790480D01*
X257775671Y-68800970D01*
X257752571Y-68809235D01*
X257728773Y-68815196D01*
X257704504Y-68818796D01*
X257680000Y-68820000D01*
X256930000Y-68820000D01*
X256905496Y-68818796D01*
X256881227Y-68815196D01*
X256857429Y-68809235D01*
X256834329Y-68800970D01*
X256812151Y-68790480D01*
X256791107Y-68777867D01*
X256771402Y-68763253D01*
X256753223Y-68746777D01*
X256736747Y-68728598D01*
X256722133Y-68708893D01*
X256709520Y-68687849D01*
X256699030Y-68665671D01*
X256690765Y-68642571D01*
X256684804Y-68618773D01*
X256681204Y-68594504D01*
X256680000Y-68570000D01*
X256680000Y-67320000D01*
X256681204Y-67295496D01*
X256684804Y-67271227D01*
X256690765Y-67247429D01*
X256699030Y-67224329D01*
X256709520Y-67202151D01*
X256722133Y-67181107D01*
X256736747Y-67161402D01*
X256753223Y-67143223D01*
X256771402Y-67126747D01*
X256791107Y-67112133D01*
X256812151Y-67099520D01*
X256834329Y-67089030D01*
X256857429Y-67080765D01*
X256881227Y-67074804D01*
X256905496Y-67071204D01*
X256930000Y-67070000D01*
X257680000Y-67070000D01*
X257704504Y-67071204D01*
X257704504Y-67071204D01*
G37*
D11*
X257305000Y-67945000D03*
D10*
G36*
X254904504Y-67071204D02*
X254928773Y-67074804D01*
X254952571Y-67080765D01*
X254975671Y-67089030D01*
X254997849Y-67099520D01*
X255018893Y-67112133D01*
X255038598Y-67126747D01*
X255056777Y-67143223D01*
X255073253Y-67161402D01*
X255087867Y-67181107D01*
X255100480Y-67202151D01*
X255110970Y-67224329D01*
X255119235Y-67247429D01*
X255125196Y-67271227D01*
X255128796Y-67295496D01*
X255130000Y-67320000D01*
X255130000Y-68570000D01*
X255128796Y-68594504D01*
X255125196Y-68618773D01*
X255119235Y-68642571D01*
X255110970Y-68665671D01*
X255100480Y-68687849D01*
X255087867Y-68708893D01*
X255073253Y-68728598D01*
X255056777Y-68746777D01*
X255038598Y-68763253D01*
X255018893Y-68777867D01*
X254997849Y-68790480D01*
X254975671Y-68800970D01*
X254952571Y-68809235D01*
X254928773Y-68815196D01*
X254904504Y-68818796D01*
X254880000Y-68820000D01*
X254130000Y-68820000D01*
X254105496Y-68818796D01*
X254081227Y-68815196D01*
X254057429Y-68809235D01*
X254034329Y-68800970D01*
X254012151Y-68790480D01*
X253991107Y-68777867D01*
X253971402Y-68763253D01*
X253953223Y-68746777D01*
X253936747Y-68728598D01*
X253922133Y-68708893D01*
X253909520Y-68687849D01*
X253899030Y-68665671D01*
X253890765Y-68642571D01*
X253884804Y-68618773D01*
X253881204Y-68594504D01*
X253880000Y-68570000D01*
X253880000Y-67320000D01*
X253881204Y-67295496D01*
X253884804Y-67271227D01*
X253890765Y-67247429D01*
X253899030Y-67224329D01*
X253909520Y-67202151D01*
X253922133Y-67181107D01*
X253936747Y-67161402D01*
X253953223Y-67143223D01*
X253971402Y-67126747D01*
X253991107Y-67112133D01*
X254012151Y-67099520D01*
X254034329Y-67089030D01*
X254057429Y-67080765D01*
X254081227Y-67074804D01*
X254105496Y-67071204D01*
X254130000Y-67070000D01*
X254880000Y-67070000D01*
X254904504Y-67071204D01*
X254904504Y-67071204D01*
G37*
D11*
X254505000Y-67945000D03*
G04 #@! TD*
D10*
G04 #@! TO.C,D310*
G36*
X219604504Y-86121204D02*
X219628773Y-86124804D01*
X219652571Y-86130765D01*
X219675671Y-86139030D01*
X219697849Y-86149520D01*
X219718893Y-86162133D01*
X219738598Y-86176747D01*
X219756777Y-86193223D01*
X219773253Y-86211402D01*
X219787867Y-86231107D01*
X219800480Y-86252151D01*
X219810970Y-86274329D01*
X219819235Y-86297429D01*
X219825196Y-86321227D01*
X219828796Y-86345496D01*
X219830000Y-86370000D01*
X219830000Y-87620000D01*
X219828796Y-87644504D01*
X219825196Y-87668773D01*
X219819235Y-87692571D01*
X219810970Y-87715671D01*
X219800480Y-87737849D01*
X219787867Y-87758893D01*
X219773253Y-87778598D01*
X219756777Y-87796777D01*
X219738598Y-87813253D01*
X219718893Y-87827867D01*
X219697849Y-87840480D01*
X219675671Y-87850970D01*
X219652571Y-87859235D01*
X219628773Y-87865196D01*
X219604504Y-87868796D01*
X219580000Y-87870000D01*
X218830000Y-87870000D01*
X218805496Y-87868796D01*
X218781227Y-87865196D01*
X218757429Y-87859235D01*
X218734329Y-87850970D01*
X218712151Y-87840480D01*
X218691107Y-87827867D01*
X218671402Y-87813253D01*
X218653223Y-87796777D01*
X218636747Y-87778598D01*
X218622133Y-87758893D01*
X218609520Y-87737849D01*
X218599030Y-87715671D01*
X218590765Y-87692571D01*
X218584804Y-87668773D01*
X218581204Y-87644504D01*
X218580000Y-87620000D01*
X218580000Y-86370000D01*
X218581204Y-86345496D01*
X218584804Y-86321227D01*
X218590765Y-86297429D01*
X218599030Y-86274329D01*
X218609520Y-86252151D01*
X218622133Y-86231107D01*
X218636747Y-86211402D01*
X218653223Y-86193223D01*
X218671402Y-86176747D01*
X218691107Y-86162133D01*
X218712151Y-86149520D01*
X218734329Y-86139030D01*
X218757429Y-86130765D01*
X218781227Y-86124804D01*
X218805496Y-86121204D01*
X218830000Y-86120000D01*
X219580000Y-86120000D01*
X219604504Y-86121204D01*
X219604504Y-86121204D01*
G37*
D11*
X219205000Y-86995000D03*
D10*
G36*
X216804504Y-86121204D02*
X216828773Y-86124804D01*
X216852571Y-86130765D01*
X216875671Y-86139030D01*
X216897849Y-86149520D01*
X216918893Y-86162133D01*
X216938598Y-86176747D01*
X216956777Y-86193223D01*
X216973253Y-86211402D01*
X216987867Y-86231107D01*
X217000480Y-86252151D01*
X217010970Y-86274329D01*
X217019235Y-86297429D01*
X217025196Y-86321227D01*
X217028796Y-86345496D01*
X217030000Y-86370000D01*
X217030000Y-87620000D01*
X217028796Y-87644504D01*
X217025196Y-87668773D01*
X217019235Y-87692571D01*
X217010970Y-87715671D01*
X217000480Y-87737849D01*
X216987867Y-87758893D01*
X216973253Y-87778598D01*
X216956777Y-87796777D01*
X216938598Y-87813253D01*
X216918893Y-87827867D01*
X216897849Y-87840480D01*
X216875671Y-87850970D01*
X216852571Y-87859235D01*
X216828773Y-87865196D01*
X216804504Y-87868796D01*
X216780000Y-87870000D01*
X216030000Y-87870000D01*
X216005496Y-87868796D01*
X215981227Y-87865196D01*
X215957429Y-87859235D01*
X215934329Y-87850970D01*
X215912151Y-87840480D01*
X215891107Y-87827867D01*
X215871402Y-87813253D01*
X215853223Y-87796777D01*
X215836747Y-87778598D01*
X215822133Y-87758893D01*
X215809520Y-87737849D01*
X215799030Y-87715671D01*
X215790765Y-87692571D01*
X215784804Y-87668773D01*
X215781204Y-87644504D01*
X215780000Y-87620000D01*
X215780000Y-86370000D01*
X215781204Y-86345496D01*
X215784804Y-86321227D01*
X215790765Y-86297429D01*
X215799030Y-86274329D01*
X215809520Y-86252151D01*
X215822133Y-86231107D01*
X215836747Y-86211402D01*
X215853223Y-86193223D01*
X215871402Y-86176747D01*
X215891107Y-86162133D01*
X215912151Y-86149520D01*
X215934329Y-86139030D01*
X215957429Y-86130765D01*
X215981227Y-86124804D01*
X216005496Y-86121204D01*
X216030000Y-86120000D01*
X216780000Y-86120000D01*
X216804504Y-86121204D01*
X216804504Y-86121204D01*
G37*
D11*
X216405000Y-86995000D03*
G04 #@! TD*
D10*
G04 #@! TO.C,D311*
G36*
X238654504Y-86121204D02*
X238678773Y-86124804D01*
X238702571Y-86130765D01*
X238725671Y-86139030D01*
X238747849Y-86149520D01*
X238768893Y-86162133D01*
X238788598Y-86176747D01*
X238806777Y-86193223D01*
X238823253Y-86211402D01*
X238837867Y-86231107D01*
X238850480Y-86252151D01*
X238860970Y-86274329D01*
X238869235Y-86297429D01*
X238875196Y-86321227D01*
X238878796Y-86345496D01*
X238880000Y-86370000D01*
X238880000Y-87620000D01*
X238878796Y-87644504D01*
X238875196Y-87668773D01*
X238869235Y-87692571D01*
X238860970Y-87715671D01*
X238850480Y-87737849D01*
X238837867Y-87758893D01*
X238823253Y-87778598D01*
X238806777Y-87796777D01*
X238788598Y-87813253D01*
X238768893Y-87827867D01*
X238747849Y-87840480D01*
X238725671Y-87850970D01*
X238702571Y-87859235D01*
X238678773Y-87865196D01*
X238654504Y-87868796D01*
X238630000Y-87870000D01*
X237880000Y-87870000D01*
X237855496Y-87868796D01*
X237831227Y-87865196D01*
X237807429Y-87859235D01*
X237784329Y-87850970D01*
X237762151Y-87840480D01*
X237741107Y-87827867D01*
X237721402Y-87813253D01*
X237703223Y-87796777D01*
X237686747Y-87778598D01*
X237672133Y-87758893D01*
X237659520Y-87737849D01*
X237649030Y-87715671D01*
X237640765Y-87692571D01*
X237634804Y-87668773D01*
X237631204Y-87644504D01*
X237630000Y-87620000D01*
X237630000Y-86370000D01*
X237631204Y-86345496D01*
X237634804Y-86321227D01*
X237640765Y-86297429D01*
X237649030Y-86274329D01*
X237659520Y-86252151D01*
X237672133Y-86231107D01*
X237686747Y-86211402D01*
X237703223Y-86193223D01*
X237721402Y-86176747D01*
X237741107Y-86162133D01*
X237762151Y-86149520D01*
X237784329Y-86139030D01*
X237807429Y-86130765D01*
X237831227Y-86124804D01*
X237855496Y-86121204D01*
X237880000Y-86120000D01*
X238630000Y-86120000D01*
X238654504Y-86121204D01*
X238654504Y-86121204D01*
G37*
D11*
X238255000Y-86995000D03*
D10*
G36*
X235854504Y-86121204D02*
X235878773Y-86124804D01*
X235902571Y-86130765D01*
X235925671Y-86139030D01*
X235947849Y-86149520D01*
X235968893Y-86162133D01*
X235988598Y-86176747D01*
X236006777Y-86193223D01*
X236023253Y-86211402D01*
X236037867Y-86231107D01*
X236050480Y-86252151D01*
X236060970Y-86274329D01*
X236069235Y-86297429D01*
X236075196Y-86321227D01*
X236078796Y-86345496D01*
X236080000Y-86370000D01*
X236080000Y-87620000D01*
X236078796Y-87644504D01*
X236075196Y-87668773D01*
X236069235Y-87692571D01*
X236060970Y-87715671D01*
X236050480Y-87737849D01*
X236037867Y-87758893D01*
X236023253Y-87778598D01*
X236006777Y-87796777D01*
X235988598Y-87813253D01*
X235968893Y-87827867D01*
X235947849Y-87840480D01*
X235925671Y-87850970D01*
X235902571Y-87859235D01*
X235878773Y-87865196D01*
X235854504Y-87868796D01*
X235830000Y-87870000D01*
X235080000Y-87870000D01*
X235055496Y-87868796D01*
X235031227Y-87865196D01*
X235007429Y-87859235D01*
X234984329Y-87850970D01*
X234962151Y-87840480D01*
X234941107Y-87827867D01*
X234921402Y-87813253D01*
X234903223Y-87796777D01*
X234886747Y-87778598D01*
X234872133Y-87758893D01*
X234859520Y-87737849D01*
X234849030Y-87715671D01*
X234840765Y-87692571D01*
X234834804Y-87668773D01*
X234831204Y-87644504D01*
X234830000Y-87620000D01*
X234830000Y-86370000D01*
X234831204Y-86345496D01*
X234834804Y-86321227D01*
X234840765Y-86297429D01*
X234849030Y-86274329D01*
X234859520Y-86252151D01*
X234872133Y-86231107D01*
X234886747Y-86211402D01*
X234903223Y-86193223D01*
X234921402Y-86176747D01*
X234941107Y-86162133D01*
X234962151Y-86149520D01*
X234984329Y-86139030D01*
X235007429Y-86130765D01*
X235031227Y-86124804D01*
X235055496Y-86121204D01*
X235080000Y-86120000D01*
X235830000Y-86120000D01*
X235854504Y-86121204D01*
X235854504Y-86121204D01*
G37*
D11*
X235455000Y-86995000D03*
G04 #@! TD*
D10*
G04 #@! TO.C,D312*
G36*
X257704504Y-86121204D02*
X257728773Y-86124804D01*
X257752571Y-86130765D01*
X257775671Y-86139030D01*
X257797849Y-86149520D01*
X257818893Y-86162133D01*
X257838598Y-86176747D01*
X257856777Y-86193223D01*
X257873253Y-86211402D01*
X257887867Y-86231107D01*
X257900480Y-86252151D01*
X257910970Y-86274329D01*
X257919235Y-86297429D01*
X257925196Y-86321227D01*
X257928796Y-86345496D01*
X257930000Y-86370000D01*
X257930000Y-87620000D01*
X257928796Y-87644504D01*
X257925196Y-87668773D01*
X257919235Y-87692571D01*
X257910970Y-87715671D01*
X257900480Y-87737849D01*
X257887867Y-87758893D01*
X257873253Y-87778598D01*
X257856777Y-87796777D01*
X257838598Y-87813253D01*
X257818893Y-87827867D01*
X257797849Y-87840480D01*
X257775671Y-87850970D01*
X257752571Y-87859235D01*
X257728773Y-87865196D01*
X257704504Y-87868796D01*
X257680000Y-87870000D01*
X256930000Y-87870000D01*
X256905496Y-87868796D01*
X256881227Y-87865196D01*
X256857429Y-87859235D01*
X256834329Y-87850970D01*
X256812151Y-87840480D01*
X256791107Y-87827867D01*
X256771402Y-87813253D01*
X256753223Y-87796777D01*
X256736747Y-87778598D01*
X256722133Y-87758893D01*
X256709520Y-87737849D01*
X256699030Y-87715671D01*
X256690765Y-87692571D01*
X256684804Y-87668773D01*
X256681204Y-87644504D01*
X256680000Y-87620000D01*
X256680000Y-86370000D01*
X256681204Y-86345496D01*
X256684804Y-86321227D01*
X256690765Y-86297429D01*
X256699030Y-86274329D01*
X256709520Y-86252151D01*
X256722133Y-86231107D01*
X256736747Y-86211402D01*
X256753223Y-86193223D01*
X256771402Y-86176747D01*
X256791107Y-86162133D01*
X256812151Y-86149520D01*
X256834329Y-86139030D01*
X256857429Y-86130765D01*
X256881227Y-86124804D01*
X256905496Y-86121204D01*
X256930000Y-86120000D01*
X257680000Y-86120000D01*
X257704504Y-86121204D01*
X257704504Y-86121204D01*
G37*
D11*
X257305000Y-86995000D03*
D10*
G36*
X254904504Y-86121204D02*
X254928773Y-86124804D01*
X254952571Y-86130765D01*
X254975671Y-86139030D01*
X254997849Y-86149520D01*
X255018893Y-86162133D01*
X255038598Y-86176747D01*
X255056777Y-86193223D01*
X255073253Y-86211402D01*
X255087867Y-86231107D01*
X255100480Y-86252151D01*
X255110970Y-86274329D01*
X255119235Y-86297429D01*
X255125196Y-86321227D01*
X255128796Y-86345496D01*
X255130000Y-86370000D01*
X255130000Y-87620000D01*
X255128796Y-87644504D01*
X255125196Y-87668773D01*
X255119235Y-87692571D01*
X255110970Y-87715671D01*
X255100480Y-87737849D01*
X255087867Y-87758893D01*
X255073253Y-87778598D01*
X255056777Y-87796777D01*
X255038598Y-87813253D01*
X255018893Y-87827867D01*
X254997849Y-87840480D01*
X254975671Y-87850970D01*
X254952571Y-87859235D01*
X254928773Y-87865196D01*
X254904504Y-87868796D01*
X254880000Y-87870000D01*
X254130000Y-87870000D01*
X254105496Y-87868796D01*
X254081227Y-87865196D01*
X254057429Y-87859235D01*
X254034329Y-87850970D01*
X254012151Y-87840480D01*
X253991107Y-87827867D01*
X253971402Y-87813253D01*
X253953223Y-87796777D01*
X253936747Y-87778598D01*
X253922133Y-87758893D01*
X253909520Y-87737849D01*
X253899030Y-87715671D01*
X253890765Y-87692571D01*
X253884804Y-87668773D01*
X253881204Y-87644504D01*
X253880000Y-87620000D01*
X253880000Y-86370000D01*
X253881204Y-86345496D01*
X253884804Y-86321227D01*
X253890765Y-86297429D01*
X253899030Y-86274329D01*
X253909520Y-86252151D01*
X253922133Y-86231107D01*
X253936747Y-86211402D01*
X253953223Y-86193223D01*
X253971402Y-86176747D01*
X253991107Y-86162133D01*
X254012151Y-86149520D01*
X254034329Y-86139030D01*
X254057429Y-86130765D01*
X254081227Y-86124804D01*
X254105496Y-86121204D01*
X254130000Y-86120000D01*
X254880000Y-86120000D01*
X254904504Y-86121204D01*
X254904504Y-86121204D01*
G37*
D11*
X254505000Y-86995000D03*
G04 #@! TD*
D10*
G04 #@! TO.C,D410*
G36*
X219604504Y-105171204D02*
X219628773Y-105174804D01*
X219652571Y-105180765D01*
X219675671Y-105189030D01*
X219697849Y-105199520D01*
X219718893Y-105212133D01*
X219738598Y-105226747D01*
X219756777Y-105243223D01*
X219773253Y-105261402D01*
X219787867Y-105281107D01*
X219800480Y-105302151D01*
X219810970Y-105324329D01*
X219819235Y-105347429D01*
X219825196Y-105371227D01*
X219828796Y-105395496D01*
X219830000Y-105420000D01*
X219830000Y-106670000D01*
X219828796Y-106694504D01*
X219825196Y-106718773D01*
X219819235Y-106742571D01*
X219810970Y-106765671D01*
X219800480Y-106787849D01*
X219787867Y-106808893D01*
X219773253Y-106828598D01*
X219756777Y-106846777D01*
X219738598Y-106863253D01*
X219718893Y-106877867D01*
X219697849Y-106890480D01*
X219675671Y-106900970D01*
X219652571Y-106909235D01*
X219628773Y-106915196D01*
X219604504Y-106918796D01*
X219580000Y-106920000D01*
X218830000Y-106920000D01*
X218805496Y-106918796D01*
X218781227Y-106915196D01*
X218757429Y-106909235D01*
X218734329Y-106900970D01*
X218712151Y-106890480D01*
X218691107Y-106877867D01*
X218671402Y-106863253D01*
X218653223Y-106846777D01*
X218636747Y-106828598D01*
X218622133Y-106808893D01*
X218609520Y-106787849D01*
X218599030Y-106765671D01*
X218590765Y-106742571D01*
X218584804Y-106718773D01*
X218581204Y-106694504D01*
X218580000Y-106670000D01*
X218580000Y-105420000D01*
X218581204Y-105395496D01*
X218584804Y-105371227D01*
X218590765Y-105347429D01*
X218599030Y-105324329D01*
X218609520Y-105302151D01*
X218622133Y-105281107D01*
X218636747Y-105261402D01*
X218653223Y-105243223D01*
X218671402Y-105226747D01*
X218691107Y-105212133D01*
X218712151Y-105199520D01*
X218734329Y-105189030D01*
X218757429Y-105180765D01*
X218781227Y-105174804D01*
X218805496Y-105171204D01*
X218830000Y-105170000D01*
X219580000Y-105170000D01*
X219604504Y-105171204D01*
X219604504Y-105171204D01*
G37*
D11*
X219205000Y-106045000D03*
D10*
G36*
X216804504Y-105171204D02*
X216828773Y-105174804D01*
X216852571Y-105180765D01*
X216875671Y-105189030D01*
X216897849Y-105199520D01*
X216918893Y-105212133D01*
X216938598Y-105226747D01*
X216956777Y-105243223D01*
X216973253Y-105261402D01*
X216987867Y-105281107D01*
X217000480Y-105302151D01*
X217010970Y-105324329D01*
X217019235Y-105347429D01*
X217025196Y-105371227D01*
X217028796Y-105395496D01*
X217030000Y-105420000D01*
X217030000Y-106670000D01*
X217028796Y-106694504D01*
X217025196Y-106718773D01*
X217019235Y-106742571D01*
X217010970Y-106765671D01*
X217000480Y-106787849D01*
X216987867Y-106808893D01*
X216973253Y-106828598D01*
X216956777Y-106846777D01*
X216938598Y-106863253D01*
X216918893Y-106877867D01*
X216897849Y-106890480D01*
X216875671Y-106900970D01*
X216852571Y-106909235D01*
X216828773Y-106915196D01*
X216804504Y-106918796D01*
X216780000Y-106920000D01*
X216030000Y-106920000D01*
X216005496Y-106918796D01*
X215981227Y-106915196D01*
X215957429Y-106909235D01*
X215934329Y-106900970D01*
X215912151Y-106890480D01*
X215891107Y-106877867D01*
X215871402Y-106863253D01*
X215853223Y-106846777D01*
X215836747Y-106828598D01*
X215822133Y-106808893D01*
X215809520Y-106787849D01*
X215799030Y-106765671D01*
X215790765Y-106742571D01*
X215784804Y-106718773D01*
X215781204Y-106694504D01*
X215780000Y-106670000D01*
X215780000Y-105420000D01*
X215781204Y-105395496D01*
X215784804Y-105371227D01*
X215790765Y-105347429D01*
X215799030Y-105324329D01*
X215809520Y-105302151D01*
X215822133Y-105281107D01*
X215836747Y-105261402D01*
X215853223Y-105243223D01*
X215871402Y-105226747D01*
X215891107Y-105212133D01*
X215912151Y-105199520D01*
X215934329Y-105189030D01*
X215957429Y-105180765D01*
X215981227Y-105174804D01*
X216005496Y-105171204D01*
X216030000Y-105170000D01*
X216780000Y-105170000D01*
X216804504Y-105171204D01*
X216804504Y-105171204D01*
G37*
D11*
X216405000Y-106045000D03*
G04 #@! TD*
D10*
G04 #@! TO.C,D411*
G36*
X238654504Y-105171204D02*
X238678773Y-105174804D01*
X238702571Y-105180765D01*
X238725671Y-105189030D01*
X238747849Y-105199520D01*
X238768893Y-105212133D01*
X238788598Y-105226747D01*
X238806777Y-105243223D01*
X238823253Y-105261402D01*
X238837867Y-105281107D01*
X238850480Y-105302151D01*
X238860970Y-105324329D01*
X238869235Y-105347429D01*
X238875196Y-105371227D01*
X238878796Y-105395496D01*
X238880000Y-105420000D01*
X238880000Y-106670000D01*
X238878796Y-106694504D01*
X238875196Y-106718773D01*
X238869235Y-106742571D01*
X238860970Y-106765671D01*
X238850480Y-106787849D01*
X238837867Y-106808893D01*
X238823253Y-106828598D01*
X238806777Y-106846777D01*
X238788598Y-106863253D01*
X238768893Y-106877867D01*
X238747849Y-106890480D01*
X238725671Y-106900970D01*
X238702571Y-106909235D01*
X238678773Y-106915196D01*
X238654504Y-106918796D01*
X238630000Y-106920000D01*
X237880000Y-106920000D01*
X237855496Y-106918796D01*
X237831227Y-106915196D01*
X237807429Y-106909235D01*
X237784329Y-106900970D01*
X237762151Y-106890480D01*
X237741107Y-106877867D01*
X237721402Y-106863253D01*
X237703223Y-106846777D01*
X237686747Y-106828598D01*
X237672133Y-106808893D01*
X237659520Y-106787849D01*
X237649030Y-106765671D01*
X237640765Y-106742571D01*
X237634804Y-106718773D01*
X237631204Y-106694504D01*
X237630000Y-106670000D01*
X237630000Y-105420000D01*
X237631204Y-105395496D01*
X237634804Y-105371227D01*
X237640765Y-105347429D01*
X237649030Y-105324329D01*
X237659520Y-105302151D01*
X237672133Y-105281107D01*
X237686747Y-105261402D01*
X237703223Y-105243223D01*
X237721402Y-105226747D01*
X237741107Y-105212133D01*
X237762151Y-105199520D01*
X237784329Y-105189030D01*
X237807429Y-105180765D01*
X237831227Y-105174804D01*
X237855496Y-105171204D01*
X237880000Y-105170000D01*
X238630000Y-105170000D01*
X238654504Y-105171204D01*
X238654504Y-105171204D01*
G37*
D11*
X238255000Y-106045000D03*
D10*
G36*
X235854504Y-105171204D02*
X235878773Y-105174804D01*
X235902571Y-105180765D01*
X235925671Y-105189030D01*
X235947849Y-105199520D01*
X235968893Y-105212133D01*
X235988598Y-105226747D01*
X236006777Y-105243223D01*
X236023253Y-105261402D01*
X236037867Y-105281107D01*
X236050480Y-105302151D01*
X236060970Y-105324329D01*
X236069235Y-105347429D01*
X236075196Y-105371227D01*
X236078796Y-105395496D01*
X236080000Y-105420000D01*
X236080000Y-106670000D01*
X236078796Y-106694504D01*
X236075196Y-106718773D01*
X236069235Y-106742571D01*
X236060970Y-106765671D01*
X236050480Y-106787849D01*
X236037867Y-106808893D01*
X236023253Y-106828598D01*
X236006777Y-106846777D01*
X235988598Y-106863253D01*
X235968893Y-106877867D01*
X235947849Y-106890480D01*
X235925671Y-106900970D01*
X235902571Y-106909235D01*
X235878773Y-106915196D01*
X235854504Y-106918796D01*
X235830000Y-106920000D01*
X235080000Y-106920000D01*
X235055496Y-106918796D01*
X235031227Y-106915196D01*
X235007429Y-106909235D01*
X234984329Y-106900970D01*
X234962151Y-106890480D01*
X234941107Y-106877867D01*
X234921402Y-106863253D01*
X234903223Y-106846777D01*
X234886747Y-106828598D01*
X234872133Y-106808893D01*
X234859520Y-106787849D01*
X234849030Y-106765671D01*
X234840765Y-106742571D01*
X234834804Y-106718773D01*
X234831204Y-106694504D01*
X234830000Y-106670000D01*
X234830000Y-105420000D01*
X234831204Y-105395496D01*
X234834804Y-105371227D01*
X234840765Y-105347429D01*
X234849030Y-105324329D01*
X234859520Y-105302151D01*
X234872133Y-105281107D01*
X234886747Y-105261402D01*
X234903223Y-105243223D01*
X234921402Y-105226747D01*
X234941107Y-105212133D01*
X234962151Y-105199520D01*
X234984329Y-105189030D01*
X235007429Y-105180765D01*
X235031227Y-105174804D01*
X235055496Y-105171204D01*
X235080000Y-105170000D01*
X235830000Y-105170000D01*
X235854504Y-105171204D01*
X235854504Y-105171204D01*
G37*
D11*
X235455000Y-106045000D03*
G04 #@! TD*
D10*
G04 #@! TO.C,D412*
G36*
X257704504Y-105171204D02*
X257728773Y-105174804D01*
X257752571Y-105180765D01*
X257775671Y-105189030D01*
X257797849Y-105199520D01*
X257818893Y-105212133D01*
X257838598Y-105226747D01*
X257856777Y-105243223D01*
X257873253Y-105261402D01*
X257887867Y-105281107D01*
X257900480Y-105302151D01*
X257910970Y-105324329D01*
X257919235Y-105347429D01*
X257925196Y-105371227D01*
X257928796Y-105395496D01*
X257930000Y-105420000D01*
X257930000Y-106670000D01*
X257928796Y-106694504D01*
X257925196Y-106718773D01*
X257919235Y-106742571D01*
X257910970Y-106765671D01*
X257900480Y-106787849D01*
X257887867Y-106808893D01*
X257873253Y-106828598D01*
X257856777Y-106846777D01*
X257838598Y-106863253D01*
X257818893Y-106877867D01*
X257797849Y-106890480D01*
X257775671Y-106900970D01*
X257752571Y-106909235D01*
X257728773Y-106915196D01*
X257704504Y-106918796D01*
X257680000Y-106920000D01*
X256930000Y-106920000D01*
X256905496Y-106918796D01*
X256881227Y-106915196D01*
X256857429Y-106909235D01*
X256834329Y-106900970D01*
X256812151Y-106890480D01*
X256791107Y-106877867D01*
X256771402Y-106863253D01*
X256753223Y-106846777D01*
X256736747Y-106828598D01*
X256722133Y-106808893D01*
X256709520Y-106787849D01*
X256699030Y-106765671D01*
X256690765Y-106742571D01*
X256684804Y-106718773D01*
X256681204Y-106694504D01*
X256680000Y-106670000D01*
X256680000Y-105420000D01*
X256681204Y-105395496D01*
X256684804Y-105371227D01*
X256690765Y-105347429D01*
X256699030Y-105324329D01*
X256709520Y-105302151D01*
X256722133Y-105281107D01*
X256736747Y-105261402D01*
X256753223Y-105243223D01*
X256771402Y-105226747D01*
X256791107Y-105212133D01*
X256812151Y-105199520D01*
X256834329Y-105189030D01*
X256857429Y-105180765D01*
X256881227Y-105174804D01*
X256905496Y-105171204D01*
X256930000Y-105170000D01*
X257680000Y-105170000D01*
X257704504Y-105171204D01*
X257704504Y-105171204D01*
G37*
D11*
X257305000Y-106045000D03*
D10*
G36*
X254904504Y-105171204D02*
X254928773Y-105174804D01*
X254952571Y-105180765D01*
X254975671Y-105189030D01*
X254997849Y-105199520D01*
X255018893Y-105212133D01*
X255038598Y-105226747D01*
X255056777Y-105243223D01*
X255073253Y-105261402D01*
X255087867Y-105281107D01*
X255100480Y-105302151D01*
X255110970Y-105324329D01*
X255119235Y-105347429D01*
X255125196Y-105371227D01*
X255128796Y-105395496D01*
X255130000Y-105420000D01*
X255130000Y-106670000D01*
X255128796Y-106694504D01*
X255125196Y-106718773D01*
X255119235Y-106742571D01*
X255110970Y-106765671D01*
X255100480Y-106787849D01*
X255087867Y-106808893D01*
X255073253Y-106828598D01*
X255056777Y-106846777D01*
X255038598Y-106863253D01*
X255018893Y-106877867D01*
X254997849Y-106890480D01*
X254975671Y-106900970D01*
X254952571Y-106909235D01*
X254928773Y-106915196D01*
X254904504Y-106918796D01*
X254880000Y-106920000D01*
X254130000Y-106920000D01*
X254105496Y-106918796D01*
X254081227Y-106915196D01*
X254057429Y-106909235D01*
X254034329Y-106900970D01*
X254012151Y-106890480D01*
X253991107Y-106877867D01*
X253971402Y-106863253D01*
X253953223Y-106846777D01*
X253936747Y-106828598D01*
X253922133Y-106808893D01*
X253909520Y-106787849D01*
X253899030Y-106765671D01*
X253890765Y-106742571D01*
X253884804Y-106718773D01*
X253881204Y-106694504D01*
X253880000Y-106670000D01*
X253880000Y-105420000D01*
X253881204Y-105395496D01*
X253884804Y-105371227D01*
X253890765Y-105347429D01*
X253899030Y-105324329D01*
X253909520Y-105302151D01*
X253922133Y-105281107D01*
X253936747Y-105261402D01*
X253953223Y-105243223D01*
X253971402Y-105226747D01*
X253991107Y-105212133D01*
X254012151Y-105199520D01*
X254034329Y-105189030D01*
X254057429Y-105180765D01*
X254081227Y-105174804D01*
X254105496Y-105171204D01*
X254130000Y-105170000D01*
X254880000Y-105170000D01*
X254904504Y-105171204D01*
X254904504Y-105171204D01*
G37*
D11*
X254505000Y-106045000D03*
G04 #@! TD*
D12*
G04 #@! TO.C,SW1*
X132080000Y-38010000D03*
X132080000Y-45810000D03*
G04 #@! TD*
M02*
