M48
;DRILL file {KiCad (5.0.1-3-g963ef8bb5)} date 2019年04月11日 星期四 07:17:38
;FORMAT={-:-/ absolute / inch / decimal}
FMAT,2
INCH,TZ
T1C0.0157
T2C0.0433
T3C0.0590
%
G90
G05
M72
T1
X2.375Y-2.725
X2.3965Y-1.975
X2.3965Y-3.5
X2.4535Y-3.5
X2.475Y-1.975
X2.475Y-2.725
X3.125Y-1.975
X3.1465Y-2.725
X3.1465Y-2.8
X3.1465Y-3.5
X3.2035Y-3.5
X3.225Y-1.975
X3.225Y-2.725
X3.225Y-2.8
X3.875Y-2.725
X3.875Y-2.8
X3.875Y-2.85
X3.8965Y-1.975
X3.8965Y-3.5
X3.9535Y-3.5
X3.975Y-1.975
X3.975Y-2.725
X3.975Y-2.8
X3.975Y-2.85
X4.625Y-2.725
X4.625Y-2.8
X4.625Y-2.85
X4.625Y-2.9
X4.6465Y-1.975
X4.7035Y-2.725
X4.7035Y-2.8
X4.7035Y-2.85
X4.7035Y-2.9
X4.725Y-1.975
X5.375Y-2.725
X5.375Y-2.8
X5.375Y-2.8463
X5.375Y-2.8856
X5.375Y-2.925
X5.3965Y-1.85
X5.3965Y-1.975
X5.3965Y-3.5
X5.4535Y-3.5
X5.475Y-1.975
X5.475Y-2.725
X5.625Y-1.6
X5.675Y-2.925
X5.775Y-2.725
X5.8Y-2.875
X5.825Y-1.3766
X5.825Y-1.5
X5.825Y-1.8
X5.8278Y-2.8465
X5.875Y-1.4
X5.875Y-1.5
X5.875Y-2.7965
X5.925Y-2.05
X5.95Y-1.4215
X5.95Y-1.5
X5.95Y-1.875
X5.95Y-1.975
X5.95Y-2.725
X6.125Y-2.3
X6.1465Y-2.175
X6.1465Y-2.725
X6.1465Y-2.775
X6.1465Y-2.825
X6.1465Y-2.875
X6.2035Y-2.175
X6.2035Y-2.45
X6.2035Y-2.725
X6.2035Y-2.775
X6.2035Y-2.825
X6.2035Y-2.875
X6.225Y-1.975
X6.225Y-2.3
X6.275Y-2.1465
X6.375Y-1.625
X6.375Y-2.35
X6.425Y-1.975
X6.425Y-2.025
X6.45Y-2.175
X6.4535Y-1.825
X6.475Y-2.35
X6.4821Y-1.975
X6.5Y-2.025
X6.525Y-2.15
X6.7Y-2.3465
X6.7Y-2.425
X6.7Y-3.4715
X6.7Y-3.55
X6.775Y-2.1215
X6.775Y-2.1785
X6.775Y-2.3465
X6.775Y-2.425
X6.825Y-2.1215
X6.825Y-2.1785
X6.825Y-2.3465
X6.825Y-2.425
X6.875Y-2.725
X6.8965Y-1.875
X6.8965Y-2.175
X6.8965Y-3.5
X6.9535Y-1.875
X6.9535Y-2.175
X6.9535Y-3.5
X6.975Y-2.725
X7.6465Y-1.975
X7.6465Y-2.725
X7.6465Y-3.5
X7.7035Y-3.5
X7.725Y-1.975
X7.725Y-2.725
X8.3965Y-1.975
X8.3965Y-2.725
X8.3965Y-3.5
X8.4535Y-3.5
X8.475Y-1.975
X8.475Y-2.725
X9.125Y-2.725
X9.1465Y-1.975
X9.1465Y-3.5
X9.2035Y-3.5
X9.225Y-1.975
X9.225Y-2.725
X9.875Y-2.725
X9.875Y-3.475
X9.8965Y-1.975
X9.975Y-1.975
X9.975Y-2.725
X9.975Y-3.475
T2
X6.025Y-1.5
X6.025Y-1.6
X6.025Y-1.7
X6.025Y-1.8
X6.025Y-1.9
X6.025Y-2.
X6.025Y-2.1
X6.025Y-2.2
X6.025Y-2.3
X6.025Y-2.4
X6.025Y-2.5
X6.025Y-2.6
X6.625Y-1.5
X6.625Y-1.6
X6.625Y-1.7
X6.625Y-1.8
X6.625Y-1.9
X6.625Y-2.
X6.625Y-2.1
X6.625Y-2.2
X6.625Y-2.3
X6.625Y-2.4
X6.625Y-2.5
X6.625Y-2.6
T3
X9.175Y-3.125
X9.425Y-3.025
X5.425Y-1.625
X5.675Y-1.525
X7.675Y-3.875
X7.925Y-3.775
X2.425Y-3.875
X2.675Y-3.775
X2.425Y-2.375
X2.675Y-2.275
X6.175Y-3.125
X6.425Y-3.025
X9.925Y-3.125
X10.175Y-3.025
X9.175Y-2.375
X9.425Y-2.275
X3.175Y-1.625
X3.425Y-1.525
X6.925Y-1.625
X7.175Y-1.525
X3.175Y-3.875
X3.425Y-3.775
X3.925Y-3.125
X4.175Y-3.025
X7.675Y-2.375
X7.925Y-2.275
X6.825Y-3.875
X7.075Y-3.775
X4.675Y-1.625
X4.925Y-1.525
X5.325Y-3.875
X5.575Y-3.775
X1.675Y-3.875
X1.925Y-3.775
X5.425Y-3.125
X5.675Y-3.025
X8.425Y-2.375
X8.675Y-2.275
X2.425Y-1.625
X2.675Y-1.525
X6.175Y-1.625
X6.425Y-1.525
X3.175Y-3.125
X3.425Y-3.025
X6.925Y-2.375
X7.175Y-2.275
X9.175Y-1.625
X9.425Y-1.525
X3.925Y-2.375
X4.175Y-2.275
X7.675Y-3.125
X7.925Y-3.025
X9.175Y-3.875
X9.425Y-3.775
X4.675Y-3.125
X4.925Y-3.025
X8.425Y-3.125
X8.675Y-3.025
X9.925Y-1.625
X10.175Y-1.525
X1.675Y-1.625
X1.925Y-1.525
X4.675Y-2.375
X4.925Y-2.275
X9.925Y-3.875
X10.175Y-3.775
X2.425Y-3.125
X2.675Y-3.025
X6.175Y-2.375
X6.425Y-2.275
X8.425Y-1.625
X8.675Y-1.525
X3.175Y-2.375
X3.425Y-2.275
X6.925Y-3.125
X7.175Y-3.025
X8.425Y-3.875
X8.675Y-3.775
X9.925Y-2.375
X10.175Y-2.275
X3.925Y-1.625
X4.175Y-1.525
X7.675Y-1.625
X7.925Y-1.525
X3.925Y-3.875
X4.175Y-3.775
X5.425Y-2.375
X5.675Y-2.275
X1.675Y-2.375
X1.925Y-2.275
X1.675Y-3.125
X1.925Y-3.025
T0
M30
