G04 #@! TF.GenerationSoftware,KiCad,Pcbnew,(5.0.1-3-g963ef8bb5)*
G04 #@! TF.CreationDate,2019-04-11T19:17:33+08:00*
G04 #@! TF.ProjectId,keyboard_arduino,6B6579626F6172645F61726475696E6F,a*
G04 #@! TF.SameCoordinates,Original*
G04 #@! TF.FileFunction,Legend,Top*
G04 #@! TF.FilePolarity,Positive*
%FSLAX46Y46*%
G04 Gerber Fmt 4.6, Leading zero omitted, Abs format (unit mm)*
G04 Created by KiCad (PCBNEW (5.0.1-3-g963ef8bb5)) date 2019年04月11日 星期四 07:17:33*
%MOMM*%
%LPD*%
G01*
G04 APERTURE LIST*
%ADD10C,0.381000*%
%ADD11C,0.150000*%
%ADD12C,0.010000*%
%ADD13C,0.203200*%
G04 APERTURE END LIST*
D10*
G04 #@! TO.C,K26*
X135255000Y-58293000D02*
X135255000Y-56515000D01*
X135255000Y-69215000D02*
X135255000Y-67437000D01*
X137033000Y-69215000D02*
X135255000Y-69215000D01*
X147955000Y-69215000D02*
X146177000Y-69215000D01*
X147955000Y-67437000D02*
X147955000Y-69215000D01*
X147955000Y-56515000D02*
X147955000Y-58293000D01*
X146177000Y-56515000D02*
X147955000Y-56515000D01*
X135255000Y-56515000D02*
X137033000Y-56515000D01*
D11*
G04 #@! TO.C,UProMicro1*
X151765000Y-67310000D02*
X169545000Y-67310000D01*
X169545000Y-67310000D02*
X169545000Y-36830000D01*
X169545000Y-36830000D02*
X164465000Y-36830000D01*
X164465000Y-36830000D02*
X164465000Y-34290000D01*
X164465000Y-34290000D02*
X156845000Y-34290000D01*
X156845000Y-34290000D02*
X156845000Y-36830000D01*
X156845000Y-36830000D02*
X151765000Y-36830000D01*
X151765000Y-36830000D02*
X151765000Y-67310000D01*
D10*
G04 #@! TO.C,K11*
X40005000Y-37465000D02*
X41783000Y-37465000D01*
X50927000Y-37465000D02*
X52705000Y-37465000D01*
X52705000Y-37465000D02*
X52705000Y-39243000D01*
X52705000Y-48387000D02*
X52705000Y-50165000D01*
X52705000Y-50165000D02*
X50927000Y-50165000D01*
X41783000Y-50165000D02*
X40005000Y-50165000D01*
X40005000Y-50165000D02*
X40005000Y-48387000D01*
X40005000Y-39243000D02*
X40005000Y-37465000D01*
G04 #@! TO.C,K12*
X59055000Y-37465000D02*
X60833000Y-37465000D01*
X69977000Y-37465000D02*
X71755000Y-37465000D01*
X71755000Y-37465000D02*
X71755000Y-39243000D01*
X71755000Y-48387000D02*
X71755000Y-50165000D01*
X71755000Y-50165000D02*
X69977000Y-50165000D01*
X60833000Y-50165000D02*
X59055000Y-50165000D01*
X59055000Y-50165000D02*
X59055000Y-48387000D01*
X59055000Y-39243000D02*
X59055000Y-37465000D01*
G04 #@! TO.C,K13*
X78105000Y-39243000D02*
X78105000Y-37465000D01*
X78105000Y-50165000D02*
X78105000Y-48387000D01*
X79883000Y-50165000D02*
X78105000Y-50165000D01*
X90805000Y-50165000D02*
X89027000Y-50165000D01*
X90805000Y-48387000D02*
X90805000Y-50165000D01*
X90805000Y-37465000D02*
X90805000Y-39243000D01*
X89027000Y-37465000D02*
X90805000Y-37465000D01*
X78105000Y-37465000D02*
X79883000Y-37465000D01*
G04 #@! TO.C,K14*
X97155000Y-39243000D02*
X97155000Y-37465000D01*
X97155000Y-50165000D02*
X97155000Y-48387000D01*
X98933000Y-50165000D02*
X97155000Y-50165000D01*
X109855000Y-50165000D02*
X108077000Y-50165000D01*
X109855000Y-48387000D02*
X109855000Y-50165000D01*
X109855000Y-37465000D02*
X109855000Y-39243000D01*
X108077000Y-37465000D02*
X109855000Y-37465000D01*
X97155000Y-37465000D02*
X98933000Y-37465000D01*
G04 #@! TO.C,K15*
X116205000Y-39243000D02*
X116205000Y-37465000D01*
X116205000Y-50165000D02*
X116205000Y-48387000D01*
X117983000Y-50165000D02*
X116205000Y-50165000D01*
X128905000Y-50165000D02*
X127127000Y-50165000D01*
X128905000Y-48387000D02*
X128905000Y-50165000D01*
X128905000Y-37465000D02*
X128905000Y-39243000D01*
X127127000Y-37465000D02*
X128905000Y-37465000D01*
X116205000Y-37465000D02*
X117983000Y-37465000D01*
G04 #@! TO.C,K16*
X135255000Y-39243000D02*
X135255000Y-37465000D01*
X135255000Y-50165000D02*
X135255000Y-48387000D01*
X137033000Y-50165000D02*
X135255000Y-50165000D01*
X147955000Y-50165000D02*
X146177000Y-50165000D01*
X147955000Y-48387000D02*
X147955000Y-50165000D01*
X147955000Y-37465000D02*
X147955000Y-39243000D01*
X146177000Y-37465000D02*
X147955000Y-37465000D01*
X135255000Y-37465000D02*
X137033000Y-37465000D01*
G04 #@! TO.C,K17*
X154305000Y-39243000D02*
X154305000Y-37465000D01*
X154305000Y-50165000D02*
X154305000Y-48387000D01*
X156083000Y-50165000D02*
X154305000Y-50165000D01*
X167005000Y-50165000D02*
X165227000Y-50165000D01*
X167005000Y-48387000D02*
X167005000Y-50165000D01*
X167005000Y-37465000D02*
X167005000Y-39243000D01*
X165227000Y-37465000D02*
X167005000Y-37465000D01*
X154305000Y-37465000D02*
X156083000Y-37465000D01*
G04 #@! TO.C,K18*
X173355000Y-39243000D02*
X173355000Y-37465000D01*
X173355000Y-50165000D02*
X173355000Y-48387000D01*
X175133000Y-50165000D02*
X173355000Y-50165000D01*
X186055000Y-50165000D02*
X184277000Y-50165000D01*
X186055000Y-48387000D02*
X186055000Y-50165000D01*
X186055000Y-37465000D02*
X186055000Y-39243000D01*
X184277000Y-37465000D02*
X186055000Y-37465000D01*
X173355000Y-37465000D02*
X175133000Y-37465000D01*
G04 #@! TO.C,K19*
X192405000Y-39243000D02*
X192405000Y-37465000D01*
X192405000Y-50165000D02*
X192405000Y-48387000D01*
X194183000Y-50165000D02*
X192405000Y-50165000D01*
X205105000Y-50165000D02*
X203327000Y-50165000D01*
X205105000Y-48387000D02*
X205105000Y-50165000D01*
X205105000Y-37465000D02*
X205105000Y-39243000D01*
X203327000Y-37465000D02*
X205105000Y-37465000D01*
X192405000Y-37465000D02*
X194183000Y-37465000D01*
G04 #@! TO.C,K21*
X40005000Y-58293000D02*
X40005000Y-56515000D01*
X40005000Y-69215000D02*
X40005000Y-67437000D01*
X41783000Y-69215000D02*
X40005000Y-69215000D01*
X52705000Y-69215000D02*
X50927000Y-69215000D01*
X52705000Y-67437000D02*
X52705000Y-69215000D01*
X52705000Y-56515000D02*
X52705000Y-58293000D01*
X50927000Y-56515000D02*
X52705000Y-56515000D01*
X40005000Y-56515000D02*
X41783000Y-56515000D01*
G04 #@! TO.C,K22*
X59055000Y-58293000D02*
X59055000Y-56515000D01*
X59055000Y-69215000D02*
X59055000Y-67437000D01*
X60833000Y-69215000D02*
X59055000Y-69215000D01*
X71755000Y-69215000D02*
X69977000Y-69215000D01*
X71755000Y-67437000D02*
X71755000Y-69215000D01*
X71755000Y-56515000D02*
X71755000Y-58293000D01*
X69977000Y-56515000D02*
X71755000Y-56515000D01*
X59055000Y-56515000D02*
X60833000Y-56515000D01*
G04 #@! TO.C,K23*
X78105000Y-58293000D02*
X78105000Y-56515000D01*
X78105000Y-69215000D02*
X78105000Y-67437000D01*
X79883000Y-69215000D02*
X78105000Y-69215000D01*
X90805000Y-69215000D02*
X89027000Y-69215000D01*
X90805000Y-67437000D02*
X90805000Y-69215000D01*
X90805000Y-56515000D02*
X90805000Y-58293000D01*
X89027000Y-56515000D02*
X90805000Y-56515000D01*
X78105000Y-56515000D02*
X79883000Y-56515000D01*
G04 #@! TO.C,K24*
X97155000Y-58293000D02*
X97155000Y-56515000D01*
X97155000Y-69215000D02*
X97155000Y-67437000D01*
X98933000Y-69215000D02*
X97155000Y-69215000D01*
X109855000Y-69215000D02*
X108077000Y-69215000D01*
X109855000Y-67437000D02*
X109855000Y-69215000D01*
X109855000Y-56515000D02*
X109855000Y-58293000D01*
X108077000Y-56515000D02*
X109855000Y-56515000D01*
X97155000Y-56515000D02*
X98933000Y-56515000D01*
G04 #@! TO.C,K25*
X116205000Y-58293000D02*
X116205000Y-56515000D01*
X116205000Y-69215000D02*
X116205000Y-67437000D01*
X117983000Y-69215000D02*
X116205000Y-69215000D01*
X128905000Y-69215000D02*
X127127000Y-69215000D01*
X128905000Y-67437000D02*
X128905000Y-69215000D01*
X128905000Y-56515000D02*
X128905000Y-58293000D01*
X127127000Y-56515000D02*
X128905000Y-56515000D01*
X116205000Y-56515000D02*
X117983000Y-56515000D01*
G04 #@! TO.C,K27*
X154305000Y-58293000D02*
X154305000Y-56515000D01*
X154305000Y-69215000D02*
X154305000Y-67437000D01*
X156083000Y-69215000D02*
X154305000Y-69215000D01*
X167005000Y-69215000D02*
X165227000Y-69215000D01*
X167005000Y-67437000D02*
X167005000Y-69215000D01*
X167005000Y-56515000D02*
X167005000Y-58293000D01*
X165227000Y-56515000D02*
X167005000Y-56515000D01*
X154305000Y-56515000D02*
X156083000Y-56515000D01*
G04 #@! TO.C,K28*
X173355000Y-58293000D02*
X173355000Y-56515000D01*
X173355000Y-69215000D02*
X173355000Y-67437000D01*
X175133000Y-69215000D02*
X173355000Y-69215000D01*
X186055000Y-69215000D02*
X184277000Y-69215000D01*
X186055000Y-67437000D02*
X186055000Y-69215000D01*
X186055000Y-56515000D02*
X186055000Y-58293000D01*
X184277000Y-56515000D02*
X186055000Y-56515000D01*
X173355000Y-56515000D02*
X175133000Y-56515000D01*
G04 #@! TO.C,K29*
X192405000Y-58293000D02*
X192405000Y-56515000D01*
X192405000Y-69215000D02*
X192405000Y-67437000D01*
X194183000Y-69215000D02*
X192405000Y-69215000D01*
X205105000Y-69215000D02*
X203327000Y-69215000D01*
X205105000Y-67437000D02*
X205105000Y-69215000D01*
X205105000Y-56515000D02*
X205105000Y-58293000D01*
X203327000Y-56515000D02*
X205105000Y-56515000D01*
X192405000Y-56515000D02*
X194183000Y-56515000D01*
G04 #@! TO.C,K31*
X40005000Y-75565000D02*
X41783000Y-75565000D01*
X50927000Y-75565000D02*
X52705000Y-75565000D01*
X52705000Y-75565000D02*
X52705000Y-77343000D01*
X52705000Y-86487000D02*
X52705000Y-88265000D01*
X52705000Y-88265000D02*
X50927000Y-88265000D01*
X41783000Y-88265000D02*
X40005000Y-88265000D01*
X40005000Y-88265000D02*
X40005000Y-86487000D01*
X40005000Y-77343000D02*
X40005000Y-75565000D01*
G04 #@! TO.C,K32*
X59055000Y-75565000D02*
X60833000Y-75565000D01*
X69977000Y-75565000D02*
X71755000Y-75565000D01*
X71755000Y-75565000D02*
X71755000Y-77343000D01*
X71755000Y-86487000D02*
X71755000Y-88265000D01*
X71755000Y-88265000D02*
X69977000Y-88265000D01*
X60833000Y-88265000D02*
X59055000Y-88265000D01*
X59055000Y-88265000D02*
X59055000Y-86487000D01*
X59055000Y-77343000D02*
X59055000Y-75565000D01*
G04 #@! TO.C,K33*
X78105000Y-75565000D02*
X79883000Y-75565000D01*
X89027000Y-75565000D02*
X90805000Y-75565000D01*
X90805000Y-75565000D02*
X90805000Y-77343000D01*
X90805000Y-86487000D02*
X90805000Y-88265000D01*
X90805000Y-88265000D02*
X89027000Y-88265000D01*
X79883000Y-88265000D02*
X78105000Y-88265000D01*
X78105000Y-88265000D02*
X78105000Y-86487000D01*
X78105000Y-77343000D02*
X78105000Y-75565000D01*
G04 #@! TO.C,K34*
X97155000Y-75565000D02*
X98933000Y-75565000D01*
X108077000Y-75565000D02*
X109855000Y-75565000D01*
X109855000Y-75565000D02*
X109855000Y-77343000D01*
X109855000Y-86487000D02*
X109855000Y-88265000D01*
X109855000Y-88265000D02*
X108077000Y-88265000D01*
X98933000Y-88265000D02*
X97155000Y-88265000D01*
X97155000Y-88265000D02*
X97155000Y-86487000D01*
X97155000Y-77343000D02*
X97155000Y-75565000D01*
G04 #@! TO.C,K35*
X116205000Y-75565000D02*
X117983000Y-75565000D01*
X127127000Y-75565000D02*
X128905000Y-75565000D01*
X128905000Y-75565000D02*
X128905000Y-77343000D01*
X128905000Y-86487000D02*
X128905000Y-88265000D01*
X128905000Y-88265000D02*
X127127000Y-88265000D01*
X117983000Y-88265000D02*
X116205000Y-88265000D01*
X116205000Y-88265000D02*
X116205000Y-86487000D01*
X116205000Y-77343000D02*
X116205000Y-75565000D01*
G04 #@! TO.C,K36*
X135255000Y-75565000D02*
X137033000Y-75565000D01*
X146177000Y-75565000D02*
X147955000Y-75565000D01*
X147955000Y-75565000D02*
X147955000Y-77343000D01*
X147955000Y-86487000D02*
X147955000Y-88265000D01*
X147955000Y-88265000D02*
X146177000Y-88265000D01*
X137033000Y-88265000D02*
X135255000Y-88265000D01*
X135255000Y-88265000D02*
X135255000Y-86487000D01*
X135255000Y-77343000D02*
X135255000Y-75565000D01*
G04 #@! TO.C,K37*
X154305000Y-75565000D02*
X156083000Y-75565000D01*
X165227000Y-75565000D02*
X167005000Y-75565000D01*
X167005000Y-75565000D02*
X167005000Y-77343000D01*
X167005000Y-86487000D02*
X167005000Y-88265000D01*
X167005000Y-88265000D02*
X165227000Y-88265000D01*
X156083000Y-88265000D02*
X154305000Y-88265000D01*
X154305000Y-88265000D02*
X154305000Y-86487000D01*
X154305000Y-77343000D02*
X154305000Y-75565000D01*
G04 #@! TO.C,K38*
X173355000Y-75565000D02*
X175133000Y-75565000D01*
X184277000Y-75565000D02*
X186055000Y-75565000D01*
X186055000Y-75565000D02*
X186055000Y-77343000D01*
X186055000Y-86487000D02*
X186055000Y-88265000D01*
X186055000Y-88265000D02*
X184277000Y-88265000D01*
X175133000Y-88265000D02*
X173355000Y-88265000D01*
X173355000Y-88265000D02*
X173355000Y-86487000D01*
X173355000Y-77343000D02*
X173355000Y-75565000D01*
G04 #@! TO.C,K39*
X192405000Y-75565000D02*
X194183000Y-75565000D01*
X203327000Y-75565000D02*
X205105000Y-75565000D01*
X205105000Y-75565000D02*
X205105000Y-77343000D01*
X205105000Y-86487000D02*
X205105000Y-88265000D01*
X205105000Y-88265000D02*
X203327000Y-88265000D01*
X194183000Y-88265000D02*
X192405000Y-88265000D01*
X192405000Y-88265000D02*
X192405000Y-86487000D01*
X192405000Y-77343000D02*
X192405000Y-75565000D01*
G04 #@! TO.C,K41*
X40005000Y-94615000D02*
X41783000Y-94615000D01*
X50927000Y-94615000D02*
X52705000Y-94615000D01*
X52705000Y-94615000D02*
X52705000Y-96393000D01*
X52705000Y-105537000D02*
X52705000Y-107315000D01*
X52705000Y-107315000D02*
X50927000Y-107315000D01*
X41783000Y-107315000D02*
X40005000Y-107315000D01*
X40005000Y-107315000D02*
X40005000Y-105537000D01*
X40005000Y-96393000D02*
X40005000Y-94615000D01*
G04 #@! TO.C,K42*
X59055000Y-94615000D02*
X60833000Y-94615000D01*
X69977000Y-94615000D02*
X71755000Y-94615000D01*
X71755000Y-94615000D02*
X71755000Y-96393000D01*
X71755000Y-105537000D02*
X71755000Y-107315000D01*
X71755000Y-107315000D02*
X69977000Y-107315000D01*
X60833000Y-107315000D02*
X59055000Y-107315000D01*
X59055000Y-107315000D02*
X59055000Y-105537000D01*
X59055000Y-96393000D02*
X59055000Y-94615000D01*
G04 #@! TO.C,K43*
X78105000Y-94615000D02*
X79883000Y-94615000D01*
X89027000Y-94615000D02*
X90805000Y-94615000D01*
X90805000Y-94615000D02*
X90805000Y-96393000D01*
X90805000Y-105537000D02*
X90805000Y-107315000D01*
X90805000Y-107315000D02*
X89027000Y-107315000D01*
X79883000Y-107315000D02*
X78105000Y-107315000D01*
X78105000Y-107315000D02*
X78105000Y-105537000D01*
X78105000Y-96393000D02*
X78105000Y-94615000D01*
G04 #@! TO.C,K44*
X97155000Y-94615000D02*
X98933000Y-94615000D01*
X108077000Y-94615000D02*
X109855000Y-94615000D01*
X109855000Y-94615000D02*
X109855000Y-96393000D01*
X109855000Y-105537000D02*
X109855000Y-107315000D01*
X109855000Y-107315000D02*
X108077000Y-107315000D01*
X98933000Y-107315000D02*
X97155000Y-107315000D01*
X97155000Y-107315000D02*
X97155000Y-105537000D01*
X97155000Y-96393000D02*
X97155000Y-94615000D01*
G04 #@! TO.C,K46*
X132715000Y-94615000D02*
X134493000Y-94615000D01*
X143637000Y-94615000D02*
X145415000Y-94615000D01*
X145415000Y-94615000D02*
X145415000Y-96393000D01*
X145415000Y-105537000D02*
X145415000Y-107315000D01*
X145415000Y-107315000D02*
X143637000Y-107315000D01*
X134493000Y-107315000D02*
X132715000Y-107315000D01*
X132715000Y-107315000D02*
X132715000Y-105537000D01*
X132715000Y-96393000D02*
X132715000Y-94615000D01*
G04 #@! TO.C,K48*
X170815000Y-94615000D02*
X172593000Y-94615000D01*
X181737000Y-94615000D02*
X183515000Y-94615000D01*
X183515000Y-94615000D02*
X183515000Y-96393000D01*
X183515000Y-105537000D02*
X183515000Y-107315000D01*
X183515000Y-107315000D02*
X181737000Y-107315000D01*
X172593000Y-107315000D02*
X170815000Y-107315000D01*
X170815000Y-107315000D02*
X170815000Y-105537000D01*
X170815000Y-96393000D02*
X170815000Y-94615000D01*
G04 #@! TO.C,K49*
X192405000Y-94615000D02*
X194183000Y-94615000D01*
X203327000Y-94615000D02*
X205105000Y-94615000D01*
X205105000Y-94615000D02*
X205105000Y-96393000D01*
X205105000Y-105537000D02*
X205105000Y-107315000D01*
X205105000Y-107315000D02*
X203327000Y-107315000D01*
X194183000Y-107315000D02*
X192405000Y-107315000D01*
X192405000Y-107315000D02*
X192405000Y-105537000D01*
X192405000Y-96393000D02*
X192405000Y-94615000D01*
G04 #@! TO.C,K110*
X211455000Y-39243000D02*
X211455000Y-37465000D01*
X211455000Y-50165000D02*
X211455000Y-48387000D01*
X213233000Y-50165000D02*
X211455000Y-50165000D01*
X224155000Y-50165000D02*
X222377000Y-50165000D01*
X224155000Y-48387000D02*
X224155000Y-50165000D01*
X224155000Y-37465000D02*
X224155000Y-39243000D01*
X222377000Y-37465000D02*
X224155000Y-37465000D01*
X211455000Y-37465000D02*
X213233000Y-37465000D01*
G04 #@! TO.C,K111*
X230505000Y-39243000D02*
X230505000Y-37465000D01*
X230505000Y-50165000D02*
X230505000Y-48387000D01*
X232283000Y-50165000D02*
X230505000Y-50165000D01*
X243205000Y-50165000D02*
X241427000Y-50165000D01*
X243205000Y-48387000D02*
X243205000Y-50165000D01*
X243205000Y-37465000D02*
X243205000Y-39243000D01*
X241427000Y-37465000D02*
X243205000Y-37465000D01*
X230505000Y-37465000D02*
X232283000Y-37465000D01*
G04 #@! TO.C,K112*
X249555000Y-39243000D02*
X249555000Y-37465000D01*
X249555000Y-50165000D02*
X249555000Y-48387000D01*
X251333000Y-50165000D02*
X249555000Y-50165000D01*
X262255000Y-50165000D02*
X260477000Y-50165000D01*
X262255000Y-48387000D02*
X262255000Y-50165000D01*
X262255000Y-37465000D02*
X262255000Y-39243000D01*
X260477000Y-37465000D02*
X262255000Y-37465000D01*
X249555000Y-37465000D02*
X251333000Y-37465000D01*
G04 #@! TO.C,K210*
X211455000Y-58293000D02*
X211455000Y-56515000D01*
X211455000Y-69215000D02*
X211455000Y-67437000D01*
X213233000Y-69215000D02*
X211455000Y-69215000D01*
X224155000Y-69215000D02*
X222377000Y-69215000D01*
X224155000Y-67437000D02*
X224155000Y-69215000D01*
X224155000Y-56515000D02*
X224155000Y-58293000D01*
X222377000Y-56515000D02*
X224155000Y-56515000D01*
X211455000Y-56515000D02*
X213233000Y-56515000D01*
G04 #@! TO.C,K211*
X230505000Y-58293000D02*
X230505000Y-56515000D01*
X230505000Y-69215000D02*
X230505000Y-67437000D01*
X232283000Y-69215000D02*
X230505000Y-69215000D01*
X243205000Y-69215000D02*
X241427000Y-69215000D01*
X243205000Y-67437000D02*
X243205000Y-69215000D01*
X243205000Y-56515000D02*
X243205000Y-58293000D01*
X241427000Y-56515000D02*
X243205000Y-56515000D01*
X230505000Y-56515000D02*
X232283000Y-56515000D01*
G04 #@! TO.C,K212*
X249555000Y-58293000D02*
X249555000Y-56515000D01*
X249555000Y-69215000D02*
X249555000Y-67437000D01*
X251333000Y-69215000D02*
X249555000Y-69215000D01*
X262255000Y-69215000D02*
X260477000Y-69215000D01*
X262255000Y-67437000D02*
X262255000Y-69215000D01*
X262255000Y-56515000D02*
X262255000Y-58293000D01*
X260477000Y-56515000D02*
X262255000Y-56515000D01*
X249555000Y-56515000D02*
X251333000Y-56515000D01*
G04 #@! TO.C,K310*
X211455000Y-75565000D02*
X213233000Y-75565000D01*
X222377000Y-75565000D02*
X224155000Y-75565000D01*
X224155000Y-75565000D02*
X224155000Y-77343000D01*
X224155000Y-86487000D02*
X224155000Y-88265000D01*
X224155000Y-88265000D02*
X222377000Y-88265000D01*
X213233000Y-88265000D02*
X211455000Y-88265000D01*
X211455000Y-88265000D02*
X211455000Y-86487000D01*
X211455000Y-77343000D02*
X211455000Y-75565000D01*
G04 #@! TO.C,K311*
X230505000Y-75565000D02*
X232283000Y-75565000D01*
X241427000Y-75565000D02*
X243205000Y-75565000D01*
X243205000Y-75565000D02*
X243205000Y-77343000D01*
X243205000Y-86487000D02*
X243205000Y-88265000D01*
X243205000Y-88265000D02*
X241427000Y-88265000D01*
X232283000Y-88265000D02*
X230505000Y-88265000D01*
X230505000Y-88265000D02*
X230505000Y-86487000D01*
X230505000Y-77343000D02*
X230505000Y-75565000D01*
G04 #@! TO.C,K312*
X249555000Y-75565000D02*
X251333000Y-75565000D01*
X260477000Y-75565000D02*
X262255000Y-75565000D01*
X262255000Y-75565000D02*
X262255000Y-77343000D01*
X262255000Y-86487000D02*
X262255000Y-88265000D01*
X262255000Y-88265000D02*
X260477000Y-88265000D01*
X251333000Y-88265000D02*
X249555000Y-88265000D01*
X249555000Y-88265000D02*
X249555000Y-86487000D01*
X249555000Y-77343000D02*
X249555000Y-75565000D01*
G04 #@! TO.C,K410*
X211455000Y-94615000D02*
X213233000Y-94615000D01*
X222377000Y-94615000D02*
X224155000Y-94615000D01*
X224155000Y-94615000D02*
X224155000Y-96393000D01*
X224155000Y-105537000D02*
X224155000Y-107315000D01*
X224155000Y-107315000D02*
X222377000Y-107315000D01*
X213233000Y-107315000D02*
X211455000Y-107315000D01*
X211455000Y-107315000D02*
X211455000Y-105537000D01*
X211455000Y-96393000D02*
X211455000Y-94615000D01*
G04 #@! TO.C,K411*
X230505000Y-94615000D02*
X232283000Y-94615000D01*
X241427000Y-94615000D02*
X243205000Y-94615000D01*
X243205000Y-94615000D02*
X243205000Y-96393000D01*
X243205000Y-105537000D02*
X243205000Y-107315000D01*
X243205000Y-107315000D02*
X241427000Y-107315000D01*
X232283000Y-107315000D02*
X230505000Y-107315000D01*
X230505000Y-107315000D02*
X230505000Y-105537000D01*
X230505000Y-96393000D02*
X230505000Y-94615000D01*
G04 #@! TO.C,K412*
X249555000Y-94615000D02*
X251333000Y-94615000D01*
X260477000Y-94615000D02*
X262255000Y-94615000D01*
X262255000Y-94615000D02*
X262255000Y-96393000D01*
X262255000Y-105537000D02*
X262255000Y-107315000D01*
X262255000Y-107315000D02*
X260477000Y-107315000D01*
X251333000Y-107315000D02*
X249555000Y-107315000D01*
X249555000Y-107315000D02*
X249555000Y-105537000D01*
X249555000Y-96393000D02*
X249555000Y-94615000D01*
D12*
G04 #@! TO.C,G\002A\002A\002A*
G36*
X204942410Y-49179743D02*
X205607867Y-49592886D01*
X206446274Y-50217347D01*
X207249001Y-50835364D01*
X208128635Y-51495201D01*
X208954849Y-52099800D01*
X209380666Y-52402632D01*
X210164095Y-52971071D01*
X211021797Y-53625171D01*
X211793674Y-54242231D01*
X211939615Y-54363812D01*
X212507984Y-54831596D01*
X213010430Y-55226174D01*
X213369232Y-55487283D01*
X213463615Y-55545443D01*
X213733729Y-55635095D01*
X214271826Y-55773441D01*
X215013304Y-55945262D01*
X215893565Y-56135338D01*
X216464970Y-56252520D01*
X219146607Y-56791542D01*
X220964200Y-56356938D01*
X222224942Y-56096841D01*
X223382327Y-55960098D01*
X224569550Y-55922333D01*
X225609265Y-55898557D01*
X226412942Y-55800996D01*
X227077089Y-55590302D01*
X227698216Y-55227127D01*
X228372830Y-54672122D01*
X228934502Y-54142653D01*
X230085344Y-53093680D01*
X231305056Y-52100812D01*
X232545623Y-51194771D01*
X233759030Y-50406282D01*
X234897262Y-49766067D01*
X235912303Y-49304850D01*
X236756139Y-49053353D01*
X236928564Y-49027533D01*
X237429149Y-48998461D01*
X237739643Y-49086778D01*
X238001012Y-49338493D01*
X238043221Y-49391313D01*
X238248047Y-49783898D01*
X238483102Y-50453999D01*
X238732600Y-51343605D01*
X238980755Y-52394706D01*
X239211782Y-53549293D01*
X239281091Y-53940327D01*
X239580106Y-55736670D01*
X239813134Y-57263799D01*
X239988027Y-58583021D01*
X240112641Y-59755641D01*
X240194829Y-60842965D01*
X240216237Y-61239616D01*
X240266963Y-62167707D01*
X240326553Y-62846857D01*
X240413006Y-63366669D01*
X240544321Y-63816745D01*
X240738496Y-64286688D01*
X240895555Y-64621505D01*
X241168468Y-65217201D01*
X241370991Y-65709217D01*
X241466355Y-66006956D01*
X241469333Y-66035222D01*
X241562629Y-66235474D01*
X241619447Y-66251666D01*
X241757804Y-66397048D01*
X241864496Y-66717333D01*
X241940434Y-67032347D01*
X242090295Y-67608378D01*
X242296718Y-68380311D01*
X242542340Y-69283030D01*
X242733600Y-69977000D01*
X243490422Y-72945498D01*
X244041986Y-75649124D01*
X244388740Y-78092041D01*
X244531130Y-80278412D01*
X244469603Y-82212401D01*
X244221000Y-83827138D01*
X243990554Y-85118484D01*
X243939401Y-86275313D01*
X244076657Y-87411160D01*
X244411440Y-88639561D01*
X244664224Y-89346296D01*
X244981966Y-90214268D01*
X245186782Y-90875817D01*
X245301548Y-91434767D01*
X245349144Y-91994941D01*
X245354518Y-92478962D01*
X245345037Y-93768333D01*
X244491483Y-91313000D01*
X244187544Y-90453307D01*
X243913968Y-89706630D01*
X243693120Y-89131969D01*
X243547366Y-88788322D01*
X243508730Y-88720566D01*
X243387734Y-88791451D01*
X243198940Y-89111419D01*
X243001027Y-89567233D01*
X242512228Y-90794654D01*
X242075657Y-91804741D01*
X241705392Y-92567533D01*
X241415512Y-93053067D01*
X241300035Y-93187077D01*
X240979173Y-93333037D01*
X240338652Y-93482652D01*
X239371487Y-93637318D01*
X238483095Y-93750916D01*
X237580555Y-93858234D01*
X236786033Y-93953294D01*
X236165813Y-94028120D01*
X235786175Y-94074738D01*
X235712000Y-94084317D01*
X235732764Y-94170808D01*
X236003908Y-94372372D01*
X236472958Y-94652503D01*
X236727067Y-94790479D01*
X237510776Y-95261638D01*
X238279166Y-95823074D01*
X238977920Y-96423616D01*
X239552716Y-97012097D01*
X239949235Y-97537346D01*
X240113157Y-97948193D01*
X240114666Y-97981622D01*
X240055929Y-98338772D01*
X239883221Y-98380524D01*
X239601795Y-98108466D01*
X239355512Y-97752174D01*
X238704699Y-96959542D01*
X237792082Y-96183678D01*
X236692763Y-95475825D01*
X235481845Y-94887229D01*
X234773357Y-94625670D01*
X234512467Y-94546674D01*
X234255107Y-94491841D01*
X233957458Y-94463753D01*
X233575702Y-94464990D01*
X233066023Y-94498133D01*
X232384601Y-94565763D01*
X231487618Y-94670459D01*
X230331258Y-94814804D01*
X229277333Y-94949363D01*
X228057984Y-95105075D01*
X226948781Y-95245645D01*
X225993990Y-95365550D01*
X225237877Y-95459266D01*
X224724708Y-95521270D01*
X224498749Y-95546037D01*
X224493666Y-95546254D01*
X224368049Y-95676428D01*
X224406085Y-96027272D01*
X224580593Y-96539672D01*
X224864396Y-97154516D01*
X225230314Y-97812692D01*
X225651168Y-98455084D01*
X226083637Y-99004330D01*
X226581145Y-99499789D01*
X227120029Y-99932637D01*
X227435289Y-100128854D01*
X227834406Y-100349302D01*
X228067362Y-100510535D01*
X228092000Y-100545108D01*
X227942862Y-100598692D01*
X227575924Y-100625593D01*
X227495549Y-100626333D01*
X226920180Y-100474990D01*
X226278642Y-100054976D01*
X225616531Y-99417317D01*
X224979439Y-98613036D01*
X224412961Y-97693157D01*
X223962690Y-96708705D01*
X223939741Y-96647000D01*
X223759986Y-96164733D01*
X223631480Y-95834588D01*
X223593456Y-95748611D01*
X223422821Y-95754297D01*
X222967558Y-95800220D01*
X222278539Y-95880410D01*
X221406635Y-95988897D01*
X220402719Y-96119711D01*
X220194500Y-96147502D01*
X219199891Y-96273872D01*
X218094040Y-96402751D01*
X216926488Y-96529582D01*
X215746775Y-96649810D01*
X214604439Y-96758877D01*
X213549022Y-96852227D01*
X212630063Y-96925305D01*
X211897101Y-96973554D01*
X211399677Y-96992417D01*
X211187330Y-96977339D01*
X211185585Y-96976069D01*
X211252364Y-96816979D01*
X211499021Y-96401774D01*
X211653556Y-96158146D01*
X213913228Y-96158146D01*
X214080395Y-96190328D01*
X214465951Y-96173234D01*
X215095005Y-96108444D01*
X215992662Y-95997540D01*
X217184028Y-95842102D01*
X218186000Y-95710294D01*
X219711384Y-95510546D01*
X221364477Y-95294981D01*
X223114350Y-95067564D01*
X224930072Y-94832260D01*
X226780713Y-94593036D01*
X228635343Y-94353857D01*
X230463032Y-94118689D01*
X232232850Y-93891497D01*
X233913866Y-93676248D01*
X235475150Y-93476906D01*
X236885774Y-93297438D01*
X238114805Y-93141810D01*
X239131315Y-93013986D01*
X239904373Y-92917934D01*
X240403048Y-92857617D01*
X240595995Y-92837000D01*
X240783176Y-92699110D01*
X241024398Y-92353773D01*
X241106773Y-92202000D01*
X241312752Y-91766083D01*
X241583275Y-91152565D01*
X241892696Y-90424642D01*
X242215375Y-89645507D01*
X242525666Y-88878357D01*
X242797927Y-88186387D01*
X243006516Y-87632790D01*
X243125787Y-87280764D01*
X243141631Y-87187307D01*
X242993765Y-87075154D01*
X242616825Y-86789013D01*
X242051438Y-86359733D01*
X241338230Y-85818160D01*
X240517828Y-85195140D01*
X240251524Y-84992898D01*
X239403795Y-84353073D01*
X238646711Y-83789234D01*
X238021667Y-83331590D01*
X237570054Y-83010349D01*
X237333266Y-82855719D01*
X237310159Y-82846333D01*
X237139596Y-82929098D01*
X236691475Y-83171296D01*
X235981969Y-83563782D01*
X235027247Y-84097410D01*
X233843480Y-84763034D01*
X232446840Y-85551508D01*
X230853497Y-86453687D01*
X229079622Y-87460425D01*
X227141387Y-88562576D01*
X225054961Y-89750995D01*
X222836517Y-91016535D01*
X220502224Y-92350052D01*
X220133333Y-92560955D01*
X218995291Y-93210473D01*
X217897699Y-93834696D01*
X216891244Y-94404963D01*
X216026615Y-94892615D01*
X215354500Y-95268992D01*
X214926333Y-95505033D01*
X214471004Y-95750131D01*
X214133639Y-95939628D01*
X213939345Y-96075107D01*
X213913228Y-96158146D01*
X211653556Y-96158146D01*
X211911285Y-95751831D01*
X212474888Y-94888527D01*
X212960154Y-94157666D01*
X214466478Y-94157666D01*
X214518916Y-94169511D01*
X214824457Y-94016211D01*
X215351673Y-93716301D01*
X215548312Y-93599000D01*
X216746666Y-93599000D01*
X216831333Y-93683666D01*
X216916000Y-93599000D01*
X216831333Y-93514333D01*
X216746666Y-93599000D01*
X215548312Y-93599000D01*
X215832177Y-93429666D01*
X217085333Y-93429666D01*
X217170000Y-93514333D01*
X217254666Y-93429666D01*
X217170000Y-93345000D01*
X217085333Y-93429666D01*
X215832177Y-93429666D01*
X216013233Y-93321661D01*
X217400791Y-93321661D01*
X217402596Y-93333346D01*
X217440732Y-93322205D01*
X217535743Y-93276692D01*
X217708174Y-93185261D01*
X217978566Y-93036365D01*
X218367466Y-92818458D01*
X218895415Y-92519995D01*
X219582959Y-92129428D01*
X220450641Y-91635213D01*
X221519004Y-91025802D01*
X222808593Y-90289650D01*
X224339951Y-89415210D01*
X226133623Y-88390937D01*
X227243840Y-87757000D01*
X236289162Y-82592333D01*
X235326607Y-82541649D01*
X234917094Y-82528607D01*
X234579372Y-82557968D01*
X234241904Y-82658335D01*
X233833154Y-82858314D01*
X233281587Y-83186507D01*
X232540359Y-83655748D01*
X231833950Y-84105923D01*
X230916584Y-84689037D01*
X229863677Y-85357237D01*
X228750643Y-86062670D01*
X227652898Y-86757482D01*
X227414666Y-86908127D01*
X226334938Y-87591239D01*
X225226690Y-88293250D01*
X224164268Y-88967005D01*
X223222018Y-89565349D01*
X222474286Y-90041128D01*
X222334666Y-90130159D01*
X221444640Y-90694921D01*
X220462047Y-91313467D01*
X219527617Y-91897419D01*
X218990333Y-92230385D01*
X218355899Y-92628455D01*
X217844831Y-92962216D01*
X217516111Y-93192296D01*
X217424000Y-93275996D01*
X217414773Y-93298695D01*
X217400791Y-93321661D01*
X216013233Y-93321661D01*
X216069135Y-93288314D01*
X216945418Y-92750784D01*
X217949092Y-92122246D01*
X218363880Y-91859241D01*
X219577979Y-91086908D01*
X220827244Y-90292315D01*
X222046632Y-89516823D01*
X223171099Y-88801798D01*
X224135601Y-88188603D01*
X224834214Y-87744575D01*
X225750497Y-87162678D01*
X226701320Y-86559431D01*
X227588923Y-85996825D01*
X228315541Y-85536847D01*
X228474881Y-85436119D01*
X229065175Y-85038964D01*
X229520686Y-84686135D01*
X229781402Y-84426767D01*
X229819151Y-84335452D01*
X229727774Y-84058332D01*
X229539010Y-83558585D01*
X229281855Y-82906772D01*
X228985304Y-82173454D01*
X228678354Y-81429192D01*
X228389999Y-80744548D01*
X228149236Y-80190083D01*
X227985060Y-79836358D01*
X227934300Y-79748648D01*
X227789190Y-79829790D01*
X227450918Y-80130044D01*
X226952580Y-80616531D01*
X226327276Y-81256368D01*
X225608105Y-82016677D01*
X225121800Y-82542648D01*
X224273926Y-83466079D01*
X223422896Y-84390370D01*
X222622014Y-85257814D01*
X221924585Y-86010706D01*
X221383914Y-86591340D01*
X221242951Y-86741727D01*
X220652713Y-87375070D01*
X219928087Y-88160579D01*
X219160872Y-88998365D01*
X218442871Y-89788537D01*
X218441794Y-89789727D01*
X217747268Y-90555746D01*
X217026552Y-91347004D01*
X216362400Y-92072858D01*
X215837563Y-92642665D01*
X215814392Y-92667666D01*
X215308753Y-93217086D01*
X214855461Y-93716825D01*
X214531404Y-94081887D01*
X214466478Y-94157666D01*
X212960154Y-94157666D01*
X213175561Y-93833242D01*
X213674150Y-93091000D01*
X214484707Y-93091000D01*
X214825254Y-92752333D01*
X215032756Y-92534998D01*
X215432366Y-92106766D01*
X215987843Y-91506846D01*
X216662944Y-90774444D01*
X217421430Y-89948767D01*
X217945900Y-89376360D01*
X218790203Y-88453272D01*
X219621027Y-87543695D01*
X220390448Y-86700190D01*
X221050538Y-85975318D01*
X221553372Y-85421638D01*
X221728790Y-85227693D01*
X222210618Y-84698289D01*
X222852293Y-83999756D01*
X223581973Y-83209980D01*
X224327818Y-82406845D01*
X224598951Y-82116048D01*
X225251470Y-81411853D01*
X225836124Y-80771142D01*
X226307109Y-80244858D01*
X226618619Y-79883945D01*
X226709118Y-79769123D01*
X226860429Y-79522563D01*
X226783936Y-79477384D01*
X226632957Y-79515853D01*
X226325666Y-79591421D01*
X225785739Y-79711170D01*
X225112705Y-79853237D01*
X224874666Y-79902043D01*
X224201907Y-80049403D01*
X223651965Y-80189264D01*
X223313434Y-80298357D01*
X223259465Y-80326289D01*
X223139965Y-80481318D01*
X222853382Y-80881470D01*
X222423553Y-81492144D01*
X221874315Y-82278741D01*
X221229504Y-83206661D01*
X220512957Y-84241302D01*
X219748510Y-85348065D01*
X218960000Y-86492350D01*
X218171263Y-87639556D01*
X217406137Y-88755083D01*
X216688456Y-89804331D01*
X216042059Y-90752700D01*
X215490782Y-91565590D01*
X215058460Y-92208399D01*
X214768931Y-92646529D01*
X214726687Y-92712136D01*
X214484707Y-93091000D01*
X213674150Y-93091000D01*
X213999034Y-92607351D01*
X214931040Y-91232233D01*
X215957308Y-89729265D01*
X217063570Y-88119826D01*
X218032370Y-86718339D01*
X218554104Y-85943668D01*
X218902034Y-85378579D01*
X219065481Y-85042078D01*
X219033766Y-84953170D01*
X219021623Y-84957684D01*
X217972665Y-85279811D01*
X216692239Y-85471672D01*
X215263182Y-85529123D01*
X213768332Y-85448019D01*
X212577847Y-85280060D01*
X211763840Y-85156188D01*
X210945996Y-85073465D01*
X210272768Y-85045952D01*
X210142666Y-85049433D01*
X209532154Y-85070658D01*
X208998790Y-85075317D01*
X208788000Y-85069381D01*
X208395753Y-85049274D01*
X207805716Y-85022402D01*
X207264000Y-84999478D01*
X206625649Y-84943477D01*
X206076800Y-84843186D01*
X205782333Y-84741179D01*
X205501354Y-84615305D01*
X205401333Y-84624333D01*
X205316365Y-84701664D01*
X205111801Y-84574660D01*
X204863146Y-84315807D01*
X204645909Y-83997588D01*
X204567193Y-83823574D01*
X204374764Y-83269666D01*
X204878503Y-83820000D01*
X205221577Y-84149756D01*
X205556663Y-84313472D01*
X206027289Y-84367138D01*
X206289254Y-84370333D01*
X206838586Y-84334404D01*
X207259384Y-84242381D01*
X207399466Y-84167133D01*
X207508818Y-83879326D01*
X207578479Y-83302227D01*
X207602666Y-82492157D01*
X207596857Y-81781467D01*
X207567985Y-81338738D01*
X207498884Y-81093315D01*
X207372385Y-80974543D01*
X207221666Y-80924076D01*
X206374696Y-80569249D01*
X205621979Y-79994747D01*
X205026827Y-79273543D01*
X204652550Y-78478609D01*
X204554666Y-77850048D01*
X204658135Y-77273558D01*
X204981801Y-76834830D01*
X205545551Y-76527249D01*
X206369275Y-76344197D01*
X207472860Y-76279060D01*
X208876195Y-76325219D01*
X209094027Y-76339925D01*
X210097046Y-76437043D01*
X210818665Y-76578185D01*
X211315466Y-76785810D01*
X211644028Y-77082377D01*
X211836324Y-77428450D01*
X211964728Y-78143167D01*
X211777796Y-78849324D01*
X211298151Y-79516462D01*
X210548413Y-80114120D01*
X209551204Y-80611840D01*
X209440558Y-80654265D01*
X208449333Y-81024958D01*
X208449333Y-81923550D01*
X208477183Y-82475731D01*
X208598412Y-82879876D01*
X208869535Y-83207555D01*
X209347068Y-83530339D01*
X209984947Y-83868196D01*
X211431762Y-84482052D01*
X212958638Y-84921831D01*
X214487927Y-85176082D01*
X215941983Y-85233354D01*
X217243157Y-85082195D01*
X217602138Y-84991573D01*
X218401103Y-84717595D01*
X219073356Y-84376129D01*
X219678786Y-83916225D01*
X220277280Y-83286933D01*
X220928723Y-82437301D01*
X221392965Y-81766428D01*
X221880932Y-81048888D01*
X222304197Y-80437711D01*
X222625883Y-79985298D01*
X222809115Y-79744052D01*
X222833525Y-79719316D01*
X223077121Y-79636431D01*
X223576238Y-79509657D01*
X224253091Y-79355120D01*
X225029895Y-79188942D01*
X225828862Y-79027250D01*
X226572209Y-78886167D01*
X227182150Y-78781819D01*
X227580898Y-78730329D01*
X227614139Y-78728314D01*
X228293174Y-78697666D01*
X229399630Y-81428886D01*
X230506087Y-84160106D01*
X234103333Y-81821138D01*
X235542666Y-81847537D01*
X236262266Y-81885045D01*
X236896568Y-81961248D01*
X237334227Y-82061565D01*
X237405333Y-82091455D01*
X237676837Y-82263743D01*
X238162629Y-82604163D01*
X238808988Y-83073807D01*
X239562195Y-83633766D01*
X240180724Y-84101654D01*
X240950779Y-84684242D01*
X241627126Y-85187732D01*
X242164287Y-85578930D01*
X242516783Y-85824645D01*
X242636920Y-85894333D01*
X242754451Y-85745939D01*
X242936997Y-85356417D01*
X243153036Y-84809252D01*
X243371047Y-84187933D01*
X243559506Y-83575947D01*
X243659873Y-83185000D01*
X243801624Y-82139757D01*
X243826393Y-80802337D01*
X243736173Y-79197644D01*
X243532955Y-77350581D01*
X243218732Y-75286052D01*
X242881642Y-73458477D01*
X242613467Y-72237915D01*
X242289205Y-70981014D01*
X241925224Y-69732953D01*
X241537888Y-68538911D01*
X241143564Y-67444068D01*
X240758619Y-66493604D01*
X240399417Y-65732698D01*
X240082326Y-65206530D01*
X239823711Y-64960280D01*
X239800358Y-64952433D01*
X239697109Y-64906339D01*
X239619649Y-64800904D01*
X239564605Y-64593401D01*
X239528601Y-64241101D01*
X239508263Y-63701278D01*
X239500218Y-62931204D01*
X239501089Y-61888151D01*
X239504059Y-61200629D01*
X239505808Y-59862743D01*
X239489410Y-58776754D01*
X239444286Y-57857554D01*
X239359858Y-57020037D01*
X239225545Y-56179097D01*
X239030767Y-55249626D01*
X238764947Y-54146518D01*
X238495571Y-53087819D01*
X238144941Y-51861253D01*
X237800823Y-50952067D01*
X237450850Y-50339501D01*
X237082652Y-50002793D01*
X236683863Y-49921183D01*
X236614744Y-49930709D01*
X236194826Y-50065622D01*
X235558343Y-50340999D01*
X234776873Y-50719341D01*
X233921996Y-51163153D01*
X233065289Y-51634940D01*
X232278330Y-52097205D01*
X231632697Y-52512452D01*
X231478666Y-52621234D01*
X230187656Y-53690512D01*
X228971099Y-54941005D01*
X227961264Y-56234765D01*
X227620486Y-56720855D01*
X227377147Y-56981714D01*
X227139565Y-57073056D01*
X226816055Y-57050590D01*
X226660336Y-57025277D01*
X225492571Y-56840518D01*
X224565416Y-56728336D01*
X223788340Y-56690322D01*
X223070808Y-56728068D01*
X222322289Y-56843165D01*
X221452248Y-57037205D01*
X221106887Y-57122901D01*
X220492416Y-57270072D01*
X220012758Y-57350816D01*
X219557394Y-57367269D01*
X219015801Y-57321566D01*
X218277460Y-57215844D01*
X218058887Y-57181806D01*
X216565722Y-56951980D01*
X215359642Y-56777031D01*
X214394295Y-56652550D01*
X213623328Y-56574129D01*
X213000390Y-56537358D01*
X212479127Y-56537828D01*
X212013188Y-56571131D01*
X211846000Y-56590831D01*
X210236916Y-56956013D01*
X208626460Y-57640276D01*
X207001917Y-58649986D01*
X205740000Y-59647570D01*
X205217096Y-60068613D01*
X204507271Y-60600069D01*
X203708910Y-61169880D01*
X203015661Y-61642882D01*
X201845430Y-62471541D01*
X200928896Y-63245936D01*
X200202250Y-64029632D01*
X199601682Y-64886194D01*
X199384180Y-65260359D01*
X198882000Y-66167000D01*
X198876678Y-69723000D01*
X198871357Y-73279000D01*
X198170987Y-74718333D01*
X197370708Y-76573902D01*
X196858928Y-78283608D01*
X196637369Y-79881733D01*
X196707751Y-81402561D01*
X197071795Y-82880374D01*
X197731222Y-84349456D01*
X198687752Y-85844089D01*
X198732500Y-85905275D01*
X199638922Y-86997713D01*
X200789178Y-88162594D01*
X202114782Y-89341403D01*
X203547247Y-90475625D01*
X205018086Y-91506746D01*
X206005512Y-92119323D01*
X206529452Y-92443355D01*
X206914888Y-92715432D01*
X207088258Y-92882994D01*
X207091423Y-92895223D01*
X206943529Y-92957074D01*
X206562776Y-92956171D01*
X206282959Y-92926474D01*
X205471251Y-92814836D01*
X204664794Y-95531021D01*
X204379706Y-96544155D01*
X204125542Y-97546159D01*
X203922772Y-98448813D01*
X203791863Y-99163897D01*
X203758609Y-99436769D01*
X203658880Y-100626333D01*
X202353333Y-100626333D01*
X202353333Y-99793036D01*
X202424082Y-98927353D01*
X202622516Y-97835499D01*
X202927913Y-96595724D01*
X203319552Y-95286275D01*
X203776711Y-93985402D01*
X204112433Y-93150321D01*
X204375682Y-92532309D01*
X203166597Y-91713718D01*
X202639043Y-91317091D01*
X201943565Y-90736994D01*
X201148017Y-90033069D01*
X200320255Y-89264957D01*
X199727643Y-88691064D01*
X198910092Y-87875269D01*
X198293600Y-87234903D01*
X197832704Y-86713184D01*
X197481939Y-86253333D01*
X197195841Y-85798569D01*
X196928945Y-85292111D01*
X196810368Y-85047666D01*
X196331812Y-83962410D01*
X196013148Y-82999895D01*
X195832118Y-82045123D01*
X195766464Y-80983093D01*
X195790358Y-79777513D01*
X195839618Y-78941355D01*
X195919872Y-78230116D01*
X196052535Y-77567964D01*
X196259023Y-76879064D01*
X196560752Y-76087584D01*
X196979137Y-75117691D01*
X197317832Y-74368707D01*
X197698161Y-73448445D01*
X197949240Y-72592270D01*
X198091278Y-71689789D01*
X198144485Y-70630608D01*
X198142055Y-69866467D01*
X198184296Y-68145116D01*
X198369967Y-66689541D01*
X198696243Y-65517208D01*
X198927230Y-65012968D01*
X199597412Y-63995031D01*
X200451160Y-63011517D01*
X201373607Y-62189789D01*
X201655632Y-61987766D01*
X202198447Y-61584429D01*
X202827230Y-61060385D01*
X203327000Y-60603529D01*
X204216000Y-59743902D01*
X204213656Y-58044784D01*
X204203810Y-57317464D01*
X204177919Y-56343131D01*
X204139080Y-55212896D01*
X204090389Y-54017869D01*
X204041336Y-52974789D01*
X203993906Y-51923487D01*
X203961588Y-50974061D01*
X203945484Y-50183643D01*
X203945590Y-50133004D01*
X204690251Y-50133004D01*
X204749459Y-54509335D01*
X204770998Y-55701895D01*
X204800916Y-56788469D01*
X204837067Y-57721304D01*
X204877309Y-58452646D01*
X204919497Y-58934742D01*
X204956216Y-59114413D01*
X205111414Y-59234382D01*
X205335220Y-59106706D01*
X205442268Y-59004657D01*
X205621135Y-58792269D01*
X205699012Y-58553520D01*
X205686422Y-58187426D01*
X205593886Y-57592999D01*
X205591052Y-57576706D01*
X205491966Y-56921468D01*
X205427742Y-56328835D01*
X205412793Y-55993129D01*
X205420685Y-55756085D01*
X205446780Y-55654343D01*
X205515032Y-55725748D01*
X205649397Y-56008144D01*
X205873828Y-56539375D01*
X206091465Y-57065333D01*
X206308993Y-57533610D01*
X206537010Y-57819658D01*
X206834746Y-57928835D01*
X207261435Y-57866499D01*
X207876309Y-57638009D01*
X208637560Y-57295658D01*
X209457738Y-56946259D01*
X210346587Y-56616004D01*
X211136730Y-56366204D01*
X211274676Y-56329651D01*
X211923699Y-56146923D01*
X212279215Y-55994261D01*
X212382630Y-55851449D01*
X212365334Y-55797137D01*
X211985364Y-55296508D01*
X211358861Y-54679361D01*
X210537682Y-53989355D01*
X209573685Y-53270152D01*
X208551515Y-52586124D01*
X207720909Y-52060138D01*
X206905808Y-51543361D01*
X206191479Y-51089892D01*
X205663189Y-50753828D01*
X205596125Y-50711059D01*
X204690251Y-50133004D01*
X203945590Y-50133004D01*
X203946692Y-49609363D01*
X203966313Y-49308350D01*
X203970424Y-49291789D01*
X204146569Y-49037748D01*
X204462937Y-48997548D01*
X204942410Y-49179743D01*
X204942410Y-49179743D01*
G37*
X204942410Y-49179743D02*
X205607867Y-49592886D01*
X206446274Y-50217347D01*
X207249001Y-50835364D01*
X208128635Y-51495201D01*
X208954849Y-52099800D01*
X209380666Y-52402632D01*
X210164095Y-52971071D01*
X211021797Y-53625171D01*
X211793674Y-54242231D01*
X211939615Y-54363812D01*
X212507984Y-54831596D01*
X213010430Y-55226174D01*
X213369232Y-55487283D01*
X213463615Y-55545443D01*
X213733729Y-55635095D01*
X214271826Y-55773441D01*
X215013304Y-55945262D01*
X215893565Y-56135338D01*
X216464970Y-56252520D01*
X219146607Y-56791542D01*
X220964200Y-56356938D01*
X222224942Y-56096841D01*
X223382327Y-55960098D01*
X224569550Y-55922333D01*
X225609265Y-55898557D01*
X226412942Y-55800996D01*
X227077089Y-55590302D01*
X227698216Y-55227127D01*
X228372830Y-54672122D01*
X228934502Y-54142653D01*
X230085344Y-53093680D01*
X231305056Y-52100812D01*
X232545623Y-51194771D01*
X233759030Y-50406282D01*
X234897262Y-49766067D01*
X235912303Y-49304850D01*
X236756139Y-49053353D01*
X236928564Y-49027533D01*
X237429149Y-48998461D01*
X237739643Y-49086778D01*
X238001012Y-49338493D01*
X238043221Y-49391313D01*
X238248047Y-49783898D01*
X238483102Y-50453999D01*
X238732600Y-51343605D01*
X238980755Y-52394706D01*
X239211782Y-53549293D01*
X239281091Y-53940327D01*
X239580106Y-55736670D01*
X239813134Y-57263799D01*
X239988027Y-58583021D01*
X240112641Y-59755641D01*
X240194829Y-60842965D01*
X240216237Y-61239616D01*
X240266963Y-62167707D01*
X240326553Y-62846857D01*
X240413006Y-63366669D01*
X240544321Y-63816745D01*
X240738496Y-64286688D01*
X240895555Y-64621505D01*
X241168468Y-65217201D01*
X241370991Y-65709217D01*
X241466355Y-66006956D01*
X241469333Y-66035222D01*
X241562629Y-66235474D01*
X241619447Y-66251666D01*
X241757804Y-66397048D01*
X241864496Y-66717333D01*
X241940434Y-67032347D01*
X242090295Y-67608378D01*
X242296718Y-68380311D01*
X242542340Y-69283030D01*
X242733600Y-69977000D01*
X243490422Y-72945498D01*
X244041986Y-75649124D01*
X244388740Y-78092041D01*
X244531130Y-80278412D01*
X244469603Y-82212401D01*
X244221000Y-83827138D01*
X243990554Y-85118484D01*
X243939401Y-86275313D01*
X244076657Y-87411160D01*
X244411440Y-88639561D01*
X244664224Y-89346296D01*
X244981966Y-90214268D01*
X245186782Y-90875817D01*
X245301548Y-91434767D01*
X245349144Y-91994941D01*
X245354518Y-92478962D01*
X245345037Y-93768333D01*
X244491483Y-91313000D01*
X244187544Y-90453307D01*
X243913968Y-89706630D01*
X243693120Y-89131969D01*
X243547366Y-88788322D01*
X243508730Y-88720566D01*
X243387734Y-88791451D01*
X243198940Y-89111419D01*
X243001027Y-89567233D01*
X242512228Y-90794654D01*
X242075657Y-91804741D01*
X241705392Y-92567533D01*
X241415512Y-93053067D01*
X241300035Y-93187077D01*
X240979173Y-93333037D01*
X240338652Y-93482652D01*
X239371487Y-93637318D01*
X238483095Y-93750916D01*
X237580555Y-93858234D01*
X236786033Y-93953294D01*
X236165813Y-94028120D01*
X235786175Y-94074738D01*
X235712000Y-94084317D01*
X235732764Y-94170808D01*
X236003908Y-94372372D01*
X236472958Y-94652503D01*
X236727067Y-94790479D01*
X237510776Y-95261638D01*
X238279166Y-95823074D01*
X238977920Y-96423616D01*
X239552716Y-97012097D01*
X239949235Y-97537346D01*
X240113157Y-97948193D01*
X240114666Y-97981622D01*
X240055929Y-98338772D01*
X239883221Y-98380524D01*
X239601795Y-98108466D01*
X239355512Y-97752174D01*
X238704699Y-96959542D01*
X237792082Y-96183678D01*
X236692763Y-95475825D01*
X235481845Y-94887229D01*
X234773357Y-94625670D01*
X234512467Y-94546674D01*
X234255107Y-94491841D01*
X233957458Y-94463753D01*
X233575702Y-94464990D01*
X233066023Y-94498133D01*
X232384601Y-94565763D01*
X231487618Y-94670459D01*
X230331258Y-94814804D01*
X229277333Y-94949363D01*
X228057984Y-95105075D01*
X226948781Y-95245645D01*
X225993990Y-95365550D01*
X225237877Y-95459266D01*
X224724708Y-95521270D01*
X224498749Y-95546037D01*
X224493666Y-95546254D01*
X224368049Y-95676428D01*
X224406085Y-96027272D01*
X224580593Y-96539672D01*
X224864396Y-97154516D01*
X225230314Y-97812692D01*
X225651168Y-98455084D01*
X226083637Y-99004330D01*
X226581145Y-99499789D01*
X227120029Y-99932637D01*
X227435289Y-100128854D01*
X227834406Y-100349302D01*
X228067362Y-100510535D01*
X228092000Y-100545108D01*
X227942862Y-100598692D01*
X227575924Y-100625593D01*
X227495549Y-100626333D01*
X226920180Y-100474990D01*
X226278642Y-100054976D01*
X225616531Y-99417317D01*
X224979439Y-98613036D01*
X224412961Y-97693157D01*
X223962690Y-96708705D01*
X223939741Y-96647000D01*
X223759986Y-96164733D01*
X223631480Y-95834588D01*
X223593456Y-95748611D01*
X223422821Y-95754297D01*
X222967558Y-95800220D01*
X222278539Y-95880410D01*
X221406635Y-95988897D01*
X220402719Y-96119711D01*
X220194500Y-96147502D01*
X219199891Y-96273872D01*
X218094040Y-96402751D01*
X216926488Y-96529582D01*
X215746775Y-96649810D01*
X214604439Y-96758877D01*
X213549022Y-96852227D01*
X212630063Y-96925305D01*
X211897101Y-96973554D01*
X211399677Y-96992417D01*
X211187330Y-96977339D01*
X211185585Y-96976069D01*
X211252364Y-96816979D01*
X211499021Y-96401774D01*
X211653556Y-96158146D01*
X213913228Y-96158146D01*
X214080395Y-96190328D01*
X214465951Y-96173234D01*
X215095005Y-96108444D01*
X215992662Y-95997540D01*
X217184028Y-95842102D01*
X218186000Y-95710294D01*
X219711384Y-95510546D01*
X221364477Y-95294981D01*
X223114350Y-95067564D01*
X224930072Y-94832260D01*
X226780713Y-94593036D01*
X228635343Y-94353857D01*
X230463032Y-94118689D01*
X232232850Y-93891497D01*
X233913866Y-93676248D01*
X235475150Y-93476906D01*
X236885774Y-93297438D01*
X238114805Y-93141810D01*
X239131315Y-93013986D01*
X239904373Y-92917934D01*
X240403048Y-92857617D01*
X240595995Y-92837000D01*
X240783176Y-92699110D01*
X241024398Y-92353773D01*
X241106773Y-92202000D01*
X241312752Y-91766083D01*
X241583275Y-91152565D01*
X241892696Y-90424642D01*
X242215375Y-89645507D01*
X242525666Y-88878357D01*
X242797927Y-88186387D01*
X243006516Y-87632790D01*
X243125787Y-87280764D01*
X243141631Y-87187307D01*
X242993765Y-87075154D01*
X242616825Y-86789013D01*
X242051438Y-86359733D01*
X241338230Y-85818160D01*
X240517828Y-85195140D01*
X240251524Y-84992898D01*
X239403795Y-84353073D01*
X238646711Y-83789234D01*
X238021667Y-83331590D01*
X237570054Y-83010349D01*
X237333266Y-82855719D01*
X237310159Y-82846333D01*
X237139596Y-82929098D01*
X236691475Y-83171296D01*
X235981969Y-83563782D01*
X235027247Y-84097410D01*
X233843480Y-84763034D01*
X232446840Y-85551508D01*
X230853497Y-86453687D01*
X229079622Y-87460425D01*
X227141387Y-88562576D01*
X225054961Y-89750995D01*
X222836517Y-91016535D01*
X220502224Y-92350052D01*
X220133333Y-92560955D01*
X218995291Y-93210473D01*
X217897699Y-93834696D01*
X216891244Y-94404963D01*
X216026615Y-94892615D01*
X215354500Y-95268992D01*
X214926333Y-95505033D01*
X214471004Y-95750131D01*
X214133639Y-95939628D01*
X213939345Y-96075107D01*
X213913228Y-96158146D01*
X211653556Y-96158146D01*
X211911285Y-95751831D01*
X212474888Y-94888527D01*
X212960154Y-94157666D01*
X214466478Y-94157666D01*
X214518916Y-94169511D01*
X214824457Y-94016211D01*
X215351673Y-93716301D01*
X215548312Y-93599000D01*
X216746666Y-93599000D01*
X216831333Y-93683666D01*
X216916000Y-93599000D01*
X216831333Y-93514333D01*
X216746666Y-93599000D01*
X215548312Y-93599000D01*
X215832177Y-93429666D01*
X217085333Y-93429666D01*
X217170000Y-93514333D01*
X217254666Y-93429666D01*
X217170000Y-93345000D01*
X217085333Y-93429666D01*
X215832177Y-93429666D01*
X216013233Y-93321661D01*
X217400791Y-93321661D01*
X217402596Y-93333346D01*
X217440732Y-93322205D01*
X217535743Y-93276692D01*
X217708174Y-93185261D01*
X217978566Y-93036365D01*
X218367466Y-92818458D01*
X218895415Y-92519995D01*
X219582959Y-92129428D01*
X220450641Y-91635213D01*
X221519004Y-91025802D01*
X222808593Y-90289650D01*
X224339951Y-89415210D01*
X226133623Y-88390937D01*
X227243840Y-87757000D01*
X236289162Y-82592333D01*
X235326607Y-82541649D01*
X234917094Y-82528607D01*
X234579372Y-82557968D01*
X234241904Y-82658335D01*
X233833154Y-82858314D01*
X233281587Y-83186507D01*
X232540359Y-83655748D01*
X231833950Y-84105923D01*
X230916584Y-84689037D01*
X229863677Y-85357237D01*
X228750643Y-86062670D01*
X227652898Y-86757482D01*
X227414666Y-86908127D01*
X226334938Y-87591239D01*
X225226690Y-88293250D01*
X224164268Y-88967005D01*
X223222018Y-89565349D01*
X222474286Y-90041128D01*
X222334666Y-90130159D01*
X221444640Y-90694921D01*
X220462047Y-91313467D01*
X219527617Y-91897419D01*
X218990333Y-92230385D01*
X218355899Y-92628455D01*
X217844831Y-92962216D01*
X217516111Y-93192296D01*
X217424000Y-93275996D01*
X217414773Y-93298695D01*
X217400791Y-93321661D01*
X216013233Y-93321661D01*
X216069135Y-93288314D01*
X216945418Y-92750784D01*
X217949092Y-92122246D01*
X218363880Y-91859241D01*
X219577979Y-91086908D01*
X220827244Y-90292315D01*
X222046632Y-89516823D01*
X223171099Y-88801798D01*
X224135601Y-88188603D01*
X224834214Y-87744575D01*
X225750497Y-87162678D01*
X226701320Y-86559431D01*
X227588923Y-85996825D01*
X228315541Y-85536847D01*
X228474881Y-85436119D01*
X229065175Y-85038964D01*
X229520686Y-84686135D01*
X229781402Y-84426767D01*
X229819151Y-84335452D01*
X229727774Y-84058332D01*
X229539010Y-83558585D01*
X229281855Y-82906772D01*
X228985304Y-82173454D01*
X228678354Y-81429192D01*
X228389999Y-80744548D01*
X228149236Y-80190083D01*
X227985060Y-79836358D01*
X227934300Y-79748648D01*
X227789190Y-79829790D01*
X227450918Y-80130044D01*
X226952580Y-80616531D01*
X226327276Y-81256368D01*
X225608105Y-82016677D01*
X225121800Y-82542648D01*
X224273926Y-83466079D01*
X223422896Y-84390370D01*
X222622014Y-85257814D01*
X221924585Y-86010706D01*
X221383914Y-86591340D01*
X221242951Y-86741727D01*
X220652713Y-87375070D01*
X219928087Y-88160579D01*
X219160872Y-88998365D01*
X218442871Y-89788537D01*
X218441794Y-89789727D01*
X217747268Y-90555746D01*
X217026552Y-91347004D01*
X216362400Y-92072858D01*
X215837563Y-92642665D01*
X215814392Y-92667666D01*
X215308753Y-93217086D01*
X214855461Y-93716825D01*
X214531404Y-94081887D01*
X214466478Y-94157666D01*
X212960154Y-94157666D01*
X213175561Y-93833242D01*
X213674150Y-93091000D01*
X214484707Y-93091000D01*
X214825254Y-92752333D01*
X215032756Y-92534998D01*
X215432366Y-92106766D01*
X215987843Y-91506846D01*
X216662944Y-90774444D01*
X217421430Y-89948767D01*
X217945900Y-89376360D01*
X218790203Y-88453272D01*
X219621027Y-87543695D01*
X220390448Y-86700190D01*
X221050538Y-85975318D01*
X221553372Y-85421638D01*
X221728790Y-85227693D01*
X222210618Y-84698289D01*
X222852293Y-83999756D01*
X223581973Y-83209980D01*
X224327818Y-82406845D01*
X224598951Y-82116048D01*
X225251470Y-81411853D01*
X225836124Y-80771142D01*
X226307109Y-80244858D01*
X226618619Y-79883945D01*
X226709118Y-79769123D01*
X226860429Y-79522563D01*
X226783936Y-79477384D01*
X226632957Y-79515853D01*
X226325666Y-79591421D01*
X225785739Y-79711170D01*
X225112705Y-79853237D01*
X224874666Y-79902043D01*
X224201907Y-80049403D01*
X223651965Y-80189264D01*
X223313434Y-80298357D01*
X223259465Y-80326289D01*
X223139965Y-80481318D01*
X222853382Y-80881470D01*
X222423553Y-81492144D01*
X221874315Y-82278741D01*
X221229504Y-83206661D01*
X220512957Y-84241302D01*
X219748510Y-85348065D01*
X218960000Y-86492350D01*
X218171263Y-87639556D01*
X217406137Y-88755083D01*
X216688456Y-89804331D01*
X216042059Y-90752700D01*
X215490782Y-91565590D01*
X215058460Y-92208399D01*
X214768931Y-92646529D01*
X214726687Y-92712136D01*
X214484707Y-93091000D01*
X213674150Y-93091000D01*
X213999034Y-92607351D01*
X214931040Y-91232233D01*
X215957308Y-89729265D01*
X217063570Y-88119826D01*
X218032370Y-86718339D01*
X218554104Y-85943668D01*
X218902034Y-85378579D01*
X219065481Y-85042078D01*
X219033766Y-84953170D01*
X219021623Y-84957684D01*
X217972665Y-85279811D01*
X216692239Y-85471672D01*
X215263182Y-85529123D01*
X213768332Y-85448019D01*
X212577847Y-85280060D01*
X211763840Y-85156188D01*
X210945996Y-85073465D01*
X210272768Y-85045952D01*
X210142666Y-85049433D01*
X209532154Y-85070658D01*
X208998790Y-85075317D01*
X208788000Y-85069381D01*
X208395753Y-85049274D01*
X207805716Y-85022402D01*
X207264000Y-84999478D01*
X206625649Y-84943477D01*
X206076800Y-84843186D01*
X205782333Y-84741179D01*
X205501354Y-84615305D01*
X205401333Y-84624333D01*
X205316365Y-84701664D01*
X205111801Y-84574660D01*
X204863146Y-84315807D01*
X204645909Y-83997588D01*
X204567193Y-83823574D01*
X204374764Y-83269666D01*
X204878503Y-83820000D01*
X205221577Y-84149756D01*
X205556663Y-84313472D01*
X206027289Y-84367138D01*
X206289254Y-84370333D01*
X206838586Y-84334404D01*
X207259384Y-84242381D01*
X207399466Y-84167133D01*
X207508818Y-83879326D01*
X207578479Y-83302227D01*
X207602666Y-82492157D01*
X207596857Y-81781467D01*
X207567985Y-81338738D01*
X207498884Y-81093315D01*
X207372385Y-80974543D01*
X207221666Y-80924076D01*
X206374696Y-80569249D01*
X205621979Y-79994747D01*
X205026827Y-79273543D01*
X204652550Y-78478609D01*
X204554666Y-77850048D01*
X204658135Y-77273558D01*
X204981801Y-76834830D01*
X205545551Y-76527249D01*
X206369275Y-76344197D01*
X207472860Y-76279060D01*
X208876195Y-76325219D01*
X209094027Y-76339925D01*
X210097046Y-76437043D01*
X210818665Y-76578185D01*
X211315466Y-76785810D01*
X211644028Y-77082377D01*
X211836324Y-77428450D01*
X211964728Y-78143167D01*
X211777796Y-78849324D01*
X211298151Y-79516462D01*
X210548413Y-80114120D01*
X209551204Y-80611840D01*
X209440558Y-80654265D01*
X208449333Y-81024958D01*
X208449333Y-81923550D01*
X208477183Y-82475731D01*
X208598412Y-82879876D01*
X208869535Y-83207555D01*
X209347068Y-83530339D01*
X209984947Y-83868196D01*
X211431762Y-84482052D01*
X212958638Y-84921831D01*
X214487927Y-85176082D01*
X215941983Y-85233354D01*
X217243157Y-85082195D01*
X217602138Y-84991573D01*
X218401103Y-84717595D01*
X219073356Y-84376129D01*
X219678786Y-83916225D01*
X220277280Y-83286933D01*
X220928723Y-82437301D01*
X221392965Y-81766428D01*
X221880932Y-81048888D01*
X222304197Y-80437711D01*
X222625883Y-79985298D01*
X222809115Y-79744052D01*
X222833525Y-79719316D01*
X223077121Y-79636431D01*
X223576238Y-79509657D01*
X224253091Y-79355120D01*
X225029895Y-79188942D01*
X225828862Y-79027250D01*
X226572209Y-78886167D01*
X227182150Y-78781819D01*
X227580898Y-78730329D01*
X227614139Y-78728314D01*
X228293174Y-78697666D01*
X229399630Y-81428886D01*
X230506087Y-84160106D01*
X234103333Y-81821138D01*
X235542666Y-81847537D01*
X236262266Y-81885045D01*
X236896568Y-81961248D01*
X237334227Y-82061565D01*
X237405333Y-82091455D01*
X237676837Y-82263743D01*
X238162629Y-82604163D01*
X238808988Y-83073807D01*
X239562195Y-83633766D01*
X240180724Y-84101654D01*
X240950779Y-84684242D01*
X241627126Y-85187732D01*
X242164287Y-85578930D01*
X242516783Y-85824645D01*
X242636920Y-85894333D01*
X242754451Y-85745939D01*
X242936997Y-85356417D01*
X243153036Y-84809252D01*
X243371047Y-84187933D01*
X243559506Y-83575947D01*
X243659873Y-83185000D01*
X243801624Y-82139757D01*
X243826393Y-80802337D01*
X243736173Y-79197644D01*
X243532955Y-77350581D01*
X243218732Y-75286052D01*
X242881642Y-73458477D01*
X242613467Y-72237915D01*
X242289205Y-70981014D01*
X241925224Y-69732953D01*
X241537888Y-68538911D01*
X241143564Y-67444068D01*
X240758619Y-66493604D01*
X240399417Y-65732698D01*
X240082326Y-65206530D01*
X239823711Y-64960280D01*
X239800358Y-64952433D01*
X239697109Y-64906339D01*
X239619649Y-64800904D01*
X239564605Y-64593401D01*
X239528601Y-64241101D01*
X239508263Y-63701278D01*
X239500218Y-62931204D01*
X239501089Y-61888151D01*
X239504059Y-61200629D01*
X239505808Y-59862743D01*
X239489410Y-58776754D01*
X239444286Y-57857554D01*
X239359858Y-57020037D01*
X239225545Y-56179097D01*
X239030767Y-55249626D01*
X238764947Y-54146518D01*
X238495571Y-53087819D01*
X238144941Y-51861253D01*
X237800823Y-50952067D01*
X237450850Y-50339501D01*
X237082652Y-50002793D01*
X236683863Y-49921183D01*
X236614744Y-49930709D01*
X236194826Y-50065622D01*
X235558343Y-50340999D01*
X234776873Y-50719341D01*
X233921996Y-51163153D01*
X233065289Y-51634940D01*
X232278330Y-52097205D01*
X231632697Y-52512452D01*
X231478666Y-52621234D01*
X230187656Y-53690512D01*
X228971099Y-54941005D01*
X227961264Y-56234765D01*
X227620486Y-56720855D01*
X227377147Y-56981714D01*
X227139565Y-57073056D01*
X226816055Y-57050590D01*
X226660336Y-57025277D01*
X225492571Y-56840518D01*
X224565416Y-56728336D01*
X223788340Y-56690322D01*
X223070808Y-56728068D01*
X222322289Y-56843165D01*
X221452248Y-57037205D01*
X221106887Y-57122901D01*
X220492416Y-57270072D01*
X220012758Y-57350816D01*
X219557394Y-57367269D01*
X219015801Y-57321566D01*
X218277460Y-57215844D01*
X218058887Y-57181806D01*
X216565722Y-56951980D01*
X215359642Y-56777031D01*
X214394295Y-56652550D01*
X213623328Y-56574129D01*
X213000390Y-56537358D01*
X212479127Y-56537828D01*
X212013188Y-56571131D01*
X211846000Y-56590831D01*
X210236916Y-56956013D01*
X208626460Y-57640276D01*
X207001917Y-58649986D01*
X205740000Y-59647570D01*
X205217096Y-60068613D01*
X204507271Y-60600069D01*
X203708910Y-61169880D01*
X203015661Y-61642882D01*
X201845430Y-62471541D01*
X200928896Y-63245936D01*
X200202250Y-64029632D01*
X199601682Y-64886194D01*
X199384180Y-65260359D01*
X198882000Y-66167000D01*
X198876678Y-69723000D01*
X198871357Y-73279000D01*
X198170987Y-74718333D01*
X197370708Y-76573902D01*
X196858928Y-78283608D01*
X196637369Y-79881733D01*
X196707751Y-81402561D01*
X197071795Y-82880374D01*
X197731222Y-84349456D01*
X198687752Y-85844089D01*
X198732500Y-85905275D01*
X199638922Y-86997713D01*
X200789178Y-88162594D01*
X202114782Y-89341403D01*
X203547247Y-90475625D01*
X205018086Y-91506746D01*
X206005512Y-92119323D01*
X206529452Y-92443355D01*
X206914888Y-92715432D01*
X207088258Y-92882994D01*
X207091423Y-92895223D01*
X206943529Y-92957074D01*
X206562776Y-92956171D01*
X206282959Y-92926474D01*
X205471251Y-92814836D01*
X204664794Y-95531021D01*
X204379706Y-96544155D01*
X204125542Y-97546159D01*
X203922772Y-98448813D01*
X203791863Y-99163897D01*
X203758609Y-99436769D01*
X203658880Y-100626333D01*
X202353333Y-100626333D01*
X202353333Y-99793036D01*
X202424082Y-98927353D01*
X202622516Y-97835499D01*
X202927913Y-96595724D01*
X203319552Y-95286275D01*
X203776711Y-93985402D01*
X204112433Y-93150321D01*
X204375682Y-92532309D01*
X203166597Y-91713718D01*
X202639043Y-91317091D01*
X201943565Y-90736994D01*
X201148017Y-90033069D01*
X200320255Y-89264957D01*
X199727643Y-88691064D01*
X198910092Y-87875269D01*
X198293600Y-87234903D01*
X197832704Y-86713184D01*
X197481939Y-86253333D01*
X197195841Y-85798569D01*
X196928945Y-85292111D01*
X196810368Y-85047666D01*
X196331812Y-83962410D01*
X196013148Y-82999895D01*
X195832118Y-82045123D01*
X195766464Y-80983093D01*
X195790358Y-79777513D01*
X195839618Y-78941355D01*
X195919872Y-78230116D01*
X196052535Y-77567964D01*
X196259023Y-76879064D01*
X196560752Y-76087584D01*
X196979137Y-75117691D01*
X197317832Y-74368707D01*
X197698161Y-73448445D01*
X197949240Y-72592270D01*
X198091278Y-71689789D01*
X198144485Y-70630608D01*
X198142055Y-69866467D01*
X198184296Y-68145116D01*
X198369967Y-66689541D01*
X198696243Y-65517208D01*
X198927230Y-65012968D01*
X199597412Y-63995031D01*
X200451160Y-63011517D01*
X201373607Y-62189789D01*
X201655632Y-61987766D01*
X202198447Y-61584429D01*
X202827230Y-61060385D01*
X203327000Y-60603529D01*
X204216000Y-59743902D01*
X204213656Y-58044784D01*
X204203810Y-57317464D01*
X204177919Y-56343131D01*
X204139080Y-55212896D01*
X204090389Y-54017869D01*
X204041336Y-52974789D01*
X203993906Y-51923487D01*
X203961588Y-50974061D01*
X203945484Y-50183643D01*
X203945590Y-50133004D01*
X204690251Y-50133004D01*
X204749459Y-54509335D01*
X204770998Y-55701895D01*
X204800916Y-56788469D01*
X204837067Y-57721304D01*
X204877309Y-58452646D01*
X204919497Y-58934742D01*
X204956216Y-59114413D01*
X205111414Y-59234382D01*
X205335220Y-59106706D01*
X205442268Y-59004657D01*
X205621135Y-58792269D01*
X205699012Y-58553520D01*
X205686422Y-58187426D01*
X205593886Y-57592999D01*
X205591052Y-57576706D01*
X205491966Y-56921468D01*
X205427742Y-56328835D01*
X205412793Y-55993129D01*
X205420685Y-55756085D01*
X205446780Y-55654343D01*
X205515032Y-55725748D01*
X205649397Y-56008144D01*
X205873828Y-56539375D01*
X206091465Y-57065333D01*
X206308993Y-57533610D01*
X206537010Y-57819658D01*
X206834746Y-57928835D01*
X207261435Y-57866499D01*
X207876309Y-57638009D01*
X208637560Y-57295658D01*
X209457738Y-56946259D01*
X210346587Y-56616004D01*
X211136730Y-56366204D01*
X211274676Y-56329651D01*
X211923699Y-56146923D01*
X212279215Y-55994261D01*
X212382630Y-55851449D01*
X212365334Y-55797137D01*
X211985364Y-55296508D01*
X211358861Y-54679361D01*
X210537682Y-53989355D01*
X209573685Y-53270152D01*
X208551515Y-52586124D01*
X207720909Y-52060138D01*
X206905808Y-51543361D01*
X206191479Y-51089892D01*
X205663189Y-50753828D01*
X205596125Y-50711059D01*
X204690251Y-50133004D01*
X203945590Y-50133004D01*
X203946692Y-49609363D01*
X203966313Y-49308350D01*
X203970424Y-49291789D01*
X204146569Y-49037748D01*
X204462937Y-48997548D01*
X204942410Y-49179743D01*
G36*
X226075659Y-66148876D02*
X227012521Y-66508615D01*
X227601427Y-66858914D01*
X228126682Y-67275385D01*
X228359873Y-67524804D01*
X228927601Y-68469676D01*
X229291348Y-69504879D01*
X229440909Y-70552047D01*
X229366079Y-71532816D01*
X229056652Y-72368821D01*
X229002228Y-72457301D01*
X228276207Y-73283383D01*
X227316563Y-73941769D01*
X226196036Y-74409119D01*
X224987365Y-74662090D01*
X223763289Y-74677341D01*
X222721769Y-74472672D01*
X221881849Y-74124774D01*
X221037122Y-73627925D01*
X220257443Y-73038995D01*
X219612670Y-72414855D01*
X219172656Y-71812372D01*
X219031814Y-71468675D01*
X219042864Y-71181382D01*
X219625466Y-71181382D01*
X219750719Y-71549307D01*
X220071240Y-72019469D01*
X220503749Y-72503112D01*
X220964971Y-72911481D01*
X221371625Y-73155822D01*
X221508576Y-73188332D01*
X221567399Y-73035677D01*
X221629022Y-72625485D01*
X221682085Y-72038588D01*
X221692189Y-71882000D01*
X221897516Y-70535049D01*
X222341152Y-69425126D01*
X223027605Y-68544246D01*
X223943333Y-67893882D01*
X224457217Y-67682893D01*
X225065185Y-67568663D01*
X225884484Y-67529722D01*
X225933881Y-67529361D01*
X226582744Y-67518001D01*
X226940532Y-67486354D01*
X227054698Y-67423825D01*
X226972694Y-67319822D01*
X226949881Y-67302542D01*
X226623024Y-67132756D01*
X226106308Y-66934352D01*
X225740552Y-66818140D01*
X225067440Y-66663117D01*
X224477799Y-66649890D01*
X223893173Y-66740691D01*
X222756358Y-67102581D01*
X221750616Y-67681399D01*
X221056355Y-68322678D01*
X220737552Y-68769012D01*
X220388081Y-69362598D01*
X220056598Y-70006233D01*
X219791756Y-70602714D01*
X219642209Y-71054836D01*
X219625466Y-71181382D01*
X219042864Y-71181382D01*
X219047751Y-71054334D01*
X219214718Y-70442703D01*
X219497783Y-69719537D01*
X219862017Y-68970589D01*
X220272487Y-68281613D01*
X220410347Y-68084465D01*
X221305556Y-67131713D01*
X222369232Y-66449954D01*
X223551834Y-66051011D01*
X224803823Y-65946711D01*
X226075659Y-66148876D01*
X226075659Y-66148876D01*
G37*
X226075659Y-66148876D02*
X227012521Y-66508615D01*
X227601427Y-66858914D01*
X228126682Y-67275385D01*
X228359873Y-67524804D01*
X228927601Y-68469676D01*
X229291348Y-69504879D01*
X229440909Y-70552047D01*
X229366079Y-71532816D01*
X229056652Y-72368821D01*
X229002228Y-72457301D01*
X228276207Y-73283383D01*
X227316563Y-73941769D01*
X226196036Y-74409119D01*
X224987365Y-74662090D01*
X223763289Y-74677341D01*
X222721769Y-74472672D01*
X221881849Y-74124774D01*
X221037122Y-73627925D01*
X220257443Y-73038995D01*
X219612670Y-72414855D01*
X219172656Y-71812372D01*
X219031814Y-71468675D01*
X219042864Y-71181382D01*
X219625466Y-71181382D01*
X219750719Y-71549307D01*
X220071240Y-72019469D01*
X220503749Y-72503112D01*
X220964971Y-72911481D01*
X221371625Y-73155822D01*
X221508576Y-73188332D01*
X221567399Y-73035677D01*
X221629022Y-72625485D01*
X221682085Y-72038588D01*
X221692189Y-71882000D01*
X221897516Y-70535049D01*
X222341152Y-69425126D01*
X223027605Y-68544246D01*
X223943333Y-67893882D01*
X224457217Y-67682893D01*
X225065185Y-67568663D01*
X225884484Y-67529722D01*
X225933881Y-67529361D01*
X226582744Y-67518001D01*
X226940532Y-67486354D01*
X227054698Y-67423825D01*
X226972694Y-67319822D01*
X226949881Y-67302542D01*
X226623024Y-67132756D01*
X226106308Y-66934352D01*
X225740552Y-66818140D01*
X225067440Y-66663117D01*
X224477799Y-66649890D01*
X223893173Y-66740691D01*
X222756358Y-67102581D01*
X221750616Y-67681399D01*
X221056355Y-68322678D01*
X220737552Y-68769012D01*
X220388081Y-69362598D01*
X220056598Y-70006233D01*
X219791756Y-70602714D01*
X219642209Y-71054836D01*
X219625466Y-71181382D01*
X219042864Y-71181382D01*
X219047751Y-71054334D01*
X219214718Y-70442703D01*
X219497783Y-69719537D01*
X219862017Y-68970589D01*
X220272487Y-68281613D01*
X220410347Y-68084465D01*
X221305556Y-67131713D01*
X222369232Y-66449954D01*
X223551834Y-66051011D01*
X224803823Y-65946711D01*
X226075659Y-66148876D01*
G36*
X206036047Y-65521250D02*
X206770116Y-65897170D01*
X207387392Y-66479214D01*
X207959338Y-67341610D01*
X208308972Y-68324260D01*
X208439633Y-69358190D01*
X208354659Y-70374423D01*
X208057389Y-71303982D01*
X207551161Y-72077893D01*
X207097228Y-72474666D01*
X206706861Y-72690166D01*
X206262504Y-72805947D01*
X205646001Y-72847042D01*
X205333958Y-72848234D01*
X204624498Y-72812751D01*
X203959035Y-72727479D01*
X203518733Y-72621888D01*
X202475242Y-72128783D01*
X201639345Y-71487153D01*
X201247011Y-71021052D01*
X201000902Y-70583857D01*
X200872998Y-70112300D01*
X200830485Y-69470661D01*
X200829333Y-69293510D01*
X200832428Y-69215000D01*
X201309111Y-69215000D01*
X201425994Y-69977291D01*
X201739020Y-70664939D01*
X202191748Y-71169710D01*
X202392653Y-71292985D01*
X202686771Y-71436383D01*
X202790598Y-71489539D01*
X202785718Y-71343894D01*
X202758346Y-70956989D01*
X202729924Y-70601358D01*
X202798193Y-69583023D01*
X203136921Y-68586130D01*
X203700500Y-67725488D01*
X203986488Y-67438214D01*
X204560392Y-67018403D01*
X205144857Y-66808222D01*
X205871086Y-66768569D01*
X206172142Y-66786870D01*
X206950856Y-66848803D01*
X206514093Y-66473116D01*
X205828297Y-66081268D01*
X204998935Y-65974020D01*
X204001476Y-66148256D01*
X203987539Y-66152290D01*
X202970025Y-66585597D01*
X202163588Y-67211658D01*
X201604991Y-67988433D01*
X201330999Y-68873883D01*
X201309111Y-69215000D01*
X200832428Y-69215000D01*
X200856578Y-68602518D01*
X200964973Y-68093410D01*
X201194505Y-67611913D01*
X201317199Y-67411352D01*
X202079669Y-66512370D01*
X203050259Y-65867774D01*
X204194852Y-65495273D01*
X205182654Y-65405000D01*
X206036047Y-65521250D01*
X206036047Y-65521250D01*
G37*
X206036047Y-65521250D02*
X206770116Y-65897170D01*
X207387392Y-66479214D01*
X207959338Y-67341610D01*
X208308972Y-68324260D01*
X208439633Y-69358190D01*
X208354659Y-70374423D01*
X208057389Y-71303982D01*
X207551161Y-72077893D01*
X207097228Y-72474666D01*
X206706861Y-72690166D01*
X206262504Y-72805947D01*
X205646001Y-72847042D01*
X205333958Y-72848234D01*
X204624498Y-72812751D01*
X203959035Y-72727479D01*
X203518733Y-72621888D01*
X202475242Y-72128783D01*
X201639345Y-71487153D01*
X201247011Y-71021052D01*
X201000902Y-70583857D01*
X200872998Y-70112300D01*
X200830485Y-69470661D01*
X200829333Y-69293510D01*
X200832428Y-69215000D01*
X201309111Y-69215000D01*
X201425994Y-69977291D01*
X201739020Y-70664939D01*
X202191748Y-71169710D01*
X202392653Y-71292985D01*
X202686771Y-71436383D01*
X202790598Y-71489539D01*
X202785718Y-71343894D01*
X202758346Y-70956989D01*
X202729924Y-70601358D01*
X202798193Y-69583023D01*
X203136921Y-68586130D01*
X203700500Y-67725488D01*
X203986488Y-67438214D01*
X204560392Y-67018403D01*
X205144857Y-66808222D01*
X205871086Y-66768569D01*
X206172142Y-66786870D01*
X206950856Y-66848803D01*
X206514093Y-66473116D01*
X205828297Y-66081268D01*
X204998935Y-65974020D01*
X204001476Y-66148256D01*
X203987539Y-66152290D01*
X202970025Y-66585597D01*
X202163588Y-67211658D01*
X201604991Y-67988433D01*
X201330999Y-68873883D01*
X201309111Y-69215000D01*
X200832428Y-69215000D01*
X200856578Y-68602518D01*
X200964973Y-68093410D01*
X201194505Y-67611913D01*
X201317199Y-67411352D01*
X202079669Y-66512370D01*
X203050259Y-65867774D01*
X204194852Y-65495273D01*
X205182654Y-65405000D01*
X206036047Y-65521250D01*
G36*
X236301356Y-53576312D02*
X236438613Y-53892114D01*
X236562088Y-54461623D01*
X236640523Y-55058018D01*
X236721085Y-55756033D01*
X236833543Y-56631151D01*
X236957409Y-57525885D01*
X236995275Y-57785000D01*
X237110140Y-58734001D01*
X237187783Y-59741253D01*
X237229022Y-60750896D01*
X237234673Y-61707073D01*
X237205552Y-62553923D01*
X237142478Y-63235590D01*
X237046266Y-63696214D01*
X236917732Y-63879937D01*
X236906142Y-63881000D01*
X236748678Y-63762755D01*
X236422024Y-63444270D01*
X235980299Y-62979919D01*
X235661155Y-62630134D01*
X234976878Y-61931862D01*
X234269460Y-61316682D01*
X233645282Y-60876461D01*
X233600596Y-60850687D01*
X233114939Y-60550913D01*
X232776409Y-60292880D01*
X232682540Y-60170295D01*
X233438224Y-60170295D01*
X233479847Y-60431698D01*
X233643586Y-60602226D01*
X233972511Y-60749452D01*
X234154461Y-60745504D01*
X234302723Y-60751100D01*
X234287960Y-60808254D01*
X234365057Y-60977024D01*
X234648258Y-61295066D01*
X235079988Y-61699120D01*
X235168165Y-61775364D01*
X235672643Y-62220981D01*
X236093675Y-62619076D01*
X236346014Y-62888780D01*
X236356601Y-62902716D01*
X236555006Y-63126849D01*
X236699686Y-63159594D01*
X236798450Y-62971247D01*
X236859104Y-62532105D01*
X236889456Y-61812466D01*
X236897333Y-60845447D01*
X236866484Y-59379160D01*
X236766722Y-58118967D01*
X236587218Y-56937311D01*
X236548801Y-56739113D01*
X236401192Y-55984305D01*
X236279325Y-55334064D01*
X236198668Y-54872499D01*
X236174983Y-54706397D01*
X236093152Y-54503366D01*
X236020046Y-54501924D01*
X235828679Y-54734315D01*
X235631766Y-55129791D01*
X235483748Y-55551832D01*
X235439067Y-55863918D01*
X235455331Y-55918016D01*
X235436222Y-56053732D01*
X235343586Y-56053528D01*
X235147278Y-56144384D01*
X235119333Y-56261000D01*
X235058066Y-56540705D01*
X235013908Y-56599666D01*
X234858569Y-56819958D01*
X234614909Y-57266430D01*
X234324052Y-57852310D01*
X234027124Y-58490824D01*
X233765248Y-59095202D01*
X233579548Y-59578670D01*
X233536023Y-59717994D01*
X233438224Y-60170295D01*
X232682540Y-60170295D01*
X232664000Y-60146084D01*
X232749694Y-59921376D01*
X232973401Y-59508111D01*
X233258678Y-59040432D01*
X233556076Y-58541032D01*
X233954259Y-57824080D01*
X234406116Y-56976689D01*
X234864539Y-56085974D01*
X234971237Y-55873566D01*
X235369617Y-55080763D01*
X235715720Y-54400435D01*
X235981021Y-53888003D01*
X236136995Y-53598889D01*
X236163766Y-53556570D01*
X236301356Y-53576312D01*
X236301356Y-53576312D01*
G37*
X236301356Y-53576312D02*
X236438613Y-53892114D01*
X236562088Y-54461623D01*
X236640523Y-55058018D01*
X236721085Y-55756033D01*
X236833543Y-56631151D01*
X236957409Y-57525885D01*
X236995275Y-57785000D01*
X237110140Y-58734001D01*
X237187783Y-59741253D01*
X237229022Y-60750896D01*
X237234673Y-61707073D01*
X237205552Y-62553923D01*
X237142478Y-63235590D01*
X237046266Y-63696214D01*
X236917732Y-63879937D01*
X236906142Y-63881000D01*
X236748678Y-63762755D01*
X236422024Y-63444270D01*
X235980299Y-62979919D01*
X235661155Y-62630134D01*
X234976878Y-61931862D01*
X234269460Y-61316682D01*
X233645282Y-60876461D01*
X233600596Y-60850687D01*
X233114939Y-60550913D01*
X232776409Y-60292880D01*
X232682540Y-60170295D01*
X233438224Y-60170295D01*
X233479847Y-60431698D01*
X233643586Y-60602226D01*
X233972511Y-60749452D01*
X234154461Y-60745504D01*
X234302723Y-60751100D01*
X234287960Y-60808254D01*
X234365057Y-60977024D01*
X234648258Y-61295066D01*
X235079988Y-61699120D01*
X235168165Y-61775364D01*
X235672643Y-62220981D01*
X236093675Y-62619076D01*
X236346014Y-62888780D01*
X236356601Y-62902716D01*
X236555006Y-63126849D01*
X236699686Y-63159594D01*
X236798450Y-62971247D01*
X236859104Y-62532105D01*
X236889456Y-61812466D01*
X236897333Y-60845447D01*
X236866484Y-59379160D01*
X236766722Y-58118967D01*
X236587218Y-56937311D01*
X236548801Y-56739113D01*
X236401192Y-55984305D01*
X236279325Y-55334064D01*
X236198668Y-54872499D01*
X236174983Y-54706397D01*
X236093152Y-54503366D01*
X236020046Y-54501924D01*
X235828679Y-54734315D01*
X235631766Y-55129791D01*
X235483748Y-55551832D01*
X235439067Y-55863918D01*
X235455331Y-55918016D01*
X235436222Y-56053732D01*
X235343586Y-56053528D01*
X235147278Y-56144384D01*
X235119333Y-56261000D01*
X235058066Y-56540705D01*
X235013908Y-56599666D01*
X234858569Y-56819958D01*
X234614909Y-57266430D01*
X234324052Y-57852310D01*
X234027124Y-58490824D01*
X233765248Y-59095202D01*
X233579548Y-59578670D01*
X233536023Y-59717994D01*
X233438224Y-60170295D01*
X232682540Y-60170295D01*
X232664000Y-60146084D01*
X232749694Y-59921376D01*
X232973401Y-59508111D01*
X233258678Y-59040432D01*
X233556076Y-58541032D01*
X233954259Y-57824080D01*
X234406116Y-56976689D01*
X234864539Y-56085974D01*
X234971237Y-55873566D01*
X235369617Y-55080763D01*
X235715720Y-54400435D01*
X235981021Y-53888003D01*
X236136995Y-53598889D01*
X236163766Y-53556570D01*
X236301356Y-53576312D01*
G36*
X236671555Y-62413444D02*
X236691821Y-62614403D01*
X236671555Y-62639222D01*
X236570887Y-62615977D01*
X236558666Y-62526333D01*
X236620623Y-62386952D01*
X236671555Y-62413444D01*
X236671555Y-62413444D01*
G37*
X236671555Y-62413444D02*
X236691821Y-62614403D01*
X236671555Y-62639222D01*
X236570887Y-62615977D01*
X236558666Y-62526333D01*
X236620623Y-62386952D01*
X236671555Y-62413444D01*
G36*
X235974758Y-62039250D02*
X235994222Y-62131222D01*
X235972626Y-62338508D01*
X235958511Y-62357000D01*
X235836689Y-62247101D01*
X235735422Y-62131222D01*
X235641124Y-61944984D01*
X235771132Y-61905444D01*
X235974758Y-62039250D01*
X235974758Y-62039250D01*
G37*
X235974758Y-62039250D02*
X235994222Y-62131222D01*
X235972626Y-62338508D01*
X235958511Y-62357000D01*
X235836689Y-62247101D01*
X235735422Y-62131222D01*
X235641124Y-61944984D01*
X235771132Y-61905444D01*
X235974758Y-62039250D01*
G36*
X236728000Y-61933666D02*
X236643333Y-62018333D01*
X236558666Y-61933666D01*
X236643333Y-61849000D01*
X236728000Y-61933666D01*
X236728000Y-61933666D01*
G37*
X236728000Y-61933666D02*
X236643333Y-62018333D01*
X236558666Y-61933666D01*
X236643333Y-61849000D01*
X236728000Y-61933666D01*
G36*
X235147555Y-61058777D02*
X235167821Y-61259736D01*
X235147555Y-61284555D01*
X235046887Y-61261311D01*
X235034666Y-61171666D01*
X235096623Y-61032286D01*
X235147555Y-61058777D01*
X235147555Y-61058777D01*
G37*
X235147555Y-61058777D02*
X235167821Y-61259736D01*
X235147555Y-61284555D01*
X235046887Y-61261311D01*
X235034666Y-61171666D01*
X235096623Y-61032286D01*
X235147555Y-61058777D01*
G36*
X234865333Y-61087000D02*
X234780666Y-61171666D01*
X234696000Y-61087000D01*
X234780666Y-61002333D01*
X234865333Y-61087000D01*
X234865333Y-61087000D01*
G37*
X234865333Y-61087000D02*
X234780666Y-61171666D01*
X234696000Y-61087000D01*
X234780666Y-61002333D01*
X234865333Y-61087000D01*
G36*
X234696000Y-60579000D02*
X234611333Y-60663666D01*
X234526666Y-60579000D01*
X234611333Y-60494333D01*
X234696000Y-60579000D01*
X234696000Y-60579000D01*
G37*
X234696000Y-60579000D02*
X234611333Y-60663666D01*
X234526666Y-60579000D01*
X234611333Y-60494333D01*
X234696000Y-60579000D01*
G36*
X235034666Y-60579000D02*
X234950000Y-60663666D01*
X234865333Y-60579000D01*
X234950000Y-60494333D01*
X235034666Y-60579000D01*
X235034666Y-60579000D01*
G37*
X235034666Y-60579000D02*
X234950000Y-60663666D01*
X234865333Y-60579000D01*
X234950000Y-60494333D01*
X235034666Y-60579000D01*
G36*
X233962222Y-60042777D02*
X233938977Y-60143446D01*
X233849333Y-60155666D01*
X233709952Y-60093710D01*
X233736444Y-60042777D01*
X233937403Y-60022511D01*
X233962222Y-60042777D01*
X233962222Y-60042777D01*
G37*
X233962222Y-60042777D02*
X233938977Y-60143446D01*
X233849333Y-60155666D01*
X233709952Y-60093710D01*
X233736444Y-60042777D01*
X233937403Y-60022511D01*
X233962222Y-60042777D01*
G36*
X234188000Y-59563000D02*
X234103333Y-59647666D01*
X234018666Y-59563000D01*
X234103333Y-59478333D01*
X234188000Y-59563000D01*
X234188000Y-59563000D01*
G37*
X234188000Y-59563000D02*
X234103333Y-59647666D01*
X234018666Y-59563000D01*
X234103333Y-59478333D01*
X234188000Y-59563000D01*
G36*
X234188000Y-59224333D02*
X234103333Y-59309000D01*
X234018666Y-59224333D01*
X234103333Y-59139666D01*
X234188000Y-59224333D01*
X234188000Y-59224333D01*
G37*
X234188000Y-59224333D02*
X234103333Y-59309000D01*
X234018666Y-59224333D01*
X234103333Y-59139666D01*
X234188000Y-59224333D01*
G36*
X236389333Y-59055000D02*
X236304666Y-59139666D01*
X236220000Y-59055000D01*
X236304666Y-58970333D01*
X236389333Y-59055000D01*
X236389333Y-59055000D01*
G37*
X236389333Y-59055000D02*
X236304666Y-59139666D01*
X236220000Y-59055000D01*
X236304666Y-58970333D01*
X236389333Y-59055000D01*
G36*
X234696000Y-58885666D02*
X234611333Y-58970333D01*
X234526666Y-58885666D01*
X234611333Y-58801000D01*
X234696000Y-58885666D01*
X234696000Y-58885666D01*
G37*
X234696000Y-58885666D02*
X234611333Y-58970333D01*
X234526666Y-58885666D01*
X234611333Y-58801000D01*
X234696000Y-58885666D01*
G36*
X234696000Y-58208333D02*
X234611333Y-58293000D01*
X234526666Y-58208333D01*
X234611333Y-58123666D01*
X234696000Y-58208333D01*
X234696000Y-58208333D01*
G37*
X234696000Y-58208333D02*
X234611333Y-58293000D01*
X234526666Y-58208333D01*
X234611333Y-58123666D01*
X234696000Y-58208333D01*
G36*
X235542666Y-57531000D02*
X235458000Y-57615666D01*
X235373333Y-57531000D01*
X235458000Y-57446333D01*
X235542666Y-57531000D01*
X235542666Y-57531000D01*
G37*
X235542666Y-57531000D02*
X235458000Y-57615666D01*
X235373333Y-57531000D01*
X235458000Y-57446333D01*
X235542666Y-57531000D01*
G36*
X235320207Y-57217047D02*
X235288666Y-57277000D01*
X235129118Y-57438713D01*
X235099346Y-57446333D01*
X235087792Y-57336952D01*
X235119333Y-57277000D01*
X235278881Y-57115286D01*
X235308653Y-57107666D01*
X235320207Y-57217047D01*
X235320207Y-57217047D01*
G37*
X235320207Y-57217047D02*
X235288666Y-57277000D01*
X235129118Y-57438713D01*
X235099346Y-57446333D01*
X235087792Y-57336952D01*
X235119333Y-57277000D01*
X235278881Y-57115286D01*
X235308653Y-57107666D01*
X235320207Y-57217047D01*
G36*
X235542666Y-56684333D02*
X235458000Y-56769000D01*
X235373333Y-56684333D01*
X235458000Y-56599666D01*
X235542666Y-56684333D01*
X235542666Y-56684333D01*
G37*
X235542666Y-56684333D02*
X235458000Y-56769000D01*
X235373333Y-56684333D01*
X235458000Y-56599666D01*
X235542666Y-56684333D01*
G36*
X235824888Y-55470777D02*
X235845154Y-55671736D01*
X235824888Y-55696555D01*
X235724220Y-55673311D01*
X235712000Y-55583666D01*
X235773956Y-55444286D01*
X235824888Y-55470777D01*
X235824888Y-55470777D01*
G37*
X235824888Y-55470777D02*
X235845154Y-55671736D01*
X235824888Y-55696555D01*
X235724220Y-55673311D01*
X235712000Y-55583666D01*
X235773956Y-55444286D01*
X235824888Y-55470777D01*
G36*
X236220000Y-55668333D02*
X236135333Y-55753000D01*
X236050666Y-55668333D01*
X236135333Y-55583666D01*
X236220000Y-55668333D01*
X236220000Y-55668333D01*
G37*
X236220000Y-55668333D02*
X236135333Y-55753000D01*
X236050666Y-55668333D01*
X236135333Y-55583666D01*
X236220000Y-55668333D01*
G36*
X235994222Y-54793444D02*
X236014488Y-54994403D01*
X235994222Y-55019222D01*
X235893553Y-54995977D01*
X235881333Y-54906333D01*
X235943289Y-54766952D01*
X235994222Y-54793444D01*
X235994222Y-54793444D01*
G37*
X235994222Y-54793444D02*
X236014488Y-54994403D01*
X235994222Y-55019222D01*
X235893553Y-54995977D01*
X235881333Y-54906333D01*
X235943289Y-54766952D01*
X235994222Y-54793444D01*
G04 #@! TO.C,K26*
D13*
X139754428Y-66614523D02*
X139754428Y-65344523D01*
X140625285Y-66614523D02*
X139972142Y-65888809D01*
X140625285Y-65344523D02*
X139754428Y-66070238D01*
X141205857Y-65465476D02*
X141278428Y-65405000D01*
X141423571Y-65344523D01*
X141786428Y-65344523D01*
X141931571Y-65405000D01*
X142004142Y-65465476D01*
X142076714Y-65586428D01*
X142076714Y-65707380D01*
X142004142Y-65888809D01*
X141133285Y-66614523D01*
X142076714Y-66614523D01*
X143383000Y-65344523D02*
X143092714Y-65344523D01*
X142947571Y-65405000D01*
X142875000Y-65465476D01*
X142729857Y-65646904D01*
X142657285Y-65888809D01*
X142657285Y-66372619D01*
X142729857Y-66493571D01*
X142802428Y-66554047D01*
X142947571Y-66614523D01*
X143237857Y-66614523D01*
X143383000Y-66554047D01*
X143455571Y-66493571D01*
X143528142Y-66372619D01*
X143528142Y-66070238D01*
X143455571Y-65949285D01*
X143383000Y-65888809D01*
X143237857Y-65828333D01*
X142947571Y-65828333D01*
X142802428Y-65888809D01*
X142729857Y-65949285D01*
X142657285Y-66070238D01*
G04 #@! TO.C,K11*
X44504428Y-47564523D02*
X44504428Y-46294523D01*
X45375285Y-47564523D02*
X44722142Y-46838809D01*
X45375285Y-46294523D02*
X44504428Y-47020238D01*
X46826714Y-47564523D02*
X45955857Y-47564523D01*
X46391285Y-47564523D02*
X46391285Y-46294523D01*
X46246142Y-46475952D01*
X46101000Y-46596904D01*
X45955857Y-46657380D01*
X48278142Y-47564523D02*
X47407285Y-47564523D01*
X47842714Y-47564523D02*
X47842714Y-46294523D01*
X47697571Y-46475952D01*
X47552428Y-46596904D01*
X47407285Y-46657380D01*
G04 #@! TO.C,K12*
X63554428Y-47564523D02*
X63554428Y-46294523D01*
X64425285Y-47564523D02*
X63772142Y-46838809D01*
X64425285Y-46294523D02*
X63554428Y-47020238D01*
X65876714Y-47564523D02*
X65005857Y-47564523D01*
X65441285Y-47564523D02*
X65441285Y-46294523D01*
X65296142Y-46475952D01*
X65151000Y-46596904D01*
X65005857Y-46657380D01*
X66457285Y-46415476D02*
X66529857Y-46355000D01*
X66675000Y-46294523D01*
X67037857Y-46294523D01*
X67183000Y-46355000D01*
X67255571Y-46415476D01*
X67328142Y-46536428D01*
X67328142Y-46657380D01*
X67255571Y-46838809D01*
X66384714Y-47564523D01*
X67328142Y-47564523D01*
G04 #@! TO.C,K13*
X82604428Y-47564523D02*
X82604428Y-46294523D01*
X83475285Y-47564523D02*
X82822142Y-46838809D01*
X83475285Y-46294523D02*
X82604428Y-47020238D01*
X84926714Y-47564523D02*
X84055857Y-47564523D01*
X84491285Y-47564523D02*
X84491285Y-46294523D01*
X84346142Y-46475952D01*
X84201000Y-46596904D01*
X84055857Y-46657380D01*
X85434714Y-46294523D02*
X86378142Y-46294523D01*
X85870142Y-46778333D01*
X86087857Y-46778333D01*
X86233000Y-46838809D01*
X86305571Y-46899285D01*
X86378142Y-47020238D01*
X86378142Y-47322619D01*
X86305571Y-47443571D01*
X86233000Y-47504047D01*
X86087857Y-47564523D01*
X85652428Y-47564523D01*
X85507285Y-47504047D01*
X85434714Y-47443571D01*
G04 #@! TO.C,K14*
X101654428Y-47564523D02*
X101654428Y-46294523D01*
X102525285Y-47564523D02*
X101872142Y-46838809D01*
X102525285Y-46294523D02*
X101654428Y-47020238D01*
X103976714Y-47564523D02*
X103105857Y-47564523D01*
X103541285Y-47564523D02*
X103541285Y-46294523D01*
X103396142Y-46475952D01*
X103251000Y-46596904D01*
X103105857Y-46657380D01*
X105283000Y-46717857D02*
X105283000Y-47564523D01*
X104920142Y-46234047D02*
X104557285Y-47141190D01*
X105500714Y-47141190D01*
G04 #@! TO.C,K15*
X120704428Y-47564523D02*
X120704428Y-46294523D01*
X121575285Y-47564523D02*
X120922142Y-46838809D01*
X121575285Y-46294523D02*
X120704428Y-47020238D01*
X123026714Y-47564523D02*
X122155857Y-47564523D01*
X122591285Y-47564523D02*
X122591285Y-46294523D01*
X122446142Y-46475952D01*
X122301000Y-46596904D01*
X122155857Y-46657380D01*
X124405571Y-46294523D02*
X123679857Y-46294523D01*
X123607285Y-46899285D01*
X123679857Y-46838809D01*
X123825000Y-46778333D01*
X124187857Y-46778333D01*
X124333000Y-46838809D01*
X124405571Y-46899285D01*
X124478142Y-47020238D01*
X124478142Y-47322619D01*
X124405571Y-47443571D01*
X124333000Y-47504047D01*
X124187857Y-47564523D01*
X123825000Y-47564523D01*
X123679857Y-47504047D01*
X123607285Y-47443571D01*
G04 #@! TO.C,K16*
X139754428Y-47564523D02*
X139754428Y-46294523D01*
X140625285Y-47564523D02*
X139972142Y-46838809D01*
X140625285Y-46294523D02*
X139754428Y-47020238D01*
X142076714Y-47564523D02*
X141205857Y-47564523D01*
X141641285Y-47564523D02*
X141641285Y-46294523D01*
X141496142Y-46475952D01*
X141351000Y-46596904D01*
X141205857Y-46657380D01*
X143383000Y-46294523D02*
X143092714Y-46294523D01*
X142947571Y-46355000D01*
X142875000Y-46415476D01*
X142729857Y-46596904D01*
X142657285Y-46838809D01*
X142657285Y-47322619D01*
X142729857Y-47443571D01*
X142802428Y-47504047D01*
X142947571Y-47564523D01*
X143237857Y-47564523D01*
X143383000Y-47504047D01*
X143455571Y-47443571D01*
X143528142Y-47322619D01*
X143528142Y-47020238D01*
X143455571Y-46899285D01*
X143383000Y-46838809D01*
X143237857Y-46778333D01*
X142947571Y-46778333D01*
X142802428Y-46838809D01*
X142729857Y-46899285D01*
X142657285Y-47020238D01*
G04 #@! TO.C,K17*
X158804428Y-47564523D02*
X158804428Y-46294523D01*
X159675285Y-47564523D02*
X159022142Y-46838809D01*
X159675285Y-46294523D02*
X158804428Y-47020238D01*
X161126714Y-47564523D02*
X160255857Y-47564523D01*
X160691285Y-47564523D02*
X160691285Y-46294523D01*
X160546142Y-46475952D01*
X160401000Y-46596904D01*
X160255857Y-46657380D01*
X161634714Y-46294523D02*
X162650714Y-46294523D01*
X161997571Y-47564523D01*
G04 #@! TO.C,K18*
X177854428Y-47564523D02*
X177854428Y-46294523D01*
X178725285Y-47564523D02*
X178072142Y-46838809D01*
X178725285Y-46294523D02*
X177854428Y-47020238D01*
X180176714Y-47564523D02*
X179305857Y-47564523D01*
X179741285Y-47564523D02*
X179741285Y-46294523D01*
X179596142Y-46475952D01*
X179451000Y-46596904D01*
X179305857Y-46657380D01*
X181047571Y-46838809D02*
X180902428Y-46778333D01*
X180829857Y-46717857D01*
X180757285Y-46596904D01*
X180757285Y-46536428D01*
X180829857Y-46415476D01*
X180902428Y-46355000D01*
X181047571Y-46294523D01*
X181337857Y-46294523D01*
X181483000Y-46355000D01*
X181555571Y-46415476D01*
X181628142Y-46536428D01*
X181628142Y-46596904D01*
X181555571Y-46717857D01*
X181483000Y-46778333D01*
X181337857Y-46838809D01*
X181047571Y-46838809D01*
X180902428Y-46899285D01*
X180829857Y-46959761D01*
X180757285Y-47080714D01*
X180757285Y-47322619D01*
X180829857Y-47443571D01*
X180902428Y-47504047D01*
X181047571Y-47564523D01*
X181337857Y-47564523D01*
X181483000Y-47504047D01*
X181555571Y-47443571D01*
X181628142Y-47322619D01*
X181628142Y-47080714D01*
X181555571Y-46959761D01*
X181483000Y-46899285D01*
X181337857Y-46838809D01*
G04 #@! TO.C,K19*
X196904428Y-47564523D02*
X196904428Y-46294523D01*
X197775285Y-47564523D02*
X197122142Y-46838809D01*
X197775285Y-46294523D02*
X196904428Y-47020238D01*
X199226714Y-47564523D02*
X198355857Y-47564523D01*
X198791285Y-47564523D02*
X198791285Y-46294523D01*
X198646142Y-46475952D01*
X198501000Y-46596904D01*
X198355857Y-46657380D01*
X199952428Y-47564523D02*
X200242714Y-47564523D01*
X200387857Y-47504047D01*
X200460428Y-47443571D01*
X200605571Y-47262142D01*
X200678142Y-47020238D01*
X200678142Y-46536428D01*
X200605571Y-46415476D01*
X200533000Y-46355000D01*
X200387857Y-46294523D01*
X200097571Y-46294523D01*
X199952428Y-46355000D01*
X199879857Y-46415476D01*
X199807285Y-46536428D01*
X199807285Y-46838809D01*
X199879857Y-46959761D01*
X199952428Y-47020238D01*
X200097571Y-47080714D01*
X200387857Y-47080714D01*
X200533000Y-47020238D01*
X200605571Y-46959761D01*
X200678142Y-46838809D01*
G04 #@! TO.C,K21*
X44504428Y-66614523D02*
X44504428Y-65344523D01*
X45375285Y-66614523D02*
X44722142Y-65888809D01*
X45375285Y-65344523D02*
X44504428Y-66070238D01*
X45955857Y-65465476D02*
X46028428Y-65405000D01*
X46173571Y-65344523D01*
X46536428Y-65344523D01*
X46681571Y-65405000D01*
X46754142Y-65465476D01*
X46826714Y-65586428D01*
X46826714Y-65707380D01*
X46754142Y-65888809D01*
X45883285Y-66614523D01*
X46826714Y-66614523D01*
X48278142Y-66614523D02*
X47407285Y-66614523D01*
X47842714Y-66614523D02*
X47842714Y-65344523D01*
X47697571Y-65525952D01*
X47552428Y-65646904D01*
X47407285Y-65707380D01*
G04 #@! TO.C,K22*
X63554428Y-66614523D02*
X63554428Y-65344523D01*
X64425285Y-66614523D02*
X63772142Y-65888809D01*
X64425285Y-65344523D02*
X63554428Y-66070238D01*
X65005857Y-65465476D02*
X65078428Y-65405000D01*
X65223571Y-65344523D01*
X65586428Y-65344523D01*
X65731571Y-65405000D01*
X65804142Y-65465476D01*
X65876714Y-65586428D01*
X65876714Y-65707380D01*
X65804142Y-65888809D01*
X64933285Y-66614523D01*
X65876714Y-66614523D01*
X66457285Y-65465476D02*
X66529857Y-65405000D01*
X66675000Y-65344523D01*
X67037857Y-65344523D01*
X67183000Y-65405000D01*
X67255571Y-65465476D01*
X67328142Y-65586428D01*
X67328142Y-65707380D01*
X67255571Y-65888809D01*
X66384714Y-66614523D01*
X67328142Y-66614523D01*
G04 #@! TO.C,K23*
X82604428Y-66614523D02*
X82604428Y-65344523D01*
X83475285Y-66614523D02*
X82822142Y-65888809D01*
X83475285Y-65344523D02*
X82604428Y-66070238D01*
X84055857Y-65465476D02*
X84128428Y-65405000D01*
X84273571Y-65344523D01*
X84636428Y-65344523D01*
X84781571Y-65405000D01*
X84854142Y-65465476D01*
X84926714Y-65586428D01*
X84926714Y-65707380D01*
X84854142Y-65888809D01*
X83983285Y-66614523D01*
X84926714Y-66614523D01*
X85434714Y-65344523D02*
X86378142Y-65344523D01*
X85870142Y-65828333D01*
X86087857Y-65828333D01*
X86233000Y-65888809D01*
X86305571Y-65949285D01*
X86378142Y-66070238D01*
X86378142Y-66372619D01*
X86305571Y-66493571D01*
X86233000Y-66554047D01*
X86087857Y-66614523D01*
X85652428Y-66614523D01*
X85507285Y-66554047D01*
X85434714Y-66493571D01*
G04 #@! TO.C,K24*
X101654428Y-66614523D02*
X101654428Y-65344523D01*
X102525285Y-66614523D02*
X101872142Y-65888809D01*
X102525285Y-65344523D02*
X101654428Y-66070238D01*
X103105857Y-65465476D02*
X103178428Y-65405000D01*
X103323571Y-65344523D01*
X103686428Y-65344523D01*
X103831571Y-65405000D01*
X103904142Y-65465476D01*
X103976714Y-65586428D01*
X103976714Y-65707380D01*
X103904142Y-65888809D01*
X103033285Y-66614523D01*
X103976714Y-66614523D01*
X105283000Y-65767857D02*
X105283000Y-66614523D01*
X104920142Y-65284047D02*
X104557285Y-66191190D01*
X105500714Y-66191190D01*
G04 #@! TO.C,K25*
X120704428Y-66614523D02*
X120704428Y-65344523D01*
X121575285Y-66614523D02*
X120922142Y-65888809D01*
X121575285Y-65344523D02*
X120704428Y-66070238D01*
X122155857Y-65465476D02*
X122228428Y-65405000D01*
X122373571Y-65344523D01*
X122736428Y-65344523D01*
X122881571Y-65405000D01*
X122954142Y-65465476D01*
X123026714Y-65586428D01*
X123026714Y-65707380D01*
X122954142Y-65888809D01*
X122083285Y-66614523D01*
X123026714Y-66614523D01*
X124405571Y-65344523D02*
X123679857Y-65344523D01*
X123607285Y-65949285D01*
X123679857Y-65888809D01*
X123825000Y-65828333D01*
X124187857Y-65828333D01*
X124333000Y-65888809D01*
X124405571Y-65949285D01*
X124478142Y-66070238D01*
X124478142Y-66372619D01*
X124405571Y-66493571D01*
X124333000Y-66554047D01*
X124187857Y-66614523D01*
X123825000Y-66614523D01*
X123679857Y-66554047D01*
X123607285Y-66493571D01*
G04 #@! TO.C,K27*
X158804428Y-66614523D02*
X158804428Y-65344523D01*
X159675285Y-66614523D02*
X159022142Y-65888809D01*
X159675285Y-65344523D02*
X158804428Y-66070238D01*
X160255857Y-65465476D02*
X160328428Y-65405000D01*
X160473571Y-65344523D01*
X160836428Y-65344523D01*
X160981571Y-65405000D01*
X161054142Y-65465476D01*
X161126714Y-65586428D01*
X161126714Y-65707380D01*
X161054142Y-65888809D01*
X160183285Y-66614523D01*
X161126714Y-66614523D01*
X161634714Y-65344523D02*
X162650714Y-65344523D01*
X161997571Y-66614523D01*
G04 #@! TO.C,K28*
X177854428Y-66614523D02*
X177854428Y-65344523D01*
X178725285Y-66614523D02*
X178072142Y-65888809D01*
X178725285Y-65344523D02*
X177854428Y-66070238D01*
X179305857Y-65465476D02*
X179378428Y-65405000D01*
X179523571Y-65344523D01*
X179886428Y-65344523D01*
X180031571Y-65405000D01*
X180104142Y-65465476D01*
X180176714Y-65586428D01*
X180176714Y-65707380D01*
X180104142Y-65888809D01*
X179233285Y-66614523D01*
X180176714Y-66614523D01*
X181047571Y-65888809D02*
X180902428Y-65828333D01*
X180829857Y-65767857D01*
X180757285Y-65646904D01*
X180757285Y-65586428D01*
X180829857Y-65465476D01*
X180902428Y-65405000D01*
X181047571Y-65344523D01*
X181337857Y-65344523D01*
X181483000Y-65405000D01*
X181555571Y-65465476D01*
X181628142Y-65586428D01*
X181628142Y-65646904D01*
X181555571Y-65767857D01*
X181483000Y-65828333D01*
X181337857Y-65888809D01*
X181047571Y-65888809D01*
X180902428Y-65949285D01*
X180829857Y-66009761D01*
X180757285Y-66130714D01*
X180757285Y-66372619D01*
X180829857Y-66493571D01*
X180902428Y-66554047D01*
X181047571Y-66614523D01*
X181337857Y-66614523D01*
X181483000Y-66554047D01*
X181555571Y-66493571D01*
X181628142Y-66372619D01*
X181628142Y-66130714D01*
X181555571Y-66009761D01*
X181483000Y-65949285D01*
X181337857Y-65888809D01*
G04 #@! TO.C,K29*
X196904428Y-66614523D02*
X196904428Y-65344523D01*
X197775285Y-66614523D02*
X197122142Y-65888809D01*
X197775285Y-65344523D02*
X196904428Y-66070238D01*
X198355857Y-65465476D02*
X198428428Y-65405000D01*
X198573571Y-65344523D01*
X198936428Y-65344523D01*
X199081571Y-65405000D01*
X199154142Y-65465476D01*
X199226714Y-65586428D01*
X199226714Y-65707380D01*
X199154142Y-65888809D01*
X198283285Y-66614523D01*
X199226714Y-66614523D01*
X199952428Y-66614523D02*
X200242714Y-66614523D01*
X200387857Y-66554047D01*
X200460428Y-66493571D01*
X200605571Y-66312142D01*
X200678142Y-66070238D01*
X200678142Y-65586428D01*
X200605571Y-65465476D01*
X200533000Y-65405000D01*
X200387857Y-65344523D01*
X200097571Y-65344523D01*
X199952428Y-65405000D01*
X199879857Y-65465476D01*
X199807285Y-65586428D01*
X199807285Y-65888809D01*
X199879857Y-66009761D01*
X199952428Y-66070238D01*
X200097571Y-66130714D01*
X200387857Y-66130714D01*
X200533000Y-66070238D01*
X200605571Y-66009761D01*
X200678142Y-65888809D01*
G04 #@! TO.C,K31*
X44504428Y-85664523D02*
X44504428Y-84394523D01*
X45375285Y-85664523D02*
X44722142Y-84938809D01*
X45375285Y-84394523D02*
X44504428Y-85120238D01*
X45883285Y-84394523D02*
X46826714Y-84394523D01*
X46318714Y-84878333D01*
X46536428Y-84878333D01*
X46681571Y-84938809D01*
X46754142Y-84999285D01*
X46826714Y-85120238D01*
X46826714Y-85422619D01*
X46754142Y-85543571D01*
X46681571Y-85604047D01*
X46536428Y-85664523D01*
X46101000Y-85664523D01*
X45955857Y-85604047D01*
X45883285Y-85543571D01*
X48278142Y-85664523D02*
X47407285Y-85664523D01*
X47842714Y-85664523D02*
X47842714Y-84394523D01*
X47697571Y-84575952D01*
X47552428Y-84696904D01*
X47407285Y-84757380D01*
G04 #@! TO.C,K32*
X63554428Y-85664523D02*
X63554428Y-84394523D01*
X64425285Y-85664523D02*
X63772142Y-84938809D01*
X64425285Y-84394523D02*
X63554428Y-85120238D01*
X64933285Y-84394523D02*
X65876714Y-84394523D01*
X65368714Y-84878333D01*
X65586428Y-84878333D01*
X65731571Y-84938809D01*
X65804142Y-84999285D01*
X65876714Y-85120238D01*
X65876714Y-85422619D01*
X65804142Y-85543571D01*
X65731571Y-85604047D01*
X65586428Y-85664523D01*
X65151000Y-85664523D01*
X65005857Y-85604047D01*
X64933285Y-85543571D01*
X66457285Y-84515476D02*
X66529857Y-84455000D01*
X66675000Y-84394523D01*
X67037857Y-84394523D01*
X67183000Y-84455000D01*
X67255571Y-84515476D01*
X67328142Y-84636428D01*
X67328142Y-84757380D01*
X67255571Y-84938809D01*
X66384714Y-85664523D01*
X67328142Y-85664523D01*
G04 #@! TO.C,K33*
X82604428Y-85664523D02*
X82604428Y-84394523D01*
X83475285Y-85664523D02*
X82822142Y-84938809D01*
X83475285Y-84394523D02*
X82604428Y-85120238D01*
X83983285Y-84394523D02*
X84926714Y-84394523D01*
X84418714Y-84878333D01*
X84636428Y-84878333D01*
X84781571Y-84938809D01*
X84854142Y-84999285D01*
X84926714Y-85120238D01*
X84926714Y-85422619D01*
X84854142Y-85543571D01*
X84781571Y-85604047D01*
X84636428Y-85664523D01*
X84201000Y-85664523D01*
X84055857Y-85604047D01*
X83983285Y-85543571D01*
X85434714Y-84394523D02*
X86378142Y-84394523D01*
X85870142Y-84878333D01*
X86087857Y-84878333D01*
X86233000Y-84938809D01*
X86305571Y-84999285D01*
X86378142Y-85120238D01*
X86378142Y-85422619D01*
X86305571Y-85543571D01*
X86233000Y-85604047D01*
X86087857Y-85664523D01*
X85652428Y-85664523D01*
X85507285Y-85604047D01*
X85434714Y-85543571D01*
G04 #@! TO.C,K34*
X101654428Y-85664523D02*
X101654428Y-84394523D01*
X102525285Y-85664523D02*
X101872142Y-84938809D01*
X102525285Y-84394523D02*
X101654428Y-85120238D01*
X103033285Y-84394523D02*
X103976714Y-84394523D01*
X103468714Y-84878333D01*
X103686428Y-84878333D01*
X103831571Y-84938809D01*
X103904142Y-84999285D01*
X103976714Y-85120238D01*
X103976714Y-85422619D01*
X103904142Y-85543571D01*
X103831571Y-85604047D01*
X103686428Y-85664523D01*
X103251000Y-85664523D01*
X103105857Y-85604047D01*
X103033285Y-85543571D01*
X105283000Y-84817857D02*
X105283000Y-85664523D01*
X104920142Y-84334047D02*
X104557285Y-85241190D01*
X105500714Y-85241190D01*
G04 #@! TO.C,K35*
X120704428Y-85664523D02*
X120704428Y-84394523D01*
X121575285Y-85664523D02*
X120922142Y-84938809D01*
X121575285Y-84394523D02*
X120704428Y-85120238D01*
X122083285Y-84394523D02*
X123026714Y-84394523D01*
X122518714Y-84878333D01*
X122736428Y-84878333D01*
X122881571Y-84938809D01*
X122954142Y-84999285D01*
X123026714Y-85120238D01*
X123026714Y-85422619D01*
X122954142Y-85543571D01*
X122881571Y-85604047D01*
X122736428Y-85664523D01*
X122301000Y-85664523D01*
X122155857Y-85604047D01*
X122083285Y-85543571D01*
X124405571Y-84394523D02*
X123679857Y-84394523D01*
X123607285Y-84999285D01*
X123679857Y-84938809D01*
X123825000Y-84878333D01*
X124187857Y-84878333D01*
X124333000Y-84938809D01*
X124405571Y-84999285D01*
X124478142Y-85120238D01*
X124478142Y-85422619D01*
X124405571Y-85543571D01*
X124333000Y-85604047D01*
X124187857Y-85664523D01*
X123825000Y-85664523D01*
X123679857Y-85604047D01*
X123607285Y-85543571D01*
G04 #@! TO.C,K36*
X139754428Y-85664523D02*
X139754428Y-84394523D01*
X140625285Y-85664523D02*
X139972142Y-84938809D01*
X140625285Y-84394523D02*
X139754428Y-85120238D01*
X141133285Y-84394523D02*
X142076714Y-84394523D01*
X141568714Y-84878333D01*
X141786428Y-84878333D01*
X141931571Y-84938809D01*
X142004142Y-84999285D01*
X142076714Y-85120238D01*
X142076714Y-85422619D01*
X142004142Y-85543571D01*
X141931571Y-85604047D01*
X141786428Y-85664523D01*
X141351000Y-85664523D01*
X141205857Y-85604047D01*
X141133285Y-85543571D01*
X143383000Y-84394523D02*
X143092714Y-84394523D01*
X142947571Y-84455000D01*
X142875000Y-84515476D01*
X142729857Y-84696904D01*
X142657285Y-84938809D01*
X142657285Y-85422619D01*
X142729857Y-85543571D01*
X142802428Y-85604047D01*
X142947571Y-85664523D01*
X143237857Y-85664523D01*
X143383000Y-85604047D01*
X143455571Y-85543571D01*
X143528142Y-85422619D01*
X143528142Y-85120238D01*
X143455571Y-84999285D01*
X143383000Y-84938809D01*
X143237857Y-84878333D01*
X142947571Y-84878333D01*
X142802428Y-84938809D01*
X142729857Y-84999285D01*
X142657285Y-85120238D01*
G04 #@! TO.C,K37*
X158804428Y-85664523D02*
X158804428Y-84394523D01*
X159675285Y-85664523D02*
X159022142Y-84938809D01*
X159675285Y-84394523D02*
X158804428Y-85120238D01*
X160183285Y-84394523D02*
X161126714Y-84394523D01*
X160618714Y-84878333D01*
X160836428Y-84878333D01*
X160981571Y-84938809D01*
X161054142Y-84999285D01*
X161126714Y-85120238D01*
X161126714Y-85422619D01*
X161054142Y-85543571D01*
X160981571Y-85604047D01*
X160836428Y-85664523D01*
X160401000Y-85664523D01*
X160255857Y-85604047D01*
X160183285Y-85543571D01*
X161634714Y-84394523D02*
X162650714Y-84394523D01*
X161997571Y-85664523D01*
G04 #@! TO.C,K38*
X177854428Y-85664523D02*
X177854428Y-84394523D01*
X178725285Y-85664523D02*
X178072142Y-84938809D01*
X178725285Y-84394523D02*
X177854428Y-85120238D01*
X179233285Y-84394523D02*
X180176714Y-84394523D01*
X179668714Y-84878333D01*
X179886428Y-84878333D01*
X180031571Y-84938809D01*
X180104142Y-84999285D01*
X180176714Y-85120238D01*
X180176714Y-85422619D01*
X180104142Y-85543571D01*
X180031571Y-85604047D01*
X179886428Y-85664523D01*
X179451000Y-85664523D01*
X179305857Y-85604047D01*
X179233285Y-85543571D01*
X181047571Y-84938809D02*
X180902428Y-84878333D01*
X180829857Y-84817857D01*
X180757285Y-84696904D01*
X180757285Y-84636428D01*
X180829857Y-84515476D01*
X180902428Y-84455000D01*
X181047571Y-84394523D01*
X181337857Y-84394523D01*
X181483000Y-84455000D01*
X181555571Y-84515476D01*
X181628142Y-84636428D01*
X181628142Y-84696904D01*
X181555571Y-84817857D01*
X181483000Y-84878333D01*
X181337857Y-84938809D01*
X181047571Y-84938809D01*
X180902428Y-84999285D01*
X180829857Y-85059761D01*
X180757285Y-85180714D01*
X180757285Y-85422619D01*
X180829857Y-85543571D01*
X180902428Y-85604047D01*
X181047571Y-85664523D01*
X181337857Y-85664523D01*
X181483000Y-85604047D01*
X181555571Y-85543571D01*
X181628142Y-85422619D01*
X181628142Y-85180714D01*
X181555571Y-85059761D01*
X181483000Y-84999285D01*
X181337857Y-84938809D01*
G04 #@! TO.C,K39*
X196904428Y-85664523D02*
X196904428Y-84394523D01*
X197775285Y-85664523D02*
X197122142Y-84938809D01*
X197775285Y-84394523D02*
X196904428Y-85120238D01*
X198283285Y-84394523D02*
X199226714Y-84394523D01*
X198718714Y-84878333D01*
X198936428Y-84878333D01*
X199081571Y-84938809D01*
X199154142Y-84999285D01*
X199226714Y-85120238D01*
X199226714Y-85422619D01*
X199154142Y-85543571D01*
X199081571Y-85604047D01*
X198936428Y-85664523D01*
X198501000Y-85664523D01*
X198355857Y-85604047D01*
X198283285Y-85543571D01*
X199952428Y-85664523D02*
X200242714Y-85664523D01*
X200387857Y-85604047D01*
X200460428Y-85543571D01*
X200605571Y-85362142D01*
X200678142Y-85120238D01*
X200678142Y-84636428D01*
X200605571Y-84515476D01*
X200533000Y-84455000D01*
X200387857Y-84394523D01*
X200097571Y-84394523D01*
X199952428Y-84455000D01*
X199879857Y-84515476D01*
X199807285Y-84636428D01*
X199807285Y-84938809D01*
X199879857Y-85059761D01*
X199952428Y-85120238D01*
X200097571Y-85180714D01*
X200387857Y-85180714D01*
X200533000Y-85120238D01*
X200605571Y-85059761D01*
X200678142Y-84938809D01*
G04 #@! TO.C,K41*
X44504428Y-104714523D02*
X44504428Y-103444523D01*
X45375285Y-104714523D02*
X44722142Y-103988809D01*
X45375285Y-103444523D02*
X44504428Y-104170238D01*
X46681571Y-103867857D02*
X46681571Y-104714523D01*
X46318714Y-103384047D02*
X45955857Y-104291190D01*
X46899285Y-104291190D01*
X48278142Y-104714523D02*
X47407285Y-104714523D01*
X47842714Y-104714523D02*
X47842714Y-103444523D01*
X47697571Y-103625952D01*
X47552428Y-103746904D01*
X47407285Y-103807380D01*
G04 #@! TO.C,K42*
X63554428Y-104714523D02*
X63554428Y-103444523D01*
X64425285Y-104714523D02*
X63772142Y-103988809D01*
X64425285Y-103444523D02*
X63554428Y-104170238D01*
X65731571Y-103867857D02*
X65731571Y-104714523D01*
X65368714Y-103384047D02*
X65005857Y-104291190D01*
X65949285Y-104291190D01*
X66457285Y-103565476D02*
X66529857Y-103505000D01*
X66675000Y-103444523D01*
X67037857Y-103444523D01*
X67183000Y-103505000D01*
X67255571Y-103565476D01*
X67328142Y-103686428D01*
X67328142Y-103807380D01*
X67255571Y-103988809D01*
X66384714Y-104714523D01*
X67328142Y-104714523D01*
G04 #@! TO.C,K43*
X82604428Y-104714523D02*
X82604428Y-103444523D01*
X83475285Y-104714523D02*
X82822142Y-103988809D01*
X83475285Y-103444523D02*
X82604428Y-104170238D01*
X84781571Y-103867857D02*
X84781571Y-104714523D01*
X84418714Y-103384047D02*
X84055857Y-104291190D01*
X84999285Y-104291190D01*
X85434714Y-103444523D02*
X86378142Y-103444523D01*
X85870142Y-103928333D01*
X86087857Y-103928333D01*
X86233000Y-103988809D01*
X86305571Y-104049285D01*
X86378142Y-104170238D01*
X86378142Y-104472619D01*
X86305571Y-104593571D01*
X86233000Y-104654047D01*
X86087857Y-104714523D01*
X85652428Y-104714523D01*
X85507285Y-104654047D01*
X85434714Y-104593571D01*
G04 #@! TO.C,K44*
X101654428Y-104714523D02*
X101654428Y-103444523D01*
X102525285Y-104714523D02*
X101872142Y-103988809D01*
X102525285Y-103444523D02*
X101654428Y-104170238D01*
X103831571Y-103867857D02*
X103831571Y-104714523D01*
X103468714Y-103384047D02*
X103105857Y-104291190D01*
X104049285Y-104291190D01*
X105283000Y-103867857D02*
X105283000Y-104714523D01*
X104920142Y-103384047D02*
X104557285Y-104291190D01*
X105500714Y-104291190D01*
G04 #@! TO.C,K46*
X137214428Y-104714523D02*
X137214428Y-103444523D01*
X138085285Y-104714523D02*
X137432142Y-103988809D01*
X138085285Y-103444523D02*
X137214428Y-104170238D01*
X139391571Y-103867857D02*
X139391571Y-104714523D01*
X139028714Y-103384047D02*
X138665857Y-104291190D01*
X139609285Y-104291190D01*
X140843000Y-103444523D02*
X140552714Y-103444523D01*
X140407571Y-103505000D01*
X140335000Y-103565476D01*
X140189857Y-103746904D01*
X140117285Y-103988809D01*
X140117285Y-104472619D01*
X140189857Y-104593571D01*
X140262428Y-104654047D01*
X140407571Y-104714523D01*
X140697857Y-104714523D01*
X140843000Y-104654047D01*
X140915571Y-104593571D01*
X140988142Y-104472619D01*
X140988142Y-104170238D01*
X140915571Y-104049285D01*
X140843000Y-103988809D01*
X140697857Y-103928333D01*
X140407571Y-103928333D01*
X140262428Y-103988809D01*
X140189857Y-104049285D01*
X140117285Y-104170238D01*
G04 #@! TO.C,K48*
X175314428Y-104714523D02*
X175314428Y-103444523D01*
X176185285Y-104714523D02*
X175532142Y-103988809D01*
X176185285Y-103444523D02*
X175314428Y-104170238D01*
X177491571Y-103867857D02*
X177491571Y-104714523D01*
X177128714Y-103384047D02*
X176765857Y-104291190D01*
X177709285Y-104291190D01*
X178507571Y-103988809D02*
X178362428Y-103928333D01*
X178289857Y-103867857D01*
X178217285Y-103746904D01*
X178217285Y-103686428D01*
X178289857Y-103565476D01*
X178362428Y-103505000D01*
X178507571Y-103444523D01*
X178797857Y-103444523D01*
X178943000Y-103505000D01*
X179015571Y-103565476D01*
X179088142Y-103686428D01*
X179088142Y-103746904D01*
X179015571Y-103867857D01*
X178943000Y-103928333D01*
X178797857Y-103988809D01*
X178507571Y-103988809D01*
X178362428Y-104049285D01*
X178289857Y-104109761D01*
X178217285Y-104230714D01*
X178217285Y-104472619D01*
X178289857Y-104593571D01*
X178362428Y-104654047D01*
X178507571Y-104714523D01*
X178797857Y-104714523D01*
X178943000Y-104654047D01*
X179015571Y-104593571D01*
X179088142Y-104472619D01*
X179088142Y-104230714D01*
X179015571Y-104109761D01*
X178943000Y-104049285D01*
X178797857Y-103988809D01*
G04 #@! TO.C,K49*
X196904428Y-104714523D02*
X196904428Y-103444523D01*
X197775285Y-104714523D02*
X197122142Y-103988809D01*
X197775285Y-103444523D02*
X196904428Y-104170238D01*
X199081571Y-103867857D02*
X199081571Y-104714523D01*
X198718714Y-103384047D02*
X198355857Y-104291190D01*
X199299285Y-104291190D01*
X199952428Y-104714523D02*
X200242714Y-104714523D01*
X200387857Y-104654047D01*
X200460428Y-104593571D01*
X200605571Y-104412142D01*
X200678142Y-104170238D01*
X200678142Y-103686428D01*
X200605571Y-103565476D01*
X200533000Y-103505000D01*
X200387857Y-103444523D01*
X200097571Y-103444523D01*
X199952428Y-103505000D01*
X199879857Y-103565476D01*
X199807285Y-103686428D01*
X199807285Y-103988809D01*
X199879857Y-104109761D01*
X199952428Y-104170238D01*
X200097571Y-104230714D01*
X200387857Y-104230714D01*
X200533000Y-104170238D01*
X200605571Y-104109761D01*
X200678142Y-103988809D01*
G04 #@! TO.C,K110*
X215228714Y-47564523D02*
X215228714Y-46294523D01*
X216099571Y-47564523D02*
X215446428Y-46838809D01*
X216099571Y-46294523D02*
X215228714Y-47020238D01*
X217551000Y-47564523D02*
X216680142Y-47564523D01*
X217115571Y-47564523D02*
X217115571Y-46294523D01*
X216970428Y-46475952D01*
X216825285Y-46596904D01*
X216680142Y-46657380D01*
X219002428Y-47564523D02*
X218131571Y-47564523D01*
X218567000Y-47564523D02*
X218567000Y-46294523D01*
X218421857Y-46475952D01*
X218276714Y-46596904D01*
X218131571Y-46657380D01*
X219945857Y-46294523D02*
X220091000Y-46294523D01*
X220236142Y-46355000D01*
X220308714Y-46415476D01*
X220381285Y-46536428D01*
X220453857Y-46778333D01*
X220453857Y-47080714D01*
X220381285Y-47322619D01*
X220308714Y-47443571D01*
X220236142Y-47504047D01*
X220091000Y-47564523D01*
X219945857Y-47564523D01*
X219800714Y-47504047D01*
X219728142Y-47443571D01*
X219655571Y-47322619D01*
X219583000Y-47080714D01*
X219583000Y-46778333D01*
X219655571Y-46536428D01*
X219728142Y-46415476D01*
X219800714Y-46355000D01*
X219945857Y-46294523D01*
G04 #@! TO.C,K111*
X234278714Y-47564523D02*
X234278714Y-46294523D01*
X235149571Y-47564523D02*
X234496428Y-46838809D01*
X235149571Y-46294523D02*
X234278714Y-47020238D01*
X236601000Y-47564523D02*
X235730142Y-47564523D01*
X236165571Y-47564523D02*
X236165571Y-46294523D01*
X236020428Y-46475952D01*
X235875285Y-46596904D01*
X235730142Y-46657380D01*
X238052428Y-47564523D02*
X237181571Y-47564523D01*
X237617000Y-47564523D02*
X237617000Y-46294523D01*
X237471857Y-46475952D01*
X237326714Y-46596904D01*
X237181571Y-46657380D01*
X239503857Y-47564523D02*
X238633000Y-47564523D01*
X239068428Y-47564523D02*
X239068428Y-46294523D01*
X238923285Y-46475952D01*
X238778142Y-46596904D01*
X238633000Y-46657380D01*
G04 #@! TO.C,K112*
X253328714Y-47564523D02*
X253328714Y-46294523D01*
X254199571Y-47564523D02*
X253546428Y-46838809D01*
X254199571Y-46294523D02*
X253328714Y-47020238D01*
X255651000Y-47564523D02*
X254780142Y-47564523D01*
X255215571Y-47564523D02*
X255215571Y-46294523D01*
X255070428Y-46475952D01*
X254925285Y-46596904D01*
X254780142Y-46657380D01*
X257102428Y-47564523D02*
X256231571Y-47564523D01*
X256667000Y-47564523D02*
X256667000Y-46294523D01*
X256521857Y-46475952D01*
X256376714Y-46596904D01*
X256231571Y-46657380D01*
X257683000Y-46415476D02*
X257755571Y-46355000D01*
X257900714Y-46294523D01*
X258263571Y-46294523D01*
X258408714Y-46355000D01*
X258481285Y-46415476D01*
X258553857Y-46536428D01*
X258553857Y-46657380D01*
X258481285Y-46838809D01*
X257610428Y-47564523D01*
X258553857Y-47564523D01*
G04 #@! TO.C,K210*
X215228714Y-66614523D02*
X215228714Y-65344523D01*
X216099571Y-66614523D02*
X215446428Y-65888809D01*
X216099571Y-65344523D02*
X215228714Y-66070238D01*
X216680142Y-65465476D02*
X216752714Y-65405000D01*
X216897857Y-65344523D01*
X217260714Y-65344523D01*
X217405857Y-65405000D01*
X217478428Y-65465476D01*
X217551000Y-65586428D01*
X217551000Y-65707380D01*
X217478428Y-65888809D01*
X216607571Y-66614523D01*
X217551000Y-66614523D01*
X219002428Y-66614523D02*
X218131571Y-66614523D01*
X218567000Y-66614523D02*
X218567000Y-65344523D01*
X218421857Y-65525952D01*
X218276714Y-65646904D01*
X218131571Y-65707380D01*
X219945857Y-65344523D02*
X220091000Y-65344523D01*
X220236142Y-65405000D01*
X220308714Y-65465476D01*
X220381285Y-65586428D01*
X220453857Y-65828333D01*
X220453857Y-66130714D01*
X220381285Y-66372619D01*
X220308714Y-66493571D01*
X220236142Y-66554047D01*
X220091000Y-66614523D01*
X219945857Y-66614523D01*
X219800714Y-66554047D01*
X219728142Y-66493571D01*
X219655571Y-66372619D01*
X219583000Y-66130714D01*
X219583000Y-65828333D01*
X219655571Y-65586428D01*
X219728142Y-65465476D01*
X219800714Y-65405000D01*
X219945857Y-65344523D01*
G04 #@! TO.C,K211*
X234278714Y-66614523D02*
X234278714Y-65344523D01*
X235149571Y-66614523D02*
X234496428Y-65888809D01*
X235149571Y-65344523D02*
X234278714Y-66070238D01*
X235730142Y-65465476D02*
X235802714Y-65405000D01*
X235947857Y-65344523D01*
X236310714Y-65344523D01*
X236455857Y-65405000D01*
X236528428Y-65465476D01*
X236601000Y-65586428D01*
X236601000Y-65707380D01*
X236528428Y-65888809D01*
X235657571Y-66614523D01*
X236601000Y-66614523D01*
X238052428Y-66614523D02*
X237181571Y-66614523D01*
X237617000Y-66614523D02*
X237617000Y-65344523D01*
X237471857Y-65525952D01*
X237326714Y-65646904D01*
X237181571Y-65707380D01*
X239503857Y-66614523D02*
X238633000Y-66614523D01*
X239068428Y-66614523D02*
X239068428Y-65344523D01*
X238923285Y-65525952D01*
X238778142Y-65646904D01*
X238633000Y-65707380D01*
G04 #@! TO.C,K212*
X253328714Y-66614523D02*
X253328714Y-65344523D01*
X254199571Y-66614523D02*
X253546428Y-65888809D01*
X254199571Y-65344523D02*
X253328714Y-66070238D01*
X254780142Y-65465476D02*
X254852714Y-65405000D01*
X254997857Y-65344523D01*
X255360714Y-65344523D01*
X255505857Y-65405000D01*
X255578428Y-65465476D01*
X255651000Y-65586428D01*
X255651000Y-65707380D01*
X255578428Y-65888809D01*
X254707571Y-66614523D01*
X255651000Y-66614523D01*
X257102428Y-66614523D02*
X256231571Y-66614523D01*
X256667000Y-66614523D02*
X256667000Y-65344523D01*
X256521857Y-65525952D01*
X256376714Y-65646904D01*
X256231571Y-65707380D01*
X257683000Y-65465476D02*
X257755571Y-65405000D01*
X257900714Y-65344523D01*
X258263571Y-65344523D01*
X258408714Y-65405000D01*
X258481285Y-65465476D01*
X258553857Y-65586428D01*
X258553857Y-65707380D01*
X258481285Y-65888809D01*
X257610428Y-66614523D01*
X258553857Y-66614523D01*
G04 #@! TO.C,K310*
X215228714Y-85664523D02*
X215228714Y-84394523D01*
X216099571Y-85664523D02*
X215446428Y-84938809D01*
X216099571Y-84394523D02*
X215228714Y-85120238D01*
X216607571Y-84394523D02*
X217551000Y-84394523D01*
X217043000Y-84878333D01*
X217260714Y-84878333D01*
X217405857Y-84938809D01*
X217478428Y-84999285D01*
X217551000Y-85120238D01*
X217551000Y-85422619D01*
X217478428Y-85543571D01*
X217405857Y-85604047D01*
X217260714Y-85664523D01*
X216825285Y-85664523D01*
X216680142Y-85604047D01*
X216607571Y-85543571D01*
X219002428Y-85664523D02*
X218131571Y-85664523D01*
X218567000Y-85664523D02*
X218567000Y-84394523D01*
X218421857Y-84575952D01*
X218276714Y-84696904D01*
X218131571Y-84757380D01*
X219945857Y-84394523D02*
X220091000Y-84394523D01*
X220236142Y-84455000D01*
X220308714Y-84515476D01*
X220381285Y-84636428D01*
X220453857Y-84878333D01*
X220453857Y-85180714D01*
X220381285Y-85422619D01*
X220308714Y-85543571D01*
X220236142Y-85604047D01*
X220091000Y-85664523D01*
X219945857Y-85664523D01*
X219800714Y-85604047D01*
X219728142Y-85543571D01*
X219655571Y-85422619D01*
X219583000Y-85180714D01*
X219583000Y-84878333D01*
X219655571Y-84636428D01*
X219728142Y-84515476D01*
X219800714Y-84455000D01*
X219945857Y-84394523D01*
G04 #@! TO.C,K311*
X234278714Y-85664523D02*
X234278714Y-84394523D01*
X235149571Y-85664523D02*
X234496428Y-84938809D01*
X235149571Y-84394523D02*
X234278714Y-85120238D01*
X235657571Y-84394523D02*
X236601000Y-84394523D01*
X236093000Y-84878333D01*
X236310714Y-84878333D01*
X236455857Y-84938809D01*
X236528428Y-84999285D01*
X236601000Y-85120238D01*
X236601000Y-85422619D01*
X236528428Y-85543571D01*
X236455857Y-85604047D01*
X236310714Y-85664523D01*
X235875285Y-85664523D01*
X235730142Y-85604047D01*
X235657571Y-85543571D01*
X238052428Y-85664523D02*
X237181571Y-85664523D01*
X237617000Y-85664523D02*
X237617000Y-84394523D01*
X237471857Y-84575952D01*
X237326714Y-84696904D01*
X237181571Y-84757380D01*
X239503857Y-85664523D02*
X238633000Y-85664523D01*
X239068428Y-85664523D02*
X239068428Y-84394523D01*
X238923285Y-84575952D01*
X238778142Y-84696904D01*
X238633000Y-84757380D01*
G04 #@! TO.C,K312*
X253328714Y-85664523D02*
X253328714Y-84394523D01*
X254199571Y-85664523D02*
X253546428Y-84938809D01*
X254199571Y-84394523D02*
X253328714Y-85120238D01*
X254707571Y-84394523D02*
X255651000Y-84394523D01*
X255143000Y-84878333D01*
X255360714Y-84878333D01*
X255505857Y-84938809D01*
X255578428Y-84999285D01*
X255651000Y-85120238D01*
X255651000Y-85422619D01*
X255578428Y-85543571D01*
X255505857Y-85604047D01*
X255360714Y-85664523D01*
X254925285Y-85664523D01*
X254780142Y-85604047D01*
X254707571Y-85543571D01*
X257102428Y-85664523D02*
X256231571Y-85664523D01*
X256667000Y-85664523D02*
X256667000Y-84394523D01*
X256521857Y-84575952D01*
X256376714Y-84696904D01*
X256231571Y-84757380D01*
X257683000Y-84515476D02*
X257755571Y-84455000D01*
X257900714Y-84394523D01*
X258263571Y-84394523D01*
X258408714Y-84455000D01*
X258481285Y-84515476D01*
X258553857Y-84636428D01*
X258553857Y-84757380D01*
X258481285Y-84938809D01*
X257610428Y-85664523D01*
X258553857Y-85664523D01*
G04 #@! TO.C,K410*
X215228714Y-104714523D02*
X215228714Y-103444523D01*
X216099571Y-104714523D02*
X215446428Y-103988809D01*
X216099571Y-103444523D02*
X215228714Y-104170238D01*
X217405857Y-103867857D02*
X217405857Y-104714523D01*
X217043000Y-103384047D02*
X216680142Y-104291190D01*
X217623571Y-104291190D01*
X219002428Y-104714523D02*
X218131571Y-104714523D01*
X218567000Y-104714523D02*
X218567000Y-103444523D01*
X218421857Y-103625952D01*
X218276714Y-103746904D01*
X218131571Y-103807380D01*
X219945857Y-103444523D02*
X220091000Y-103444523D01*
X220236142Y-103505000D01*
X220308714Y-103565476D01*
X220381285Y-103686428D01*
X220453857Y-103928333D01*
X220453857Y-104230714D01*
X220381285Y-104472619D01*
X220308714Y-104593571D01*
X220236142Y-104654047D01*
X220091000Y-104714523D01*
X219945857Y-104714523D01*
X219800714Y-104654047D01*
X219728142Y-104593571D01*
X219655571Y-104472619D01*
X219583000Y-104230714D01*
X219583000Y-103928333D01*
X219655571Y-103686428D01*
X219728142Y-103565476D01*
X219800714Y-103505000D01*
X219945857Y-103444523D01*
G04 #@! TO.C,K411*
X234278714Y-104714523D02*
X234278714Y-103444523D01*
X235149571Y-104714523D02*
X234496428Y-103988809D01*
X235149571Y-103444523D02*
X234278714Y-104170238D01*
X236455857Y-103867857D02*
X236455857Y-104714523D01*
X236093000Y-103384047D02*
X235730142Y-104291190D01*
X236673571Y-104291190D01*
X238052428Y-104714523D02*
X237181571Y-104714523D01*
X237617000Y-104714523D02*
X237617000Y-103444523D01*
X237471857Y-103625952D01*
X237326714Y-103746904D01*
X237181571Y-103807380D01*
X239503857Y-104714523D02*
X238633000Y-104714523D01*
X239068428Y-104714523D02*
X239068428Y-103444523D01*
X238923285Y-103625952D01*
X238778142Y-103746904D01*
X238633000Y-103807380D01*
G04 #@! TO.C,K412*
X253328714Y-104714523D02*
X253328714Y-103444523D01*
X254199571Y-104714523D02*
X253546428Y-103988809D01*
X254199571Y-103444523D02*
X253328714Y-104170238D01*
X255505857Y-103867857D02*
X255505857Y-104714523D01*
X255143000Y-103384047D02*
X254780142Y-104291190D01*
X255723571Y-104291190D01*
X257102428Y-104714523D02*
X256231571Y-104714523D01*
X256667000Y-104714523D02*
X256667000Y-103444523D01*
X256521857Y-103625952D01*
X256376714Y-103746904D01*
X256231571Y-103807380D01*
X257683000Y-103565476D02*
X257755571Y-103505000D01*
X257900714Y-103444523D01*
X258263571Y-103444523D01*
X258408714Y-103505000D01*
X258481285Y-103565476D01*
X258553857Y-103686428D01*
X258553857Y-103807380D01*
X258481285Y-103988809D01*
X257610428Y-104714523D01*
X258553857Y-104714523D01*
G04 #@! TD*
M02*
