  0
SECTION
  2
HEADER
  9
$ACADVER
  1
AC1009
  9
$EXTMIN
 10
0.0
 20
0.0
 30
0.0
  9
$EXTMAX
 10
1000.0
 20
1000.0
 30
0.0
  9
$FILLMODE
 70
 0
  9
$SPLFRAME
 70
 1
  0
ENDSEC
  0
SECTION
  2
TABLES
  0
TABLE
  2
LAYER
 70
1
  0
LAYER
  2
0
 70
     0
 62
     7
  6
CONTINUOUS
  0
ENDTAB
  0
ENDSEC
  0
SECTION
  2
ENTITIES
  0
LINE
  8
0
 62
     0
 10
0.0950846
 20
76.2801
 30
0.0
 11
228.695
 21
76.2801
 31
0.0
  0
LINE
  8
0
 62
     0
 10
228.695
 20
76.2801
 30
0.0
 11
228.695
 21
0.0799264
 31
0.0
  0
LINE
  8
0
 62
     0
 10
228.695
 20
0.0799264
 30
0.0
 11
0.0950846
 21
0.0799264
 31
0.0
  0
LINE
  8
0
 62
     0
 10
0.0950846
 20
0.0799264
 30
0.0
 11
0.0950846
 21
76.2801
 31
0.0
  0
LINE
  8
0
 62
     0
 10
95.4885
 20
16.6054
 30
0.0
 11
95.4885
 21
11.9049
 31
0.0
  0
LINE
  8
0
 62
     0
 10
95.4885
 20
11.9049
 30
0.0
 11
93.9631
 21
11.9049
 31
0.0
  0
LINE
  8
0
 62
     0
 10
93.9631
 20
11.9049
 30
0.0
 11
93.9631
 21
15.135
 31
0.0
  0
LINE
  8
0
 62
     0
 10
93.9631
 20
15.135
 30
0.0
 11
92.2376
 21
15.135
 31
0.0
  0
LINE
  8
0
 62
     0
 10
92.2376
 20
15.135
 30
0.0
 11
92.2376
 21
16.0569
 31
0.0
  0
LINE
  8
0
 62
     0
 10
92.2376
 20
16.0569
 30
0.0
 11
88.937
 21
16.0569
 31
0.0
  0
LINE
  8
0
 62
     0
 10
88.937
 20
16.0569
 30
0.0
 11
88.937
 21
15.135
 31
0.0
  0
LINE
  8
0
 62
     0
 10
88.937
 20
15.135
 30
0.0
 11
87.2134
 21
15.135
 31
0.0
  0
LINE
  8
0
 62
     0
 10
87.2134
 20
15.135
 30
0.0
 11
87.2134
 21
11.9049
 31
0.0
  0
LINE
  8
0
 62
     0
 10
87.2134
 20
11.9049
 30
0.0
 11
86.3879
 21
11.9049
 31
0.0
  0
LINE
  8
0
 62
     0
 10
86.3879
 20
11.9049
 30
0.0
 11
86.3879
 21
9.1047
 31
0.0
  0
LINE
  8
0
 62
     0
 10
86.3879
 20
9.1047
 30
0.0
 11
87.2134
 21
9.1047
 31
0.0
  0
LINE
  8
0
 62
     0
 10
87.2134
 20
9.1047
 30
0.0
 11
87.2134
 21
2.83463
 31
0.0
  0
LINE
  8
0
 62
     0
 10
87.2134
 20
2.83463
 30
0.0
 11
88.937
 21
2.83463
 31
0.0
  0
LINE
  8
0
 62
     0
 10
88.937
 20
2.83463
 30
0.0
 11
88.937
 21
1.85484
 31
0.0
  0
LINE
  8
0
 62
     0
 10
88.937
 20
1.85484
 30
0.0
 11
92.2376
 21
1.85484
 31
0.0
  0
LINE
  8
0
 62
     0
 10
92.2376
 20
1.85484
 30
0.0
 11
92.2376
 21
2.83463
 31
0.0
  0
LINE
  8
0
 62
     0
 10
92.2376
 20
2.83463
 30
0.0
 11
93.9631
 21
2.83463
 31
0.0
  0
LINE
  8
0
 62
     0
 10
93.9631
 20
2.83463
 30
0.0
 11
93.9631
 21
7.30497
 31
0.0
  0
LINE
  8
0
 62
     0
 10
93.9631
 20
7.30497
 30
0.0
 11
95.4885
 21
7.30497
 31
0.0
  0
LINE
  8
0
 62
     0
 10
95.4885
 20
7.30497
 30
0.0
 11
95.4885
 21
2.60587
 31
0.0
  0
LINE
  8
0
 62
     0
 10
95.4885
 20
2.60587
 30
0.0
 11
109.488
 21
2.60587
 31
0.0
  0
LINE
  8
0
 62
     0
 10
109.488
 20
2.60587
 30
0.0
 11
109.488
 21
7.30497
 31
0.0
  0
LINE
  8
0
 62
     0
 10
109.488
 20
7.30497
 30
0.0
 11
111.014
 21
7.30497
 31
0.0
  0
LINE
  8
0
 62
     0
 10
111.014
 20
7.30497
 30
0.0
 11
111.014
 21
2.83463
 31
0.0
  0
LINE
  8
0
 62
     0
 10
111.014
 20
2.83463
 30
0.0
 11
112.737
 21
2.83463
 31
0.0
  0
LINE
  8
0
 62
     0
 10
112.737
 20
2.83463
 30
0.0
 11
112.737
 21
1.85484
 31
0.0
  0
LINE
  8
0
 62
     0
 10
112.737
 20
1.85484
 30
0.0
 11
116.038
 21
1.85484
 31
0.0
  0
LINE
  8
0
 62
     0
 10
116.038
 20
1.85484
 30
0.0
 11
116.038
 21
2.83463
 31
0.0
  0
LINE
  8
0
 62
     0
 10
116.038
 20
2.83463
 30
0.0
 11
117.763
 21
2.83463
 31
0.0
  0
LINE
  8
0
 62
     0
 10
117.763
 20
2.83463
 30
0.0
 11
117.763
 21
9.1047
 31
0.0
  0
LINE
  8
0
 62
     0
 10
117.763
 20
9.1047
 30
0.0
 11
118.587
 21
9.1047
 31
0.0
  0
LINE
  8
0
 62
     0
 10
118.587
 20
9.1047
 30
0.0
 11
118.587
 21
11.9049
 31
0.0
  0
LINE
  8
0
 62
     0
 10
118.587
 20
11.9049
 30
0.0
 11
117.763
 21
11.9049
 31
0.0
  0
LINE
  8
0
 62
     0
 10
117.763
 20
11.9049
 30
0.0
 11
117.763
 21
15.135
 31
0.0
  0
LINE
  8
0
 62
     0
 10
117.763
 20
15.135
 30
0.0
 11
116.038
 21
15.135
 31
0.0
  0
LINE
  8
0
 62
     0
 10
116.038
 20
15.135
 30
0.0
 11
116.038
 21
16.0569
 31
0.0
  0
LINE
  8
0
 62
     0
 10
116.038
 20
16.0569
 30
0.0
 11
112.737
 21
16.0569
 31
0.0
  0
LINE
  8
0
 62
     0
 10
112.737
 20
16.0569
 30
0.0
 11
112.737
 21
15.135
 31
0.0
  0
LINE
  8
0
 62
     0
 10
112.737
 20
15.135
 30
0.0
 11
111.014
 21
15.135
 31
0.0
  0
LINE
  8
0
 62
     0
 10
111.014
 20
15.135
 30
0.0
 11
111.014
 21
11.9049
 31
0.0
  0
LINE
  8
0
 62
     0
 10
111.014
 20
11.9049
 30
0.0
 11
109.488
 21
11.9049
 31
0.0
  0
LINE
  8
0
 62
     0
 10
109.488
 20
11.9049
 30
0.0
 11
109.488
 21
16.6054
 31
0.0
  0
LINE
  8
0
 62
     0
 10
109.488
 20
16.6054
 30
0.0
 11
95.4885
 21
16.6054
 31
0.0
  0
LINE
  8
0
 62
     0
 10
2.61965
 20
16.6054
 30
0.0
 11
16.6192
 21
16.6054
 31
0.0
  0
LINE
  8
0
 62
     0
 10
16.6192
 20
16.6054
 30
0.0
 11
16.6192
 21
2.60587
 31
0.0
  0
LINE
  8
0
 62
     0
 10
16.6192
 20
2.60587
 30
0.0
 11
2.61965
 21
2.60587
 31
0.0
  0
LINE
  8
0
 62
     0
 10
2.61965
 20
2.60587
 30
0.0
 11
2.61965
 21
16.6054
 31
0.0
  0
LINE
  8
0
 62
     0
 10
21.6697
 20
16.6054
 30
0.0
 11
35.669
 21
16.6054
 31
0.0
  0
LINE
  8
0
 62
     0
 10
35.669
 20
16.6054
 30
0.0
 11
35.669
 21
2.60587
 31
0.0
  0
LINE
  8
0
 62
     0
 10
35.669
 20
2.60587
 30
0.0
 11
21.6697
 21
2.60587
 31
0.0
  0
LINE
  8
0
 62
     0
 10
21.6697
 20
2.60587
 30
0.0
 11
21.6697
 21
16.6054
 31
0.0
  0
LINE
  8
0
 62
     0
 10
40.7197
 20
16.6054
 30
0.0
 11
54.719
 21
16.6054
 31
0.0
  0
LINE
  8
0
 62
     0
 10
54.719
 20
16.6054
 30
0.0
 11
54.719
 21
2.60587
 31
0.0
  0
LINE
  8
0
 62
     0
 10
54.719
 20
2.60587
 30
0.0
 11
40.7197
 21
2.60587
 31
0.0
  0
LINE
  8
0
 62
     0
 10
40.7197
 20
2.60587
 30
0.0
 11
40.7197
 21
16.6054
 31
0.0
  0
LINE
  8
0
 62
     0
 10
59.7697
 20
16.6054
 30
0.0
 11
73.769
 21
16.6054
 31
0.0
  0
LINE
  8
0
 62
     0
 10
73.769
 20
16.6054
 30
0.0
 11
73.769
 21
2.60587
 31
0.0
  0
LINE
  8
0
 62
     0
 10
73.769
 20
2.60587
 30
0.0
 11
59.7697
 21
2.60587
 31
0.0
  0
LINE
  8
0
 62
     0
 10
59.7697
 20
2.60587
 30
0.0
 11
59.7697
 21
16.6054
 31
0.0
  0
LINE
  8
0
 62
     0
 10
133.588
 20
16.6054
 30
0.0
 11
147.588
 21
16.6054
 31
0.0
  0
LINE
  8
0
 62
     0
 10
147.588
 20
16.6054
 30
0.0
 11
147.588
 21
2.60587
 31
0.0
  0
LINE
  8
0
 62
     0
 10
147.588
 20
2.60587
 30
0.0
 11
133.588
 21
2.60587
 31
0.0
  0
LINE
  8
0
 62
     0
 10
133.588
 20
2.60587
 30
0.0
 11
133.588
 21
16.6054
 31
0.0
  0
LINE
  8
0
 62
     0
 10
155.02
 20
16.6054
 30
0.0
 11
169.019
 21
16.6054
 31
0.0
  0
LINE
  8
0
 62
     0
 10
169.019
 20
16.6054
 30
0.0
 11
169.019
 21
2.60587
 31
0.0
  0
LINE
  8
0
 62
     0
 10
169.019
 20
2.60587
 30
0.0
 11
155.02
 21
2.60587
 31
0.0
  0
LINE
  8
0
 62
     0
 10
155.02
 20
2.60587
 30
0.0
 11
155.02
 21
16.6054
 31
0.0
  0
LINE
  8
0
 62
     0
 10
174.07
 20
16.6054
 30
0.0
 11
188.069
 21
16.6054
 31
0.0
  0
LINE
  8
0
 62
     0
 10
188.069
 20
16.6054
 30
0.0
 11
188.069
 21
2.60587
 31
0.0
  0
LINE
  8
0
 62
     0
 10
188.069
 20
2.60587
 30
0.0
 11
174.07
 21
2.60587
 31
0.0
  0
LINE
  8
0
 62
     0
 10
174.07
 20
2.60587
 30
0.0
 11
174.07
 21
16.6054
 31
0.0
  0
LINE
  8
0
 62
     0
 10
193.12
 20
16.6054
 30
0.0
 11
207.119
 21
16.6054
 31
0.0
  0
LINE
  8
0
 62
     0
 10
207.119
 20
16.6054
 30
0.0
 11
207.119
 21
2.60587
 31
0.0
  0
LINE
  8
0
 62
     0
 10
207.119
 20
2.60587
 30
0.0
 11
193.12
 21
2.60587
 31
0.0
  0
LINE
  8
0
 62
     0
 10
193.12
 20
2.60587
 30
0.0
 11
193.12
 21
16.6054
 31
0.0
  0
LINE
  8
0
 62
     0
 10
212.17
 20
16.6054
 30
0.0
 11
226.169
 21
16.6054
 31
0.0
  0
LINE
  8
0
 62
     0
 10
226.169
 20
16.6054
 30
0.0
 11
226.169
 21
2.60587
 31
0.0
  0
LINE
  8
0
 62
     0
 10
226.169
 20
2.60587
 30
0.0
 11
212.17
 21
2.60587
 31
0.0
  0
LINE
  8
0
 62
     0
 10
212.17
 20
2.60587
 30
0.0
 11
212.17
 21
16.6054
 31
0.0
  0
LINE
  8
0
 62
     0
 10
2.61965
 20
35.6553
 30
0.0
 11
16.6192
 21
35.6553
 31
0.0
  0
LINE
  8
0
 62
     0
 10
16.6192
 20
35.6553
 30
0.0
 11
16.6192
 21
21.6559
 31
0.0
  0
LINE
  8
0
 62
     0
 10
16.6192
 20
21.6559
 30
0.0
 11
2.61965
 21
21.6559
 31
0.0
  0
LINE
  8
0
 62
     0
 10
2.61965
 20
21.6559
 30
0.0
 11
2.61965
 21
35.6553
 31
0.0
  0
LINE
  8
0
 62
     0
 10
21.6697
 20
35.6553
 30
0.0
 11
35.669
 21
35.6553
 31
0.0
  0
LINE
  8
0
 62
     0
 10
35.669
 20
35.6553
 30
0.0
 11
35.669
 21
21.6559
 31
0.0
  0
LINE
  8
0
 62
     0
 10
35.669
 20
21.6559
 30
0.0
 11
21.6697
 21
21.6559
 31
0.0
  0
LINE
  8
0
 62
     0
 10
21.6697
 20
21.6559
 30
0.0
 11
21.6697
 21
35.6553
 31
0.0
  0
LINE
  8
0
 62
     0
 10
40.7197
 20
35.6553
 30
0.0
 11
54.719
 21
35.6553
 31
0.0
  0
LINE
  8
0
 62
     0
 10
54.719
 20
35.6553
 30
0.0
 11
54.719
 21
21.6559
 31
0.0
  0
LINE
  8
0
 62
     0
 10
54.719
 20
21.6559
 30
0.0
 11
40.7197
 21
21.6559
 31
0.0
  0
LINE
  8
0
 62
     0
 10
40.7197
 20
21.6559
 30
0.0
 11
40.7197
 21
35.6553
 31
0.0
  0
LINE
  8
0
 62
     0
 10
59.7697
 20
35.6553
 30
0.0
 11
73.769
 21
35.6553
 31
0.0
  0
LINE
  8
0
 62
     0
 10
73.769
 20
35.6553
 30
0.0
 11
73.769
 21
21.6559
 31
0.0
  0
LINE
  8
0
 62
     0
 10
73.769
 20
21.6559
 30
0.0
 11
59.7697
 21
21.6559
 31
0.0
  0
LINE
  8
0
 62
     0
 10
59.7697
 20
21.6559
 30
0.0
 11
59.7697
 21
35.6553
 31
0.0
  0
LINE
  8
0
 62
     0
 10
78.8197
 20
35.6553
 30
0.0
 11
92.819
 21
35.6553
 31
0.0
  0
LINE
  8
0
 62
     0
 10
92.819
 20
35.6553
 30
0.0
 11
92.819
 21
21.6559
 31
0.0
  0
LINE
  8
0
 62
     0
 10
92.819
 20
21.6559
 30
0.0
 11
78.8197
 21
21.6559
 31
0.0
  0
LINE
  8
0
 62
     0
 10
78.8197
 20
21.6559
 30
0.0
 11
78.8197
 21
35.6553
 31
0.0
  0
LINE
  8
0
 62
     0
 10
97.8683
 20
35.6553
 30
0.0
 11
111.869
 21
35.6553
 31
0.0
  0
LINE
  8
0
 62
     0
 10
111.869
 20
35.6553
 30
0.0
 11
111.869
 21
21.6559
 31
0.0
  0
LINE
  8
0
 62
     0
 10
111.869
 20
21.6559
 30
0.0
 11
97.8683
 21
21.6559
 31
0.0
  0
LINE
  8
0
 62
     0
 10
97.8683
 20
21.6559
 30
0.0
 11
97.8683
 21
35.6553
 31
0.0
  0
LINE
  8
0
 62
     0
 10
116.918
 20
35.6553
 30
0.0
 11
130.919
 21
35.6553
 31
0.0
  0
LINE
  8
0
 62
     0
 10
130.919
 20
35.6553
 30
0.0
 11
130.919
 21
21.6559
 31
0.0
  0
LINE
  8
0
 62
     0
 10
130.919
 20
21.6559
 30
0.0
 11
116.918
 21
21.6559
 31
0.0
  0
LINE
  8
0
 62
     0
 10
116.918
 20
21.6559
 30
0.0
 11
116.918
 21
35.6553
 31
0.0
  0
LINE
  8
0
 62
     0
 10
135.97
 20
35.6553
 30
0.0
 11
149.969
 21
35.6553
 31
0.0
  0
LINE
  8
0
 62
     0
 10
149.969
 20
35.6553
 30
0.0
 11
149.969
 21
21.6559
 31
0.0
  0
LINE
  8
0
 62
     0
 10
149.969
 20
21.6559
 30
0.0
 11
135.97
 21
21.6559
 31
0.0
  0
LINE
  8
0
 62
     0
 10
135.97
 20
21.6559
 30
0.0
 11
135.97
 21
35.6553
 31
0.0
  0
LINE
  8
0
 62
     0
 10
155.02
 20
35.6553
 30
0.0
 11
169.019
 21
35.6553
 31
0.0
  0
LINE
  8
0
 62
     0
 10
169.019
 20
35.6553
 30
0.0
 11
169.019
 21
21.6559
 31
0.0
  0
LINE
  8
0
 62
     0
 10
169.019
 20
21.6559
 30
0.0
 11
155.02
 21
21.6559
 31
0.0
  0
LINE
  8
0
 62
     0
 10
155.02
 20
21.6559
 30
0.0
 11
155.02
 21
35.6553
 31
0.0
  0
LINE
  8
0
 62
     0
 10
174.07
 20
35.6553
 30
0.0
 11
188.069
 21
35.6553
 31
0.0
  0
LINE
  8
0
 62
     0
 10
188.069
 20
35.6553
 30
0.0
 11
188.069
 21
21.6559
 31
0.0
  0
LINE
  8
0
 62
     0
 10
188.069
 20
21.6559
 30
0.0
 11
174.07
 21
21.6559
 31
0.0
  0
LINE
  8
0
 62
     0
 10
174.07
 20
21.6559
 30
0.0
 11
174.07
 21
35.6553
 31
0.0
  0
LINE
  8
0
 62
     0
 10
193.12
 20
35.6553
 30
0.0
 11
207.119
 21
35.6553
 31
0.0
  0
LINE
  8
0
 62
     0
 10
207.119
 20
35.6553
 30
0.0
 11
207.119
 21
21.6559
 31
0.0
  0
LINE
  8
0
 62
     0
 10
207.119
 20
21.6559
 30
0.0
 11
193.12
 21
21.6559
 31
0.0
  0
LINE
  8
0
 62
     0
 10
193.12
 20
21.6559
 30
0.0
 11
193.12
 21
35.6553
 31
0.0
  0
LINE
  8
0
 62
     0
 10
212.17
 20
35.6553
 30
0.0
 11
226.169
 21
35.6553
 31
0.0
  0
LINE
  8
0
 62
     0
 10
226.169
 20
35.6553
 30
0.0
 11
226.169
 21
21.6559
 31
0.0
  0
LINE
  8
0
 62
     0
 10
226.169
 20
21.6559
 30
0.0
 11
212.17
 21
21.6559
 31
0.0
  0
LINE
  8
0
 62
     0
 10
212.17
 20
21.6559
 30
0.0
 11
212.17
 21
35.6553
 31
0.0
  0
LINE
  8
0
 62
     0
 10
2.61965
 20
54.7053
 30
0.0
 11
16.6192
 21
54.7053
 31
0.0
  0
LINE
  8
0
 62
     0
 10
16.6192
 20
54.7053
 30
0.0
 11
16.6192
 21
40.706
 31
0.0
  0
LINE
  8
0
 62
     0
 10
16.6192
 20
40.706
 30
0.0
 11
2.61965
 21
40.706
 31
0.0
  0
LINE
  8
0
 62
     0
 10
2.61965
 20
40.706
 30
0.0
 11
2.61965
 21
54.7053
 31
0.0
  0
LINE
  8
0
 62
     0
 10
21.6697
 20
54.7053
 30
0.0
 11
35.669
 21
54.7053
 31
0.0
  0
LINE
  8
0
 62
     0
 10
35.669
 20
54.7053
 30
0.0
 11
35.669
 21
40.706
 31
0.0
  0
LINE
  8
0
 62
     0
 10
35.669
 20
40.706
 30
0.0
 11
21.6697
 21
40.706
 31
0.0
  0
LINE
  8
0
 62
     0
 10
21.6697
 20
40.706
 30
0.0
 11
21.6697
 21
54.7053
 31
0.0
  0
LINE
  8
0
 62
     0
 10
40.7197
 20
54.7053
 30
0.0
 11
54.719
 21
54.7053
 31
0.0
  0
LINE
  8
0
 62
     0
 10
54.719
 20
54.7053
 30
0.0
 11
54.719
 21
40.706
 31
0.0
  0
LINE
  8
0
 62
     0
 10
54.719
 20
40.706
 30
0.0
 11
40.7197
 21
40.706
 31
0.0
  0
LINE
  8
0
 62
     0
 10
40.7197
 20
40.706
 30
0.0
 11
40.7197
 21
54.7053
 31
0.0
  0
LINE
  8
0
 62
     0
 10
59.7697
 20
54.7053
 30
0.0
 11
73.769
 21
54.7053
 31
0.0
  0
LINE
  8
0
 62
     0
 10
73.769
 20
54.7053
 30
0.0
 11
73.769
 21
40.706
 31
0.0
  0
LINE
  8
0
 62
     0
 10
73.769
 20
40.706
 30
0.0
 11
59.7697
 21
40.706
 31
0.0
  0
LINE
  8
0
 62
     0
 10
59.7697
 20
40.706
 30
0.0
 11
59.7697
 21
54.7053
 31
0.0
  0
LINE
  8
0
 62
     0
 10
78.8197
 20
54.7053
 30
0.0
 11
92.819
 21
54.7053
 31
0.0
  0
LINE
  8
0
 62
     0
 10
92.819
 20
54.7053
 30
0.0
 11
92.819
 21
40.706
 31
0.0
  0
LINE
  8
0
 62
     0
 10
92.819
 20
40.706
 30
0.0
 11
78.8197
 21
40.706
 31
0.0
  0
LINE
  8
0
 62
     0
 10
78.8197
 20
40.706
 30
0.0
 11
78.8197
 21
54.7053
 31
0.0
  0
LINE
  8
0
 62
     0
 10
97.8683
 20
54.7053
 30
0.0
 11
111.869
 21
54.7053
 31
0.0
  0
LINE
  8
0
 62
     0
 10
111.869
 20
54.7053
 30
0.0
 11
111.869
 21
40.706
 31
0.0
  0
LINE
  8
0
 62
     0
 10
111.869
 20
40.706
 30
0.0
 11
97.8683
 21
40.706
 31
0.0
  0
LINE
  8
0
 62
     0
 10
97.8683
 20
40.706
 30
0.0
 11
97.8683
 21
54.7053
 31
0.0
  0
LINE
  8
0
 62
     0
 10
116.918
 20
54.7053
 30
0.0
 11
130.919
 21
54.7053
 31
0.0
  0
LINE
  8
0
 62
     0
 10
130.919
 20
54.7053
 30
0.0
 11
130.919
 21
40.706
 31
0.0
  0
LINE
  8
0
 62
     0
 10
130.919
 20
40.706
 30
0.0
 11
116.918
 21
40.706
 31
0.0
  0
LINE
  8
0
 62
     0
 10
116.918
 20
40.706
 30
0.0
 11
116.918
 21
54.7053
 31
0.0
  0
LINE
  8
0
 62
     0
 10
135.97
 20
54.7053
 30
0.0
 11
149.969
 21
54.7053
 31
0.0
  0
LINE
  8
0
 62
     0
 10
149.969
 20
54.7053
 30
0.0
 11
149.969
 21
40.706
 31
0.0
  0
LINE
  8
0
 62
     0
 10
149.969
 20
40.706
 30
0.0
 11
135.97
 21
40.706
 31
0.0
  0
LINE
  8
0
 62
     0
 10
135.97
 20
40.706
 30
0.0
 11
135.97
 21
54.7053
 31
0.0
  0
LINE
  8
0
 62
     0
 10
155.02
 20
54.7053
 30
0.0
 11
169.019
 21
54.7053
 31
0.0
  0
LINE
  8
0
 62
     0
 10
169.019
 20
54.7053
 30
0.0
 11
169.019
 21
40.706
 31
0.0
  0
LINE
  8
0
 62
     0
 10
169.019
 20
40.706
 30
0.0
 11
155.02
 21
40.706
 31
0.0
  0
LINE
  8
0
 62
     0
 10
155.02
 20
40.706
 30
0.0
 11
155.02
 21
54.7053
 31
0.0
  0
LINE
  8
0
 62
     0
 10
174.07
 20
54.7053
 30
0.0
 11
188.069
 21
54.7053
 31
0.0
  0
LINE
  8
0
 62
     0
 10
188.069
 20
54.7053
 30
0.0
 11
188.069
 21
40.706
 31
0.0
  0
LINE
  8
0
 62
     0
 10
188.069
 20
40.706
 30
0.0
 11
174.07
 21
40.706
 31
0.0
  0
LINE
  8
0
 62
     0
 10
174.07
 20
40.706
 30
0.0
 11
174.07
 21
54.7053
 31
0.0
  0
LINE
  8
0
 62
     0
 10
193.12
 20
54.7053
 30
0.0
 11
207.119
 21
54.7053
 31
0.0
  0
LINE
  8
0
 62
     0
 10
207.119
 20
54.7053
 30
0.0
 11
207.119
 21
40.706
 31
0.0
  0
LINE
  8
0
 62
     0
 10
207.119
 20
40.706
 30
0.0
 11
193.12
 21
40.706
 31
0.0
  0
LINE
  8
0
 62
     0
 10
193.12
 20
40.706
 30
0.0
 11
193.12
 21
54.7053
 31
0.0
  0
LINE
  8
0
 62
     0
 10
212.17
 20
54.7053
 30
0.0
 11
226.169
 21
54.7053
 31
0.0
  0
LINE
  8
0
 62
     0
 10
226.169
 20
54.7053
 30
0.0
 11
226.169
 21
40.706
 31
0.0
  0
LINE
  8
0
 62
     0
 10
226.169
 20
40.706
 30
0.0
 11
212.17
 21
40.706
 31
0.0
  0
LINE
  8
0
 62
     0
 10
212.17
 20
40.706
 30
0.0
 11
212.17
 21
54.7053
 31
0.0
  0
LINE
  8
0
 62
     0
 10
2.61965
 20
73.7553
 30
0.0
 11
16.6192
 21
73.7553
 31
0.0
  0
LINE
  8
0
 62
     0
 10
16.6192
 20
73.7553
 30
0.0
 11
16.6192
 21
59.756
 31
0.0
  0
LINE
  8
0
 62
     0
 10
16.6192
 20
59.756
 30
0.0
 11
2.61965
 21
59.756
 31
0.0
  0
LINE
  8
0
 62
     0
 10
2.61965
 20
59.756
 30
0.0
 11
2.61965
 21
73.7553
 31
0.0
  0
LINE
  8
0
 62
     0
 10
21.6697
 20
73.7553
 30
0.0
 11
35.669
 21
73.7553
 31
0.0
  0
LINE
  8
0
 62
     0
 10
35.669
 20
73.7553
 30
0.0
 11
35.669
 21
59.756
 31
0.0
  0
LINE
  8
0
 62
     0
 10
35.669
 20
59.756
 30
0.0
 11
21.6697
 21
59.756
 31
0.0
  0
LINE
  8
0
 62
     0
 10
21.6697
 20
59.756
 30
0.0
 11
21.6697
 21
73.7553
 31
0.0
  0
LINE
  8
0
 62
     0
 10
40.7197
 20
73.7553
 30
0.0
 11
54.719
 21
73.7553
 31
0.0
  0
LINE
  8
0
 62
     0
 10
54.719
 20
73.7553
 30
0.0
 11
54.719
 21
59.756
 31
0.0
  0
LINE
  8
0
 62
     0
 10
54.719
 20
59.756
 30
0.0
 11
40.7197
 21
59.756
 31
0.0
  0
LINE
  8
0
 62
     0
 10
40.7197
 20
59.756
 30
0.0
 11
40.7197
 21
73.7553
 31
0.0
  0
LINE
  8
0
 62
     0
 10
59.7697
 20
73.7553
 30
0.0
 11
73.769
 21
73.7553
 31
0.0
  0
LINE
  8
0
 62
     0
 10
73.769
 20
73.7553
 30
0.0
 11
73.769
 21
59.756
 31
0.0
  0
LINE
  8
0
 62
     0
 10
73.769
 20
59.756
 30
0.0
 11
59.7697
 21
59.756
 31
0.0
  0
LINE
  8
0
 62
     0
 10
59.7697
 20
59.756
 30
0.0
 11
59.7697
 21
73.7553
 31
0.0
  0
LINE
  8
0
 62
     0
 10
78.8197
 20
73.7553
 30
0.0
 11
92.819
 21
73.7553
 31
0.0
  0
LINE
  8
0
 62
     0
 10
92.819
 20
73.7553
 30
0.0
 11
92.819
 21
59.756
 31
0.0
  0
LINE
  8
0
 62
     0
 10
92.819
 20
59.756
 30
0.0
 11
78.8197
 21
59.756
 31
0.0
  0
LINE
  8
0
 62
     0
 10
78.8197
 20
59.756
 30
0.0
 11
78.8197
 21
73.7553
 31
0.0
  0
LINE
  8
0
 62
     0
 10
97.8683
 20
73.7553
 30
0.0
 11
111.869
 21
73.7553
 31
0.0
  0
LINE
  8
0
 62
     0
 10
111.869
 20
73.7553
 30
0.0
 11
111.869
 21
59.756
 31
0.0
  0
LINE
  8
0
 62
     0
 10
111.869
 20
59.756
 30
0.0
 11
97.8683
 21
59.756
 31
0.0
  0
LINE
  8
0
 62
     0
 10
97.8683
 20
59.756
 30
0.0
 11
97.8683
 21
73.7553
 31
0.0
  0
LINE
  8
0
 62
     0
 10
116.918
 20
73.7553
 30
0.0
 11
130.919
 21
73.7553
 31
0.0
  0
LINE
  8
0
 62
     0
 10
130.919
 20
73.7553
 30
0.0
 11
130.919
 21
59.756
 31
0.0
  0
LINE
  8
0
 62
     0
 10
130.919
 20
59.756
 30
0.0
 11
116.918
 21
59.756
 31
0.0
  0
LINE
  8
0
 62
     0
 10
116.918
 20
59.756
 30
0.0
 11
116.918
 21
73.7553
 31
0.0
  0
LINE
  8
0
 62
     0
 10
135.97
 20
73.7553
 30
0.0
 11
149.969
 21
73.7553
 31
0.0
  0
LINE
  8
0
 62
     0
 10
149.969
 20
73.7553
 30
0.0
 11
149.969
 21
59.756
 31
0.0
  0
LINE
  8
0
 62
     0
 10
149.969
 20
59.756
 30
0.0
 11
135.97
 21
59.756
 31
0.0
  0
LINE
  8
0
 62
     0
 10
135.97
 20
59.756
 30
0.0
 11
135.97
 21
73.7553
 31
0.0
  0
LINE
  8
0
 62
     0
 10
155.02
 20
73.7553
 30
0.0
 11
169.019
 21
73.7553
 31
0.0
  0
LINE
  8
0
 62
     0
 10
169.019
 20
73.7553
 30
0.0
 11
169.019
 21
59.756
 31
0.0
  0
LINE
  8
0
 62
     0
 10
169.019
 20
59.756
 30
0.0
 11
155.02
 21
59.756
 31
0.0
  0
LINE
  8
0
 62
     0
 10
155.02
 20
59.756
 30
0.0
 11
155.02
 21
73.7553
 31
0.0
  0
LINE
  8
0
 62
     0
 10
174.07
 20
73.7553
 30
0.0
 11
188.069
 21
73.7553
 31
0.0
  0
LINE
  8
0
 62
     0
 10
188.069
 20
73.7553
 30
0.0
 11
188.069
 21
59.756
 31
0.0
  0
LINE
  8
0
 62
     0
 10
188.069
 20
59.756
 30
0.0
 11
174.07
 21
59.756
 31
0.0
  0
LINE
  8
0
 62
     0
 10
174.07
 20
59.756
 30
0.0
 11
174.07
 21
73.7553
 31
0.0
  0
LINE
  8
0
 62
     0
 10
193.12
 20
73.7553
 30
0.0
 11
207.119
 21
73.7553
 31
0.0
  0
LINE
  8
0
 62
     0
 10
207.119
 20
73.7553
 30
0.0
 11
207.119
 21
59.756
 31
0.0
  0
LINE
  8
0
 62
     0
 10
207.119
 20
59.756
 30
0.0
 11
193.12
 21
59.756
 31
0.0
  0
LINE
  8
0
 62
     0
 10
193.12
 20
59.756
 30
0.0
 11
193.12
 21
73.7553
 31
0.0
  0
LINE
  8
0
 62
     0
 10
212.17
 20
73.7553
 30
0.0
 11
226.169
 21
73.7553
 31
0.0
  0
LINE
  8
0
 62
     0
 10
226.169
 20
73.7553
 30
0.0
 11
226.169
 21
59.756
 31
0.0
  0
LINE
  8
0
 62
     0
 10
226.169
 20
59.756
 30
0.0
 11
212.17
 21
59.756
 31
0.0
  0
LINE
  8
0
 62
     0
 10
212.17
 20
59.756
 30
0.0
 11
212.17
 21
73.7553
 31
0.0
  0
ENDSEC
  0
EOF
